# OpenSCAD obj exporter
v -0.125 0 -0.085754
v -0.125 0.0123955 -0.0856976
v -0.125 0.0249455 -0.0855268
v -0.105943 0 -0.0885324
v -0.105617 0.0104734 -0.0885324
v -0.104639 0.0208822 -0.0885324
v -0.125 0.0378124 -0.0852361
v -0.125 0.0511749 -0.0848161
v -0.103016 0.0311623 -0.0885324
v -0.100758 0.0412503 -0.0885324
v -0.097879 0.0510839 -0.0885324
v -0.0761439 0 -0.0917426
v -0.0759092 0.00752747 -0.0917426
v -0.0752065 0.0150085 -0.0917426
v -0.0740401 0.0223971 -0.0917426
v -0.0724172 0.0296475 -0.0917426
v -0.0703478 0.0367152 -0.0917426
v -0.0678447 0.0435565 -0.0917426
v -0.0649234 0.0501292 -0.0917426
v -0.125 0.0644776 -0.0842829
v -0.124807 0.0651378 -0.0842829
v -0.125 0.0652386 -0.084244
v -0.125 0.0802503 -0.0833162
v -0.120366 0.0772752 -0.0842829
v -0.115183 0.0889361 -0.0842829
v -0.0943963 0.0606026 -0.0885324
v -0.10929 0.100049 -0.0842829
v -0.102723 0.110545 -0.0842829
v -0.125 0.0965161 -0.0821429
v -0.125 0.11443 -0.0806737
v -0.0903316 0.0697477 -0.0885324
v -0.0857101 0.0784627 -0.0885324
v -0.08056 0.086694 -0.0885324
v -0.0749133 0.0943908 -0.0885324
v -0.0688048 0.101506 -0.0885324
v -0.045875 0 -0.0938938
v -0.0457335 0.00453513 -0.0938938
v -0.0453102 0.00904229 -0.0938938
v -0.0446074 0.0134937 -0.0938938
v -0.0436297 0.0178619 -0.0938938
v -0.0423829 0.02212 -0.0938938
v -0.0408749 0.0262418 -0.0938938
v -0.0616017 0.0563929 -0.0917426
v -0.0391148 0.0302017 -0.0938938
v -0.0371136 0.0339754 -0.0938938
v -0.0348836 0.0375397 -0.0938938
v -0.0324385 0.0408725 -0.0938938
v -0.0153231 0 -0.0949727
v -0.0152759 0.00151482 -0.0949727
v -0.0151345 0.00302031 -0.0949727
v -0.0148998 0.00450717 -0.0949727
v -0.0145732 0.00596624 -0.0949727
v -0.0141567 0.00738853 -0.0949727
v -0.013653 0.00876527 -0.0949727
v -0.0130651 0.010088 -0.0949727
v -0.0123967 0.0113485 -0.0949727
v -0.0116518 0.012539 -0.0949727
v -0.0108351 0.0136522 -0.0949727
v -0.00995158 0.0146813 -0.0949727
v -0.00900672 0.0156198 -0.0949727
v -0.00800632 0.0164621 -0.0949727
v -0.00695656 0.0172028 -0.0949727
v -0.00586391 0.0178375 -0.0949727
v -0.00473511 0.0183622 -0.0949727
v -0.00357712 0.0187737 -0.0949727
v -0.00239707 0.0190695 -0.0949727
v -0.00120224 0.0192476 -0.0949727
v -0.0297934 0.0439533 -0.0938938
v -0.0269646 0.0467632 -0.0938938
v -0.0239696 0.0492847 -0.0938938
v -0.0208268 0.0515024 -0.0938938
v -0.0175556 0.0534025 -0.0938938
v -0.0141761 0.0549734 -0.0938938
v -0.0107093 0.0562054 -0.0938938
v -0.00717642 0.0570908 -0.0938938
v -0.00359931 0.0576243 -0.0938938
v -0.0579003 0.0623089 -0.0917426
v -0.0538419 0.0678408 -0.0917426
v -0.0494515 0.0729544 -0.0917426
v -0.0447563 0.0776182 -0.0917426
v -0.0397851 0.0818034 -0.0917426
v -0.0345686 0.0854844 -0.0917426
v -0.062272 0.107995 -0.0885324
v -0.0553553 0.113818 -0.0885324
v -0.0480973 0.118939 -0.0885324
v -0.029139 0.0886383 -0.0917426
v -0.0235298 0.0912456 -0.0917426
v -0.0177754 0.0932905 -0.0917426
v -0.0119115 0.0947602 -0.0917426
v -0.00597418 0.0956456 -0.0917426
v -0.125 0 0
v -0.0955229 0.120359 -0.0842829
v -0.125 0.132519 -0.0790204
v -0.124253 0.133714 -0.0790204
v -0.125 0.134518 -0.0787958
v -0.115544 0.145585 -0.0790204
v -0.125 0.1575 -0.0759628
v -0.106122 0.156559 -0.0790204
v -0.096046 0.166567 -0.0790204
v -0.0877338 0.129431 -0.0842829
v -0.0794038 0.137705 -0.0842829
v -0.0705842 0.145131 -0.0842829
v -0.085378 0.175548 -0.0790204
v -0.125 0.181388 -0.0727774
v -0.123856 0.182721 -0.0727774
v -0.125 0.184409 -0.0722929
v -0.112096 0.194402 -0.0727774
v -0.0996453 0.204884 -0.0727774
v -0.0741835 0.183448 -0.0790204
v -0.0625317 0.190216 -0.0790204
v -0.0865802 0.214103 -0.0727774
v -0.0729813 0.222002 -0.0727774
v -0.125 0.21678 -0.0667407
v -0.125 0.223105 -0.0655922
v -0.113298 0.232957 -0.0655922
v -0.125 0.24 -0.0619547
v -0.116724 0.24 -0.0634548
v -0.103317 0.24 -0.0655922
v -0.0970525 0.24 -0.0664345
v -0.0788978 0.24 -0.0685261
v -0.0405428 0.123328 -0.0885324
v -0.0327383 0.126955 -0.0885324
v -0.0613295 0.151661 -0.0842829
v -0.0516966 0.157256 -0.0842829
v -0.041745 0.161882 -0.0842829
v -0.0315361 0.16551 -0.0842829
v -0.024732 0.1298 -0.0885324
v -0.0165732 0.131845 -0.0885324
v -0.00831223 0.133077 -0.0885324
v -0.0211327 0.168118 -0.0842829
v -0.010599 0.169688 -0.0842829
v -0.0504944 0.195811 -0.0790204
v -0.0381457 0.200199 -0.0790204
v -0.0589324 0.228533 -0.0727774
v -0.0445202 0.233654 -0.0727774
v -0.0457293 0.24 -0.0713532
v -0.0255619 0.203353 -0.0790204
v -0.0128205 0.205253 -0.0790204
v -0.0298335 0.237335 -0.0727774
v -0.0301685 0.24 -0.0721886
v -0.0149629 0.239553 -0.0727774
v -0.0149908 0.24 -0.0726795
v -0.00593339 0.24 -0.0727774
v -0.0618895 0.24 -0.0701461
v -0.125 0.24 0
v 0.0153231 0 -0.0949727
v 0.0152759 0.00151482 -0.0949727
v 0.0151345 0.00302031 -0.0949727
v 0.0148998 0.00450717 -0.0949727
v 0.0145732 0.00596624 -0.0949727
v 0.0141567 0.00738853 -0.0949727
v 0.0116518 0.012539 -0.0949727
v 0.00995158 0.0146813 -0.0949727
v 0.0108351 0.0136522 -0.0949727
v 0.013653 0.00876527 -0.0949727
v 0.0130651 0.010088 -0.0949727
v 0.0123967 0.0113485 -0.0949727
v 0 0.0193072 -0.0949727
v 0.00120224 0.0192476 -0.0949727
v 0.00239707 0.0190695 -0.0949727
v 0.00357712 0.0187737 -0.0949727
v 0.00473511 0.0183622 -0.0949727
v 0.00586391 0.0178375 -0.0949727
v 0.00695656 0.0172028 -0.0949727
v 0.00800632 0.0164621 -0.0949727
v 0.00900672 0.0156198 -0.0949727
v 0 0.0578024 -0.0938938
v 0.00359931 0.0576243 -0.0938938
v 0.00717642 0.0570908 -0.0938938
v 0.0107093 0.0562054 -0.0938938
v 0.0141761 0.0549734 -0.0938938
v 0.0297934 0.0439533 -0.0938938
v 0.0208268 0.0515024 -0.0938938
v 0.0175556 0.0534025 -0.0938938
v 0.0269646 0.0467632 -0.0938938
v 0.0239696 0.0492847 -0.0938938
v 0.045875 0 -0.0938938
v 0.0457335 0.00453513 -0.0938938
v 0.0453102 0.00904229 -0.0938938
v 0.0446074 0.0134937 -0.0938938
v 0.0423829 0.02212 -0.0938938
v 0.0436297 0.0178619 -0.0938938
v 0.0408749 0.0262418 -0.0938938
v 0.0371136 0.0339754 -0.0938938
v 0.0324385 0.0408725 -0.0938938
v 0.0348836 0.0375397 -0.0938938
v 0.0391148 0.0302017 -0.0938938
v 0.0616017 0.0563929 -0.0917426
v 0.029139 0.0886383 -0.0917426
v 0 0.0959414 -0.0917426
v 0.00597418 0.0956456 -0.0917426
v 0.0119115 0.0947602 -0.0917426
v 0.0177754 0.0932905 -0.0917426
v 0.0235298 0.0912456 -0.0917426
v 0.0345686 0.0854844 -0.0917426
v 0.0397851 0.0818034 -0.0917426
v 0.0447563 0.0776182 -0.0917426
v 0.0494515 0.0729544 -0.0917426
v 0.0538419 0.0678408 -0.0917426
v 0.0579003 0.0623089 -0.0917426
v 0.0480973 0.118939 -0.0885324
v 0.062272 0.107995 -0.0885324
v 0.0553553 0.113818 -0.0885324
v 0.0761439 0 -0.0917426
v 0.0759092 0.00752747 -0.0917426
v 0.0740401 0.0223971 -0.0917426
v 0.0752065 0.0150085 -0.0917426
v 0.0724172 0.0296475 -0.0917426
v 0.0678447 0.0435565 -0.0917426
v 0.0703478 0.0367152 -0.0917426
v 0.0649234 0.0501292 -0.0917426
v 0.105943 0 -0.0885324
v 0.105617 0.0104734 -0.0885324
v 0.104639 0.0208822 -0.0885324
v 0.125 0 -0.085754
v 0.125 0.0123955 -0.0856976
v 0.125 0.0249455 -0.0855268
v 0.100758 0.0412503 -0.0885324
v 0.103016 0.0311623 -0.0885324
v 0.097879 0.0510839 -0.0885324
v 0.125 0.0378124 -0.0852361
v 0.125 0.0511749 -0.0848161
v 0.0903316 0.0697477 -0.0885324
v 0.0857101 0.0784627 -0.0885324
v 0.08056 0.086694 -0.0885324
v 0.0688048 0.101506 -0.0885324
v 0.0749133 0.0943908 -0.0885324
v 0.0943963 0.0606026 -0.0885324
v 0.125 0.0644776 -0.0842829
v 0.124807 0.0651378 -0.0842829
v 0.125 0.0652386 -0.084244
v 0.115183 0.0889361 -0.0842829
v 0.120366 0.0772752 -0.0842829
v 0.125 0.0802503 -0.0833162
v 0.10929 0.100049 -0.0842829
v 0.102723 0.110545 -0.0842829
v 0.125 0.0965161 -0.0821429
v 0.125 0.11443 -0.0806737
v 0.125 0 0
v 0 0.133489 -0.0885324
v 0.00831223 0.133077 -0.0885324
v 0.0165732 0.131845 -0.0885324
v 0.024732 0.1298 -0.0885324
v 0 0.170213 -0.0842829
v 0.010599 0.169688 -0.0842829
v 0.0211327 0.168118 -0.0842829
v 0.0327383 0.126955 -0.0885324
v 0.0405428 0.123328 -0.0885324
v 0.041745 0.161882 -0.0842829
v 0.0315361 0.16551 -0.0842829
v 0.0516966 0.157256 -0.0842829
v 0.0613295 0.151661 -0.0842829
v 0 0.205888 -0.0790204
v 0.0128205 0.205253 -0.0790204
v 0.0255619 0.203353 -0.0790204
v 0 0.24 -0.0728307
v 0.00593339 0.24 -0.0727774
v 0.0149629 0.239553 -0.0727774
v 0.0149908 0.24 -0.0726795
v 0.0298335 0.237335 -0.0727774
v 0.0301685 0.24 -0.0721886
v 0.0381457 0.200199 -0.0790204
v 0.0504944 0.195811 -0.0790204
v 0.0445202 0.233654 -0.0727774
v 0.0457293 0.24 -0.0713532
v 0.0589324 0.228533 -0.0727774
v 0.0618895 0.24 -0.0701461
v 0.0705842 0.145131 -0.0842829
v 0.0877338 0.129431 -0.0842829
v 0.0794038 0.137705 -0.0842829
v 0.085378 0.175548 -0.0790204
v 0.0955229 0.120359 -0.0842829
v 0.125 0.132519 -0.0790204
v 0.124253 0.133714 -0.0790204
v 0.125 0.134518 -0.0787958
v 0.115544 0.145585 -0.0790204
v 0.106122 0.156559 -0.0790204
v 0.096046 0.166567 -0.0790204
v 0.125 0.1575 -0.0759628
v 0.0625317 0.190216 -0.0790204
v 0.0741835 0.183448 -0.0790204
v 0.0729813 0.222002 -0.0727774
v 0.0865802 0.214103 -0.0727774
v 0.0996453 0.204884 -0.0727774
v 0.112096 0.194402 -0.0727774
v 0.125 0.181388 -0.0727774
v 0.123856 0.182721 -0.0727774
v 0.125 0.184409 -0.0722929
v 0.0788978 0.24 -0.0685261
v 0.0970525 0.24 -0.0664345
v 0.103317 0.24 -0.0655922
v 0.125 0.21678 -0.0667407
v 0.125 0.223105 -0.0655922
v 0.113298 0.232957 -0.0655922
v 0.116724 0.24 -0.0634548
v 0.125 0.24 -0.0619547
v 0.125 0.24 0
f  4 1 2
f  4 2 5
f  5 2 3
f  6 3 7
f  5 3 6
f  6 7 9
f  4 5 13
f  5 6 14
f  6 9 15
f  9 7 8
f  9 8 10
f  10 8 20
f  10 20 11
f  11 21 26
f  4 13 12
f  5 14 13
f  6 15 14
f  9 16 15
f  12 13 37
f  13 14 38
f  39 14 15
f  15 16 40
f  9 10 16
f  10 11 17
f  10 17 16
f  11 18 17
f  11 26 18
f  18 26 19
f  19 31 43
f  21 20 22
f  21 22 23
f  21 23 24
f  11 20 21
f  21 24 26
f  24 23 25
f  25 23 29
f  26 24 31
f  31 24 25
f  25 27 32
f  31 25 32
f  25 29 27
f  27 28 33
f  27 29 30
f  28 30 93
f  27 30 28
f  19 26 31
f  43 31 32
f  32 27 33
f  43 32 77
f  77 33 78
f  32 33 77
f  78 33 34
f  79 34 35
f  28 34 33
f  28 92 34
f  34 92 35
f  35 92 100
f  35 100 83
f  83 101 84
f  12 37 36
f  13 38 37
f  38 14 39
f  16 17 41
f  39 15 40
f  16 41 40
f  41 17 42
f  36 37 49
f  37 38 50
f  38 39 51
f  39 40 52
f  40 41 53
f  41 42 54
f  42 17 18
f  18 19 44
f  42 18 44
f  19 45 44
f  19 43 45
f  43 77 46
f  47 77 78
f  43 46 45
f  46 77 47
f  47 78 68
f  68 79 69
f  69 80 70
f  36 49 48
f  37 50 49
f  38 51 50
f  39 52 51
f  40 53 52
f  41 54 53
f  55 42 44
f  56 44 45
f  57 45 46
f  54 42 55
f  55 44 56
f  56 45 57
f  57 46 58
f  58 47 59
f  59 68 60
f  48 49 147
f  49 50 148
f  50 51 149
f  51 52 150
f  52 53 151
f  53 54 155
f  54 55 156
f  55 56 157
f  56 57 152
f  57 58 154
f  58 59 153
f  59 60 62
f  60 61 62
f  60 69 61
f  61 70 62
f  62 71 63
f  63 72 64
f  59 62 63
f  59 63 64
f  59 64 65
f  59 65 66
f  59 66 67
f  59 67 158
f  59 158 159
f  59 159 160
f  59 160 161
f  59 161 162
f  58 46 47
f  59 47 68
f  60 68 69
f  61 69 70
f  62 70 71
f  63 71 72
f  64 72 73
f  65 73 74
f  64 73 65
f  65 74 66
f  66 75 67
f  67 76 158
f  66 74 75
f  67 75 76
f  76 167 158
f  78 34 79
f  79 35 80
f  80 83 81
f  68 78 79
f  69 79 80
f  70 80 81
f  71 81 82
f  80 35 83
f  81 83 84
f  81 84 82
f  82 85 86
f  82 84 85
f  86 85 121
f  87 121 122
f  70 81 71
f  71 82 72
f  72 86 73
f  73 87 74
f  72 82 86
f  73 86 87
f  74 87 88
f  74 88 75
f  75 89 76
f  76 90 167
f  75 88 89
f  76 89 90
f  90 190 167
f  86 121 87
f  87 122 88
f  88 122 127
f  88 127 89
f  89 127 128
f  89 128 90
f  90 129 190
f  28 93 94
f  94 93 95
f  92 94 96
f  94 95 96
f  96 95 97
f  28 94 92
f  92 96 100
f  100 96 98
f  96 97 98
f  98 97 104
f  98 104 105
f  98 99 101
f  98 105 99
f  99 107 103
f  83 100 101
f  84 101 102
f  100 98 101
f  99 102 101
f  99 103 102
f  103 123 102
f  103 109 123
f  124 109 110
f  105 104 106
f  105 106 107
f  99 105 107
f  103 107 108
f  103 108 109
f  108 111 109
f  111 110 109
f  111 112 110
f  111 120 112
f  112 144 134
f  107 106 113
f  107 113 108
f  108 113 114
f  108 114 115
f  115 114 116
f  115 116 117
f  115 117 118
f  108 115 111
f  115 118 119
f  111 115 119
f  111 119 120
f  112 120 144
f  84 102 85
f  85 123 121
f  85 102 123
f  121 123 124
f  121 124 122
f  122 124 125
f  122 125 127
f  127 125 126
f  123 109 124
f  124 110 125
f  125 132 126
f  127 126 128
f  90 128 129
f  129 240 190
f  128 130 129
f  129 131 240
f  128 126 130
f  129 130 131
f  131 244 240
f  126 133 130
f  125 110 132
f  110 112 132
f  132 134 133
f  126 132 133
f  132 112 134
f  133 134 135
f  134 144 136
f  134 136 135
f  133 135 137
f  137 135 139
f  135 136 140
f  135 140 139
f  130 133 137
f  130 137 131
f  131 137 138
f  131 138 244
f  138 253 244
f  137 139 138
f  139 140 142
f  138 139 141
f  139 142 141
f  138 141 253
f  141 142 143
f  141 256 253
f  141 143 256
f  48 147 146
f  49 148 147
f  50 149 148
f  51 150 149
f  52 151 150
f  56 152 157
f  57 154 152
f  58 153 154
f  59 166 153
f  53 155 151
f  54 156 155
f  55 157 156
f  59 163 164
f  59 164 165
f  59 162 163
f  59 165 166
f  162 174 163
f  164 163 173
f  165 164 176
f  166 165 175
f  151 155 181
f  147 148 178
f  146 147 177
f  148 149 179
f  149 150 180
f  150 151 182
f  152 154 186
f  155 156 183
f  156 157 187
f  157 152 184
f  153 166 172
f  153 185 154
f  156 187 183
f  157 184 187
f  152 186 184
f  158 168 159
f  159 169 160
f  160 170 161
f  162 161 171
f  158 167 168
f  159 168 169
f  160 169 170
f  161 170 171
f  163 174 173
f  162 171 174
f  166 175 172
f  164 173 176
f  165 176 175
f  153 172 185
f  154 185 186
f  147 178 177
f  148 179 178
f  149 180 179
f  150 182 180
f  151 181 182
f  155 183 181
f  177 178 204
f  178 179 205
f  179 180 207
f  180 182 206
f  182 181 208
f  183 210 181
f  181 210 208
f  184 186 188
f  172 199 185
f  175 176 197
f  172 175 198
f  186 185 200
f  183 187 209
f  187 184 211
f  183 209 210
f  187 211 209
f  184 188 211
f  186 200 188
f  185 199 200
f  167 191 168
f  168 192 169
f  169 193 170
f  167 190 191
f  168 191 192
f  169 192 193
f  170 194 171
f  171 189 174
f  173 174 195
f  173 196 176
f  170 193 194
f  171 194 189
f  174 189 195
f  190 241 191
f  191 242 192
f  193 247 194
f  189 194 248
f  193 192 243
f  192 242 243
f  193 243 247
f  173 195 196
f  176 196 197
f  175 197 198
f  172 198 199
f  196 202 197
f  198 197 226
f  198 227 199
f  189 201 195
f  196 195 203
f  194 247 248
f  189 248 201
f  195 201 203
f  196 203 202
f  197 202 226
f  178 205 204
f  179 207 205
f  180 206 207
f  182 208 206
f  205 207 213
f  204 205 212
f  207 206 214
f  206 208 219
f  209 211 228
f  188 223 211
f  208 210 218
f  210 209 220
f  208 218 219
f  210 220 218
f  209 228 220
f  205 213 212
f  207 214 213
f  206 219 214
f  212 213 215
f  213 214 216
f  213 216 215
f  214 219 217
f  214 217 216
f  218 220 222
f  220 228 230
f  219 218 221
f  218 222 221
f  219 221 217
f  220 230 222
f  188 200 224
f  200 199 225
f  198 226 227
f  199 227 225
f  200 225 224
f  211 223 228
f  188 224 223
f  225 235 224
f  202 203 270
f  226 202 269
f  225 227 236
f  227 226 272
f  226 269 272
f  227 272 236
f  228 223 233
f  223 224 232
f  223 232 233
f  224 235 232
f  228 233 230
f  230 229 222
f  230 231 229
f  230 233 231
f  233 234 231
f  233 232 234
f  232 237 234
f  225 236 235
f  232 235 237
f  235 238 237
f  235 236 238
f  236 274 238
f  190 240 241
f  191 241 242
f  240 245 241
f  241 246 242
f  242 250 243
f  240 244 245
f  241 245 246
f  242 246 250
f  246 262 250
f  247 243 249
f  248 247 251
f  247 249 251
f  201 248 252
f  201 268 203
f  248 251 252
f  201 252 268
f  243 250 249
f  250 263 249
f  251 281 252
f  251 249 280
f  244 254 245
f  244 253 254
f  245 255 246
f  245 254 255
f  246 255 262
f  253 258 254
f  253 256 258
f  256 257 258
f  257 259 258
f  254 260 255
f  254 258 260
f  258 259 261
f  258 261 260
f  250 262 263
f  249 263 280
f  262 266 263
f  280 263 282
f  262 255 264
f  255 260 264
f  260 261 265
f  260 265 264
f  262 264 266
f  263 266 282
f  264 265 267
f  266 264 267
f  203 268 270
f  202 270 269
f  270 268 278
f  270 277 269
f  268 252 271
f  251 280 281
f  252 281 271
f  268 271 278
f  272 269 276
f  236 272 274
f  269 277 276
f  272 276 274
f  274 273 238
f  274 275 273
f  274 276 275
f  276 279 275
f  270 278 277
f  278 271 285
f  277 278 287
f  276 277 279
f  277 287 279
f  287 286 279
f  281 280 283
f  280 282 283
f  271 281 284
f  281 283 284
f  282 266 289
f  271 284 285
f  278 285 287
f  287 285 288
f  287 288 286
f  266 267 289
f  282 290 283
f  282 289 290
f  285 284 292
f  285 292 288
f  284 283 294
f  283 290 294
f  290 291 294
f  284 294 292
f  294 293 292
f  291 295 294
f  294 295 293
f  295 296 293
f  4 239 1
f  4 12 239
f  1 239 91
f  136 145 140
f  140 145 142
f  142 145 143
f  143 145 256
f  256 145 257
f  257 145 259
f  259 145 261
f  261 145 265
f  117 116 145
f  118 117 145
f  118 145 119
f  119 145 120
f  120 145 144
f  136 144 145
f  91 297 145
f  265 145 267
f  12 36 239
f  36 48 239
f  48 146 239
f  146 177 239
f  177 204 239
f  204 212 239
f  212 215 239
f  91 239 297
f  267 145 289
f  289 145 290
f  290 145 291
f  291 145 295
f  295 145 296
f  145 297 296
f  2 1 91
f  2 91 3
f  3 91 7
f  8 7 91
f  8 91 20
f  20 91 22
f  22 91 23
f  23 91 29
f  30 29 91
f  30 91 93
f  95 93 91
f  95 91 97
f  97 91 104
f  104 91 106
f  106 91 113
f  113 91 145
f  113 145 114
f  114 145 116
f  215 216 239
f  216 217 239
f  221 239 217
f  221 222 239
f  297 222 229
f  297 239 222
f  297 229 231
f  297 231 234
f  234 237 297
f  237 238 297
f  238 273 297
f  273 275 297
f  275 279 297
f  279 286 297
f  286 288 297
f  288 292 297
f  292 293 297
f  296 297 293
