# OpenSCAD obj exporter
v -0.264937 0 -0.0485783
v -0.26412 0.0261912 -0.0485783
v -0.261675 0.052221 -0.0485783
v -0.241633 0 -0.0575092
v -0.240888 0.0238875 -0.0575092
v -0.238658 0.0476276 -0.0575092
v -0.257616 0.0779287 -0.0485783
v -0.234957 0.0710742 -0.0575092
v -0.229807 0.0940825 -0.0575092
v -0.25197 0.103156 -0.0485783
v -0.286607 0 -0.0388545
v -0.285723 0.0283335 -0.0388545
v -0.30651 0 -0.0283978
v -0.283078 0.0564923 -0.0388545
v -0.305565 0.0303011 -0.0283978
v -0.324523 0 -0.0172726
v -0.3335 0 -0.0106995
v -0.3335 0 0
v -0.323523 0.0320819 -0.0172726
v -0.3335 0.0330712 -0.00994435
v -0.302736 0.0604154 -0.0283978
v -0.298041 0.0901572 -0.0283978
v -0.291508 0.119343 -0.0283978
v -0.320528 0.063966 -0.0172726
v -0.3335 0.0665547 -0.00765546
v -0.3335 0.0851337 -0.00554744
v -0.315557 0.0954557 -0.0172726
v -0.331127 0.100166 -0.00554744
v -0.3335 0.100883 -0.00339821
v -0.3335 0.118781 0
v -0.278688 0.0843028 -0.0388545
v -0.272579 0.111594 -0.0388545
v -0.244769 0.127747 -0.0485783
v -0.23606 0.151551 -0.0485783
v -0.283178 0.147793 -0.0283978
v -0.30864 0.126357 -0.0172726
v -0.323869 0.132592 -0.00554744
v -0.32986 0.135044 0
v -0.314614 0.1642 -0.00554744
v -0.320434 0.167237 0
v -0.29982 0.156479 -0.0172726
v -0.309032 0.198399 0
v -0.289152 0.185636 -0.0172726
v -0.30342 0.194796 -0.00554744
v -0.295726 0.228338 0
v -0.290355 0.224191 -0.00554744
v -0.281971 0.24 -0.00554744
v -0.289541 0.24 0
v -0.26479 0.138196 -0.0388545
v -0.255368 0.163947 -0.0388545
v -0.273102 0.175332 -0.0283978
v -0.261343 0.20179 -0.0283978
v -0.244372 0.188687 -0.0388545
v -0.23187 0.212264 -0.0388545
v -0.247972 0.227004 -0.0283978
v -0.239841 0.24 -0.0283978
v -0.276702 0.213649 -0.0172726
v -0.262168 0.24 -0.0175603
v -0.262728 0.24 -0.0172726
v -0.21684 0 -0.0655922
v -0.216171 0.0214364 -0.0655922
v -0.21417 0.0427407 -0.0655922
v -0.190709 0 -0.0727774
v -0.190121 0.0188532 -0.0727774
v -0.188361 0.0375902 -0.0727774
v -0.18544 0.0560955 -0.0727774
v -0.210848 0.0637814 -0.0655922
v -0.206227 0.084429 -0.0655922
v -0.181375 0.0742548 -0.0727774
v -0.200334 0.104556 -0.0655922
v -0.22324 0.116511 -0.0575092
v -0.163403 0 -0.0790204
v -0.1629 0.0161538 -0.0790204
v -0.161392 0.032208 -0.0790204
v -0.158888 0.0480636 -0.0790204
v -0.13509 0 -0.0842829
v -0.134673 0.0133548 -0.0842829
v -0.125 0 -0.085754
v -0.125 0.0123955 -0.0856976
v -0.133427 0.0266272 -0.0842829
v -0.125 0.0249455 -0.0855268
v -0.131357 0.0397355 -0.0842829
v -0.125 0.0378124 -0.0852361
v -0.125 0.0511749 -0.0848161
v -0.128478 0.0525988 -0.0842829
v -0.155406 0.0636229 -0.0790204
v -0.176192 0.0919564 -0.0727774
v -0.169923 0.109091 -0.0727774
v -0.150965 0.07879 -0.0790204
v -0.125 0.0644776 -0.0842829
v -0.125 0.0652386 -0.084244
v -0.125 0.0802503 -0.0833162
v -0.145593 0.0934713 -0.0790204
v -0.139324 0.107576 -0.0790204
v -0.125 0.0965161 -0.0821429
v -0.125 0.11443 -0.0806737
v -0.125 0 0
v -0.193205 0.124038 -0.0655922
v -0.184886 0.142756 -0.0655922
v -0.215297 0.138221 -0.0575092
v -0.206026 0.159079 -0.0575092
v -0.225896 0.17442 -0.0485783
v -0.195485 0.178956 -0.0575092
v -0.214338 0.196215 -0.0485783
v -0.183739 0.197729 -0.0575092
v -0.201459 0.216799 -0.0485783
v -0.190476 0.24 -0.0465872
v -0.187338 0.236046 -0.0485783
v -0.183944 0.24 -0.0485783
v -0.162606 0.125553 -0.0727774
v -0.154287 0.141241 -0.0727774
v -0.175427 0.160593 -0.0655922
v -0.164886 0.177441 -0.0655922
v -0.132196 0.121018 -0.0790204
v -0.125 0.132519 -0.0790204
v -0.125 0.134518 -0.0787958
v -0.125 0.1575 -0.0759628
v -0.145017 0.156058 -0.0727774
v -0.134852 0.169913 -0.0727774
v -0.153329 0.193194 -0.0655922
v -0.140826 0.207756 -0.0655922
v -0.125 0.181388 -0.0727774
v -0.125 0.184409 -0.0722929
v -0.125 0.21678 -0.0667407
v -0.127455 0.221038 -0.0655922
v -0.125 0.223105 -0.0655922
v -0.17086 0.215284 -0.0575092
v -0.162682 0.24 -0.0541138
v -0.156928 0.231511 -0.0575092
v -0.138389 0.24 -0.0595277
v -0.148382 0.24 -0.0575092
v -0.125 0.24 -0.0619547
v -0.217937 0.234532 -0.0388545
v -0.223019 0.24 -0.0353436
v -0.213926 0.24 -0.0388545
v -0.125 0.24 0
f  1 11 2
f  1 2 5
f  2 12 3
f  1 5 4
f  61 4 5
f  2 6 5
f  3 8 6
f  5 6 62
f  2 3 6
f  3 14 7
f  7 31 10
f  10 32 33
f  7 9 8
f  3 7 8
f  10 71 9
f  7 10 9
f  10 33 71
f  13 16 15
f  15 19 21
f  11 13 12
f  12 13 15
f  12 15 14
f  14 15 21
f  16 17 20
f  16 20 19
f  15 16 19
f  19 20 25
f  19 25 24
f  19 24 21
f  14 21 31
f  21 24 22
f  31 21 22
f  31 22 32
f  22 27 23
f  32 22 23
f  24 26 27
f  22 24 27
f  24 25 26
f  27 28 36
f  26 28 27
f  26 29 28
f  28 37 36
f  28 29 30
f  28 30 38
f  23 27 36
f  2 11 12
f  3 12 14
f  7 14 31
f  10 31 32
f  33 49 34
f  33 34 100
f  34 50 102
f  23 36 35
f  35 41 51
f  36 37 41
f  28 38 37
f  37 38 40
f  37 39 41
f  37 40 39
f  39 40 42
f  35 36 41
f  41 39 43
f  51 41 43
f  39 42 44
f  43 44 57
f  39 44 43
f  44 42 45
f  44 45 46
f  44 46 57
f  45 48 46
f  46 48 47
f  32 23 49
f  32 49 33
f  49 35 50
f  23 35 49
f  50 51 53
f  35 51 50
f  34 49 50
f  102 50 53
f  51 43 52
f  51 52 53
f  52 57 55
f  52 54 53
f  104 53 54
f  54 55 133
f  52 55 54
f  55 58 56
f  133 55 56
f  52 43 57
f  57 46 59
f  55 57 59
f  55 59 58
f  59 46 47
f  64 60 61
f  65 61 62
f  66 62 67
f  63 60 64
f  64 61 65
f  63 64 73
f  64 65 74
f  65 62 66
f  65 66 75
f  60 4 61
f  61 5 62
f  62 6 67
f  66 67 69
f  69 67 68
f  69 68 87
f  87 68 70
f  87 70 88
f  88 70 98
f  6 8 67
f  67 8 68
f  68 8 9
f  70 9 71
f  68 9 70
f  70 71 98
f  63 73 72
f  64 74 73
f  77 72 73
f  80 73 74
f  65 75 74
f  66 86 75
f  76 72 77
f  77 73 80
f  76 77 78
f  77 79 78
f  77 80 79
f  80 81 79
f  82 74 75
f  80 74 82
f  85 75 86
f  82 75 85
f  80 82 81
f  82 83 81
f  82 85 83
f  85 84 83
f  85 90 84
f  69 89 86
f  87 93 89
f  66 69 86
f  69 87 89
f  88 94 93
f  88 98 110
f  87 88 93
f  88 110 94
f  86 89 90
f  89 93 92
f  85 86 90
f  89 91 90
f  89 92 91
f  94 110 114
f  93 95 92
f  93 94 95
f  94 96 95
f  94 114 96
f  98 99 110
f  71 33 100
f  100 34 101
f  71 100 98
f  102 103 101
f  34 102 101
f  98 100 99
f  99 100 101
f  112 101 103
f  99 101 112
f  112 103 113
f  102 53 104
f  102 104 103
f  104 54 106
f  103 104 105
f  103 105 113
f  105 106 127
f  104 106 105
f  106 133 108
f  108 135 107
f  127 106 108
f  108 109 128
f  108 107 109
f  99 111 110
f  99 112 111
f  112 118 111
f  112 113 118
f  114 111 115
f  114 115 96
f  118 116 115
f  118 117 116
f  114 110 111
f  111 118 115
f  118 113 119
f  118 119 117
f  119 122 117
f  119 113 120
f  120 121 122
f  119 120 122
f  121 123 122
f  121 124 123
f  121 125 124
f  125 126 124
f  125 132 126
f  105 120 113
f  105 127 120
f  127 121 120
f  127 108 129
f  127 129 121
f  129 128 131
f  108 128 129
f  121 129 125
f  125 129 130
f  130 129 131
f  125 130 132
f  106 54 133
f  133 134 135
f  133 56 134
f  108 133 135
f  16 18 17
f  17 18 20
f  18 25 20
f  18 26 25
f  18 29 26
f  18 30 29
f  11 97 13
f  16 97 18
f  13 97 16
f  18 136 30
f  30 136 38
f  47 48 132
f  38 136 40
f  40 136 42
f  42 136 45
f  45 136 48
f  63 97 60
f  63 72 97
f  76 97 72
f  76 78 97
f  1 4 97
f  1 97 11
f  60 97 4
f  18 97 136
f  109 107 128
f  131 107 135
f  135 134 132
f  131 128 107
f  130 131 135
f  130 135 132
f  58 59 132
f  56 58 132
f  59 47 132
f  134 56 132
f  48 136 132
f  79 136 78
f  79 81 136
f  81 83 136
f  83 84 136
f  84 90 136
f  78 136 97
f  90 91 136
f  91 92 136
f  92 95 136
f  95 96 136
f  115 136 96
f  115 116 136
f  116 117 136
f  117 122 136
f  123 136 122
f  123 124 136
f  126 136 124
f  126 132 136
