# OpenSCAD obj exporter
v 0.125 0 -0.085754
v 0.125 0.0123955 -0.0856976
v 0.13509 0 -0.0842829
v 0.134673 0.0133548 -0.0842829
v 0.125 0.0249455 -0.0855268
v 0.133427 0.0266272 -0.0842829
v 0.125 0.0378124 -0.0852361
v 0.131357 0.0397355 -0.0842829
v 0.125 0.0511749 -0.0848161
v 0.128478 0.0525988 -0.0842829
v 0.163403 0 -0.0790204
v 0.1629 0.0161538 -0.0790204
v 0.161392 0.032208 -0.0790204
v 0.158888 0.0480636 -0.0790204
v 0.125 0.0644776 -0.0842829
v 0.125 0.0652386 -0.084244
v 0.125 0.0802503 -0.0833162
v 0.150965 0.07879 -0.0790204
v 0.125 0.0965161 -0.0821429
v 0.125 0.11443 -0.0806737
v 0.145593 0.0934713 -0.0790204
v 0.139324 0.107576 -0.0790204
v 0.155406 0.0636229 -0.0790204
v 0.176192 0.0919564 -0.0727774
v 0.169923 0.109091 -0.0727774
v 0.190121 0.0188532 -0.0727774
v 0.190709 0 -0.0727774
v 0.188361 0.0375902 -0.0727774
v 0.18544 0.0560955 -0.0727774
v 0.216171 0.0214364 -0.0655922
v 0.21684 0 -0.0655922
v 0.21417 0.0427407 -0.0655922
v 0.181375 0.0742548 -0.0727774
v 0.200334 0.104556 -0.0655922
v 0.210848 0.0637814 -0.0655922
v 0.206227 0.084429 -0.0655922
v 0.22324 0.116511 -0.0575092
v 0.125 0 0
v 0.125 0.132519 -0.0790204
v 0.125 0.134518 -0.0787958
v 0.132196 0.121018 -0.0790204
v 0.125 0.1575 -0.0759628
v 0.134852 0.169913 -0.0727774
v 0.145017 0.156058 -0.0727774
v 0.162606 0.125553 -0.0727774
v 0.154287 0.141241 -0.0727774
v 0.175427 0.160593 -0.0655922
v 0.164886 0.177441 -0.0655922
v 0.125 0.181388 -0.0727774
v 0.125 0.184409 -0.0722929
v 0.140826 0.207756 -0.0655922
v 0.125 0.21678 -0.0667407
v 0.127455 0.221038 -0.0655922
v 0.125 0.223105 -0.0655922
v 0.153329 0.193194 -0.0655922
v 0.125 0.24 -0.0619547
v 0.138389 0.24 -0.0595277
v 0.148382 0.24 -0.0575092
v 0.156928 0.231511 -0.0575092
v 0.162682 0.24 -0.0541138
v 0.17086 0.215284 -0.0575092
v 0.184886 0.142756 -0.0655922
v 0.193205 0.124038 -0.0655922
v 0.195485 0.178956 -0.0575092
v 0.215297 0.138221 -0.0575092
v 0.206026 0.159079 -0.0575092
v 0.225896 0.17442 -0.0485783
v 0.183739 0.197729 -0.0575092
v 0.183944 0.24 -0.0485783
v 0.187338 0.236046 -0.0485783
v 0.201459 0.216799 -0.0485783
v 0.190476 0.24 -0.0465872
v 0.214338 0.196215 -0.0485783
v 0.125 0.24 0
v 0.213926 0.24 -0.0388545
v 0.217937 0.234532 -0.0388545
v 0.223019 0.24 -0.0353436
v 0.241633 0 -0.0575092
v 0.240888 0.0238875 -0.0575092
v 0.238658 0.0476276 -0.0575092
v 0.264937 0 -0.0485783
v 0.26412 0.0261912 -0.0485783
v 0.261675 0.052221 -0.0485783
v 0.234957 0.0710742 -0.0575092
v 0.229807 0.0940825 -0.0575092
v 0.25197 0.103156 -0.0485783
v 0.257616 0.0779287 -0.0485783
v 0.278688 0.0843028 -0.0388545
v 0.272579 0.111594 -0.0388545
v 0.286607 0 -0.0388545
v 0.285723 0.0283335 -0.0388545
v 0.30651 0 -0.0283978
v 0.283078 0.0564923 -0.0388545
v 0.305565 0.0303011 -0.0283978
v 0.324523 0 -0.0172726
v 0.3335 0 -0.0106995
v 0.3335 0 0
v 0.323523 0.0320819 -0.0172726
v 0.3335 0.0330712 -0.00994435
v 0.302736 0.0604154 -0.0283978
v 0.291508 0.119343 -0.0283978
v 0.298041 0.0901572 -0.0283978
v 0.320528 0.063966 -0.0172726
v 0.3335 0.0665547 -0.00765546
v 0.3335 0.0851337 -0.00554744
v 0.315557 0.0954557 -0.0172726
v 0.331127 0.100166 -0.00554744
v 0.3335 0.100883 -0.00339821
v 0.3335 0.118781 0
v 0.244769 0.127747 -0.0485783
v 0.23606 0.151551 -0.0485783
v 0.26479 0.138196 -0.0388545
v 0.255368 0.163947 -0.0388545
v 0.273102 0.175332 -0.0283978
v 0.244372 0.188687 -0.0388545
v 0.23187 0.212264 -0.0388545
v 0.239841 0.24 -0.0283978
v 0.247972 0.227004 -0.0283978
v 0.261343 0.20179 -0.0283978
v 0.262168 0.24 -0.0175603
v 0.262728 0.24 -0.0172726
v 0.276702 0.213649 -0.0172726
v 0.283178 0.147793 -0.0283978
v 0.29982 0.156479 -0.0172726
v 0.30864 0.126357 -0.0172726
v 0.323869 0.132592 -0.00554744
v 0.32986 0.135044 0
v 0.314614 0.1642 -0.00554744
v 0.320434 0.167237 0
v 0.289152 0.185636 -0.0172726
v 0.30342 0.194796 -0.00554744
v 0.290355 0.224191 -0.00554744
v 0.281971 0.24 -0.00554744
v 0.289541 0.24 0
v 0.295726 0.228338 0
v 0.309032 0.198399 0
f  3 1 2
f  3 2 4
f  4 2 5
f  4 5 6
f  6 5 7
f  3 4 11
f  4 6 12
f  6 7 8
f  8 7 9
f  8 9 10
f  10 9 15
f  6 8 13
f  8 14 13
f  8 10 14
f  10 23 14
f  4 12 11
f  6 13 12
f  11 12 27
f  12 13 26
f  13 14 28
f  14 23 29
f  10 15 16
f  10 16 23
f  18 16 17
f  23 16 18
f  18 17 21
f  21 17 19
f  21 19 22
f  22 19 20
f  22 20 41
f  22 41 45
f  23 18 33
f  18 21 24
f  23 33 29
f  18 24 33
f  21 22 25
f  21 25 24
f  22 45 25
f  25 45 63
f  12 26 27
f  13 28 26
f  27 26 31
f  26 28 30
f  14 29 28
f  28 29 32
f  26 30 31
f  28 32 30
f  29 35 32
f  31 30 78
f  30 32 79
f  32 35 80
f  33 24 36
f  29 33 35
f  33 36 35
f  24 25 34
f  25 63 34
f  24 34 36
f  36 84 35
f  80 35 84
f  36 85 84
f  36 34 85
f  34 63 37
f  34 37 85
f  41 20 39
f  41 39 40
f  41 40 46
f  44 40 42
f  41 46 45
f  46 40 44
f  44 42 43
f  43 42 49
f  43 49 50
f  44 43 48
f  45 46 62
f  46 47 62
f  46 44 47
f  44 48 47
f  43 50 55
f  51 50 52
f  43 55 48
f  55 50 51
f  51 52 53
f  53 52 54
f  53 54 56
f  53 56 57
f  51 53 59
f  53 57 59
f  57 58 59
f  55 51 61
f  48 55 68
f  55 61 68
f  51 59 61
f  59 58 60
f  59 70 61
f  59 60 70
f  45 62 63
f  63 62 65
f  62 66 65
f  62 47 66
f  48 64 47
f  47 64 66
f  37 63 65
f  37 65 110
f  65 66 111
f  66 64 67
f  66 67 111
f  48 68 64
f  68 61 71
f  64 68 73
f  68 71 73
f  61 70 71
f  60 69 70
f  70 69 72
f  71 70 76
f  70 72 75
f  64 73 67
f  73 71 116
f  67 73 115
f  70 75 76
f  71 76 116
f  76 75 77
f  76 77 117
f  30 79 78
f  78 79 81
f  79 32 80
f  79 80 82
f  80 84 83
f  80 83 82
f  79 82 81
f  81 82 90
f  82 83 91
f  84 85 87
f  83 84 87
f  85 37 86
f  37 110 86
f  85 86 87
f  83 87 93
f  87 86 88
f  86 110 89
f  82 91 90
f  83 93 91
f  87 88 93
f  86 89 88
f  90 91 92
f  91 94 92
f  91 93 94
f  93 100 94
f  92 94 95
f  94 100 98
f  94 98 95
f  95 98 96
f  96 98 99
f  98 100 103
f  98 103 99
f  99 103 104
f  93 88 100
f  88 102 100
f  100 102 103
f  88 89 102
f  89 101 102
f  101 106 102
f  101 125 106
f  102 106 103
f  103 106 104
f  104 106 105
f  106 125 107
f  105 106 107
f  105 107 108
f  107 125 126
f  107 109 108
f  107 126 109
f  110 65 111
f  110 111 112
f  111 67 113
f  67 115 113
f  111 113 112
f  89 110 112
f  112 113 123
f  89 112 101
f  101 112 123
f  113 115 114
f  123 113 114
f  73 116 115
f  115 116 119
f  116 76 118
f  76 117 118
f  116 118 119
f  118 117 120
f  114 115 119
f  114 119 130
f  118 122 119
f  119 122 130
f  118 120 121
f  118 121 122
f  122 121 133
f  101 123 125
f  123 114 124
f  123 124 125
f  114 130 124
f  124 130 128
f  125 124 126
f  109 126 127
f  126 128 127
f  126 124 128
f  128 131 129
f  127 128 129
f  130 122 131
f  128 130 131
f  131 132 136
f  131 122 132
f  122 133 132
f  132 133 134
f  132 134 135
f  136 132 135
f  129 131 136
f  3 11 1
f  11 97 1
f  11 27 97
f  97 38 1
f  57 56 74
f  57 74 58
f  58 74 60
f  60 74 69
f  69 74 72
f  72 74 75
f  134 74 38
f  75 74 77
f  77 74 117
f  117 74 120
f  120 74 121
f  121 74 133
f  27 31 97
f  31 78 97
f  78 81 97
f  97 109 38
f  109 127 38
f  127 129 38
f  81 90 97
f  90 92 97
f  92 95 97
f  95 96 97
f  96 99 97
f  97 99 104
f  97 104 105
f  97 105 108
f  97 108 109
f  129 136 38
f  136 135 38
f  134 38 135
f  133 74 134
f  5 2 1
f  5 1 7
f  9 7 1
f  38 9 1
f  38 15 9
f  38 16 15
f  38 17 16
f  19 17 38
f  20 19 38
f  39 20 38
f  39 38 40
f  42 40 38
f  49 42 38
f  50 49 38
f  52 50 38
f  54 52 38
f  54 38 74
f  74 56 54
