# OpenSCAD obj exporter
v 0.125 -0.223105 -0.0655922
v 0.127455 -0.221038 -0.0655922
v 0.125 -0.21678 -0.0667407
v 0.125 -0.181388 -0.0727774
v 0.125 -0.184409 -0.0722929
v 0.140826 -0.207756 -0.0655922
v 0.153329 -0.193194 -0.0655922
v 0.125 -0.24 -0.0619547
v 0.138389 -0.24 -0.0595277
v 0.148382 -0.24 -0.0575092
v 0.156928 -0.231511 -0.0575092
v 0.162682 -0.24 -0.0541138
v 0.17086 -0.215284 -0.0575092
v 0.125 -0.1575 -0.0759628
v 0.134852 -0.169913 -0.0727774
v 0.145017 -0.156058 -0.0727774
v 0.125 -0.134518 -0.0787958
v 0.125 -0.132519 -0.0790204
v 0.132196 -0.121018 -0.0790204
v 0.164886 -0.177441 -0.0655922
v 0.175427 -0.160593 -0.0655922
v 0.154287 -0.141241 -0.0727774
v 0.162606 -0.125553 -0.0727774
v 0.183944 -0.24 -0.0485783
v 0.187338 -0.236046 -0.0485783
v 0.190476 -0.24 -0.0465872
v 0.201459 -0.216799 -0.0485783
v 0.183739 -0.197729 -0.0575092
v 0.214338 -0.196215 -0.0485783
v 0.184886 -0.142756 -0.0655922
v 0.193205 -0.124038 -0.0655922
v 0.195485 -0.178956 -0.0575092
v 0.206026 -0.159079 -0.0575092
v 0.225896 -0.17442 -0.0485783
v 0.215297 -0.138221 -0.0575092
v 0.125 -0.24 0
v 0.213926 -0.24 -0.0388545
v 0.217937 -0.234532 -0.0388545
v 0.223019 -0.24 -0.0353436
v 0.125 -0.11443 -0.0806737
v 0.125 -0.0965161 -0.0821429
v 0.139324 -0.107576 -0.0790204
v 0.145593 -0.0934713 -0.0790204
v 0.125 -0.0802503 -0.0833162
v 0.125 -0.0652386 -0.084244
v 0.125 -0.0644776 -0.0842829
v 0.150965 -0.07879 -0.0790204
v 0.169923 -0.109091 -0.0727774
v 0.176192 -0.0919564 -0.0727774
v 0.155406 -0.0636229 -0.0790204
v 0.128478 -0.0525988 -0.0842829
v 0.125 -0.0511749 -0.0848161
v 0.125 -0.0378124 -0.0852361
v 0.131357 -0.0397355 -0.0842829
v 0.125 -0.0249455 -0.0855268
v 0.133427 -0.0266272 -0.0842829
v 0.125 -0.0123955 -0.0856976
v 0.125 0 -0.085754
v 0.134673 -0.0133548 -0.0842829
v 0.13509 0 -0.0842829
v 0.158888 -0.0480636 -0.0790204
v 0.161392 -0.032208 -0.0790204
v 0.1629 -0.0161538 -0.0790204
v 0.163403 0 -0.0790204
v 0.200334 -0.104556 -0.0655922
v 0.181375 -0.0742548 -0.0727774
v 0.206227 -0.084429 -0.0655922
v 0.210848 -0.0637814 -0.0655922
v 0.22324 -0.116511 -0.0575092
v 0.18544 -0.0560955 -0.0727774
v 0.188361 -0.0375902 -0.0727774
v 0.190121 -0.0188532 -0.0727774
v 0.190709 0 -0.0727774
v 0.21417 -0.0427407 -0.0655922
v 0.216171 -0.0214364 -0.0655922
v 0.21684 0 -0.0655922
v 0.125 0 0
v 0.23606 -0.151551 -0.0485783
v 0.244769 -0.127747 -0.0485783
v 0.23187 -0.212264 -0.0388545
v 0.239841 -0.24 -0.0283978
v 0.247972 -0.227004 -0.0283978
v 0.244372 -0.188687 -0.0388545
v 0.261343 -0.20179 -0.0283978
v 0.262168 -0.24 -0.0175603
v 0.262728 -0.24 -0.0172726
v 0.276702 -0.213649 -0.0172726
v 0.255368 -0.163947 -0.0388545
v 0.273102 -0.175332 -0.0283978
v 0.26479 -0.138196 -0.0388545
v 0.281971 -0.24 -0.00554744
v 0.289541 -0.24 0
v 0.290355 -0.224191 -0.00554744
v 0.295726 -0.228338 0
v 0.289152 -0.185636 -0.0172726
v 0.30342 -0.194796 -0.00554744
v 0.309032 -0.198399 0
v 0.283178 -0.147793 -0.0283978
v 0.29982 -0.156479 -0.0172726
v 0.320434 -0.167237 0
v 0.314614 -0.1642 -0.00554744
v 0.30864 -0.126357 -0.0172726
v 0.32986 -0.135044 0
v 0.323869 -0.132592 -0.00554744
v 0.229807 -0.0940825 -0.0575092
v 0.25197 -0.103156 -0.0485783
v 0.234957 -0.0710742 -0.0575092
v 0.257616 -0.0779287 -0.0485783
v 0.238658 -0.0476276 -0.0575092
v 0.240888 -0.0238875 -0.0575092
v 0.241633 0 -0.0575092
v 0.261675 -0.052221 -0.0485783
v 0.26412 -0.0261912 -0.0485783
v 0.264937 0 -0.0485783
v 0.272579 -0.111594 -0.0388545
v 0.278688 -0.0843028 -0.0388545
v 0.291508 -0.119343 -0.0283978
v 0.298041 -0.0901572 -0.0283978
v 0.302736 -0.0604154 -0.0283978
v 0.315557 -0.0954557 -0.0172726
v 0.3335 -0.118781 0
v 0.331127 -0.100166 -0.00554744
v 0.3335 -0.100883 -0.00339821
v 0.320528 -0.063966 -0.0172726
v 0.3335 -0.0851337 -0.00554744
v 0.3335 -0.0665547 -0.00765546
v 0.283078 -0.0564923 -0.0388545
v 0.305565 -0.0303011 -0.0283978
v 0.285723 -0.0283335 -0.0388545
v 0.286607 0 -0.0388545
v 0.30651 0 -0.0283978
v 0.323523 -0.0320819 -0.0172726
v 0.3335 -0.0330712 -0.00994435
v 0.324523 0 -0.0172726
v 0.3335 0 -0.0106995
v 0.3335 0 0
f  2 8 1
f  2 1 3
f  2 3 6
f  6 3 5
f  6 5 4
f  7 4 15
f  6 4 7
f  7 15 20
f  9 8 2
f  9 2 11
f  9 11 10
f  2 6 11
f  10 11 12
f  11 6 13
f  11 13 25
f  12 11 25
f  6 7 13
f  7 28 13
f  7 20 28
f  15 4 14
f  15 14 16
f  15 16 20
f  16 14 17
f  16 17 18
f  19 18 40
f  22 18 19
f  16 18 22
f  22 19 23
f  16 22 21
f  16 21 20
f  22 23 30
f  22 30 21
f  12 25 24
f  24 25 26
f  25 13 27
f  25 37 26
f  25 27 38
f  13 28 27
f  20 32 28
f  28 32 29
f  27 28 29
f  27 29 80
f  29 32 34
f  29 34 83
f  23 31 30
f  20 21 32
f  21 30 33
f  21 33 32
f  33 30 35
f  30 31 35
f  32 33 34
f  33 78 34
f  31 69 35
f  33 35 78
f  35 69 79
f  25 38 37
f  37 38 39
f  38 81 39
f  27 80 38
f  42 40 41
f  19 40 42
f  43 41 44
f  42 41 43
f  19 42 23
f  47 44 45
f  47 45 46
f  50 46 51
f  43 44 47
f  47 46 50
f  42 43 48
f  23 42 48
f  43 49 48
f  23 48 31
f  43 47 49
f  47 50 66
f  47 66 49
f  50 70 66
f  51 46 52
f  51 52 53
f  51 53 54
f  54 53 55
f  54 55 56
f  51 54 61
f  50 51 61
f  54 56 62
f  54 62 61
f  56 55 57
f  56 57 59
f  59 57 58
f  59 58 60
f  56 59 63
f  59 60 64
f  50 61 70
f  61 62 71
f  62 56 63
f  59 64 63
f  62 63 72
f  63 64 73
f  31 48 65
f  48 49 65
f  49 67 65
f  49 66 67
f  66 70 68
f  66 68 67
f  31 65 69
f  65 67 105
f  65 105 69
f  105 67 107
f  67 68 107
f  68 109 107
f  61 71 70
f  70 71 74
f  62 72 71
f  63 73 72
f  71 72 75
f  72 73 76
f  68 70 74
f  71 75 74
f  72 76 75
f  68 74 109
f  74 75 110
f  75 76 111
f  34 78 88
f  78 35 79
f  78 79 90
f  38 80 82
f  38 82 81
f  81 82 85
f  80 84 82
f  29 83 80
f  80 83 84
f  82 84 87
f  83 89 84
f  84 89 95
f  82 86 85
f  82 87 86
f  86 87 93
f  86 93 91
f  84 95 87
f  34 88 83
f  78 90 88
f  83 88 89
f  88 98 89
f  88 90 98
f  79 115 90
f  90 115 117
f  90 117 98
f  91 93 92
f  92 93 94
f  87 96 93
f  93 96 94
f  87 95 96
f  94 96 97
f  95 101 96
f  97 96 101
f  89 98 99
f  98 117 102
f  95 89 99
f  95 99 101
f  98 102 99
f  97 101 100
f  99 104 101
f  100 101 104
f  99 102 104
f  100 104 103
f  103 104 122
f  69 105 106
f  79 69 106
f  105 108 106
f  105 107 108
f  107 112 108
f  79 106 115
f  106 108 116
f  108 112 127
f  74 110 109
f  107 109 112
f  109 110 113
f  109 113 112
f  75 111 110
f  110 111 114
f  112 113 129
f  110 114 113
f  113 114 130
f  106 116 115
f  108 127 116
f  112 129 127
f  113 130 129
f  115 116 118
f  115 118 117
f  117 118 120
f  116 127 119
f  118 116 119
f  118 119 124
f  102 117 120
f  102 120 122
f  102 122 104
f  103 122 121
f  121 122 123
f  120 125 122
f  122 125 123
f  118 124 120
f  120 124 125
f  124 126 125
f  127 129 128
f  119 127 128
f  129 130 131
f  128 129 131
f  119 128 132
f  128 131 134
f  119 132 124
f  124 132 126
f  126 132 133
f  128 134 132
f  132 134 133
f  133 134 135
f  9 37 8
f  10 12 26
f  9 10 37
f  12 24 26
f  10 26 37
f  37 39 8
f  39 81 8
f  81 85 8
f  85 86 8
f  86 91 8
f  92 36 8
f  60 58 77
f  60 77 64
f  64 77 73
f  73 77 76
f  136 77 36
f  76 77 111
f  111 77 114
f  114 77 130
f  91 92 8
f  92 94 36
f  94 97 36
f  97 100 36
f  100 103 36
f  103 121 36
f  121 136 36
f  130 77 131
f  131 77 134
f  134 77 136
f  121 123 136
f  123 125 136
f  125 126 136
f  126 133 136
f  133 135 136
f  134 136 135
f  1 36 3
f  3 36 5
f  5 36 4
f  4 36 14
f  41 40 36
f  14 36 17
f  18 17 36
f  18 36 40
f  41 36 44
f  45 44 36
f  45 36 46
f  1 8 36
f  46 36 52
f  52 36 53
f  53 36 55
f  55 36 57
f  57 36 58
f  77 58 36
