# OpenSCAD obj exporter
v -0.23606 -0.151551 -0.0485783
v -0.244769 -0.127747 -0.0485783
v -0.309032 -0.198399 0
v -0.295726 -0.228338 0
v -0.281971 -0.24 -0.00554744
v -0.289541 -0.24 0
v -0.290355 -0.224191 -0.00554744
v -0.289152 -0.185636 -0.0172726
v -0.30342 -0.194796 -0.00554744
v -0.283178 -0.147793 -0.0283978
v -0.320434 -0.167237 0
v -0.314614 -0.1642 -0.00554744
v -0.30864 -0.126357 -0.0172726
v -0.32986 -0.135044 0
v -0.323869 -0.132592 -0.00554744
v -0.29982 -0.156479 -0.0172726
v -0.261343 -0.20179 -0.0283978
v -0.23187 -0.212264 -0.0388545
v -0.247972 -0.227004 -0.0283978
v -0.239841 -0.24 -0.0283978
v -0.244372 -0.188687 -0.0388545
v -0.276702 -0.213649 -0.0172726
v -0.262168 -0.24 -0.0175603
v -0.262728 -0.24 -0.0172726
v -0.255368 -0.163947 -0.0388545
v -0.273102 -0.175332 -0.0283978
v -0.26479 -0.138196 -0.0388545
v -0.257616 -0.0779287 -0.0485783
v -0.229807 -0.0940825 -0.0575092
v -0.25197 -0.103156 -0.0485783
v -0.234957 -0.0710742 -0.0575092
v -0.261675 -0.052221 -0.0485783
v -0.26412 -0.0261912 -0.0485783
v -0.264937 0 -0.0485783
v -0.238658 -0.0476276 -0.0575092
v -0.240888 -0.0238875 -0.0575092
v -0.241633 0 -0.0575092
v -0.298041 -0.0901572 -0.0283978
v -0.291508 -0.119343 -0.0283978
v -0.302736 -0.0604154 -0.0283978
v -0.315557 -0.0954557 -0.0172726
v -0.3335 -0.118781 0
v -0.331127 -0.100166 -0.00554744
v -0.3335 -0.100883 -0.00339821
v -0.320528 -0.063966 -0.0172726
v -0.3335 -0.0851337 -0.00554744
v -0.3335 -0.0665547 -0.00765546
v -0.283078 -0.0564923 -0.0388545
v -0.305565 -0.0303011 -0.0283978
v -0.285723 -0.0283335 -0.0388545
v -0.286607 0 -0.0388545
v -0.30651 0 -0.0283978
v -0.323523 -0.0320819 -0.0172726
v -0.3335 -0.0330712 -0.00994435
v -0.324523 0 -0.0172726
v -0.3335 0 -0.0106995
v -0.3335 0 0
v -0.272579 -0.111594 -0.0388545
v -0.278688 -0.0843028 -0.0388545
v -0.214338 -0.196215 -0.0485783
v -0.190476 -0.24 -0.0465872
v -0.201459 -0.216799 -0.0485783
v -0.187338 -0.236046 -0.0485783
v -0.183944 -0.24 -0.0485783
v -0.183739 -0.197729 -0.0575092
v -0.193205 -0.124038 -0.0655922
v -0.184886 -0.142756 -0.0655922
v -0.206026 -0.159079 -0.0575092
v -0.225896 -0.17442 -0.0485783
v -0.215297 -0.138221 -0.0575092
v -0.195485 -0.178956 -0.0575092
v -0.153329 -0.193194 -0.0655922
v -0.125 -0.223105 -0.0655922
v -0.127455 -0.221038 -0.0655922
v -0.125 -0.21678 -0.0667407
v -0.140826 -0.207756 -0.0655922
v -0.125 -0.181388 -0.0727774
v -0.125 -0.184409 -0.0722929
v -0.17086 -0.215284 -0.0575092
v -0.162682 -0.24 -0.0541138
v -0.156928 -0.231511 -0.0575092
v -0.138389 -0.24 -0.0595277
v -0.148382 -0.24 -0.0575092
v -0.125 -0.24 -0.0619547
v -0.164886 -0.177441 -0.0655922
v -0.175427 -0.160593 -0.0655922
v -0.154287 -0.141241 -0.0727774
v -0.162606 -0.125553 -0.0727774
v -0.125 -0.1575 -0.0759628
v -0.145017 -0.156058 -0.0727774
v -0.134852 -0.169913 -0.0727774
v -0.132196 -0.121018 -0.0790204
v -0.125 -0.134518 -0.0787958
v -0.125 -0.132519 -0.0790204
v -0.217937 -0.234532 -0.0388545
v -0.223019 -0.24 -0.0353436
v -0.213926 -0.24 -0.0388545
v -0.125 -0.24 0
v -0.206227 -0.084429 -0.0655922
v -0.210848 -0.0637814 -0.0655922
v -0.200334 -0.104556 -0.0655922
v -0.181375 -0.0742548 -0.0727774
v -0.22324 -0.116511 -0.0575092
v -0.21417 -0.0427407 -0.0655922
v -0.21684 0 -0.0655922
v -0.216171 -0.0214364 -0.0655922
v -0.18544 -0.0560955 -0.0727774
v -0.188361 -0.0375902 -0.0727774
v -0.190709 0 -0.0727774
v -0.190121 -0.0188532 -0.0727774
v -0.169923 -0.109091 -0.0727774
v -0.176192 -0.0919564 -0.0727774
v -0.155406 -0.0636229 -0.0790204
v -0.139324 -0.107576 -0.0790204
v -0.145593 -0.0934713 -0.0790204
v -0.125 -0.11443 -0.0806737
v -0.125 -0.0965161 -0.0821429
v -0.150965 -0.07879 -0.0790204
v -0.125 -0.0802503 -0.0833162
v -0.125 -0.0652386 -0.084244
v -0.125 -0.0644776 -0.0842829
v -0.158888 -0.0480636 -0.0790204
v -0.161392 -0.032208 -0.0790204
v -0.1629 -0.0161538 -0.0790204
v -0.163403 0 -0.0790204
v -0.128478 -0.0525988 -0.0842829
v -0.125 -0.0511749 -0.0848161
v -0.131357 -0.0397355 -0.0842829
v -0.125 -0.0378124 -0.0852361
v -0.133427 -0.0266272 -0.0842829
v -0.125 -0.0249455 -0.0855268
v -0.134673 -0.0133548 -0.0842829
v -0.13509 0 -0.0842829
v -0.125 -0.0123955 -0.0856976
v -0.125 0 -0.085754
v -0.125 0 0
f  69 25 1
f  1 27 2
f  1 2 70
f  3 11 9
f  4 3 7
f  22 5 7
f  4 7 6
f  5 6 7
f  22 7 9
f  22 9 8
f  7 3 9
f  8 9 12
f  26 16 10
f  10 13 39
f  11 14 12
f  9 11 12
f  16 12 15
f  16 15 13
f  12 14 15
f  14 42 15
f  8 12 16
f  8 16 26
f  10 16 13
f  17 19 22
f  17 8 26
f  17 26 21
f  95 19 18
f  20 23 19
f  17 18 19
f  95 20 19
f  17 21 18
f  60 18 21
f  24 5 22
f  19 24 22
f  19 23 24
f  17 22 8
f  21 26 25
f  25 26 10
f  27 39 58
f  25 10 27
f  2 27 58
f  27 10 39
f  1 25 27
f  69 21 25
f  2 58 30
f  30 59 28
f  28 48 32
f  30 29 103
f  30 28 29
f  2 30 103
f  28 31 29
f  28 32 31
f  32 50 33
f  33 51 34
f  33 34 36
f  31 32 35
f  33 36 35
f  104 35 36
f  32 33 35
f  34 37 36
f  106 36 37
f  58 38 59
f  38 39 41
f  58 39 38
f  59 40 48
f  38 45 40
f  38 40 59
f  13 43 41
f  13 15 43
f  15 42 43
f  42 44 43
f  41 43 46
f  43 44 46
f  41 47 45
f  38 41 45
f  41 46 47
f  13 41 39
f  40 53 49
f  49 55 52
f  48 49 50
f  40 49 48
f  50 52 51
f  49 52 50
f  45 47 54
f  45 54 53
f  40 45 53
f  53 54 56
f  53 56 55
f  49 53 55
f  30 58 59
f  28 59 48
f  32 48 50
f  33 50 51
f  60 21 69
f  62 18 60
f  60 69 71
f  63 61 97
f  63 95 62
f  64 63 80
f  64 61 63
f  63 62 79
f  60 71 65
f  79 62 65
f  65 71 85
f  62 60 65
f  67 66 88
f  69 68 71
f  69 1 68
f  1 70 68
f  70 2 103
f  66 70 103
f  86 71 68
f  86 85 71
f  86 68 67
f  68 70 67
f  67 70 66
f  74 73 84
f  74 75 73
f  74 76 75
f  76 72 78
f  72 85 91
f  76 78 75
f  72 91 78
f  63 79 81
f  83 80 81
f  79 76 81
f  63 81 80
f  79 65 72
f  65 85 72
f  79 72 76
f  82 81 74
f  82 83 81
f  74 81 76
f  82 74 84
f  86 87 90
f  86 90 85
f  67 88 87
f  86 67 87
f  91 85 90
f  91 77 78
f  91 89 77
f  91 90 89
f  90 93 89
f  87 92 93
f  92 94 93
f  92 116 94
f  90 87 93
f  87 88 92
f  97 96 95
f  95 96 20
f  62 95 18
f  63 97 95
f  112 101 99
f  66 101 111
f  111 101 112
f  102 100 107
f  102 99 100
f  112 99 102
f  101 103 29
f  66 103 101
f  101 29 99
f  29 31 99
f  100 31 35
f  100 99 31
f  100 104 107
f  108 104 106
f  110 106 105
f  107 104 108
f  107 108 122
f  108 106 110
f  110 105 109
f  108 110 123
f  110 109 124
f  100 35 104
f  104 36 106
f  106 37 105
f  111 115 114
f  66 111 88
f  88 111 114
f  111 112 115
f  112 118 115
f  102 113 118
f  112 102 118
f  102 107 113
f  92 88 114
f  114 117 116
f  92 114 116
f  115 119 117
f  114 115 117
f  115 118 119
f  118 113 120
f  118 120 119
f  113 126 120
f  126 121 120
f  107 122 113
f  108 123 122
f  110 124 123
f  109 125 124
f  123 124 130
f  132 124 125
f  113 122 126
f  126 122 128
f  128 122 123
f  128 123 130
f  126 127 121
f  126 128 127
f  128 129 127
f  128 130 129
f  130 124 132
f  132 125 133
f  130 131 129
f  130 132 131
f  132 134 131
f  132 133 134
f  133 135 134
f  5 98 6
f  4 6 136
f  4 136 3
f  3 136 11
f  109 105 57
f  42 57 44
f  44 57 46
f  51 52 57
f  34 51 57
f  46 57 47
f  47 57 54
f  52 55 57
f  54 57 56
f  55 56 57
f  11 136 14
f  14 136 42
f  34 57 37
f  105 37 57
f  42 136 57
f  97 98 96
f  23 98 24
f  20 98 23
f  24 98 5
f  96 98 20
f  6 98 136
f  64 80 98
f  97 61 98
f  64 98 61
f  83 98 80
f  82 98 83
f  82 84 98
f  125 57 135
f  109 57 125
f  133 125 135
f  57 136 135
f  75 136 73
f  78 77 136
f  75 78 136
f  73 98 84
f  73 136 98
f  77 89 136
f  89 93 136
f  117 136 116
f  93 94 136
f  94 116 136
f  127 129 135
f  131 135 129
f  131 134 135
f  117 119 136
f  120 136 119
f  121 127 136
f  120 121 136
f  127 135 136
