# OpenSCAD obj exporter
v -0.125 -0.184409 -0.0722929
v -0.123856 -0.182721 -0.0727774
v -0.125 -0.181388 -0.0727774
v -0.112096 -0.194402 -0.0727774
v -0.0996453 -0.204884 -0.0727774
v -0.0865802 -0.214103 -0.0727774
v -0.0729813 -0.222002 -0.0727774
v -0.0741835 -0.183448 -0.0790204
v -0.0625317 -0.190216 -0.0790204
v -0.113298 -0.232957 -0.0655922
v -0.125 -0.24 -0.0619547
v -0.116724 -0.24 -0.0634548
v -0.125 -0.223105 -0.0655922
v -0.125 -0.21678 -0.0667407
v -0.103317 -0.24 -0.0655922
v -0.0970525 -0.24 -0.0664345
v -0.0788978 -0.24 -0.0685261
v -0.125 -0.1575 -0.0759628
v -0.096046 -0.166567 -0.0790204
v -0.106122 -0.156559 -0.0790204
v -0.0955229 -0.120359 -0.0842829
v -0.115544 -0.145585 -0.0790204
v -0.125 -0.134518 -0.0787958
v -0.124253 -0.133714 -0.0790204
v -0.125 -0.132519 -0.0790204
v -0.085378 -0.175548 -0.0790204
v -0.0794038 -0.137705 -0.0842829
v -0.0877338 -0.129431 -0.0842829
v -0.0705842 -0.145131 -0.0842829
v -0.0589324 -0.228533 -0.0727774
v -0.0457293 -0.24 -0.0713532
v -0.0445202 -0.233654 -0.0727774
v -0.0504944 -0.195811 -0.0790204
v -0.0381457 -0.200199 -0.0790204
v -0.0298335 -0.237335 -0.0727774
v -0.0301685 -0.24 -0.0721886
v -0.0149629 -0.239553 -0.0727774
v -0.0149908 -0.24 -0.0726795
v -0.00593339 -0.24 -0.0727774
v -0.0255619 -0.203353 -0.0790204
v -0.0128205 -0.205253 -0.0790204
v -0.0618895 -0.24 -0.0701461
v -0.0613295 -0.151661 -0.0842829
v -0.0516966 -0.157256 -0.0842829
v -0.0315361 -0.16551 -0.0842829
v -0.041745 -0.161882 -0.0842829
v -0.0405428 -0.123328 -0.0885324
v -0.0327383 -0.126955 -0.0885324
v -0.0211327 -0.168118 -0.0842829
v -0.010599 -0.169688 -0.0842829
v -0.024732 -0.1298 -0.0885324
v -0.0165732 -0.131845 -0.0885324
v -0.00831223 -0.133077 -0.0885324
v -0.125 -0.24 0
v -0.102723 -0.110545 -0.0842829
v -0.10929 -0.100049 -0.0842829
v -0.125 -0.11443 -0.0806737
v -0.125 -0.0965161 -0.0821429
v -0.125 -0.0802503 -0.0833162
v -0.120366 -0.0772752 -0.0842829
v -0.115183 -0.0889361 -0.0842829
v -0.125 -0.0652386 -0.084244
v -0.124807 -0.0651378 -0.0842829
v -0.125 -0.0644776 -0.0842829
v -0.0943963 -0.0606026 -0.0885324
v -0.0749133 -0.0943908 -0.0885324
v -0.0688048 -0.101506 -0.0885324
v -0.08056 -0.086694 -0.0885324
v -0.0857101 -0.0784627 -0.0885324
v -0.0903316 -0.0697477 -0.0885324
v -0.125 -0.0511749 -0.0848161
v -0.125 -0.0378124 -0.0852361
v -0.097879 -0.0510839 -0.0885324
v -0.103016 -0.0311623 -0.0885324
v -0.100758 -0.0412503 -0.0885324
v -0.125 -0.0249455 -0.0855268
v -0.125 -0.0123955 -0.0856976
v -0.125 0 -0.085754
v -0.104639 -0.0208822 -0.0885324
v -0.105617 -0.0104734 -0.0885324
v -0.105943 0 -0.0885324
v -0.0649234 -0.0501292 -0.0917426
v -0.0703478 -0.0367152 -0.0917426
v -0.0678447 -0.0435565 -0.0917426
v -0.0724172 -0.0296475 -0.0917426
v -0.0752065 -0.0150085 -0.0917426
v -0.0740401 -0.0223971 -0.0917426
v -0.0759092 -0.00752747 -0.0917426
v -0.0761439 0 -0.0917426
v -0.0553553 -0.113818 -0.0885324
v -0.062272 -0.107995 -0.0885324
v -0.0480973 -0.118939 -0.0885324
v -0.0579003 -0.0623089 -0.0917426
v -0.0538419 -0.0678408 -0.0917426
v -0.0494515 -0.0729544 -0.0917426
v -0.0447563 -0.0776182 -0.0917426
v -0.0397851 -0.0818034 -0.0917426
v -0.0345686 -0.0854844 -0.0917426
v -0.0235298 -0.0912456 -0.0917426
v -0.0177754 -0.0932905 -0.0917426
v -0.0119115 -0.0947602 -0.0917426
v -0.00597418 -0.0956456 -0.0917426
v -0.029139 -0.0886383 -0.0917426
v -0.0616017 -0.0563929 -0.0917426
v -0.0391148 -0.0302017 -0.0938938
v -0.0348836 -0.0375397 -0.0938938
v -0.0324385 -0.0408725 -0.0938938
v -0.0371136 -0.0339754 -0.0938938
v -0.0408749 -0.0262418 -0.0938938
v -0.0436297 -0.0178619 -0.0938938
v -0.0423829 -0.02212 -0.0938938
v -0.0446074 -0.0134937 -0.0938938
v -0.0453102 -0.00904229 -0.0938938
v -0.0457335 -0.00453513 -0.0938938
v -0.045875 0 -0.0938938
v -0.0239696 -0.0492847 -0.0938938
v -0.0269646 -0.0467632 -0.0938938
v -0.0175556 -0.0534025 -0.0938938
v -0.0208268 -0.0515024 -0.0938938
v -0.0297934 -0.0439533 -0.0938938
v -0.0141761 -0.0549734 -0.0938938
v -0.0107093 -0.0562054 -0.0938938
v -0.00717642 -0.0570908 -0.0938938
v -0.00359931 -0.0576243 -0.0938938
v -0.00900672 -0.0156198 -0.0949727
v -0.00800632 -0.0164621 -0.0949727
v -0.00695656 -0.0172028 -0.0949727
v -0.00586391 -0.0178375 -0.0949727
v -0.00473511 -0.0183622 -0.0949727
v -0.00357712 -0.0187737 -0.0949727
v -0.00239707 -0.0190695 -0.0949727
v -0.00120224 -0.0192476 -0.0949727
v -0.0123967 -0.0113485 -0.0949727
v -0.0130651 -0.010088 -0.0949727
v -0.013653 -0.00876527 -0.0949727
v -0.0108351 -0.0136522 -0.0949727
v -0.00995158 -0.0146813 -0.0949727
v -0.0116518 -0.012539 -0.0949727
v -0.0141567 -0.00738853 -0.0949727
v -0.0145732 -0.00596624 -0.0949727
v -0.0148998 -0.00450717 -0.0949727
v -0.0151345 -0.00302031 -0.0949727
v -0.0152759 -0.00151482 -0.0949727
v -0.0153231 0 -0.0949727
v -0.125 0 0
v 0 -0.24 -0.0728307
v 0.00593339 -0.24 -0.0727774
v 0.0149629 -0.239553 -0.0727774
v 0.0149908 -0.24 -0.0726795
v 0.0298335 -0.237335 -0.0727774
v 0.0301685 -0.24 -0.0721886
v 0 -0.205888 -0.0790204
v 0.0128205 -0.205253 -0.0790204
v 0.0255619 -0.203353 -0.0790204
v 0.0457293 -0.24 -0.0713532
v 0.0445202 -0.233654 -0.0727774
v 0.0589324 -0.228533 -0.0727774
v 0.0381457 -0.200199 -0.0790204
v 0.0504944 -0.195811 -0.0790204
v 0.0618895 -0.24 -0.0701461
v 0 -0.170213 -0.0842829
v 0.010599 -0.169688 -0.0842829
v 0.0211327 -0.168118 -0.0842829
v 0 -0.133489 -0.0885324
v 0.00831223 -0.133077 -0.0885324
v 0.0165732 -0.131845 -0.0885324
v 0.024732 -0.1298 -0.0885324
v 0.0315361 -0.16551 -0.0842829
v 0.041745 -0.161882 -0.0842829
v 0.0516966 -0.157256 -0.0842829
v 0.0613295 -0.151661 -0.0842829
v 0.0327383 -0.126955 -0.0885324
v 0.0405428 -0.123328 -0.0885324
v 0.0729813 -0.222002 -0.0727774
v 0.0865802 -0.214103 -0.0727774
v 0.0625317 -0.190216 -0.0790204
v 0.0741835 -0.183448 -0.0790204
v 0.0996453 -0.204884 -0.0727774
v 0.112096 -0.194402 -0.0727774
v 0.125 -0.184409 -0.0722929
v 0.123856 -0.182721 -0.0727774
v 0.125 -0.181388 -0.0727774
v 0.0788978 -0.24 -0.0685261
v 0.0970525 -0.24 -0.0664345
v 0.103317 -0.24 -0.0655922
v 0.113298 -0.232957 -0.0655922
v 0.116724 -0.24 -0.0634548
v 0.125 -0.24 -0.0619547
v 0.125 -0.223105 -0.0655922
v 0.125 -0.21678 -0.0667407
v 0.085378 -0.175548 -0.0790204
v 0.0705842 -0.145131 -0.0842829
v 0.0794038 -0.137705 -0.0842829
v 0.0877338 -0.129431 -0.0842829
v 0.096046 -0.166567 -0.0790204
v 0.106122 -0.156559 -0.0790204
v 0.125 -0.1575 -0.0759628
v 0.0955229 -0.120359 -0.0842829
v 0.115544 -0.145585 -0.0790204
v 0.125 -0.134518 -0.0787958
v 0.124253 -0.133714 -0.0790204
v 0.125 -0.132519 -0.0790204
v 0.125 -0.24 0
v 0 -0.0959414 -0.0917426
v 0.00597418 -0.0956456 -0.0917426
v 0.0119115 -0.0947602 -0.0917426
v 0.0177754 -0.0932905 -0.0917426
v 0.0235298 -0.0912456 -0.0917426
v 0.029139 -0.0886383 -0.0917426
v 0.0480973 -0.118939 -0.0885324
v 0.0553553 -0.113818 -0.0885324
v 0.062272 -0.107995 -0.0885324
v 0.0345686 -0.0854844 -0.0917426
v 0.0397851 -0.0818034 -0.0917426
v 0.0447563 -0.0776182 -0.0917426
v 0.0494515 -0.0729544 -0.0917426
v 0.0538419 -0.0678408 -0.0917426
v 0.0579003 -0.0623089 -0.0917426
v 0 -0.0578024 -0.0938938
v 0.00359931 -0.0576243 -0.0938938
v 0.00717642 -0.0570908 -0.0938938
v 0.0107093 -0.0562054 -0.0938938
v 0.0141761 -0.0549734 -0.0938938
v 0.0175556 -0.0534025 -0.0938938
v 0.0208268 -0.0515024 -0.0938938
v 0.0239696 -0.0492847 -0.0938938
v 0.0269646 -0.0467632 -0.0938938
v 0.0297934 -0.0439533 -0.0938938
v 0 -0.0193072 -0.0949727
v 0.00120224 -0.0192476 -0.0949727
v 0.00239707 -0.0190695 -0.0949727
v 0.00357712 -0.0187737 -0.0949727
v 0.00473511 -0.0183622 -0.0949727
v 0.00586391 -0.0178375 -0.0949727
v 0.00695656 -0.0172028 -0.0949727
v 0.00800632 -0.0164621 -0.0949727
v 0.00900672 -0.0156198 -0.0949727
v 0.00995158 -0.0146813 -0.0949727
v 0.0108351 -0.0136522 -0.0949727
v 0.0116518 -0.012539 -0.0949727
v 0.0123967 -0.0113485 -0.0949727
v 0.0130651 -0.010088 -0.0949727
v 0.013653 -0.00876527 -0.0949727
v 0.0141567 -0.00738853 -0.0949727
v 0.0145732 -0.00596624 -0.0949727
v 0.0148998 -0.00450717 -0.0949727
v 0.0151345 -0.00302031 -0.0949727
v 0.0152759 -0.00151482 -0.0949727
v 0.0153231 0 -0.0949727
v 0.0324385 -0.0408725 -0.0938938
v 0.0348836 -0.0375397 -0.0938938
v 0.0371136 -0.0339754 -0.0938938
v 0.0391148 -0.0302017 -0.0938938
v 0.0616017 -0.0563929 -0.0917426
v 0.0408749 -0.0262418 -0.0938938
v 0.0423829 -0.02212 -0.0938938
v 0.0436297 -0.0178619 -0.0938938
v 0.0446074 -0.0134937 -0.0938938
v 0.0453102 -0.00904229 -0.0938938
v 0.0457335 -0.00453513 -0.0938938
v 0.045875 0 -0.0938938
v 0.0688048 -0.101506 -0.0885324
v 0.0749133 -0.0943908 -0.0885324
v 0.08056 -0.086694 -0.0885324
v 0.0857101 -0.0784627 -0.0885324
v 0.0903316 -0.0697477 -0.0885324
v 0.102723 -0.110545 -0.0842829
v 0.10929 -0.100049 -0.0842829
v 0.125 -0.11443 -0.0806737
v 0.125 -0.0965161 -0.0821429
v 0.0943963 -0.0606026 -0.0885324
v 0.115183 -0.0889361 -0.0842829
v 0.120366 -0.0772752 -0.0842829
v 0.125 -0.0802503 -0.0833162
v 0.125 -0.0652386 -0.084244
v 0.124807 -0.0651378 -0.0842829
v 0.125 -0.0644776 -0.0842829
v 0.0649234 -0.0501292 -0.0917426
v 0.0678447 -0.0435565 -0.0917426
v 0.0703478 -0.0367152 -0.0917426
v 0.0724172 -0.0296475 -0.0917426
v 0.0740401 -0.0223971 -0.0917426
v 0.0752065 -0.0150085 -0.0917426
v 0.0759092 -0.00752747 -0.0917426
v 0.0761439 0 -0.0917426
v 0.097879 -0.0510839 -0.0885324
v 0.100758 -0.0412503 -0.0885324
v 0.103016 -0.0311623 -0.0885324
v 0.125 -0.0511749 -0.0848161
v 0.125 -0.0378124 -0.0852361
v 0.104639 -0.0208822 -0.0885324
v 0.105617 -0.0104734 -0.0885324
v 0.105943 0 -0.0885324
v 0.125 -0.0249455 -0.0855268
v 0.125 -0.0123955 -0.0856976
v 0.125 0 -0.085754
v 0.125 0 0
f  2 1 3
f  4 1 2
f  4 2 19
f  5 4 26
f  30 17 7
f  6 5 8
f  5 26 8
f  6 9 7
f  6 8 9
f  12 11 13
f  10 12 13
f  10 15 12
f  10 13 14
f  5 10 14
f  10 16 15
f  6 16 10
f  6 10 5
f  4 14 1
f  5 14 4
f  7 17 16
f  6 7 16
f  30 42 17
f  2 3 18
f  2 18 20
f  20 18 22
f  2 20 19
f  4 19 26
f  19 20 27
f  22 18 23
f  22 23 24
f  24 23 25
f  24 25 57
f  21 22 24
f  20 22 28
f  21 24 55
f  28 22 21
f  26 19 29
f  8 26 43
f  9 8 44
f  26 29 43
f  28 91 27
f  29 27 90
f  20 28 27
f  19 27 29
f  32 42 30
f  31 42 32
f  30 7 33
f  32 30 34
f  31 32 35
f  31 35 36
f  32 40 35
f  32 34 40
f  7 9 33
f  30 33 34
f  33 9 46
f  33 45 34
f  35 37 36
f  36 37 38
f  35 41 37
f  35 40 41
f  37 39 38
f  37 146 39
f  37 152 146
f  37 41 152
f  40 34 49
f  40 50 41
f  40 49 50
f  41 161 152
f  41 50 161
f  46 51 45
f  9 44 46
f  8 43 44
f  33 46 45
f  43 29 92
f  43 47 44
f  29 90 92
f  43 92 47
f  46 44 48
f  44 47 48
f  46 48 51
f  45 52 49
f  49 53 50
f  50 164 161
f  34 45 49
f  45 51 52
f  49 52 53
f  50 53 164
f  52 102 53
f  53 204 164
f  56 58 61
f  55 56 68
f  24 57 55
f  55 57 56
f  56 57 58
f  61 58 59
f  61 59 60
f  60 59 62
f  60 62 63
f  63 62 64
f  63 64 71
f  60 63 65
f  56 61 69
f  61 60 70
f  61 70 69
f  60 65 70
f  21 55 66
f  28 21 67
f  21 66 67
f  55 68 66
f  28 67 91
f  27 91 90
f  56 69 68
f  69 70 104
f  70 65 82
f  69 93 68
f  66 68 94
f  67 66 95
f  68 93 94
f  69 104 93
f  63 71 73
f  74 72 76
f  75 71 72
f  75 72 74
f  63 73 65
f  73 71 75
f  79 76 77
f  74 76 79
f  80 77 78
f  79 77 80
f  80 78 81
f  74 79 87
f  79 80 86
f  80 81 88
f  65 73 84
f  73 75 83
f  75 74 85
f  73 83 84
f  75 85 83
f  70 82 104
f  65 84 82
f  74 87 85
f  79 86 87
f  81 89 88
f  80 88 86
f  85 87 110
f  87 86 112
f  86 88 113
f  88 89 114
f  91 67 96
f  90 91 97
f  90 98 92
f  47 92 103
f  48 47 99
f  90 97 98
f  92 98 103
f  66 94 95
f  67 95 96
f  91 96 97
f  94 120 95
f  96 95 117
f  96 116 97
f  98 97 119
f  51 48 100
f  51 101 52
f  51 100 101
f  47 103 99
f  48 99 100
f  52 101 102
f  53 102 204
f  98 118 103
f  99 103 121
f  99 122 100
f  97 116 119
f  98 119 118
f  103 118 121
f  99 121 122
f  101 100 123
f  101 124 102
f  102 219 204
f  100 122 123
f  101 123 124
f  102 124 219
f  94 93 107
f  93 104 106
f  82 108 104
f  82 84 105
f  84 83 109
f  82 105 108
f  84 109 105
f  93 106 107
f  95 120 117
f  96 117 116
f  94 107 120
f  104 108 106
f  83 85 111
f  83 111 109
f  85 110 111
f  87 112 110
f  86 113 112
f  88 114 113
f  89 115 114
f  111 135 109
f  111 110 139
f  110 112 140
f  112 113 141
f  113 114 142
f  114 115 143
f  107 106 136
f  107 137 120
f  116 117 126
f  116 127 119
f  117 120 125
f  118 129 121
f  118 119 128
f  121 130 122
f  122 131 123
f  123 132 124
f  124 229 219
f  121 129 130
f  122 130 131
f  123 131 132
f  124 132 229
f  106 108 138
f  108 105 133
f  105 109 134
f  107 136 137
f  120 137 125
f  108 133 138
f  105 134 133
f  109 135 134
f  106 138 136
f  110 140 139
f  112 141 140
f  113 142 141
f  115 144 143
f  114 143 142
f  111 139 135
f  117 125 126
f  116 126 127
f  119 127 128
f  118 128 129
f  127 126 125
f  127 125 137
f  128 137 129
f  130 129 137
f  128 127 137
f  130 137 131
f  131 137 132
f  132 137 229
f  137 230 229
f  137 231 230
f  137 232 231
f  137 233 232
f  138 133 240
f  133 134 241
f  134 135 242
f  135 139 243
f  136 238 137
f  136 138 239
f  139 140 244
f  140 141 245
f  141 142 246
f  142 143 247
f  143 144 248
f  146 148 147
f  146 152 148
f  147 148 149
f  148 152 153
f  148 150 149
f  148 153 150
f  149 150 151
f  150 153 154
f  152 161 153
f  153 161 162
f  153 162 154
f  154 162 163
f  154 163 158
f  150 156 151
f  151 156 155
f  150 154 156
f  156 154 158
f  155 156 157
f  155 157 160
f  156 158 157
f  157 159 174
f  158 168 159
f  157 158 159
f  174 159 176
f  159 169 176
f  161 164 162
f  162 165 163
f  163 166 168
f  158 163 168
f  162 164 165
f  163 165 166
f  164 204 165
f  165 205 166
f  168 166 167
f  168 167 169
f  159 168 169
f  176 169 170
f  177 170 171
f  169 167 172
f  169 172 170
f  170 172 173
f  170 173 171
f  171 210 192
f  171 173 210
f  192 210 211
f  157 174 160
f  174 175 183
f  174 176 175
f  176 177 175
f  177 178 175
f  177 191 178
f  178 191 179
f  179 195 181
f  179 181 180
f  181 182 180
f  174 183 160
f  175 184 183
f  175 186 184
f  184 186 185
f  175 178 186
f  185 186 187
f  186 188 187
f  186 189 188
f  178 189 186
f  178 190 189
f  178 179 190
f  179 180 190
f  176 170 177
f  177 171 191
f  171 192 191
f  192 195 191
f  192 211 193
f  193 212 194
f  192 193 195
f  193 194 196
f  179 191 195
f  181 195 196
f  193 196 195
f  181 196 182
f  196 197 182
f  196 199 197
f  196 194 199
f  194 198 199
f  198 267 201
f  199 200 197
f  199 201 200
f  198 201 199
f  201 202 200
f  201 267 202
f  165 204 205
f  166 205 206
f  166 206 167
f  167 206 207
f  167 207 172
f  172 207 208
f  173 208 209
f  204 219 205
f  205 220 206
f  206 221 207
f  205 219 220
f  206 220 221
f  207 221 222
f  207 222 208
f  208 223 209
f  209 224 213
f  208 222 223
f  209 223 224
f  213 224 225
f  214 225 226
f  172 208 173
f  173 209 210
f  210 213 211
f  210 209 213
f  211 213 214
f  211 214 212
f  212 215 262
f  213 225 214
f  214 226 215
f  215 227 216
f  216 228 217
f  212 214 215
f  262 215 216
f  263 216 217
f  219 229 220
f  220 230 221
f  221 231 222
f  220 229 230
f  221 230 231
f  222 231 232
f  223 232 233
f  222 232 223
f  223 233 224
f  224 234 225
f  225 235 226
f  226 236 227
f  227 237 228
f  228 238 250
f  250 239 251
f  137 234 233
f  137 235 234
f  137 236 235
f  137 237 236
f  224 233 234
f  225 234 235
f  226 235 236
f  227 236 237
f  137 238 237
f  136 239 238
f  138 240 239
f  133 241 240
f  134 242 241
f  135 243 242
f  139 244 243
f  140 245 244
f  141 246 245
f  142 247 246
f  143 248 247
f  144 249 248
f  228 237 238
f  250 238 239
f  251 239 240
f  252 240 241
f  253 241 242
f  255 242 243
f  251 240 252
f  252 241 253
f  253 242 255
f  243 244 256
f  244 245 257
f  245 246 258
f  246 247 259
f  247 248 260
f  248 249 261
f  215 226 227
f  216 227 228
f  217 228 250
f  218 250 251
f  251 252 254
f  217 250 218
f  218 251 254
f  252 278 254
f  252 253 278
f  253 255 279
f  253 279 278
f  279 255 280
f  255 243 256
f  244 257 256
f  245 258 257
f  246 259 258
f  247 260 259
f  248 261 260
f  280 255 256
f  256 257 281
f  257 258 282
f  280 256 281
f  283 258 259
f  259 260 284
f  260 261 285
f  193 211 212
f  194 212 262
f  194 262 198
f  198 262 263
f  198 263 267
f  263 264 267
f  262 216 263
f  263 217 264
f  264 218 265
f  264 217 218
f  218 254 265
f  264 265 268
f  265 254 266
f  266 278 271
f  264 268 267
f  268 272 270
f  267 268 269
f  267 269 202
f  268 270 269
f  265 266 272
f  268 265 272
f  272 266 273
f  273 266 271
f  272 274 270
f  272 273 274
f  273 271 276
f  276 286 277
f  273 276 274
f  276 275 274
f  276 277 275
f  266 254 278
f  271 278 279
f  271 279 286
f  279 280 286
f  280 281 287
f  280 287 286
f  281 288 287
f  257 282 281
f  282 258 283
f  283 259 284
f  260 285 284
f  281 282 288
f  282 283 291
f  283 284 292
f  284 285 293
f  271 286 276
f  286 287 277
f  287 289 277
f  287 288 289
f  288 290 289
f  282 291 288
f  283 292 291
f  284 293 292
f  288 291 290
f  291 292 294
f  291 294 290
f  292 295 294
f  292 293 295
f  293 296 295
f  12 203 11
f  15 203 12
f  15 16 203
f  16 17 203
f  17 42 203
f  11 203 54
f  81 145 89
f  81 78 145
f  89 145 115
f  115 145 144
f  144 145 249
f  249 145 261
f  261 145 285
f  54 297 145
f  31 36 203
f  36 38 203
f  38 39 203
f  39 146 203
f  146 147 203
f  147 149 203
f  149 151 203
f  151 155 203
f  31 203 42
f  54 203 297
f  155 160 203
f  160 183 203
f  183 184 203
f  184 185 203
f  185 187 203
f  187 188 203
f  285 145 293
f  293 145 296
f  145 297 296
f  1 54 3
f  3 54 18
f  23 18 54
f  25 23 54
f  57 54 58
f  25 54 57
f  59 58 54
f  59 54 62
f  62 54 64
f  13 11 54
f  13 54 14
f  14 54 1
f  64 54 71
f  71 145 72
f  72 145 76
f  76 145 77
f  78 77 145
f  71 54 145
f  180 182 297
f  189 203 188
f  203 189 190
f  190 180 297
f  297 203 190
f  182 197 297
f  197 200 297
f  200 202 297
f  202 269 297
f  269 270 297
f  270 274 297
f  274 275 297
f  275 277 297
f  277 289 297
f  289 290 297
f  290 294 297
f  294 295 297
f  296 297 295
