# OpenSCAD obj exporter
v -0.125 0 -0.0847466
v -0.125 0.0129858 -0.0846902
v -0.125 0.0261334 -0.0845194
v -0.105943 0 -0.087525
v -0.105617 0.0109721 -0.087525
v -0.104639 0.0218766 -0.087525
v -0.125 0.039613 -0.0842287
v -0.125 0.0536117 -0.0838087
v -0.103016 0.0326463 -0.087525
v -0.100758 0.0432146 -0.087525
v -0.097879 0.0535165 -0.087525
v -0.0761439 0 -0.0907352
v -0.0759092 0.00788592 -0.0907352
v -0.0752065 0.0157232 -0.0907352
v -0.0740401 0.0234636 -0.0907352
v -0.0724172 0.0310593 -0.0907352
v -0.0703478 0.0384635 -0.0907352
v -0.0678447 0.0456306 -0.0907352
v -0.0649234 0.0525163 -0.0907352
v -0.125 0.0675479 -0.0832755
v -0.124807 0.0682396 -0.0832755
v -0.125 0.0683452 -0.0832366
v -0.120366 0.0809549 -0.0832755
v -0.125 0.0840717 -0.0823088
v -0.0943963 0.0634885 -0.087525
v -0.115183 0.0931712 -0.0832755
v -0.10929 0.104813 -0.0832755
v -0.102723 0.115809 -0.0832755
v -0.125 0.101112 -0.0811355
v -0.125 0.11988 -0.0796663
v -0.0903316 0.073069 -0.087525
v -0.0857101 0.082199 -0.087525
v -0.08056 0.0908223 -0.087525
v -0.0749133 0.0988856 -0.087525
v -0.0688048 0.106339 -0.087525
v -0.045875 0 -0.0928864
v -0.0457335 0.00475109 -0.0928864
v -0.0453102 0.00947288 -0.0928864
v -0.0446074 0.0141363 -0.0928864
v -0.0436297 0.0187125 -0.0928864
v -0.0423829 0.0231734 -0.0928864
v -0.0408749 0.0274914 -0.0928864
v -0.0616017 0.0590783 -0.0907352
v -0.0391148 0.0316399 -0.0928864
v -0.0371136 0.0355933 -0.0928864
v -0.0348836 0.0393273 -0.0928864
v -0.0324385 0.0428188 -0.0928864
v -0.0153231 0 -0.0939654
v -0.0152759 0.00158696 -0.0939654
v -0.0151345 0.00316413 -0.0939654
v -0.0148998 0.00472179 -0.0939654
v -0.0145732 0.00625035 -0.0939654
v -0.0141567 0.00774036 -0.0939654
v -0.013653 0.00918266 -0.0939654
v -0.0130651 0.0105683 -0.0939654
v -0.0123967 0.0118889 -0.0939654
v -0.0116518 0.0131361 -0.0939654
v -0.0108351 0.0143023 -0.0939654
v -0.00995158 0.0153804 -0.0939654
v -0.00900672 0.0163636 -0.0939654
v -0.00800632 0.017246 -0.0939654
v -0.00695656 0.018022 -0.0939654
v -0.00586391 0.0186869 -0.0939654
v -0.00473511 0.0192366 -0.0939654
v -0.00357712 0.0196677 -0.0939654
v -0.00239707 0.0199775 -0.0939654
v -0.00120224 0.0201642 -0.0939654
v -0.0297934 0.0460463 -0.0928864
v -0.0269646 0.04899 -0.0928864
v -0.0239696 0.0516316 -0.0928864
v -0.0208268 0.0539548 -0.0928864
v -0.0175556 0.0559455 -0.0928864
v -0.0141761 0.0575912 -0.0928864
v -0.0107093 0.0588818 -0.0928864
v -0.00717642 0.0598094 -0.0928864
v -0.0579003 0.065276 -0.0907352
v -0.0538419 0.0710713 -0.0907352
v -0.0494515 0.0764284 -0.0907352
v -0.0447563 0.0813143 -0.0907352
v -0.0397851 0.0856989 -0.0907352
v -0.0345686 0.0895551 -0.0907352
v -0.062272 0.113137 -0.087525
v -0.0553553 0.119238 -0.087525
v -0.00359931 0.0603683 -0.0928864
v -0.029139 0.0928591 -0.0907352
v -0.0235298 0.0955907 -0.0907352
v -0.0177754 0.0977329 -0.0907352
v -0.0119115 0.0992725 -0.0907352
v -0.00597418 0.1002 -0.0907352
v -0.125 0 1.38778e-17
v -0.0955229 0.12609 -0.0832755
v -0.125 0.13883 -0.078013
v -0.124253 0.140081 -0.078013
v -0.125 0.140923 -0.0777884
v -0.115544 0.152518 -0.078013
v -0.125 0.165 -0.0749554
v -0.106122 0.164014 -0.078013
v -0.096046 0.174499 -0.078013
v -0.0877338 0.135594 -0.0832755
v -0.0794038 0.144263 -0.0832755
v -0.0705842 0.152042 -0.0832755
v -0.125 0.190026 -0.07177
v -0.123856 0.191422 -0.07177
v -0.125 0.19319 -0.0712855
v -0.112096 0.203659 -0.07177
v -0.0996453 0.21464 -0.07177
v -0.085378 0.183908 -0.078013
v -0.0741835 0.192183 -0.078013
v -0.0625317 0.199274 -0.078013
v -0.0865802 0.224299 -0.07177
v -0.0729813 0.232574 -0.07177
v -0.125 0.227103 -0.0657333
v -0.111418 0.24 -0.0655742
v -0.125 0.233729 -0.0645848
v -0.125 0.24 -0.063296
v -0.11789 0.24 -0.0645848
v -0.092641 0.24 -0.0680991
v -0.0753116 0.24 -0.0700956
v -0.0480973 0.124603 -0.087525
v -0.0405428 0.1292 -0.087525
v -0.0327383 0.133001 -0.087525
v -0.0613295 0.158883 -0.0832755
v -0.0516966 0.164745 -0.0832755
v -0.041745 0.169591 -0.0832755
v -0.0315361 0.173392 -0.0832755
v -0.024732 0.135981 -0.087525
v -0.0165732 0.138124 -0.087525
v -0.00831223 0.139414 -0.087525
v -0.0211327 0.176123 -0.0832755
v -0.010599 0.177769 -0.0832755
v -0.0504944 0.205136 -0.078013
v -0.0381457 0.209733 -0.078013
v -0.0589324 0.239415 -0.07177
v -0.0590763 0.24 -0.0716419
v -0.0573622 0.24 -0.07177
v -0.0436507 0.24 -0.0726216
v -0.0255619 0.213037 -0.078013
v -0.0287972 0.24 -0.0732846
v -0.0128205 0.215027 -0.078013
v -0.0143094 0.24 -0.0736742
v -0.125 0.24 1.38778e-17
v 0.0153231 0 -0.0939654
v 0.0152759 0.00158696 -0.0939654
v 0.0151345 0.00316413 -0.0939654
v 0.0148998 0.00472179 -0.0939654
v 0.0145732 0.00625035 -0.0939654
v 0.0116518 0.0131361 -0.0939654
v 0.0108351 0.0143023 -0.0939654
v 0.013653 0.00918266 -0.0939654
v 0.0130651 0.0105683 -0.0939654
v 0.0141567 0.00774036 -0.0939654
v 0.0123967 0.0118889 -0.0939654
v 0 0.0202265 -0.0939654
v 0.00120224 0.0201642 -0.0939654
v 0.00239707 0.0199775 -0.0939654
v 0.00357712 0.0196677 -0.0939654
v 0.00586391 0.0186869 -0.0939654
v 0.00695656 0.018022 -0.0939654
v 0.00473511 0.0192366 -0.0939654
v 0.00900672 0.0163636 -0.0939654
v 0.00800632 0.017246 -0.0939654
v 0.00995158 0.0153804 -0.0939654
v 0.00717642 0.0598094 -0.0928864
v 0.0107093 0.0588818 -0.0928864
v 0.0141761 0.0575912 -0.0928864
v 0.0175556 0.0559455 -0.0928864
v 0.0208268 0.0539548 -0.0928864
v 0.0239696 0.0516316 -0.0928864
v 0.0269646 0.04899 -0.0928864
v 0.0297934 0.0460463 -0.0928864
v 0.045875 0 -0.0928864
v 0.0457335 0.00475109 -0.0928864
v 0.0453102 0.00947288 -0.0928864
v 0.0446074 0.0141363 -0.0928864
v 0.0436297 0.0187125 -0.0928864
v 0.0423829 0.0231734 -0.0928864
v 0.0408749 0.0274914 -0.0928864
v 0.0371136 0.0355933 -0.0928864
v 0.0348836 0.0393273 -0.0928864
v 0.0324385 0.0428188 -0.0928864
v 0.0391148 0.0316399 -0.0928864
v 0.0616017 0.0590783 -0.0907352
v 0 0.0605549 -0.0928864
v 0.00359931 0.0603683 -0.0928864
v 0 0.10051 -0.0907352
v 0.00597418 0.1002 -0.0907352
v 0.0119115 0.0992725 -0.0907352
v 0.0177754 0.0977329 -0.0907352
v 0.0235298 0.0955907 -0.0907352
v 0.029139 0.0928591 -0.0907352
v 0.0345686 0.0895551 -0.0907352
v 0.0447563 0.0813143 -0.0907352
v 0.0397851 0.0856989 -0.0907352
v 0.0538419 0.0710713 -0.0907352
v 0.0579003 0.065276 -0.0907352
v 0.0494515 0.0764284 -0.0907352
v 0.0553553 0.119238 -0.087525
v 0.062272 0.113137 -0.087525
v 0.0761439 0 -0.0907352
v 0.0759092 0.00788592 -0.0907352
v 0.0752065 0.0157232 -0.0907352
v 0.0740401 0.0234636 -0.0907352
v 0.0724172 0.0310593 -0.0907352
v 0.0703478 0.0384635 -0.0907352
v 0.0678447 0.0456306 -0.0907352
v 0.0649234 0.0525163 -0.0907352
v 0.105943 0 -0.087525
v 0.105617 0.0109721 -0.087525
v 0.104639 0.0218766 -0.087525
v 0.125 0 -0.0847466
v 0.125 0.0129858 -0.0846902
v 0.125 0.0261334 -0.0845194
v 0.100758 0.0432146 -0.087525
v 0.103016 0.0326463 -0.087525
v 0.097879 0.0535165 -0.087525
v 0.125 0.039613 -0.0842287
v 0.125 0.0536117 -0.0838087
v 0.0903316 0.073069 -0.087525
v 0.0857101 0.082199 -0.087525
v 0.0749133 0.0988856 -0.087525
v 0.0688048 0.106339 -0.087525
v 0.08056 0.0908223 -0.087525
v 0.0943963 0.0634885 -0.087525
v 0.125 0.0675479 -0.0832755
v 0.124807 0.0682396 -0.0832755
v 0.125 0.0683452 -0.0832366
v 0.120366 0.0809549 -0.0832755
v 0.125 0.0840717 -0.0823088
v 0.10929 0.104813 -0.0832755
v 0.102723 0.115809 -0.0832755
v 0.115183 0.0931712 -0.0832755
v 0.125 0.101112 -0.0811355
v 0.125 0.11988 -0.0796663
v 0.125 0 1.38778e-17
v 0 0.139845 -0.087525
v 0.00831223 0.139414 -0.087525
v 0.0165732 0.138124 -0.087525
v 0.024732 0.135981 -0.087525
v 0 0.178319 -0.0832755
v 0.010599 0.177769 -0.0832755
v 0.0211327 0.176123 -0.0832755
v 0.0327383 0.133001 -0.087525
v 0.0405428 0.1292 -0.087525
v 0.0480973 0.124603 -0.087525
v 0.0315361 0.173392 -0.0832755
v 0.041745 0.169591 -0.0832755
v 0.0516966 0.164745 -0.0832755
v 0.0613295 0.158883 -0.0832755
v 0 0.215692 -0.078013
v 0.0128205 0.215027 -0.078013
v 0 0.24 -0.0738028
v 0.0143094 0.24 -0.0736742
v 0.0255619 0.213037 -0.078013
v 0.0287972 0.24 -0.0732846
v 0.0381457 0.209733 -0.078013
v 0.0504944 0.205136 -0.078013
v 0.0436507 0.24 -0.0726216
v 0.0573622 0.24 -0.07177
v 0.0589324 0.239415 -0.07177
v 0.0590763 0.24 -0.0716419
v 0.0794038 0.144263 -0.0832755
v 0.0877338 0.135594 -0.0832755
v 0.0705842 0.152042 -0.0832755
v 0.0955229 0.12609 -0.0832755
v 0.125 0.13883 -0.078013
v 0.124253 0.140081 -0.078013
v 0.125 0.140923 -0.0777884
v 0.106122 0.164014 -0.078013
v 0.096046 0.174499 -0.078013
v 0.115544 0.152518 -0.078013
v 0.125 0.165 -0.0749554
v 0.0741835 0.192183 -0.078013
v 0.0625317 0.199274 -0.078013
v 0.085378 0.183908 -0.078013
v 0.0729813 0.232574 -0.07177
v 0.0865802 0.224299 -0.07177
v 0.125 0.190026 -0.07177
v 0.123856 0.191422 -0.07177
v 0.125 0.19319 -0.0712855
v 0.112096 0.203659 -0.07177
v 0.0996453 0.21464 -0.07177
v 0.0753116 0.24 -0.0700956
v 0.092641 0.24 -0.0680991
v 0.111418 0.24 -0.0655742
v 0.125 0.227103 -0.0657333
v 0.11789 0.24 -0.0645848
v 0.125 0.233729 -0.0645848
v 0.125 0.24 -0.063296
v 0.125 0.24 1.38778e-17
f  4 1 2
f  4 2 5
f  5 2 3
f  6 3 7
f  5 3 6
f  4 5 13
f  5 6 14
f  6 9 15
f  9 7 8
f  6 7 9
f  9 8 10
f  10 8 20
f  10 20 11
f  4 13 12
f  5 14 13
f  6 15 14
f  9 16 15
f  12 13 37
f  13 14 38
f  39 14 15
f  15 16 40
f  9 10 16
f  10 17 16
f  10 11 17
f  11 25 18
f  11 18 17
f  18 25 19
f  21 20 22
f  21 22 24
f  11 20 21
f  21 23 25
f  21 24 23
f  23 24 26
f  11 21 25
f  25 23 31
f  31 23 26
f  31 26 32
f  26 24 29
f  26 29 27
f  32 26 27
f  27 28 33
f  27 29 30
f  27 30 28
f  19 25 31
f  43 31 32
f  19 31 43
f  43 32 76
f  32 33 76
f  76 33 77
f  77 33 34
f  32 27 33
f  28 34 33
f  28 91 34
f  34 91 35
f  78 34 35
f  35 99 82
f  12 37 36
f  13 38 37
f  38 14 39
f  39 15 40
f  40 16 41
f  41 17 42
f  36 37 49
f  37 38 50
f  38 39 51
f  39 40 52
f  40 41 53
f  41 42 54
f  41 16 17
f  42 17 18
f  18 19 44
f  42 18 44
f  19 45 44
f  19 43 45
f  43 76 46
f  47 76 77
f  43 46 45
f  46 76 47
f  47 77 68
f  68 78 69
f  36 49 48
f  37 50 49
f  38 51 50
f  39 52 51
f  40 53 52
f  41 54 53
f  55 42 44
f  56 44 45
f  57 45 46
f  54 42 55
f  55 44 56
f  56 45 57
f  57 46 58
f  58 47 59
f  59 68 60
f  48 49 143
f  49 50 144
f  50 51 145
f  51 52 146
f  52 53 151
f  53 54 149
f  54 55 150
f  55 56 152
f  56 57 147
f  57 58 148
f  60 69 61
f  61 70 62
f  62 63 65
f  63 64 65
f  62 65 66
f  58 59 162
f  59 60 160
f  60 61 161
f  61 62 158
f  62 66 67
f  62 67 153
f  62 153 154
f  62 154 155
f  62 155 156
f  58 46 47
f  59 47 68
f  60 68 69
f  61 69 70
f  62 70 71
f  62 71 63
f  63 72 64
f  63 71 72
f  64 72 73
f  64 73 65
f  65 74 66
f  66 75 67
f  67 84 153
f  65 73 74
f  66 74 75
f  67 75 84
f  84 183 153
f  77 34 78
f  78 35 79
f  68 77 78
f  69 78 79
f  69 79 70
f  70 79 80
f  71 80 81
f  79 35 82
f  79 82 80
f  80 82 83
f  80 83 81
f  81 119 85
f  81 83 119
f  85 119 120
f  86 120 121
f  70 80 71
f  71 81 72
f  72 85 73
f  73 86 74
f  72 81 85
f  73 85 86
f  74 86 87
f  74 87 75
f  75 88 84
f  84 89 183
f  75 87 88
f  84 88 89
f  89 185 183
f  85 120 86
f  86 121 87
f  87 126 88
f  88 127 89
f  89 128 185
f  28 30 92
f  28 92 93
f  93 92 94
f  93 94 95
f  91 93 95
f  28 93 91
f  91 95 99
f  95 94 96
f  95 96 97
f  97 96 102
f  99 95 97
f  97 98 100
f  97 103 98
f  35 91 99
f  82 99 100
f  82 100 83
f  83 100 101
f  99 97 100
f  98 101 100
f  98 107 101
f  101 107 122
f  122 107 108
f  97 102 103
f  103 102 104
f  98 103 105
f  103 104 105
f  98 105 107
f  107 105 106
f  107 106 108
f  123 108 109
f  110 109 108
f  106 110 108
f  106 117 110
f  110 118 111
f  110 111 109
f  111 118 134
f  111 134 133
f  105 104 112
f  105 112 106
f  113 114 116
f  106 112 114
f  106 114 113
f  116 114 115
f  106 113 117
f  110 117 118
f  83 101 119
f  119 101 122
f  119 122 120
f  120 123 121
f  121 124 126
f  120 122 123
f  121 123 124
f  126 124 125
f  122 108 123
f  123 109 124
f  87 121 126
f  88 126 127
f  126 125 127
f  89 127 128
f  128 235 185
f  127 125 129
f  127 129 128
f  128 129 130
f  128 130 235
f  130 239 235
f  124 109 131
f  124 131 125
f  125 131 132
f  109 111 131
f  131 133 132
f  131 111 133
f  133 134 135
f  132 133 136
f  133 135 136
f  132 136 138
f  125 132 129
f  129 137 130
f  129 132 137
f  130 137 139
f  130 139 239
f  139 249 239
f  132 138 137
f  137 140 139
f  137 138 140
f  139 251 249
f  139 140 251
f  48 143 142
f  49 144 143
f  50 145 144
f  51 146 145
f  52 151 146
f  56 147 152
f  57 148 147
f  58 162 148
f  53 149 151
f  54 150 149
f  55 152 150
f  62 159 157
f  60 161 160
f  59 160 162
f  61 158 161
f  62 157 158
f  62 156 159
f  158 168 161
f  160 161 169
f  151 149 176
f  143 144 172
f  142 143 171
f  144 145 173
f  145 146 174
f  146 151 175
f  147 148 179
f  149 150 177
f  150 152 181
f  152 147 178
f  162 160 170
f  148 162 180
f  150 181 177
f  147 179 178
f  152 178 181
f  153 184 154
f  154 163 155
f  155 164 156
f  156 165 159
f  157 159 166
f  157 167 158
f  159 165 166
f  157 166 167
f  153 183 184
f  154 184 163
f  155 163 164
f  156 164 165
f  160 169 170
f  158 167 168
f  161 168 169
f  148 180 179
f  162 170 180
f  143 172 171
f  144 173 172
f  145 174 173
f  146 175 174
f  151 176 175
f  149 177 176
f  171 172 199
f  172 173 200
f  173 174 201
f  174 175 202
f  175 176 203
f  177 204 176
f  178 179 182
f  180 170 194
f  170 169 196
f  179 180 195
f  177 181 205
f  181 178 206
f  176 204 203
f  177 205 204
f  181 206 205
f  178 182 206
f  180 194 195
f  179 195 182
f  183 186 184
f  163 184 187
f  163 188 164
f  183 185 186
f  184 186 187
f  163 187 188
f  165 164 189
f  166 165 190
f  167 166 191
f  167 193 168
f  165 189 190
f  164 188 189
f  166 190 191
f  185 236 186
f  186 237 187
f  187 238 188
f  188 242 189
f  190 189 243
f  168 192 169
f  168 193 192
f  170 196 194
f  169 192 196
f  167 191 193
f  196 192 221
f  194 196 220
f  191 190 244
f  193 191 197
f  189 242 243
f  191 244 197
f  190 243 244
f  193 198 192
f  192 198 221
f  193 197 198
f  172 200 199
f  173 201 200
f  174 202 201
f  175 203 202
f  200 201 208
f  199 200 207
f  201 202 209
f  202 203 214
f  205 206 223
f  203 204 213
f  203 213 214
f  204 205 215
f  204 215 213
f  205 223 215
f  200 208 207
f  201 209 208
f  202 214 209
f  207 208 210
f  208 211 210
f  208 209 211
f  209 214 212
f  209 212 211
f  213 215 217
f  214 213 216
f  214 216 212
f  213 217 216
f  215 225 217
f  182 195 219
f  182 218 206
f  195 194 222
f  194 220 222
f  195 222 219
f  206 218 223
f  182 219 218
f  196 221 220
f  198 262 221
f  222 229 219
f  222 220 230
f  220 221 264
f  220 264 230
f  215 223 225
f  223 218 227
f  218 219 231
f  218 231 227
f  223 227 225
f  225 224 217
f  225 226 224
f  225 227 226
f  227 228 226
f  227 231 228
f  222 230 229
f  219 229 231
f  231 229 232
f  231 232 228
f  229 230 233
f  229 233 232
f  185 235 236
f  186 236 237
f  187 237 238
f  188 238 242
f  237 245 238
f  235 240 236
f  236 241 237
f  236 240 241
f  235 239 240
f  237 241 245
f  242 238 246
f  243 242 247
f  197 244 263
f  243 248 244
f  244 248 263
f  238 245 246
f  242 246 247
f  243 247 248
f  247 246 273
f  247 272 248
f  239 250 240
f  239 249 250
f  240 253 241
f  241 255 245
f  240 250 253
f  241 253 255
f  249 252 250
f  249 251 252
f  250 254 253
f  250 252 254
f  245 256 246
f  245 255 256
f  246 256 273
f  255 253 257
f  253 254 257
f  255 259 256
f  256 275 273
f  255 257 259
f  257 258 259
f  256 259 275
f  258 260 259
f  198 197 261
f  198 261 262
f  197 263 261
f  221 262 264
f  261 268 262
f  248 274 263
f  248 272 274
f  261 263 269
f  263 274 269
f  230 264 266
f  264 262 270
f  230 266 233
f  266 265 233
f  264 270 266
f  266 267 265
f  266 270 267
f  261 269 268
f  262 268 270
f  268 269 278
f  270 268 271
f  270 271 267
f  268 278 271
f  247 273 272
f  272 273 276
f  272 281 274
f  273 275 276
f  259 260 282
f  259 282 275
f  272 276 281
f  275 283 276
f  269 274 280
f  274 281 280
f  269 280 278
f  278 277 271
f  278 279 277
f  278 280 279
f  275 282 283
f  280 285 279
f  281 276 284
f  276 283 284
f  280 281 285
f  281 284 285
f  284 286 285
f  286 287 285
f  286 288 287
f  4 234 1
f  4 12 234
f  1 234 90
f  134 118 141
f  134 141 135
f  135 141 136
f  136 141 138
f  138 141 140
f  140 141 251
f  251 141 252
f  252 141 254
f  254 141 257
f  257 141 258
f  258 141 260
f  116 115 141
f  113 116 141
f  113 141 117
f  117 141 118
f  141 90 289
f  12 36 234
f  36 48 234
f  48 142 234
f  142 171 234
f  171 199 234
f  199 207 234
f  207 210 234
f  90 234 289
f  260 141 282
f  282 141 283
f  283 141 284
f  284 141 286
f  286 141 288
f  141 289 288
f  2 1 90
f  2 90 3
f  3 90 7
f  7 90 8
f  20 8 90
f  20 90 22
f  22 90 24
f  24 90 29
f  30 29 90
f  30 90 92
f  94 92 90
f  94 90 96
f  96 90 102
f  102 90 104
f  104 90 112
f  112 90 141
f  112 141 114
f  115 114 141
f  210 211 234
f  211 212 234
f  216 234 212
f  216 217 234
f  289 234 217
f  289 217 224
f  289 224 226
f  226 228 289
f  228 232 289
f  232 233 289
f  233 265 289
f  265 267 289
f  267 271 289
f  271 277 289
f  277 279 289
f  288 285 287
f  279 285 289
f  288 289 285
