# OpenSCAD obj exporter
v 0.125 0 -0.0847466
v 0.125 0.0129858 -0.0846902
v 0.13509 0 -0.0832755
v 0.134673 0.0139907 -0.0832755
v 0.125 0.0261334 -0.0845194
v 0.133427 0.0278952 -0.0832755
v 0.125 0.039613 -0.0842287
v 0.131357 0.0416276 -0.0832755
v 0.125 0.0536117 -0.0838087
v 0.128478 0.0551035 -0.0832755
v 0.163403 0 -0.078013
v 0.1629 0.016923 -0.078013
v 0.161392 0.0337417 -0.078013
v 0.158888 0.0503524 -0.078013
v 0.125 0.0675479 -0.0832755
v 0.125 0.0683452 -0.0832366
v 0.125 0.0840717 -0.0823088
v 0.150965 0.0825419 -0.078013
v 0.125 0.101112 -0.0811355
v 0.125 0.11988 -0.0796663
v 0.145593 0.0979223 -0.078013
v 0.139324 0.112699 -0.078013
v 0.155406 0.0666526 -0.078013
v 0.176192 0.0963353 -0.07177
v 0.169923 0.114286 -0.07177
v 0.190121 0.019751 -0.07177
v 0.190709 0 -0.07177
v 0.188361 0.0393802 -0.07177
v 0.18544 0.0587667 -0.07177
v 0.216171 0.0224572 -0.0645848
v 0.21684 0 -0.0645848
v 0.21417 0.044776 -0.0645848
v 0.181375 0.0777908 -0.07177
v 0.200334 0.109535 -0.0645848
v 0.210848 0.0668187 -0.0645848
v 0.206227 0.0884494 -0.0645848
v 0.125 0 1.38778e-17
v 0.132196 0.126781 -0.078013
v 0.125 0.13883 -0.078013
v 0.125 0.140923 -0.0777884
v 0.125 0.165 -0.0749554
v 0.134852 0.178004 -0.07177
v 0.145017 0.16349 -0.07177
v 0.162606 0.131532 -0.07177
v 0.154287 0.147967 -0.07177
v 0.175427 0.168241 -0.0645848
v 0.125 0.190026 -0.07177
v 0.125 0.19319 -0.0712855
v 0.125 0.227103 -0.0657333
v 0.127455 0.231564 -0.0645848
v 0.125 0.233729 -0.0645848
v 0.140826 0.21765 -0.0645848
v 0.153329 0.202394 -0.0645848
v 0.164886 0.18589 -0.0645848
v 0.125 0.24 -0.063296
v 0.132099 0.24 -0.0620093
v 0.155287 0.24 -0.0573254
v 0.159006 0.24 -0.0565019
v 0.17086 0.225536 -0.0565019
v 0.184886 0.149554 -0.0645848
v 0.193205 0.129945 -0.0645848
v 0.215297 0.144803 -0.0565019
v 0.22324 0.122059 -0.0565019
v 0.206026 0.166654 -0.0565019
v 0.183739 0.207145 -0.0565019
v 0.195485 0.187477 -0.0565019
v 0.181818 0.24 -0.0505628
v 0.192441 0.24 -0.0475709
v 0.201459 0.227123 -0.0475709
v 0.214338 0.205558 -0.0475709
v 0.225896 0.182726 -0.0475709
v 0.125 0.24 1.38778e-17
v 0.212882 0.24 -0.0408305
v 0.221342 0.24 -0.0378471
v 0.241633 0 -0.0565019
v 0.240888 0.025025 -0.0565019
v 0.238658 0.0498956 -0.0565019
v 0.264937 0 -0.0475709
v 0.26412 0.0274384 -0.0475709
v 0.261675 0.0547077 -0.0475709
v 0.234957 0.0744587 -0.0565019
v 0.229807 0.0985627 -0.0565019
v 0.25197 0.108068 -0.0475709
v 0.257616 0.0816396 -0.0475709
v 0.278688 0.0883173 -0.0378471
v 0.272579 0.116908 -0.0378471
v 0.286607 0 -0.0378471
v 0.285723 0.0296827 -0.0378471
v 0.30651 0 -0.0273904
v 0.283078 0.0591824 -0.0378471
v 0.305565 0.031744 -0.0273904
v 0.324523 0 -0.0162652
v 0.3335 0 -0.00969208
v 0.3335 0 1.38778e-17
v 0.323523 0.0336096 -0.0162652
v 0.3335 0.0346461 -0.00893696
v 0.302736 0.0632923 -0.0273904
v 0.298041 0.0944504 -0.0273904
v 0.320528 0.067012 -0.0162652
v 0.3335 0.069724 -0.00664807
v 0.3335 0.0891877 -0.00454005
v 0.315557 0.100001 -0.0162652
v 0.331127 0.104935 -0.00454005
v 0.3335 0.105687 -0.00239082
v 0.3335 0.118879 1.38778e-17
v 0.244769 0.133831 -0.0475709
v 0.23606 0.158768 -0.0475709
v 0.26479 0.144777 -0.0378471
v 0.255368 0.171754 -0.0378471
v 0.244372 0.197672 -0.0378471
v 0.23187 0.222371 -0.0378471
v 0.246666 0.24 -0.0273904
v 0.247972 0.237814 -0.0273904
v 0.250251 0.24 -0.0256502
v 0.273102 0.183681 -0.0273904
v 0.261343 0.211399 -0.0273904
v 0.276702 0.223823 -0.0162652
v 0.268513 0.24 -0.0162652
v 0.291508 0.125026 -0.0273904
v 0.283178 0.154831 -0.0273904
v 0.29982 0.16393 -0.0162652
v 0.30864 0.132374 -0.0162652
v 0.323869 0.138905 -0.00454005
v 0.328772 0.141008 1.38778e-17
v 0.314614 0.172019 -0.00454005
v 0.319377 0.174623 1.38778e-17
v 0.289152 0.194476 -0.0162652
v 0.30342 0.204072 -0.00454005
v 0.287756 0.24 -0.00454005
v 0.290355 0.234867 -0.00454005
v 0.293952 0.24 1.38778e-17
v 0.29475 0.238423 1.38778e-17
v 0.308013 0.207162 1.38778e-17
f  3 1 2
f  3 2 4
f  4 2 5
f  4 5 6
f  3 4 11
f  4 6 12
f  6 5 7
f  6 7 8
f  8 7 9
f  8 9 10
f  10 9 15
f  6 8 13
f  8 14 13
f  8 10 14
f  10 23 14
f  4 12 11
f  6 13 12
f  11 12 27
f  12 13 26
f  13 14 28
f  14 23 29
f  10 15 16
f  10 16 23
f  18 16 17
f  23 16 18
f  18 17 21
f  21 17 19
f  21 19 22
f  22 19 20
f  22 20 38
f  23 18 33
f  23 33 29
f  18 24 33
f  18 21 24
f  21 22 25
f  21 25 24
f  22 44 25
f  12 26 27
f  27 26 31
f  26 28 30
f  13 28 26
f  14 29 28
f  28 29 32
f  26 30 31
f  28 32 30
f  29 35 32
f  31 30 75
f  30 32 76
f  32 35 77
f  33 24 36
f  29 33 35
f  33 36 35
f  24 25 34
f  25 61 34
f  24 34 36
f  77 35 81
f  36 81 35
f  36 82 81
f  36 34 82
f  34 63 82
f  38 20 39
f  38 39 40
f  38 40 45
f  22 38 44
f  38 45 44
f  43 40 41
f  42 41 47
f  43 41 42
f  45 40 43
f  43 42 54
f  25 44 61
f  44 45 60
f  45 43 46
f  43 54 46
f  45 46 60
f  42 47 48
f  42 48 53
f  42 53 54
f  53 48 52
f  52 48 49
f  50 49 51
f  52 49 50
f  50 51 55
f  50 55 56
f  52 50 57
f  50 56 57
f  54 53 65
f  53 52 59
f  52 57 59
f  57 58 59
f  53 59 65
f  58 67 59
f  44 60 61
f  61 60 62
f  60 46 64
f  60 64 62
f  46 66 64
f  34 61 63
f  61 62 63
f  63 62 106
f  64 66 71
f  62 64 107
f  64 71 107
f  54 66 46
f  54 65 66
f  66 65 70
f  65 59 69
f  59 67 69
f  65 69 70
f  67 68 69
f  69 68 73
f  66 70 71
f  71 70 110
f  70 69 111
f  69 73 74
f  69 74 111
f  30 76 75
f  75 76 78
f  76 32 77
f  76 77 79
f  77 81 80
f  77 80 79
f  76 79 78
f  78 79 87
f  79 80 88
f  81 82 84
f  80 81 84
f  82 63 83
f  82 83 84
f  80 84 90
f  84 83 85
f  83 106 86
f  79 88 87
f  80 90 88
f  84 85 90
f  83 86 85
f  87 88 89
f  88 91 89
f  88 90 91
f  90 97 91
f  89 91 92
f  91 97 95
f  91 95 92
f  92 95 93
f  93 95 96
f  95 97 99
f  95 99 96
f  96 99 100
f  90 85 97
f  85 98 97
f  97 98 99
f  85 86 98
f  86 119 98
f  98 119 102
f  102 119 122
f  98 102 99
f  99 102 100
f  100 102 101
f  102 122 103
f  101 102 103
f  101 103 104
f  103 105 104
f  83 63 106
f  106 62 107
f  106 107 108
f  107 71 109
f  107 109 108
f  86 106 108
f  86 108 119
f  108 120 119
f  108 109 120
f  109 115 120
f  71 110 109
f  70 111 110
f  111 74 112
f  110 111 116
f  111 112 113
f  111 113 116
f  113 112 114
f  109 110 115
f  110 116 115
f  115 116 127
f  113 117 116
f  113 114 118
f  116 117 127
f  113 118 117
f  117 118 129
f  119 120 122
f  120 115 121
f  120 121 122
f  121 127 125
f  122 121 123
f  103 122 123
f  103 123 105
f  105 123 124
f  123 121 125
f  123 125 124
f  124 125 126
f  121 115 127
f  127 117 128
f  125 127 128
f  128 117 130
f  117 129 130
f  130 129 131
f  130 131 132
f  128 130 133
f  133 130 132
f  125 128 126
f  126 128 133
f  3 11 1
f  11 27 1
f  27 94 1
f  94 37 1
f  56 55 72
f  56 72 57
f  57 72 58
f  58 72 67
f  67 72 68
f  68 72 73
f  131 72 37
f  73 72 74
f  74 72 112
f  112 72 114
f  114 72 118
f  118 72 129
f  27 31 94
f  31 75 94
f  75 78 94
f  94 105 37
f  105 124 37
f  124 126 37
f  78 87 94
f  87 89 94
f  89 92 94
f  92 93 94
f  93 96 94
f  94 96 100
f  94 100 101
f  94 101 104
f  94 104 105
f  126 133 37
f  133 132 37
f  131 37 132
f  129 72 131
f  5 2 1
f  5 1 7
f  7 1 9
f  37 9 1
f  37 15 9
f  37 16 15
f  37 17 16
f  17 37 19
f  20 19 37
f  39 20 37
f  39 37 40
f  41 40 37
f  47 41 37
f  48 47 37
f  49 48 37
f  51 49 37
f  72 55 51
f  72 51 37
