# OpenSCAD obj exporter
v -0.264937 0 -0.0475709
v -0.26412 0.0274384 -0.0475709
v -0.261675 0.0547077 -0.0475709
v -0.241633 0 -0.0565019
v -0.240888 0.025025 -0.0565019
v -0.238658 0.0498956 -0.0565019
v -0.257616 0.0816396 -0.0475709
v -0.234957 0.0744587 -0.0565019
v -0.229807 0.0985627 -0.0565019
v -0.25197 0.108068 -0.0475709
v -0.286607 0 -0.0378471
v -0.285723 0.0296827 -0.0378471
v -0.30651 0 -0.0273904
v -0.283078 0.0591824 -0.0378471
v -0.305565 0.031744 -0.0273904
v -0.324523 0 -0.0162652
v -0.3335 0 -0.00969208
v -0.3335 0 1.38778e-17
v -0.323523 0.0336096 -0.0162652
v -0.3335 0.0346461 -0.00893696
v -0.302736 0.0632923 -0.0273904
v -0.298041 0.0944504 -0.0273904
v -0.320528 0.067012 -0.0162652
v -0.3335 0.069724 -0.00664807
v -0.3335 0.0891877 -0.00454005
v -0.315557 0.100001 -0.0162652
v -0.331127 0.104935 -0.00454005
v -0.3335 0.105687 -0.00239082
v -0.3335 0.118879 1.38778e-17
v -0.278688 0.0883173 -0.0378471
v -0.272579 0.116908 -0.0378471
v -0.244769 0.133831 -0.0475709
v -0.23606 0.158768 -0.0475709
v -0.291508 0.125026 -0.0273904
v -0.283178 0.154831 -0.0273904
v -0.30864 0.132374 -0.0162652
v -0.328772 0.141008 1.38778e-17
v -0.323869 0.138905 -0.00454005
v -0.314614 0.172019 -0.00454005
v -0.319377 0.174623 1.38778e-17
v -0.29982 0.16393 -0.0162652
v -0.308013 0.207162 1.38778e-17
v -0.289152 0.194476 -0.0162652
v -0.30342 0.204072 -0.00454005
v -0.29475 0.238423 1.38778e-17
v -0.290355 0.234867 -0.00454005
v -0.293952 0.24 1.38778e-17
v -0.287756 0.24 -0.00454005
v -0.26479 0.144777 -0.0378471
v -0.255368 0.171754 -0.0378471
v -0.273102 0.183681 -0.0273904
v -0.261343 0.211399 -0.0273904
v -0.244372 0.197672 -0.0378471
v -0.23187 0.222371 -0.0378471
v -0.247972 0.237814 -0.0273904
v -0.246666 0.24 -0.0273904
v -0.250251 0.24 -0.0256502
v -0.276702 0.223823 -0.0162652
v -0.268513 0.24 -0.0162652
v -0.21684 0 -0.0645848
v -0.216171 0.0224572 -0.0645848
v -0.21417 0.044776 -0.0645848
v -0.190709 0 -0.07177
v -0.190121 0.019751 -0.07177
v -0.188361 0.0393802 -0.07177
v -0.18544 0.0587667 -0.07177
v -0.210848 0.0668187 -0.0645848
v -0.206227 0.0884494 -0.0645848
v -0.181375 0.0777908 -0.07177
v -0.200334 0.109535 -0.0645848
v -0.163403 0 -0.078013
v -0.1629 0.016923 -0.078013
v -0.161392 0.0337417 -0.078013
v -0.158888 0.0503524 -0.078013
v -0.13509 0 -0.0832755
v -0.134673 0.0139907 -0.0832755
v -0.125 0 -0.0847466
v -0.125 0.0129858 -0.0846902
v -0.133427 0.0278952 -0.0832755
v -0.125 0.0261334 -0.0845194
v -0.131357 0.0416276 -0.0832755
v -0.125 0.039613 -0.0842287
v -0.128478 0.0551035 -0.0832755
v -0.125 0.0536117 -0.0838087
v -0.155406 0.0666526 -0.078013
v -0.176192 0.0963353 -0.07177
v -0.169923 0.114286 -0.07177
v -0.150965 0.0825419 -0.078013
v -0.125 0.0675479 -0.0832755
v -0.125 0.0683452 -0.0832366
v -0.125 0.0840717 -0.0823088
v -0.145593 0.0979223 -0.078013
v -0.139324 0.112699 -0.078013
v -0.125 0.101112 -0.0811355
v -0.125 0.11988 -0.0796663
v -0.125 0 1.38778e-17
v -0.193205 0.129945 -0.0645848
v -0.184886 0.149554 -0.0645848
v -0.22324 0.122059 -0.0565019
v -0.215297 0.144803 -0.0565019
v -0.206026 0.166654 -0.0565019
v -0.225896 0.182726 -0.0475709
v -0.214338 0.205558 -0.0475709
v -0.195485 0.187477 -0.0565019
v -0.183739 0.207145 -0.0565019
v -0.201459 0.227123 -0.0475709
v -0.192441 0.24 -0.0475709
v -0.181818 0.24 -0.0505628
v -0.162606 0.131532 -0.07177
v -0.154287 0.147967 -0.07177
v -0.175427 0.168241 -0.0645848
v -0.132196 0.126781 -0.078013
v -0.125 0.13883 -0.078013
v -0.125 0.140923 -0.0777884
v -0.125 0.165 -0.0749554
v -0.145017 0.16349 -0.07177
v -0.134852 0.178004 -0.07177
v -0.164886 0.18589 -0.0645848
v -0.153329 0.202394 -0.0645848
v -0.125 0.190026 -0.07177
v -0.125 0.19319 -0.0712855
v -0.140826 0.21765 -0.0645848
v -0.125 0.227103 -0.0657333
v -0.127455 0.231564 -0.0645848
v -0.125 0.233729 -0.0645848
v -0.17086 0.225536 -0.0565019
v -0.159006 0.24 -0.0565019
v -0.155287 0.24 -0.0573254
v -0.132099 0.24 -0.0620093
v -0.125 0.24 -0.063296
v -0.221342 0.24 -0.0378471
v -0.212882 0.24 -0.0408305
v -0.125 0.24 1.38778e-17
f  1 11 2
f  1 2 5
f  2 12 3
f  1 5 4
f  61 4 5
f  2 6 5
f  3 8 6
f  5 6 62
f  2 3 6
f  3 14 7
f  7 30 10
f  10 31 32
f  7 9 8
f  3 7 8
f  10 99 9
f  7 10 9
f  13 16 15
f  15 19 21
f  11 13 12
f  12 13 15
f  12 15 14
f  14 15 21
f  16 17 20
f  16 20 19
f  15 16 19
f  19 20 24
f  19 24 23
f  19 23 21
f  14 21 30
f  21 23 22
f  30 21 22
f  30 22 31
f  22 26 34
f  31 22 34
f  23 25 26
f  22 23 26
f  23 24 25
f  26 27 36
f  25 27 26
f  25 28 27
f  27 28 29
f  26 36 34
f  2 11 12
f  3 12 14
f  7 14 30
f  10 30 31
f  32 49 33
f  10 32 99
f  32 33 100
f  33 50 102
f  34 36 35
f  35 41 51
f  36 38 41
f  27 38 36
f  27 29 37
f  27 37 38
f  38 37 40
f  38 39 41
f  38 40 39
f  35 36 41
f  41 39 43
f  39 40 42
f  39 42 44
f  41 43 51
f  43 44 58
f  39 44 43
f  44 42 45
f  44 45 46
f  44 46 58
f  59 46 48
f  47 48 46
f  45 47 46
f  31 34 49
f  31 49 32
f  49 34 35
f  49 35 50
f  50 35 51
f  33 49 50
f  50 51 53
f  51 43 52
f  51 52 53
f  52 58 55
f  57 55 59
f  102 50 53
f  103 53 54
f  52 54 53
f  54 55 131
f  52 55 54
f  57 56 55
f  131 55 56
f  52 43 58
f  58 46 59
f  55 58 59
f  64 60 61
f  65 61 62
f  66 62 67
f  63 60 64
f  64 61 65
f  63 64 72
f  65 62 66
f  64 65 73
f  65 66 74
f  60 4 61
f  61 5 62
f  62 6 67
f  66 67 69
f  69 67 68
f  69 68 86
f  86 68 70
f  86 70 87
f  87 70 97
f  6 8 67
f  68 8 9
f  67 8 68
f  70 9 99
f  68 9 70
f  63 72 71
f  64 73 72
f  76 71 72
f  79 72 73
f  65 74 73
f  66 85 74
f  75 71 76
f  76 72 79
f  75 76 77
f  76 78 77
f  76 79 78
f  79 80 78
f  81 73 74
f  79 73 81
f  83 74 85
f  81 74 83
f  79 81 80
f  81 82 80
f  81 84 82
f  81 83 84
f  83 89 84
f  69 88 85
f  66 69 85
f  69 86 88
f  86 92 88
f  87 93 92
f  86 87 92
f  87 109 93
f  85 88 89
f  88 92 91
f  83 85 89
f  88 90 89
f  88 91 90
f  92 94 91
f  92 93 94
f  93 95 94
f  93 112 95
f  97 98 109
f  99 32 100
f  97 99 100
f  70 99 97
f  100 33 101
f  101 102 104
f  33 102 101
f  97 100 98
f  98 100 101
f  111 101 104
f  98 101 111
f  102 53 103
f  102 103 104
f  103 54 106
f  103 105 104
f  111 104 118
f  104 105 118
f  105 106 126
f  103 106 105
f  106 107 108
f  106 132 107
f  126 106 108
f  87 97 109
f  98 110 109
f  98 111 110
f  111 116 110
f  111 118 116
f  93 109 112
f  112 113 95
f  112 110 113
f  110 114 113
f  112 109 110
f  116 115 114
f  110 116 114
f  116 118 117
f  116 117 115
f  117 120 115
f  117 118 119
f  119 122 121
f  117 119 120
f  119 121 120
f  122 123 121
f  122 129 124
f  122 124 123
f  124 125 123
f  124 130 125
f  105 119 118
f  105 126 119
f  126 108 127
f  126 122 119
f  126 128 122
f  126 127 128
f  122 128 129
f  124 129 130
f  106 54 131
f  106 131 132
f  16 18 17
f  17 18 20
f  18 24 20
f  18 25 24
f  18 28 25
f  18 29 28
f  11 96 13
f  16 96 18
f  13 96 16
f  18 133 29
f  29 133 37
f  47 130 48
f  37 133 40
f  40 133 42
f  42 133 45
f  45 133 47
f  63 96 60
f  63 71 96
f  75 96 71
f  75 77 96
f  1 4 96
f  1 96 11
f  60 96 4
f  18 96 133
f  131 56 130
f  132 131 130
f  107 130 108
f  108 130 127
f  107 132 130
f  127 130 128
f  129 128 130
f  57 130 56
f  57 59 130
f  59 48 130
f  47 133 130
f  78 96 77
f  78 80 133
f  80 82 133
f  82 84 133
f  78 133 96
f  84 89 133
f  89 90 133
f  90 91 133
f  91 94 133
f  94 95 133
f  113 133 95
f  113 114 133
f  114 115 133
f  115 120 133
f  121 133 120
f  121 123 133
f  123 125 133
f  125 130 133
