# OpenSCAD obj exporter
v -0.23606 -0.158768 -0.0475709
v -0.244769 -0.133831 -0.0475709
v -0.308013 -0.207162 1.38778e-17
v -0.29475 -0.238423 1.38778e-17
v -0.290355 -0.234867 -0.00454005
v -0.293952 -0.24 1.38778e-17
v -0.287756 -0.24 -0.00454005
v -0.289152 -0.194476 -0.0162652
v -0.30342 -0.204072 -0.00454005
v -0.283178 -0.154831 -0.0273904
v -0.291508 -0.125026 -0.0273904
v -0.319377 -0.174623 1.38778e-17
v -0.314614 -0.172019 -0.00454005
v -0.30864 -0.132374 -0.0162652
v -0.328772 -0.141008 1.38778e-17
v -0.323869 -0.138905 -0.00454005
v -0.29982 -0.16393 -0.0162652
v -0.261343 -0.211399 -0.0273904
v -0.273102 -0.183681 -0.0273904
v -0.23187 -0.222371 -0.0378471
v -0.247972 -0.237814 -0.0273904
v -0.246666 -0.24 -0.0273904
v -0.250251 -0.24 -0.0256502
v -0.244372 -0.197672 -0.0378471
v -0.268513 -0.24 -0.0162652
v -0.276702 -0.223823 -0.0162652
v -0.255368 -0.171754 -0.0378471
v -0.26479 -0.144777 -0.0378471
v -0.257616 -0.0816396 -0.0475709
v -0.229807 -0.0985627 -0.0565019
v -0.25197 -0.108068 -0.0475709
v -0.234957 -0.0744587 -0.0565019
v -0.261675 -0.0547077 -0.0475709
v -0.26412 -0.0274384 -0.0475709
v -0.264937 0 -0.0475709
v -0.238658 -0.0498956 -0.0565019
v -0.240888 -0.025025 -0.0565019
v -0.241633 0 -0.0565019
v -0.298041 -0.0944504 -0.0273904
v -0.302736 -0.0632923 -0.0273904
v -0.315557 -0.100001 -0.0162652
v -0.3335 -0.118879 1.38778e-17
v -0.3335 -0.105687 -0.00239082
v -0.331127 -0.104935 -0.00454005
v -0.320528 -0.067012 -0.0162652
v -0.3335 -0.0891877 -0.00454005
v -0.3335 -0.069724 -0.00664807
v -0.283078 -0.0591824 -0.0378471
v -0.305565 -0.031744 -0.0273904
v -0.285723 -0.0296827 -0.0378471
v -0.286607 0 -0.0378471
v -0.30651 0 -0.0273904
v -0.323523 -0.0336096 -0.0162652
v -0.3335 -0.0346461 -0.00893696
v -0.324523 0 -0.0162652
v -0.3335 0 -0.00969208
v -0.3335 0 1.38778e-17
v -0.272579 -0.116908 -0.0378471
v -0.278688 -0.0883173 -0.0378471
v -0.225896 -0.182726 -0.0475709
v -0.214338 -0.205558 -0.0475709
v -0.201459 -0.227123 -0.0475709
v -0.192441 -0.24 -0.0475709
v -0.181818 -0.24 -0.0505628
v -0.195485 -0.187477 -0.0565019
v -0.183739 -0.207145 -0.0565019
v -0.193205 -0.129945 -0.0645848
v -0.184886 -0.149554 -0.0645848
v -0.206026 -0.166654 -0.0565019
v -0.22324 -0.122059 -0.0565019
v -0.215297 -0.144803 -0.0565019
v -0.164886 -0.18589 -0.0645848
v -0.153329 -0.202394 -0.0645848
v -0.140826 -0.21765 -0.0645848
v -0.125 -0.233729 -0.0645848
v -0.127455 -0.231564 -0.0645848
v -0.125 -0.227103 -0.0657333
v -0.125 -0.190026 -0.07177
v -0.125 -0.19319 -0.0712855
v -0.17086 -0.225536 -0.0565019
v -0.159006 -0.24 -0.0565019
v -0.155287 -0.24 -0.0573254
v -0.132099 -0.24 -0.0620093
v -0.125 -0.24 -0.063296
v -0.175427 -0.168241 -0.0645848
v -0.154287 -0.147967 -0.07177
v -0.162606 -0.131532 -0.07177
v -0.125 -0.165 -0.0749554
v -0.145017 -0.16349 -0.07177
v -0.134852 -0.178004 -0.07177
v -0.125 -0.140923 -0.0777884
v -0.125 -0.13883 -0.078013
v -0.132196 -0.126781 -0.078013
v -0.221342 -0.24 -0.0378471
v -0.212882 -0.24 -0.0408305
v -0.125 -0.24 1.38778e-17
v -0.206227 -0.0884494 -0.0645848
v -0.210848 -0.0668187 -0.0645848
v -0.200334 -0.109535 -0.0645848
v -0.181375 -0.0777908 -0.07177
v -0.21417 -0.044776 -0.0645848
v -0.21684 0 -0.0645848
v -0.216171 -0.0224572 -0.0645848
v -0.18544 -0.0587667 -0.07177
v -0.188361 -0.0393802 -0.07177
v -0.190709 0 -0.07177
v -0.190121 -0.019751 -0.07177
v -0.169923 -0.114286 -0.07177
v -0.176192 -0.0963353 -0.07177
v -0.155406 -0.0666526 -0.078013
v -0.139324 -0.112699 -0.078013
v -0.145593 -0.0979223 -0.078013
v -0.125 -0.11988 -0.0796663
v -0.125 -0.101112 -0.0811355
v -0.150965 -0.0825419 -0.078013
v -0.125 -0.0840717 -0.0823088
v -0.125 -0.0683452 -0.0832366
v -0.125 -0.0675479 -0.0832755
v -0.158888 -0.0503524 -0.078013
v -0.161392 -0.0337417 -0.078013
v -0.1629 -0.016923 -0.078013
v -0.163403 0 -0.078013
v -0.128478 -0.0551035 -0.0832755
v -0.125 -0.0536117 -0.0838087
v -0.131357 -0.0416276 -0.0832755
v -0.125 -0.039613 -0.0842287
v -0.133427 -0.0278952 -0.0832755
v -0.125 -0.0261334 -0.0845194
v -0.134673 -0.0139907 -0.0832755
v -0.13509 0 -0.0832755
v -0.125 -0.0129858 -0.0846902
v -0.125 0 -0.0847466
v -0.125 0 1.38778e-17
f  60 27 1
f  1 28 2
f  1 2 71
f  70 2 31
f  9 3 12
f  9 12 13
f  4 3 5
f  5 3 9
f  26 7 5
f  6 5 7
f  4 5 6
f  26 5 9
f  26 9 8
f  19 8 17
f  8 9 13
f  19 17 10
f  10 14 11
f  12 15 13
f  13 15 16
f  17 13 16
f  17 16 14
f  14 16 44
f  16 15 42
f  16 42 44
f  8 13 17
f  10 17 14
f  23 25 21
f  18 21 26
f  19 27 24
f  18 8 19
f  18 19 24
f  18 24 20
f  94 22 20
f  23 21 22
f  18 20 21
f  20 22 21
f  61 20 24
f  60 24 27
f  25 7 26
f  21 25 26
f  18 26 8
f  27 10 28
f  19 10 27
f  28 11 58
f  2 28 58
f  10 11 28
f  1 27 28
f  2 58 31
f  31 59 29
f  29 48 33
f  70 31 30
f  31 29 30
f  29 32 30
f  29 33 32
f  33 50 34
f  34 51 35
f  34 35 37
f  32 33 36
f  34 37 36
f  101 36 37
f  33 34 36
f  35 38 37
f  103 37 38
f  58 39 59
f  11 41 39
f  11 39 58
f  59 40 48
f  39 45 40
f  39 40 59
f  14 44 41
f  42 43 44
f  41 44 46
f  43 46 44
f  41 47 45
f  39 41 45
f  41 46 47
f  11 14 41
f  40 53 49
f  49 55 52
f  48 49 50
f  40 49 48
f  50 52 51
f  49 52 50
f  45 47 54
f  45 54 53
f  40 45 53
f  53 54 56
f  53 56 55
f  49 53 55
f  31 58 59
f  29 59 48
f  33 48 50
f  34 50 51
f  62 20 61
f  61 24 60
f  61 60 65
f  80 62 66
f  63 62 64
f  63 95 62
f  62 61 66
f  80 64 62
f  61 65 66
f  66 65 72
f  65 85 72
f  68 67 87
f  1 71 69
f  60 69 65
f  60 1 69
f  71 2 70
f  67 71 70
f  67 70 99
f  65 69 85
f  69 71 68
f  85 69 68
f  68 71 67
f  76 75 84
f  76 74 77
f  76 77 75
f  74 79 77
f  74 73 79
f  73 72 90
f  73 90 79
f  90 78 79
f  80 81 64
f  80 66 73
f  80 74 82
f  80 82 81
f  80 73 74
f  66 72 73
f  83 82 76
f  76 82 74
f  83 76 84
f  85 68 86
f  85 89 72
f  85 86 89
f  68 87 86
f  67 108 87
f  89 91 88
f  72 89 90
f  89 86 91
f  90 89 88
f  90 88 78
f  93 87 111
f  86 93 91
f  93 92 91
f  93 113 92
f  86 87 93
f  62 94 20
f  62 95 94
f  109 99 97
f  108 99 109
f  67 99 108
f  100 97 98
f  100 98 104
f  109 97 100
f  70 30 99
f  99 30 97
f  30 32 97
f  98 97 32
f  98 32 36
f  98 101 104
f  105 101 103
f  107 103 102
f  104 101 105
f  104 105 119
f  105 107 120
f  105 103 107
f  107 102 106
f  107 106 121
f  98 36 101
f  101 37 103
f  103 38 102
f  108 112 111
f  109 115 112
f  87 108 111
f  108 109 112
f  100 110 115
f  109 100 115
f  100 104 110
f  111 114 113
f  93 111 113
f  112 116 114
f  111 112 114
f  112 115 116
f  115 110 117
f  115 117 116
f  110 123 117
f  123 118 117
f  104 119 110
f  105 120 119
f  107 121 120
f  106 122 121
f  120 121 127
f  129 121 122
f  110 119 123
f  123 119 125
f  125 119 120
f  125 120 127
f  123 124 118
f  123 125 124
f  125 126 124
f  125 127 126
f  127 128 126
f  127 121 129
f  129 122 130
f  127 129 128
f  129 131 128
f  129 130 131
f  130 132 131
f  6 7 96
f  4 6 133
f  4 133 3
f  3 133 12
f  106 102 57
f  42 57 43
f  43 57 46
f  51 52 57
f  35 51 57
f  46 57 47
f  47 57 54
f  52 55 57
f  54 57 56
f  55 56 57
f  12 133 15
f  15 133 42
f  35 57 38
f  102 38 57
f  42 133 57
f  94 96 22
f  95 96 94
f  23 22 96
f  23 96 25
f  25 96 7
f  6 96 133
f  63 64 96
f  64 81 96
f  63 96 95
f  81 82 96
f  83 96 82
f  83 84 96
f  106 57 132
f  106 132 122
f  130 122 132
f  57 133 132
f  75 96 84
f  77 133 75
f  77 79 133
f  79 78 133
f  75 133 96
f  78 88 133
f  88 91 133
f  91 92 133
f  114 133 113
f  116 133 114
f  92 113 133
f  124 126 132
f  128 132 126
f  131 132 128
f  116 117 133
f  117 118 133
f  118 124 133
f  124 132 133
