# OpenSCAD obj exporter
v -0.0996453 -0.21464 -0.07177
v -0.112096 -0.203659 -0.07177
v -0.125 -0.19319 -0.0712855
v -0.123856 -0.191422 -0.07177
v -0.125 -0.190026 -0.07177
v -0.0865802 -0.224299 -0.07177
v -0.0729813 -0.232574 -0.07177
v -0.085378 -0.183908 -0.078013
v -0.0625317 -0.199274 -0.078013
v -0.0741835 -0.192183 -0.078013
v -0.125 -0.227103 -0.0657333
v -0.111418 -0.24 -0.0655742
v -0.125 -0.24 -0.063296
v -0.125 -0.233729 -0.0645848
v -0.11789 -0.24 -0.0645848
v -0.092641 -0.24 -0.0680991
v -0.0753116 -0.24 -0.0700956
v -0.125 -0.165 -0.0749554
v -0.115544 -0.152518 -0.078013
v -0.096046 -0.174499 -0.078013
v -0.106122 -0.164014 -0.078013
v -0.0955229 -0.12609 -0.0832755
v -0.124253 -0.140081 -0.078013
v -0.125 -0.13883 -0.078013
v -0.125 -0.140923 -0.0777884
v -0.0705842 -0.152042 -0.0832755
v -0.0877338 -0.135594 -0.0832755
v -0.0794038 -0.144263 -0.0832755
v -0.0590763 -0.24 -0.0716419
v -0.0589324 -0.239415 -0.07177
v -0.0573622 -0.24 -0.07177
v -0.0436507 -0.24 -0.0726216
v -0.0504944 -0.205136 -0.078013
v -0.0381457 -0.209733 -0.078013
v -0.0287972 -0.24 -0.0732846
v -0.0255619 -0.213037 -0.078013
v -0.0143094 -0.24 -0.0736742
v -0.0128205 -0.215027 -0.078013
v -0.0613295 -0.158883 -0.0832755
v -0.0516966 -0.164745 -0.0832755
v -0.041745 -0.169591 -0.0832755
v -0.0315361 -0.173392 -0.0832755
v -0.0480973 -0.124603 -0.087525
v -0.0405428 -0.1292 -0.087525
v -0.0327383 -0.133001 -0.087525
v -0.0211327 -0.176123 -0.0832755
v -0.010599 -0.177769 -0.0832755
v -0.024732 -0.135981 -0.087525
v -0.0165732 -0.138124 -0.087525
v -0.00831223 -0.139414 -0.087525
v -0.125 -0.24 1.38778e-17
v -0.115183 -0.0931712 -0.0832755
v -0.102723 -0.115809 -0.0832755
v -0.10929 -0.104813 -0.0832755
v -0.125 -0.11988 -0.0796663
v -0.125 -0.101112 -0.0811355
v -0.125 -0.0840717 -0.0823088
v -0.120366 -0.0809549 -0.0832755
v -0.124807 -0.0682396 -0.0832755
v -0.125 -0.0683452 -0.0832366
v -0.125 -0.0675479 -0.0832755
v -0.0943963 -0.0634885 -0.087525
v -0.08056 -0.0908223 -0.087525
v -0.0688048 -0.106339 -0.087525
v -0.0749133 -0.0988856 -0.087525
v -0.0857101 -0.082199 -0.087525
v -0.0903316 -0.073069 -0.087525
v -0.125 -0.0536117 -0.0838087
v -0.125 -0.039613 -0.0842287
v -0.097879 -0.0535165 -0.087525
v -0.103016 -0.0326463 -0.087525
v -0.100758 -0.0432146 -0.087525
v -0.125 -0.0261334 -0.0845194
v -0.125 -0.0129858 -0.0846902
v -0.125 0 -0.0847466
v -0.104639 -0.0218766 -0.087525
v -0.105617 -0.0109721 -0.087525
v -0.105943 0 -0.087525
v -0.0649234 -0.0525163 -0.0907352
v -0.0678447 -0.0456306 -0.0907352
v -0.0703478 -0.0384635 -0.0907352
v -0.0724172 -0.0310593 -0.0907352
v -0.0740401 -0.0234636 -0.0907352
v -0.0752065 -0.0157232 -0.0907352
v -0.0759092 -0.00788592 -0.0907352
v -0.0761439 0 -0.0907352
v -0.062272 -0.113137 -0.087525
v -0.0553553 -0.119238 -0.087525
v -0.0494515 -0.0764284 -0.0907352
v -0.0579003 -0.065276 -0.0907352
v -0.0538419 -0.0710713 -0.0907352
v -0.0397851 -0.0856989 -0.0907352
v -0.0447563 -0.0813143 -0.0907352
v -0.0345686 -0.0895551 -0.0907352
v -0.029139 -0.0928591 -0.0907352
v -0.0235298 -0.0955907 -0.0907352
v -0.0177754 -0.0977329 -0.0907352
v -0.0119115 -0.0992725 -0.0907352
v -0.00597418 -0.1002 -0.0907352
v -0.00359931 -0.0603683 -0.0928864
v -0.0616017 -0.0590783 -0.0907352
v -0.0391148 -0.0316399 -0.0928864
v -0.0324385 -0.0428188 -0.0928864
v -0.0348836 -0.0393273 -0.0928864
v -0.0371136 -0.0355933 -0.0928864
v -0.0408749 -0.0274914 -0.0928864
v -0.0423829 -0.0231734 -0.0928864
v -0.0436297 -0.0187125 -0.0928864
v -0.0446074 -0.0141363 -0.0928864
v -0.0453102 -0.00947288 -0.0928864
v -0.0457335 -0.00475109 -0.0928864
v -0.045875 0 -0.0928864
v -0.0297934 -0.0460463 -0.0928864
v -0.0269646 -0.04899 -0.0928864
v -0.0239696 -0.0516316 -0.0928864
v -0.0208268 -0.0539548 -0.0928864
v -0.0175556 -0.0559455 -0.0928864
v -0.0141761 -0.0575912 -0.0928864
v -0.0107093 -0.0588818 -0.0928864
v -0.00717642 -0.0598094 -0.0928864
v -0.00995158 -0.0153804 -0.0939654
v -0.00800632 -0.017246 -0.0939654
v -0.00900672 -0.0163636 -0.0939654
v -0.00473511 -0.0192366 -0.0939654
v -0.00695656 -0.018022 -0.0939654
v -0.00586391 -0.0186869 -0.0939654
v -0.00357712 -0.0196677 -0.0939654
v -0.00239707 -0.0199775 -0.0939654
v -0.00120224 -0.0201642 -0.0939654
v -0.0123967 -0.0118889 -0.0939654
v -0.0141567 -0.00774036 -0.0939654
v -0.0130651 -0.0105683 -0.0939654
v -0.013653 -0.00918266 -0.0939654
v -0.0108351 -0.0143023 -0.0939654
v -0.0116518 -0.0131361 -0.0939654
v -0.0145732 -0.00625035 -0.0939654
v -0.0148998 -0.00472179 -0.0939654
v -0.0151345 -0.00316413 -0.0939654
v -0.0152759 -0.00158696 -0.0939654
v -0.0153231 0 -0.0939654
v -0.125 0 1.38778e-17
v 0 -0.24 -0.0738028
v 0.0143094 -0.24 -0.0736742
v 0 -0.215692 -0.078013
v 0.0128205 -0.215027 -0.078013
v 0.0287972 -0.24 -0.0732846
v 0.0255619 -0.213037 -0.078013
v 0.0436507 -0.24 -0.0726216
v 0.0573622 -0.24 -0.07177
v 0.0590763 -0.24 -0.0716419
v 0.0589324 -0.239415 -0.07177
v 0.0381457 -0.209733 -0.078013
v 0.0504944 -0.205136 -0.078013
v 0 -0.178319 -0.0832755
v 0.010599 -0.177769 -0.0832755
v 0.0211327 -0.176123 -0.0832755
v 0 -0.139845 -0.087525
v 0.00831223 -0.139414 -0.087525
v 0.0165732 -0.138124 -0.087525
v 0.024732 -0.135981 -0.087525
v 0.0315361 -0.173392 -0.0832755
v 0.041745 -0.169591 -0.0832755
v 0.0516966 -0.164745 -0.0832755
v 0.0613295 -0.158883 -0.0832755
v 0.0327383 -0.133001 -0.087525
v 0.0405428 -0.1292 -0.087525
v 0.0480973 -0.124603 -0.087525
v 0.0729813 -0.232574 -0.07177
v 0.0865802 -0.224299 -0.07177
v 0.0625317 -0.199274 -0.078013
v 0.0741835 -0.192183 -0.078013
v 0.085378 -0.183908 -0.078013
v 0.0996453 -0.21464 -0.07177
v 0.112096 -0.203659 -0.07177
v 0.125 -0.19319 -0.0712855
v 0.123856 -0.191422 -0.07177
v 0.125 -0.190026 -0.07177
v 0.0753116 -0.24 -0.0700956
v 0.092641 -0.24 -0.0680991
v 0.111418 -0.24 -0.0655742
v 0.125 -0.227103 -0.0657333
v 0.11789 -0.24 -0.0645848
v 0.125 -0.24 -0.063296
v 0.125 -0.233729 -0.0645848
v 0.0705842 -0.152042 -0.0832755
v 0.0794038 -0.144263 -0.0832755
v 0.0877338 -0.135594 -0.0832755
v 0.096046 -0.174499 -0.078013
v 0.106122 -0.164014 -0.078013
v 0.125 -0.165 -0.0749554
v 0.115544 -0.152518 -0.078013
v 0.0955229 -0.12609 -0.0832755
v 0.124253 -0.140081 -0.078013
v 0.125 -0.13883 -0.078013
v 0.125 -0.140923 -0.0777884
v 0.125 -0.24 1.38778e-17
v 0 -0.10051 -0.0907352
v 0.00597418 -0.1002 -0.0907352
v 0.0119115 -0.0992725 -0.0907352
v 0.0177754 -0.0977329 -0.0907352
v 0.0235298 -0.0955907 -0.0907352
v 0.029139 -0.0928591 -0.0907352
v 0 -0.0605549 -0.0928864
v 0.00359931 -0.0603683 -0.0928864
v 0.0553553 -0.119238 -0.087525
v 0.062272 -0.113137 -0.087525
v 0.0345686 -0.0895551 -0.0907352
v 0.0397851 -0.0856989 -0.0907352
v 0.0447563 -0.0813143 -0.0907352
v 0.0494515 -0.0764284 -0.0907352
v 0.0538419 -0.0710713 -0.0907352
v 0.0579003 -0.065276 -0.0907352
v 0.00717642 -0.0598094 -0.0928864
v 0.0107093 -0.0588818 -0.0928864
v 0.0141761 -0.0575912 -0.0928864
v 0.0175556 -0.0559455 -0.0928864
v 0.0208268 -0.0539548 -0.0928864
v 0.0239696 -0.0516316 -0.0928864
v 0.0269646 -0.04899 -0.0928864
v 0.0297934 -0.0460463 -0.0928864
v 0 -0.0202265 -0.0939654
v 0.00120224 -0.0201642 -0.0939654
v 0.00239707 -0.0199775 -0.0939654
v 0.00357712 -0.0196677 -0.0939654
v 0.00473511 -0.0192366 -0.0939654
v 0.00586391 -0.0186869 -0.0939654
v 0.00695656 -0.018022 -0.0939654
v 0.00800632 -0.017246 -0.0939654
v 0.00900672 -0.0163636 -0.0939654
v 0.00995158 -0.0153804 -0.0939654
v 0.0108351 -0.0143023 -0.0939654
v 0.0116518 -0.0131361 -0.0939654
v 0.0123967 -0.0118889 -0.0939654
v 0.0130651 -0.0105683 -0.0939654
v 0.013653 -0.00918266 -0.0939654
v 0.0141567 -0.00774036 -0.0939654
v 0.0145732 -0.00625035 -0.0939654
v 0.0148998 -0.00472179 -0.0939654
v 0.0151345 -0.00316413 -0.0939654
v 0.0152759 -0.00158696 -0.0939654
v 0.0153231 0 -0.0939654
v 0.0324385 -0.0428188 -0.0928864
v 0.0348836 -0.0393273 -0.0928864
v 0.0371136 -0.0355933 -0.0928864
v 0.0391148 -0.0316399 -0.0928864
v 0.0616017 -0.0590783 -0.0907352
v 0.0408749 -0.0274914 -0.0928864
v 0.0423829 -0.0231734 -0.0928864
v 0.0436297 -0.0187125 -0.0928864
v 0.0446074 -0.0141363 -0.0928864
v 0.0453102 -0.00947288 -0.0928864
v 0.0457335 -0.00475109 -0.0928864
v 0.045875 0 -0.0928864
v 0.0688048 -0.106339 -0.087525
v 0.0749133 -0.0988856 -0.087525
v 0.08056 -0.0908223 -0.087525
v 0.0857101 -0.082199 -0.087525
v 0.0903316 -0.073069 -0.087525
v 0.102723 -0.115809 -0.0832755
v 0.10929 -0.104813 -0.0832755
v 0.115183 -0.0931712 -0.0832755
v 0.125 -0.11988 -0.0796663
v 0.125 -0.101112 -0.0811355
v 0.0943963 -0.0634885 -0.087525
v 0.125 -0.0840717 -0.0823088
v 0.120366 -0.0809549 -0.0832755
v 0.124807 -0.0682396 -0.0832755
v 0.125 -0.0683452 -0.0832366
v 0.125 -0.0675479 -0.0832755
v 0.0649234 -0.0525163 -0.0907352
v 0.0678447 -0.0456306 -0.0907352
v 0.0703478 -0.0384635 -0.0907352
v 0.0724172 -0.0310593 -0.0907352
v 0.0740401 -0.0234636 -0.0907352
v 0.0752065 -0.0157232 -0.0907352
v 0.0759092 -0.00788592 -0.0907352
v 0.0761439 0 -0.0907352
v 0.097879 -0.0535165 -0.087525
v 0.100758 -0.0432146 -0.087525
v 0.103016 -0.0326463 -0.087525
v 0.125 -0.0536117 -0.0838087
v 0.125 -0.039613 -0.0842287
v 0.104639 -0.0218766 -0.087525
v 0.105617 -0.0109721 -0.087525
v 0.105943 0 -0.087525
v 0.125 -0.0261334 -0.0845194
v 0.125 -0.0129858 -0.0846902
v 0.125 0 -0.0847466
v 0.125 0 1.38778e-17
f  2 3 4
f  4 3 5
f  4 5 18
f  2 4 20
f  1 2 8
f  2 20 8
f  6 7 16
f  6 1 10
f  7 30 17
f  29 17 30
f  6 9 7
f  1 8 10
f  6 10 9
f  9 10 40
f  15 14 11
f  12 15 11
f  1 12 11
f  15 13 14
f  1 11 2
f  6 16 12
f  6 12 1
f  2 11 3
f  7 17 16
f  4 18 21
f  19 18 25
f  21 18 19
f  4 21 20
f  21 19 27
f  20 21 28
f  19 25 23
f  23 25 24
f  19 23 22
f  23 24 55
f  23 55 53
f  19 22 27
f  22 23 53
f  8 20 26
f  20 28 26
f  8 39 10
f  8 26 39
f  27 22 64
f  26 28 88
f  27 87 28
f  28 87 88
f  21 27 28
f  29 30 31
f  7 33 30
f  30 32 31
f  30 34 32
f  7 9 33
f  30 33 34
f  32 36 35
f  32 34 36
f  9 41 33
f  33 42 34
f  33 41 42
f  35 38 37
f  35 36 38
f  37 144 142
f  37 38 144
f  36 34 46
f  36 47 38
f  34 42 46
f  36 46 47
f  38 154 144
f  38 47 154
f  39 44 40
f  41 40 45
f  41 48 42
f  10 39 40
f  9 40 41
f  26 43 39
f  39 43 44
f  26 88 43
f  40 44 45
f  41 45 48
f  42 49 46
f  47 157 154
f  46 50 47
f  46 49 50
f  47 50 157
f  42 48 49
f  48 45 97
f  48 98 49
f  49 99 50
f  50 197 157
f  52 56 57
f  54 56 52
f  54 52 66
f  53 54 63
f  54 55 56
f  53 55 54
f  52 57 58
f  58 57 60
f  58 60 59
f  59 60 61
f  59 61 68
f  58 59 62
f  52 58 67
f  52 67 66
f  58 62 67
f  59 70 62
f  22 53 65
f  22 65 64
f  53 63 65
f  54 66 63
f  27 64 87
f  64 65 89
f  66 67 101
f  67 62 79
f  66 90 63
f  65 63 91
f  63 90 91
f  67 79 101
f  66 101 90
f  59 68 70
f  72 68 69
f  71 69 73
f  72 69 71
f  70 68 72
f  76 73 74
f  71 73 76
f  76 74 77
f  77 74 75
f  77 75 78
f  71 76 83
f  76 77 84
f  77 78 85
f  62 70 80
f  70 72 81
f  70 81 80
f  72 71 82
f  72 82 81
f  62 80 79
f  71 83 82
f  76 84 83
f  78 86 85
f  77 85 84
f  82 83 108
f  83 84 109
f  84 85 110
f  85 86 111
f  88 87 92
f  64 93 87
f  87 93 92
f  43 95 44
f  43 88 94
f  45 44 96
f  88 92 94
f  43 94 95
f  65 91 89
f  64 89 93
f  94 92 116
f  93 89 114
f  89 91 113
f  93 115 92
f  93 114 115
f  44 95 96
f  45 96 97
f  48 97 98
f  49 98 99
f  50 99 197
f  95 94 117
f  96 119 97
f  96 95 118
f  92 115 116
f  94 116 117
f  95 117 118
f  96 118 119
f  97 120 98
f  98 100 99
f  99 203 197
f  97 119 120
f  98 120 100
f  99 100 203
f  90 101 104
f  91 90 103
f  79 105 101
f  79 80 102
f  80 81 106
f  81 82 107
f  79 102 105
f  80 106 102
f  90 104 103
f  89 113 114
f  91 103 113
f  101 105 104
f  81 107 106
f  82 108 107
f  83 109 108
f  84 110 109
f  85 111 110
f  86 112 111
f  107 133 106
f  107 108 131
f  108 109 136
f  109 110 137
f  110 111 138
f  111 112 139
f  113 103 121
f  103 104 134
f  114 122 115
f  115 125 116
f  114 113 123
f  119 118 127
f  119 128 120
f  100 120 129
f  100 221 203
f  117 116 126
f  118 117 124
f  116 125 126
f  117 126 124
f  118 124 127
f  119 127 128
f  120 128 129
f  100 129 221
f  105 102 130
f  104 105 135
f  102 106 132
f  103 134 121
f  113 121 123
f  105 130 135
f  102 132 130
f  106 133 132
f  104 135 134
f  108 136 131
f  109 137 136
f  110 138 137
f  112 140 139
f  111 139 138
f  107 131 133
f  114 123 122
f  115 122 125
f  127 126 125
f  124 126 127
f  127 125 128
f  128 125 129
f  129 125 221
f  125 222 221
f  125 223 222
f  125 224 223
f  122 123 228
f  122 227 125
f  123 121 229
f  121 134 230
f  135 130 232
f  130 132 233
f  132 133 234
f  133 131 235
f  134 135 231
f  136 137 237
f  131 136 236
f  137 138 238
f  138 139 239
f  139 140 240
f  142 145 143
f  142 144 145
f  143 147 146
f  143 145 147
f  146 147 152
f  144 154 145
f  145 154 155
f  145 155 147
f  147 156 152
f  147 155 156
f  152 156 161
f  146 152 148
f  148 151 149
f  148 152 151
f  149 151 150
f  151 153 168
f  151 152 153
f  168 153 170
f  152 161 153
f  153 161 162
f  153 162 170
f  154 157 155
f  155 157 158
f  155 158 156
f  156 158 159
f  156 159 161
f  157 197 158
f  158 198 159
f  161 159 160
f  159 199 160
f  160 200 165
f  161 160 162
f  162 165 163
f  163 166 164
f  170 162 163
f  171 163 164
f  162 160 165
f  163 165 166
f  164 166 167
f  164 167 185
f  185 167 205
f  150 151 168
f  150 168 178
f  168 170 169
f  168 169 178
f  169 173 179
f  171 173 169
f  170 171 169
f  170 163 171
f  171 172 173
f  173 172 174
f  174 172 188
f  174 176 175
f  174 188 176
f  176 177 175
f  176 189 177
f  169 179 178
f  173 180 179
f  173 184 180
f  173 181 184
f  180 184 182
f  182 184 183
f  173 174 181
f  174 175 181
f  171 164 172
f  172 164 185
f  172 185 188
f  185 186 188
f  185 205 186
f  186 205 206
f  186 206 187
f  187 254 192
f  186 187 189
f  176 188 189
f  186 189 188
f  189 187 191
f  189 190 177
f  189 191 190
f  191 195 190
f  191 187 192
f  192 259 193
f  191 192 193
f  191 193 195
f  193 194 195
f  193 259 194
f  259 262 194
f  158 197 198
f  159 198 199
f  160 199 200
f  165 200 201
f  166 201 202
f  197 203 198
f  198 204 199
f  199 213 200
f  198 203 204
f  199 204 213
f  200 213 214
f  200 214 201
f  201 215 202
f  202 216 207
f  201 214 215
f  202 215 216
f  207 216 217
f  208 217 218
f  165 201 166
f  166 202 167
f  167 207 205
f  167 202 207
f  205 207 208
f  205 208 206
f  206 208 209
f  206 209 254
f  207 217 208
f  208 218 209
f  209 218 219
f  209 219 210
f  210 220 211
f  254 209 210
f  255 210 211
f  203 221 204
f  204 222 213
f  213 223 214
f  214 224 215
f  204 221 222
f  213 222 223
f  214 223 224
f  215 224 225
f  215 225 216
f  216 226 217
f  216 225 226
f  217 226 227
f  217 227 218
f  218 228 219
f  219 229 220
f  220 230 242
f  242 231 243
f  125 225 224
f  125 226 225
f  125 227 226
f  122 228 227
f  123 229 228
f  121 230 229
f  218 227 228
f  219 228 229
f  134 231 230
f  135 232 231
f  130 233 232
f  132 234 233
f  133 235 234
f  131 236 235
f  136 237 236
f  137 238 237
f  138 239 238
f  139 240 239
f  140 241 240
f  220 229 230
f  242 230 231
f  243 231 232
f  244 232 233
f  245 233 234
f  247 234 235
f  243 232 244
f  244 233 245
f  245 234 247
f  235 236 248
f  236 237 249
f  237 238 250
f  238 239 251
f  239 240 252
f  240 241 253
f  210 219 220
f  211 220 242
f  212 242 243
f  243 244 246
f  211 242 212
f  212 243 246
f  244 270 246
f  244 245 270
f  245 247 271
f  245 271 270
f  271 247 272
f  272 248 273
f  247 235 248
f  236 249 248
f  237 250 249
f  238 251 250
f  239 252 251
f  240 253 252
f  272 247 248
f  273 248 249
f  249 250 274
f  275 250 251
f  251 252 276
f  252 253 277
f  187 206 254
f  254 210 255
f  192 254 255
f  192 255 259
f  255 256 259
f  256 257 260
f  255 211 256
f  256 211 212
f  256 212 257
f  212 246 257
f  258 246 270
f  257 246 258
f  258 270 264
f  256 260 259
f  260 257 261
f  260 261 263
f  261 265 263
f  259 260 262
f  260 263 262
f  261 257 258
f  261 258 266
f  266 258 264
f  264 278 267
f  261 266 265
f  266 267 265
f  266 264 267
f  267 278 269
f  267 268 265
f  267 269 268
f  264 270 271
f  271 272 278
f  264 271 278
f  272 279 278
f  272 273 279
f  273 280 279
f  273 249 274
f  274 250 275
f  275 251 276
f  252 277 276
f  273 274 280
f  274 275 283
f  275 276 284
f  276 277 285
f  278 279 269
f  279 281 269
f  279 280 281
f  280 283 282
f  280 282 281
f  274 283 280
f  275 284 283
f  276 285 284
f  283 284 286
f  283 286 282
f  284 287 286
f  284 285 287
f  285 288 287
f  29 196 17
f  15 196 13
f  12 196 15
f  12 16 196
f  16 17 196
f  13 196 51
f  78 141 86
f  78 75 141
f  86 141 112
f  112 141 140
f  140 141 241
f  241 141 253
f  253 141 277
f  51 289 141
f  29 31 196
f  31 32 196
f  32 35 196
f  35 37 196
f  37 142 196
f  142 143 196
f  143 146 196
f  146 148 196
f  148 149 196
f  149 150 196
f  150 178 196
f  51 196 289
f  178 179 196
f  179 180 196
f  180 182 196
f  182 183 196
f  277 141 285
f  285 141 288
f  141 289 288
f  14 13 11
f  3 51 5
f  5 51 18
f  25 18 51
f  24 25 51
f  24 51 55
f  55 51 56
f  56 51 57
f  57 51 60
f  60 51 61
f  61 51 68
f  11 13 51
f  11 51 3
f  68 141 69
f  69 141 73
f  73 141 74
f  75 74 141
f  68 51 141
f  175 177 289
f  196 183 184
f  184 181 196
f  181 175 289
f  196 181 289
f  177 190 289
f  190 195 289
f  195 194 289
f  194 262 289
f  263 289 262
f  263 265 289
f  265 268 289
f  268 269 289
f  269 281 289
f  281 282 289
f  282 286 289
f  287 289 286
f  288 289 287
