# OpenSCAD obj exporter
v 0.125 -0.233729 -0.0645848
v 0.127455 -0.231564 -0.0645848
v 0.125 -0.227103 -0.0657333
v 0.140826 -0.21765 -0.0645848
v 0.125 -0.190026 -0.07177
v 0.125 -0.19319 -0.0712855
v 0.153329 -0.202394 -0.0645848
v 0.164886 -0.18589 -0.0645848
v 0.125 -0.24 -0.063296
v 0.132099 -0.24 -0.0620093
v 0.155287 -0.24 -0.0573254
v 0.159006 -0.24 -0.0565019
v 0.17086 -0.225536 -0.0565019
v 0.125 -0.165 -0.0749554
v 0.134852 -0.178004 -0.07177
v 0.145017 -0.16349 -0.07177
v 0.125 -0.140923 -0.0777884
v 0.125 -0.13883 -0.078013
v 0.132196 -0.126781 -0.078013
v 0.175427 -0.168241 -0.0645848
v 0.154287 -0.147967 -0.07177
v 0.162606 -0.131532 -0.07177
v 0.181818 -0.24 -0.0505628
v 0.192441 -0.24 -0.0475709
v 0.201459 -0.227123 -0.0475709
v 0.183739 -0.207145 -0.0565019
v 0.195485 -0.187477 -0.0565019
v 0.214338 -0.205558 -0.0475709
v 0.225896 -0.182726 -0.0475709
v 0.184886 -0.149554 -0.0645848
v 0.193205 -0.129945 -0.0645848
v 0.206026 -0.166654 -0.0565019
v 0.215297 -0.144803 -0.0565019
v 0.22324 -0.122059 -0.0565019
v 0.125 -0.24 1.38778e-17
v 0.212882 -0.24 -0.0408305
v 0.221342 -0.24 -0.0378471
v 0.125 -0.11988 -0.0796663
v 0.125 -0.101112 -0.0811355
v 0.139324 -0.112699 -0.078013
v 0.145593 -0.0979223 -0.078013
v 0.125 -0.0840717 -0.0823088
v 0.125 -0.0683452 -0.0832366
v 0.125 -0.0675479 -0.0832755
v 0.150965 -0.0825419 -0.078013
v 0.169923 -0.114286 -0.07177
v 0.176192 -0.0963353 -0.07177
v 0.155406 -0.0666526 -0.078013
v 0.125 -0.0536117 -0.0838087
v 0.128478 -0.0551035 -0.0832755
v 0.125 -0.039613 -0.0842287
v 0.131357 -0.0416276 -0.0832755
v 0.125 -0.0261334 -0.0845194
v 0.133427 -0.0278952 -0.0832755
v 0.125 -0.0129858 -0.0846902
v 0.125 0 -0.0847466
v 0.134673 -0.0139907 -0.0832755
v 0.13509 0 -0.0832755
v 0.158888 -0.0503524 -0.078013
v 0.161392 -0.0337417 -0.078013
v 0.1629 -0.016923 -0.078013
v 0.163403 0 -0.078013
v 0.200334 -0.109535 -0.0645848
v 0.181375 -0.0777908 -0.07177
v 0.206227 -0.0884494 -0.0645848
v 0.210848 -0.0668187 -0.0645848
v 0.18544 -0.0587667 -0.07177
v 0.188361 -0.0393802 -0.07177
v 0.190121 -0.019751 -0.07177
v 0.190709 0 -0.07177
v 0.21417 -0.044776 -0.0645848
v 0.216171 -0.0224572 -0.0645848
v 0.21684 0 -0.0645848
v 0.125 0 1.38778e-17
v 0.23606 -0.158768 -0.0475709
v 0.244769 -0.133831 -0.0475709
v 0.23187 -0.222371 -0.0378471
v 0.246666 -0.24 -0.0273904
v 0.247972 -0.237814 -0.0273904
v 0.250251 -0.24 -0.0256502
v 0.244372 -0.197672 -0.0378471
v 0.261343 -0.211399 -0.0273904
v 0.273102 -0.183681 -0.0273904
v 0.268513 -0.24 -0.0162652
v 0.276702 -0.223823 -0.0162652
v 0.255368 -0.171754 -0.0378471
v 0.26479 -0.144777 -0.0378471
v 0.287756 -0.24 -0.00454005
v 0.290355 -0.234867 -0.00454005
v 0.293952 -0.24 1.38778e-17
v 0.29475 -0.238423 1.38778e-17
v 0.289152 -0.194476 -0.0162652
v 0.30342 -0.204072 -0.00454005
v 0.308013 -0.207162 1.38778e-17
v 0.283178 -0.154831 -0.0273904
v 0.291508 -0.125026 -0.0273904
v 0.29982 -0.16393 -0.0162652
v 0.319377 -0.174623 1.38778e-17
v 0.314614 -0.172019 -0.00454005
v 0.30864 -0.132374 -0.0162652
v 0.323869 -0.138905 -0.00454005
v 0.328772 -0.141008 1.38778e-17
v 0.229807 -0.0985627 -0.0565019
v 0.25197 -0.108068 -0.0475709
v 0.234957 -0.0744587 -0.0565019
v 0.257616 -0.0816396 -0.0475709
v 0.238658 -0.0498956 -0.0565019
v 0.240888 -0.025025 -0.0565019
v 0.241633 0 -0.0565019
v 0.261675 -0.0547077 -0.0475709
v 0.26412 -0.0274384 -0.0475709
v 0.264937 0 -0.0475709
v 0.272579 -0.116908 -0.0378471
v 0.278688 -0.0883173 -0.0378471
v 0.298041 -0.0944504 -0.0273904
v 0.302736 -0.0632923 -0.0273904
v 0.315557 -0.100001 -0.0162652
v 0.3335 -0.118879 1.38778e-17
v 0.3335 -0.105687 -0.00239082
v 0.331127 -0.104935 -0.00454005
v 0.320528 -0.067012 -0.0162652
v 0.3335 -0.0891877 -0.00454005
v 0.3335 -0.069724 -0.00664807
v 0.283078 -0.0591824 -0.0378471
v 0.305565 -0.031744 -0.0273904
v 0.285723 -0.0296827 -0.0378471
v 0.286607 0 -0.0378471
v 0.30651 0 -0.0273904
v 0.323523 -0.0336096 -0.0162652
v 0.3335 -0.0346461 -0.00893696
v 0.324523 0 -0.0162652
v 0.3335 0 -0.00969208
v 0.3335 0 1.38778e-17
f  2 9 1
f  2 1 3
f  2 3 4
f  10 2 4
f  4 3 6
f  7 6 5
f  7 5 15
f  4 6 7
f  7 15 8
f  10 9 2
f  10 4 11
f  4 13 11
f  11 13 12
f  4 7 13
f  12 13 23
f  7 26 13
f  7 8 26
f  16 14 17
f  15 5 14
f  15 14 16
f  8 15 16
f  16 17 21
f  21 17 18
f  21 18 19
f  19 18 38
f  19 40 22
f  21 19 22
f  8 16 20
f  16 21 20
f  21 30 20
f  21 22 30
f  22 46 31
f  13 26 25
f  13 25 23
f  23 25 24
f  24 25 36
f  25 26 28
f  8 27 26
f  8 20 27
f  26 27 28
f  25 28 77
f  27 29 28
f  28 29 81
f  22 31 30
f  20 30 32
f  27 20 32
f  32 30 33
f  30 31 33
f  27 32 29
f  32 33 75
f  29 32 75
f  31 63 34
f  31 34 33
f  33 34 76
f  25 37 36
f  25 77 37
f  40 38 39
f  19 38 40
f  41 39 42
f  40 39 41
f  45 42 43
f  45 43 44
f  48 44 50
f  41 42 45
f  45 44 48
f  40 41 46
f  41 45 47
f  22 40 46
f  41 47 46
f  45 48 64
f  45 64 47
f  48 67 64
f  50 44 49
f  50 49 52
f  52 49 51
f  52 51 53
f  52 53 54
f  50 52 59
f  48 50 59
f  52 54 60
f  52 60 59
f  54 53 55
f  54 55 57
f  57 55 56
f  57 56 58
f  54 57 61
f  57 58 62
f  48 59 67
f  59 60 68
f  60 54 61
f  57 62 61
f  60 61 69
f  61 62 70
f  46 47 63
f  31 46 63
f  47 65 63
f  47 64 65
f  64 66 65
f  64 67 66
f  63 65 103
f  34 63 103
f  65 66 105
f  103 65 105
f  66 107 105
f  59 68 67
f  60 69 68
f  67 68 71
f  61 70 69
f  68 69 72
f  69 70 73
f  66 67 71
f  68 72 71
f  69 73 72
f  66 71 107
f  71 72 108
f  72 73 109
f  29 75 86
f  75 33 76
f  34 104 76
f  75 76 87
f  37 77 79
f  77 81 82
f  37 79 78
f  78 79 80
f  77 82 79
f  28 81 77
f  29 86 81
f  79 84 80
f  79 82 85
f  81 86 83
f  81 83 82
f  82 83 92
f  79 85 84
f  84 85 89
f  82 92 85
f  75 87 86
f  86 87 95
f  83 86 95
f  76 113 87
f  87 113 96
f  95 87 96
f  84 89 88
f  88 89 90
f  89 91 90
f  85 93 89
f  89 93 91
f  91 93 94
f  85 92 93
f  83 97 92
f  92 99 93
f  93 99 94
f  94 99 98
f  83 95 97
f  95 96 100
f  92 97 99
f  95 100 97
f  97 101 99
f  98 99 101
f  98 101 102
f  97 100 101
f  100 120 101
f  101 120 102
f  102 120 118
f  34 103 104
f  103 106 104
f  103 105 106
f  105 110 106
f  76 104 113
f  104 106 114
f  106 110 124
f  71 108 107
f  105 107 110
f  107 108 111
f  107 111 110
f  72 109 108
f  108 109 112
f  110 111 126
f  108 112 111
f  111 112 127
f  104 114 113
f  106 124 114
f  110 126 124
f  111 127 126
f  113 114 115
f  96 113 115
f  96 115 117
f  114 124 116
f  115 114 116
f  115 116 121
f  96 117 100
f  100 117 120
f  118 120 119
f  117 122 120
f  119 120 122
f  115 121 117
f  117 121 122
f  121 123 122
f  124 126 125
f  116 124 125
f  126 127 128
f  125 126 128
f  116 125 129
f  125 128 131
f  116 129 121
f  121 129 123
f  123 129 130
f  125 131 129
f  129 131 130
f  130 131 132
f  10 11 9
f  11 12 9
f  12 23 9
f  23 24 9
f  24 36 9
f  36 37 9
f  37 78 9
f  78 80 9
f  80 84 9
f  84 88 9
f  90 35 9
f  58 56 74
f  58 74 62
f  62 74 70
f  70 74 73
f  133 74 35
f  73 74 109
f  109 74 112
f  112 74 127
f  88 90 9
f  90 91 35
f  91 94 35
f  94 98 35
f  98 102 35
f  102 118 35
f  118 133 35
f  127 74 128
f  128 74 131
f  131 74 133
f  118 119 133
f  119 122 133
f  122 123 133
f  123 130 133
f  130 132 133
f  131 133 132
f  9 35 1
f  3 1 35
f  3 35 6
f  6 35 5
f  5 35 14
f  14 35 17
f  39 38 35
f  18 17 35
f  18 35 38
f  39 35 42
f  43 42 35
f  44 35 49
f  43 35 44
f  49 35 51
f  51 35 53
f  53 35 55
f  74 56 55
f  74 55 35
