####
#
# OBJ File Generated by Meshlab
#
####
# Object left_foot_geom.obj
#
# Vertices: 520
# Faces: 1036
#
####
v 0.000000 0.049210 -0.014172
v 0.000920 0.054099 -0.011936
v 0.003047 0.049113 -0.014172
v 0.000000 0.054099 -0.011949
v 0.050300 0.023942 -0.010923
v 0.050201 0.023952 -0.010969
v 0.050300 0.023998 -0.010911
v -0.040664 0.007865 -0.016940
v -0.048152 0.006167 -0.014172
v -0.047675 0.009221 -0.014172
v 0.047023 0.050771 -0.003317
v 0.045704 0.054099 -0.002185
v 0.050105 0.054099 -0.000112
v 0.043786 0.053664 -0.003317
v 0.050300 0.024098 -0.010887
v 0.004209 0.054099 -0.011863
v 0.006083 0.048822 -0.014172
v 0.003356 0.054099 -0.011900
v -0.001200 0.019345 -0.022543
v -0.002396 0.019231 -0.022543
v -0.001674 0.026977 -0.021134
v -0.004896 0.010550 -0.023485
v -0.008140 0.017539 -0.022543
v -0.004233 0.010841 -0.023485
v -0.034095 0.000000 -0.019263
v -0.041397 0.000000 -0.016940
v -0.034028 0.002171 -0.019263
v -0.007756 0.041229 -0.016940
v -0.010295 0.040654 -0.016940
v -0.009094 0.048339 -0.014172
v 0.000722 0.011638 -0.023485
v 0.000000 0.019383 -0.022543
v 0.001200 0.019345 -0.022543
v -0.003047 0.049113 -0.014172
v -0.003356 0.054099 -0.011900
v -0.000920 0.054099 -0.011936
v -0.012792 0.039919 -0.016940
v -0.017867 0.045754 -0.014172
v -0.014997 0.046802 -0.014172
v -0.008238 0.025707 -0.021134
v -0.008479 0.033484 -0.019263
v -0.006629 0.026180 -0.021134
v 0.028528 0.039812 -0.014172
v 0.022181 0.035439 -0.016940
v 0.026006 0.041550 -0.014172
v -0.014517 0.031280 -0.019263
v -0.019943 0.036781 -0.016940
v -0.017626 0.037978 -0.016940
v -0.030937 0.037917 -0.014172
v -0.037980 0.041007 -0.010969
v -0.035365 0.043345 -0.010969
v -0.050075 0.047677 -0.003317
v -0.050300 0.047891 -0.003097
v -0.050300 0.049119 -0.002488
v -0.026006 0.041550 -0.014172
v -0.029729 0.047497 -0.010969
v -0.023381 0.043123 -0.014172
v -0.023339 0.025200 -0.019263
v -0.028337 0.030597 -0.016940
v -0.026387 0.032341 -0.016940
v -0.020041 0.027967 -0.019263
v -0.024332 0.033957 -0.016940
v -0.022181 0.035439 -0.016940
v 0.039654 0.048600 -0.007346
v 0.035365 0.043345 -0.010969
v 0.036566 0.051029 -0.007346
v -0.003717 0.000967 -0.023958
v -0.011297 0.002185 -0.023485
v -0.011139 0.002899 -0.023485
v 0.024787 0.009950 -0.021134
v 0.024121 0.011509 -0.021134
v 0.030850 0.014719 -0.019263
v 0.037980 0.041007 -0.010969
v -0.015239 0.039025 -0.016940
v -0.012551 0.032142 -0.019263
v -0.005188 0.041642 -0.016940
v -0.006083 0.048822 -0.014172
v -0.002140 0.034501 -0.019263
v -0.004272 0.034297 -0.019263
v -0.002599 0.041890 -0.016940
v -0.012070 0.047665 -0.014172
v -0.026729 0.049295 -0.010969
v -0.006389 0.033958 -0.019263
v -0.028528 0.039812 -0.014172
v -0.012843 0.023686 -0.021134
v -0.018269 0.029188 -0.019263
v -0.016425 0.030294 -0.019263
v -0.040096 0.010438 -0.016940
v -0.046160 0.015206 -0.014172
v -0.039370 0.012970 -0.016940
v -0.042585 0.045979 -0.007346
v -0.039654 0.048600 -0.007346
v -0.044886 0.033065 -0.010969
v -0.047934 0.040206 -0.007346
v -0.042749 0.035857 -0.010969
v -0.050300 0.023721 -0.010969
v -0.043916 0.020952 -0.014172
v -0.050300 0.020749 -0.011506
v -0.050201 0.023952 -0.010969
v -0.042532 0.023707 -0.014172
v -0.048619 0.027101 -0.010969
v -0.040979 0.026368 -0.014172
v -0.030850 0.014719 -0.019263
v -0.038489 0.015451 -0.016940
v -0.037457 0.017871 -0.016940
v -0.033826 0.004333 -0.019263
v -0.041070 0.005260 -0.016940
v 0.046160 0.015206 -0.014172
v 0.050300 0.017620 -0.012004
v 0.050300 0.016571 -0.012165
v 0.045127 0.018115 -0.014172
v 0.037457 0.017871 -0.016940
v 0.036276 0.020221 -0.016940
v 0.032611 0.045510 -0.010969
v -0.006760 0.009434 -0.023485
v -0.011237 0.015681 -0.022543
v -0.010243 0.016366 -0.022543
v -0.026607 0.001697 -0.021134
v -0.011500 0.000000 -0.023485
v -0.019117 0.000000 -0.022543
v -0.019080 0.001217 -0.022543
v -0.016993 0.020826 -0.021134
v -0.021733 0.026636 -0.019263
v -0.015670 0.021868 -0.021134
v 0.040444 0.038508 -0.010969
v 0.045349 0.043178 -0.007346
v 0.031701 0.012726 -0.019263
v 0.017298 0.008253 -0.022543
v 0.023361 0.013021 -0.021134
v -0.020424 0.052303 -0.010969
v -0.017813 0.054099 -0.010548
v -0.017144 0.053501 -0.010969
v -0.021125 0.054099 -0.009944
v 0.017144 0.053501 -0.010969
v 0.017012 0.054099 -0.010684
v 0.017336 0.054099 -0.010635
v -0.020665 0.044527 -0.014172
v -0.010077 0.005617 -0.023485
v -0.016752 0.009337 -0.022543
v -0.009710 0.006248 -0.023485
v -0.009619 0.054099 -0.011546
v -0.010178 0.054099 -0.011506
v -0.006740 0.054099 -0.011753
v -0.004209 0.054099 -0.011863
v -0.021567 0.015887 -0.021134
v -0.027583 0.020319 -0.019263
v -0.026271 0.022036 -0.019263
v -0.017298 0.008253 -0.022543
v -0.023361 0.013021 -0.021134
v -0.047023 0.050771 -0.003317
v -0.031927 0.054099 -0.007346
v -0.029333 0.054099 -0.008058
v -0.033334 0.053256 -0.007346
v -0.043786 0.053664 -0.003317
v -0.050300 0.047418 -0.003317
v -0.032426 0.010682 -0.019263
v -0.031701 0.012726 -0.019263
v -0.033024 0.008596 -0.019263
v -0.026187 0.005065 -0.021134
v -0.033491 0.006477 -0.019263
v -0.025822 0.006721 -0.021134
v -0.048439 0.003090 -0.014172
v -0.050300 0.003208 -0.013312
v -0.050300 0.004206 -0.013270
v 0.042585 0.045979 -0.007346
v 0.042749 0.035857 -0.010969
v 0.047934 0.040206 -0.007346
v 0.042532 0.023707 -0.014172
v 0.048619 0.027101 -0.010969
v 0.040979 0.026368 -0.014172
v 0.034952 0.022489 -0.016940
v 0.039266 0.028925 -0.014172
v 0.037396 0.031368 -0.014172
v 0.040664 0.007865 -0.016940
v 0.033024 0.008596 -0.019263
v 0.040096 0.010438 -0.016940
v 0.030937 0.037917 -0.014172
v 0.026387 0.032341 -0.016940
v 0.028788 0.018523 -0.019263
v 0.033490 0.024671 -0.016940
v 0.026187 0.005065 -0.021134
v 0.018779 0.003632 -0.022543
v 0.025822 0.006721 -0.021134
v 0.009813 0.025132 -0.021134
v 0.008238 0.025707 -0.021134
v 0.010535 0.032878 -0.019263
v 0.029878 0.016654 -0.019263
v 0.012186 0.014935 -0.022543
v 0.011237 0.015681 -0.022543
v 0.015670 0.021868 -0.021134
v 0.004896 0.010550 -0.023485
v 0.004233 0.010841 -0.023485
v 0.008140 0.017539 -0.022543
v -0.014284 0.022822 -0.021134
v -0.014731 0.012356 -0.022543
v -0.020541 0.017229 -0.021134
v -0.019433 0.018503 -0.021134
v -0.012186 0.014935 -0.022543
v -0.009304 0.006854 -0.023485
v -0.015467 0.011393 -0.022543
v -0.008862 0.007433 -0.023485
v 0.023622 0.050901 -0.010969
v 0.017867 0.045754 -0.014172
v 0.020424 0.052303 -0.010969
v 0.012070 0.047665 -0.014172
v 0.015113 0.054099 -0.010969
v 0.013700 0.054099 -0.011151
v -0.050300 0.008448 -0.013031
v -0.050300 0.006443 -0.013174
v -0.024854 0.023665 -0.019263
v -0.018250 0.019704 -0.021134
v -0.023622 0.050901 -0.010969
v -0.004995 0.026551 -0.021134
v -0.007037 0.018022 -0.022543
v -0.009813 0.025132 -0.021134
v -0.015113 0.054099 -0.010969
v -0.013700 0.054099 -0.011151
v 0.017813 0.054099 -0.010548
v 0.000000 0.041973 -0.016940
v -0.037396 0.031368 -0.014172
v -0.040444 0.038508 -0.010969
v -0.036566 0.051029 -0.007346
v -0.033308 0.054099 -0.006910
v -0.043800 0.054099 -0.003070
v -0.043233 0.054099 -0.003317
v -0.032611 0.045510 -0.010969
v 0.003717 0.000967 -0.023958
v 0.003651 0.001203 -0.023958
v 0.011139 0.002899 -0.023485
v -0.024787 0.009950 -0.021134
v -0.024121 0.011509 -0.021134
v -0.033224 0.035873 -0.014172
v -0.022509 0.014484 -0.021134
v -0.018779 0.003632 -0.022543
v -0.018516 0.004820 -0.022543
v -0.029878 0.016654 -0.019263
v -0.028788 0.018523 -0.019263
v -0.050300 0.037054 -0.007365
v -0.050300 0.037112 -0.007346
v -0.050300 0.042191 -0.005437
v 0.039370 0.012970 -0.016940
v 0.043916 0.020952 -0.014172
v 0.050300 0.020749 -0.011506
v 0.050300 0.020192 -0.011607
v -0.003808 0.000487 -0.023958
v -0.011410 0.001461 -0.023485
v 0.050300 0.013094 -0.012606
v 0.047010 0.012238 -0.014172
v 0.050300 0.015178 -0.012342
v 0.038489 0.015451 -0.016940
v 0.021733 0.026636 -0.019263
v 0.020041 0.027967 -0.019263
v 0.030177 0.028732 -0.016940
v 0.035380 0.033687 -0.014172
v 0.021567 0.015887 -0.021134
v 0.020541 0.017229 -0.021134
v 0.026271 0.022036 -0.019263
v 0.023339 0.025200 -0.019263
v 0.010651 0.054099 -0.011458
v 0.012792 0.039919 -0.016940
v 0.014997 0.046802 -0.014172
v 0.000000 0.034570 -0.019263
v 0.008479 0.033484 -0.019263
v 0.005907 0.018435 -0.022543
v 0.004754 0.018775 -0.022543
v 0.032426 0.010682 -0.019263
v 0.033334 0.053256 -0.007346
v 0.029333 0.054099 -0.008058
v 0.031927 0.054099 -0.007346
v 0.026729 0.049295 -0.010969
v 0.000000 0.027030 -0.021134
v -0.011351 0.024457 -0.021134
v -0.003341 0.026816 -0.021134
v -0.008384 0.007982 -0.023485
v -0.013936 0.013268 -0.022543
v -0.025354 0.008352 -0.021134
v 0.009304 0.006854 -0.023485
v 0.008862 0.007433 -0.023485
v 0.015467 0.011393 -0.022543
v -0.026580 0.054099 -0.008732
v -0.025107 0.054099 -0.009092
v -0.023324 0.054099 -0.009473
v -0.044141 0.054099 -0.002921
v -0.045704 0.054099 -0.002185
v 0.029729 0.047497 -0.010969
v 0.023381 0.043123 -0.014172
v 0.019943 0.036781 -0.016940
v 0.017626 0.037978 -0.016940
v 0.020665 0.044527 -0.014172
v 0.009094 0.048339 -0.014172
v 0.010178 0.054099 -0.011506
v 0.009619 0.054099 -0.011546
v -0.034952 0.022489 -0.016940
v -0.036276 0.020221 -0.016940
v -0.010535 0.032878 -0.019263
v -0.010651 0.054099 -0.011458
v -0.050105 0.054099 -0.000112
v -0.050300 0.054099 -0.000014
v -0.036661 0.054099 -0.005756
v -0.033861 0.054099 -0.006734
v -0.047010 0.012238 -0.014172
v -0.033490 0.024671 -0.016940
v -0.039266 0.028925 -0.014172
v -0.031897 0.026754 -0.016940
v -0.018967 0.002429 -0.022543
v -0.026659 0.000000 -0.021134
v -0.050300 0.000911 -0.013345
v -0.048535 0.000000 -0.014172
v -0.050300 0.033584 -0.008402
v -0.050300 0.032365 -0.008766
v -0.046845 0.030142 -0.010969
v -0.050300 0.024098 -0.010887
v -0.050300 0.028037 -0.009937
v -0.045349 0.043178 -0.007346
v 0.044886 0.033065 -0.010969
v 0.050300 0.032365 -0.008766
v 0.046845 0.030142 -0.010969
v 0.050300 0.033584 -0.008402
v 0.050300 0.029981 -0.009411
v 0.050300 0.011492 -0.012765
v 0.050300 0.023721 -0.010969
v 0.001674 0.026977 -0.021134
v 0.011297 0.002185 -0.023485
v 0.019117 0.000000 -0.022543
v 0.011500 0.000000 -0.023485
v 0.019080 0.001217 -0.022543
v 0.002627 0.002837 -0.023958
v 0.002446 0.002998 -0.023958
v 0.007331 0.008985 -0.023485
v 0.018516 0.004820 -0.022543
v 0.018182 0.005989 -0.022543
v 0.018250 0.019704 -0.021134
v 0.016993 0.020826 -0.021134
v 0.014284 0.022822 -0.021134
v 0.009210 0.016986 -0.022543
v 0.012843 0.023686 -0.021134
v 0.033224 0.035873 -0.014172
v 0.050300 0.037054 -0.007365
v 0.006740 0.054099 -0.011753
v 0.015239 0.039025 -0.016940
v 0.002860 0.011294 -0.023485
v 0.002154 0.011454 -0.023485
v 0.003582 0.019040 -0.022543
v 0.010295 0.040654 -0.016940
v -0.001412 0.003618 -0.023958
v -0.003553 0.011090 -0.023485
v 0.000000 0.011661 -0.023485
v -0.000722 0.011638 -0.023485
v -0.013086 0.014130 -0.022543
v -0.005907 0.018435 -0.022543
v -0.005540 0.010219 -0.023485
v -0.009210 0.016986 -0.022543
v -0.006162 0.009846 -0.023485
v 0.003105 0.002287 -0.023958
v 0.002957 0.002481 -0.023958
v 0.011410 0.001461 -0.023485
v 0.003808 0.000487 -0.023958
v -0.038766 0.054099 -0.005020
v 0.023324 0.054099 -0.009473
v 0.025107 0.054099 -0.009092
v -0.017336 0.054099 -0.010635
v -0.035380 0.033687 -0.014172
v -0.017012 0.054099 -0.010684
v 0.018269 0.029188 -0.019263
v -0.050300 0.011492 -0.012765
v -0.050300 0.013094 -0.012606
v -0.050300 0.009729 -0.012940
v -0.030177 0.028732 -0.016940
v -0.003651 0.001203 -0.023958
v -0.010938 0.003603 -0.023485
v -0.010693 0.004292 -0.023485
v -0.003831 0.000244 -0.023958
v -0.026448 0.003387 -0.021134
v -0.001634 0.003521 -0.023958
v -0.041315 0.002635 -0.016940
v -0.050300 0.000000 -0.013358
v -0.045127 0.018115 -0.014172
v -0.050300 0.017620 -0.012004
v -0.050300 0.020192 -0.011607
v 0.050300 0.028037 -0.009937
v -0.001441 0.011569 -0.023485
v 0.013086 0.014130 -0.022543
v 0.007873 0.008500 -0.023485
v 0.010938 0.003603 -0.023485
v 0.017775 0.007135 -0.022543
v 0.013936 0.013268 -0.022543
v 0.008384 0.007982 -0.023485
v 0.028337 0.030597 -0.016940
v -0.003105 0.002287 -0.023958
v -0.002957 0.002481 -0.023958
v 0.018967 0.002429 -0.022543
v 0.026659 0.000000 -0.021134
v 0.026607 0.001697 -0.021134
v 0.034028 0.002171 -0.019263
v 0.033826 0.004333 -0.019263
v 0.019433 0.018503 -0.021134
v 0.024854 0.023665 -0.019263
v 0.031897 0.026754 -0.016940
v 0.050300 0.037112 -0.007346
v 0.050300 0.042191 -0.005437
v 0.050075 0.047677 -0.003317
v 0.050300 0.047418 -0.003317
v 0.027583 0.020319 -0.019263
v 0.002140 0.034501 -0.019263
v 0.005188 0.041642 -0.016940
v 0.003553 0.011090 -0.023485
v 0.001185 0.003701 -0.023958
v 0.016425 0.030294 -0.019263
v 0.005540 0.010219 -0.023485
v 0.001849 0.003410 -0.023958
v 0.003770 0.000729 -0.023958
v -0.007331 0.008985 -0.023485
v -0.003364 0.001875 -0.023958
v -0.004754 0.018775 -0.022543
v -0.003582 0.019040 -0.022543
v -0.010406 0.004965 -0.023485
v -0.002798 0.002664 -0.023958
v 0.026580 0.054099 -0.008732
v 0.021125 0.054099 -0.009944
v -0.050300 0.029981 -0.009411
v 0.006389 0.033958 -0.019263
v 0.004272 0.034297 -0.019263
v -0.050300 0.023942 -0.010923
v -0.018182 0.005989 -0.022543
v -0.017775 0.007135 -0.022543
v 0.009710 0.006248 -0.023485
v 0.003241 0.002085 -0.023958
v -0.011478 0.000731 -0.023485
v 0.006760 0.009434 -0.023485
v -0.001849 0.003410 -0.023958
v 0.022509 0.014484 -0.021134
v 0.014731 0.012356 -0.022543
v 0.025354 0.008352 -0.021134
v 0.002599 0.041890 -0.016940
v 0.006629 0.026180 -0.021134
v 0.007037 0.018022 -0.022543
v 0.006162 0.009846 -0.023485
v 0.001441 0.011569 -0.023485
v 0.001412 0.003618 -0.023958
v -0.003770 0.000729 -0.023958
v 0.000000 0.003892 -0.023958
v -0.000481 0.003861 -0.023958
v -0.002154 0.011454 -0.023485
v 0.003569 0.001432 -0.023958
v 0.010693 0.004292 -0.023485
v 0.010243 0.016366 -0.022543
v 0.002056 0.003285 -0.023958
v 0.002255 0.003148 -0.023958
v -0.007873 0.008500 -0.023485
v 0.007756 0.041229 -0.016940
v -0.050300 0.015178 -0.012342
v -0.050300 0.016571 -0.012165
v 0.048439 0.003090 -0.014172
v 0.050300 0.000911 -0.013345
v 0.048535 0.000000 -0.014172
v 0.050300 0.003208 -0.013312
v 0.041315 0.002635 -0.016940
v 0.048152 0.006167 -0.014172
v -0.002860 0.011294 -0.023485
v 0.041070 0.005260 -0.016940
v 0.034095 0.000000 -0.019263
v 0.050300 0.004206 -0.013270
v 0.026448 0.003387 -0.021134
v 0.033491 0.006477 -0.019263
v 0.016141 0.010386 -0.022543
v 0.024332 0.033957 -0.016940
v 0.014517 0.031280 -0.019263
v 0.012551 0.032142 -0.019263
v 0.000481 0.003861 -0.023958
v 0.001634 0.003521 -0.023958
v -0.003241 0.002085 -0.023958
v -0.016141 0.010386 -0.022543
v -0.000955 0.003769 -0.023958
v -0.000719 0.003822 -0.023958
v 0.004995 0.026551 -0.021134
v -0.000240 0.003884 -0.023958
v 0.033308 0.054099 -0.006910
v 0.050300 0.047891 -0.003097
v 0.050300 0.000000 -0.013358
v 0.050300 0.008448 -0.013031
v 0.050300 0.006443 -0.013174
v 0.047675 0.009221 -0.014172
v -0.001185 0.003701 -0.023958
v 0.016752 0.009337 -0.022543
v 0.010406 0.004965 -0.023485
v 0.003364 0.001875 -0.023958
v 0.010077 0.005617 -0.023485
v -0.003839 0.000000 -0.023958
v 0.011478 0.000731 -0.023485
v 0.041397 0.000000 -0.016940
v 0.011351 0.024457 -0.021134
v 0.003341 0.026816 -0.021134
v 0.002396 0.019231 -0.022543
v 0.003831 0.000244 -0.023958
v 0.002798 0.002664 -0.023958
v 0.003473 0.001657 -0.023958
v -0.050300 0.023998 -0.010911
v 0.044141 0.054099 -0.002921
v 0.050300 0.049119 -0.002488
v 0.050300 0.054099 -0.000014
v 0.033861 0.054099 -0.006734
v 0.000240 0.003884 -0.023958
v -0.003473 0.001657 -0.023958
v 0.050300 0.009729 -0.012940
v 0.000955 0.003769 -0.023958
v -0.002627 0.002837 -0.023958
v -0.002446 0.002998 -0.023958
v 0.003839 0.000000 -0.023958
v 0.036661 0.054099 -0.005756
v -0.003569 0.001432 -0.023958
v -0.002255 0.003148 -0.023958
v 0.000719 0.003822 -0.023958
v -0.002056 0.003285 -0.023958
v 0.043800 0.054099 -0.003070
v 0.038766 0.054099 -0.005020
v 0.043233 0.054099 -0.003317
v 0.050300 0.054099 0.000001
v 0.050300 0.000000 0.000001
v -0.050300 0.054099 0.000001
v -0.050300 0.000000 0.000001
# 520 vertices, 0 vertices normals

f 1 2 3
f 2 1 4
f 5 6 7
f 8 9 10
f 11 12 13
f 12 11 14
f 7 6 15
f 3 16 17
f 16 3 18
f 19 20 21
f 22 23 24
f 25 26 27
f 28 29 30
f 31 32 33
f 34 35 36
f 37 38 39
f 40 41 42
f 43 44 45
f 46 47 48
f 49 50 51
f 52 53 54
f 55 56 57
f 58 59 60
f 61 62 63
f 64 65 66
f 67 68 69
f 70 71 72
f 73 65 64
f 46 74 75
f 76 77 34
f 78 79 80
f 37 39 81
f 57 56 82
f 83 29 28
f 84 56 55
f 85 86 87
f 88 89 90
f 50 91 92
f 93 94 95
f 96 97 98
f 97 96 99
f 100 101 102
f 103 104 105
f 106 107 8
f 108 109 110
f 109 108 111
f 112 72 113
f 65 43 114
f 115 116 117
f 118 27 106
f 119 120 121
f 122 123 124
f 125 73 126
f 127 70 72
f 71 128 129
f 130 131 132
f 131 130 133
f 134 135 136
f 57 82 137
f 138 139 140
f 30 141 77
f 141 30 142
f 77 143 144
f 145 146 147
f 87 47 46
f 148 149 139
f 74 38 37
f 91 52 150
f 82 151 152
f 151 82 153
f 50 92 51
f 92 150 154
f 52 155 53
f 156 90 157
f 158 90 156
f 159 160 161
f 162 163 164
f 126 73 165
f 166 125 167
f 6 168 169
f 170 171 172
f 166 173 125
f 174 175 176
f 177 178 43
f 171 179 180
f 181 182 183
f 184 185 186
f 187 179 113
f 113 171 168
f 188 189 190
f 191 192 193
f 124 61 194
f 195 196 197
f 198 124 116
f 199 200 201
f 38 130 132
f 202 203 204
f 205 206 134
f 206 205 207
f 208 9 209
f 9 208 10
f 197 210 211
f 47 57 137
f 137 212 38
f 63 84 55
f 213 41 83
f 214 215 40
f 23 215 214
f 81 216 217
f 216 81 132
f 137 82 212
f 79 76 80
f 218 134 136
f 219 34 1
f 215 46 75
f 83 28 76
f 91 150 92
f 220 95 221
f 92 154 222
f 51 92 222
f 151 153 223
f 154 224 225
f 84 226 56
f 51 222 226
f 227 228 229
f 148 230 231
f 230 103 231
f 59 232 60
f 200 233 145
f 234 161 235
f 149 236 237
f 106 8 160
f 159 106 160
f 49 51 84
f 238 94 93
f 94 238 239
f 94 239 240
f 108 241 111
f 242 168 6
f 111 243 244
f 243 111 242
f 245 246 68
f 71 129 72
f 247 248 249
f 127 72 250
f 251 252 178
f 173 253 254
f 255 256 257
f 258 251 178
f 205 259 207
f 260 205 261
f 262 80 219
f 186 185 263
f 264 265 185
f 175 266 241
f 65 114 66
f 267 268 269
f 268 267 270
f 19 21 271
f 70 128 71
f 23 272 215
f 273 79 21
f 20 273 21
f 274 195 275
f 276 158 156
f 277 278 279
f 212 280 281
f 280 212 82
f 212 281 282
f 154 283 224
f 154 284 283
f 285 286 270
f 287 288 289
f 290 259 205
f 259 290 291
f 290 292 291
f 292 290 17
f 28 30 76
f 79 83 76
f 85 87 46
f 272 46 215
f 293 100 102
f 237 294 293
f 47 55 57
f 226 222 56
f 47 137 48
f 75 74 295
f 39 38 132
f 39 132 81
f 80 76 34
f 76 30 77
f 80 34 219
f 3 219 1
f 30 296 142
f 296 30 81
f 81 217 296
f 54 150 52
f 150 54 297
f 297 54 298
f 150 284 154
f 284 150 297
f 82 152 280
f 299 153 222
f 153 299 300
f 153 300 223
f 84 51 226
f 60 49 84
f 88 301 89
f 8 301 88
f 302 303 304
f 140 200 199
f 68 234 235
f 305 159 234
f 161 158 276
f 160 8 158
f 120 306 121
f 307 162 308
f 162 307 163
f 27 107 106
f 97 99 100
f 105 97 100
f 93 309 238
f 240 52 94
f 52 240 155
f 310 93 311
f 93 310 309
f 312 101 99
f 101 312 313
f 314 52 91
f 50 314 91
f 100 99 101
f 315 316 317
f 316 315 318
f 317 319 169
f 319 317 316
f 169 170 317
f 320 248 247
f 242 321 243
f 321 242 6
f 321 6 5
f 168 170 169
f 168 171 170
f 33 271 322
f 323 227 229
f 246 121 305
f 324 325 326
f 327 328 329
f 330 331 183
f 241 250 111
f 332 188 333
f 334 335 336
f 250 72 112
f 173 315 172
f 315 173 166
f 167 125 126
f 173 254 125
f 337 177 73
f 73 177 65
f 66 285 267
f 318 315 338
f 254 253 337
f 177 43 65
f 64 66 14
f 114 43 285
f 17 16 339
f 261 205 134
f 340 260 203
f 341 342 343
f 260 344 205
f 1 36 4
f 36 1 34
f 134 206 135
f 68 235 69
f 345 24 346
f 347 348 32
f 275 211 349
f 346 214 350
f 214 40 350
f 42 41 213
f 213 83 79
f 351 117 352
f 117 194 352
f 58 60 123
f 115 117 353
f 354 355 277
f 356 357 323
f 130 282 133
f 282 130 212
f 38 212 130
f 222 358 299
f 154 358 222
f 358 154 225
f 202 359 360
f 270 289 202
f 132 131 361
f 40 295 41
f 295 37 41
f 41 29 83
f 41 37 29
f 46 48 74
f 295 74 37
f 23 85 272
f 85 46 272
f 102 311 93
f 362 221 50
f 63 55 47
f 61 63 86
f 211 123 122
f 211 210 58
f 48 137 74
f 74 137 38
f 132 361 363
f 216 132 363
f 34 144 35
f 144 34 77
f 344 290 205
f 252 364 44
f 77 141 143
f 56 222 153
f 56 153 82
f 8 10 301
f 301 365 366
f 365 10 367
f 10 365 301
f 158 88 90
f 158 8 88
f 147 368 210
f 200 145 196
f 369 370 371
f 161 160 158
f 230 157 103
f 157 104 103
f 372 246 245
f 118 106 373
f 374 22 345
f 305 373 159
f 27 26 375
f 306 25 27
f 121 373 305
f 308 376 307
f 164 9 162
f 9 164 209
f 375 308 162
f 377 378 379
f 90 377 104
f 94 52 314
f 95 94 221
f 165 73 64
f 380 169 319
f 169 15 6
f 15 169 380
f 317 170 315
f 170 172 315
f 381 20 19
f 348 19 32
f 382 383 188
f 331 384 385
f 386 387 382
f 253 258 388
f 389 199 390
f 356 323 391
f 392 326 393
f 394 393 395
f 396 332 397
f 397 332 258
f 180 257 398
f 255 279 256
f 187 129 179
f 113 179 171
f 109 111 244
f 338 167 399
f 167 338 315
f 400 401 402
f 401 400 167
f 172 398 173
f 179 403 180
f 258 332 251
f 388 258 178
f 254 337 73
f 125 254 73
f 322 262 404
f 292 17 339
f 45 287 286
f 44 364 287
f 405 3 17
f 290 405 17
f 406 407 341
f 364 408 287
f 409 410 191
f 357 411 323
f 3 2 18
f 67 69 369
f 412 198 115
f 413 138 140
f 414 213 415
f 415 213 20
f 350 40 414
f 345 22 24
f 20 213 273
f 273 213 79
f 414 42 213
f 414 40 42
f 352 85 23
f 351 23 22
f 416 148 138
f 369 69 370
f 233 237 145
f 195 197 275
f 201 417 390
f 417 201 274
f 198 211 122
f 202 418 270
f 418 202 360
f 270 418 268
f 204 359 202
f 359 204 419
f 288 340 289
f 29 37 81
f 29 81 30
f 215 75 295
f 215 295 40
f 352 194 85
f 194 61 86
f 232 50 49
f 60 232 49
f 145 147 196
f 101 313 420
f 221 94 314
f 221 314 50
f 62 84 63
f 194 86 85
f 201 195 274
f 275 197 211
f 421 422 405
f 78 80 262
f 99 96 423
f 105 377 97
f 104 377 105
f 10 208 367
f 69 235 370
f 234 159 161
f 424 161 276
f 370 424 425
f 149 103 236
f 103 105 294
f 424 276 230
f 157 90 104
f 354 426 427
f 426 354 277
f 372 119 428
f 372 428 246
f 121 118 373
f 373 106 159
f 375 162 9
f 27 375 107
f 26 308 375
f 165 64 11
f 399 167 400
f 167 126 401
f 315 166 167
f 348 381 19
f 391 323 182
f 188 429 189
f 430 351 22
f 431 255 179
f 256 432 396
f 182 330 183
f 390 199 201
f 324 326 392
f 326 356 391
f 433 331 70
f 397 258 253
f 382 188 332
f 112 113 168
f 242 112 168
f 72 187 113
f 72 129 187
f 250 112 111
f 111 112 242
f 180 398 172
f 171 180 172
f 332 333 251
f 251 190 252
f 398 253 173
f 256 396 257
f 253 388 337
f 388 178 337
f 434 262 219
f 434 219 3
f 337 178 177
f 44 287 45
f 334 336 364
f 289 203 202
f 289 340 203
f 185 435 263
f 333 190 251
f 333 188 190
f 436 406 264
f 437 410 409
f 438 31 33
f 191 439 192
f 440 68 67
f 441 348 347
f 198 122 124
f 115 198 116
f 424 230 425
f 147 302 304
f 147 304 368
f 138 148 139
f 139 149 233
f 149 237 233
f 211 58 123
f 353 117 351
f 442 443 381
f 228 444 445
f 429 437 446
f 447 429 448
f 429 447 437
f 328 448 429
f 286 289 270
f 286 287 289
f 203 134 204
f 204 218 419
f 218 204 134
f 210 368 58
f 362 50 232
f 103 294 236
f 236 294 237
f 220 221 362
f 293 303 302
f 368 220 362
f 368 362 232
f 197 147 210
f 196 147 197
f 86 63 47
f 86 47 87
f 117 124 194
f 116 124 117
f 123 60 61
f 124 123 61
f 61 60 62
f 60 84 62
f 349 211 198
f 274 349 449
f 21 78 262
f 21 79 78
f 344 450 290
f 185 265 435
f 451 89 301
f 89 451 452
f 425 230 148
f 370 425 371
f 235 161 424
f 370 235 424
f 276 157 230
f 276 156 157
f 231 103 149
f 148 231 149
f 246 305 68
f 68 305 234
f 121 306 118
f 306 27 118
f 375 9 107
f 107 9 8
f 11 64 14
f 126 165 401
f 114 285 66
f 285 270 267
f 453 454 455
f 454 453 456
f 453 457 458
f 346 414 459
f 381 415 20
f 278 387 432
f 432 386 396
f 182 323 330
f 446 409 335
f 437 409 446
f 384 228 445
f 385 445 128
f 179 255 403
f 129 431 179
f 460 174 458
f 461 392 394
f 241 127 250
f 433 70 127
f 456 453 462
f 392 393 394
f 393 326 463
f 181 183 464
f 326 391 463
f 398 257 253
f 465 279 431
f 108 249 248
f 249 108 110
f 176 175 241
f 403 257 180
f 403 255 257
f 450 405 290
f 186 263 260
f 45 286 285
f 43 45 285
f 178 466 43
f 178 252 466
f 364 336 408
f 467 468 340
f 203 261 134
f 203 260 261
f 467 184 468
f 340 186 260
f 190 446 334
f 446 335 334
f 436 264 185
f 335 193 336
f 192 439 406
f 438 469 31
f 342 469 438
f 470 439 191
f 140 389 471
f 389 140 199
f 351 352 23
f 430 353 351
f 383 327 329
f 201 200 195
f 200 196 195
f 140 139 472
f 139 233 472
f 31 441 347
f 473 459 474
f 31 347 32
f 105 100 294
f 294 100 293
f 102 93 303
f 293 102 303
f 93 220 303
f 220 93 95
f 145 237 146
f 237 293 302
f 58 368 59
f 368 232 59
f 237 302 146
f 146 302 147
f 33 32 271
f 422 322 404
f 475 422 421
f 263 475 421
f 98 377 379
f 377 98 97
f 476 348 441
f 119 121 428
f 428 121 246
f 447 410 437
f 401 165 11
f 267 269 477
f 402 401 478
f 479 455 454
f 458 480 481
f 480 458 482
f 346 350 414
f 483 346 459
f 410 470 191
f 387 383 382
f 432 387 386
f 129 484 431
f 426 277 279
f 383 329 188
f 409 191 193
f 335 409 193
f 485 486 487
f 277 355 278
f 229 228 384
f 323 229 330
f 445 485 128
f 384 445 385
f 488 119 372
f 489 356 326
f 325 489 326
f 176 241 108
f 266 127 241
f 490 394 457
f 458 174 482
f 482 174 248
f 183 433 175
f 183 331 433
f 257 397 253
f 257 396 397
f 405 434 3
f 422 434 405
f 344 421 450
f 421 405 450
f 466 252 44
f 466 44 43
f 288 467 340
f 287 467 288
f 189 429 446
f 189 446 190
f 252 334 364
f 190 334 252
f 491 193 184
f 491 184 467
f 184 436 185
f 193 436 184
f 439 407 406
f 32 19 271
f 475 492 422
f 438 33 493
f 493 33 322
f 442 348 476
f 486 427 426
f 494 357 356
f 495 278 355
f 278 495 387
f 387 327 383
f 413 416 138
f 325 494 489
f 345 346 483
f 371 425 148
f 371 148 416
f 444 496 445
f 483 459 473
f 274 275 349
f 472 233 200
f 140 472 200
f 474 459 443
f 442 381 348
f 411 227 323
f 304 220 368
f 304 303 220
f 271 21 262
f 322 271 262
f 404 262 434
f 422 404 434
f 263 421 344
f 260 263 344
f 343 493 475
f 475 493 492
f 99 497 312
f 99 423 497
f 420 311 101
f 311 420 310
f 102 101 311
f 378 89 452
f 89 378 377
f 12 14 498
f 478 401 499
f 499 13 500
f 11 499 401
f 499 11 13
f 267 477 501
f 24 23 214
f 24 214 346
f 459 414 415
f 474 443 442
f 469 502 31
f 502 441 31
f 485 487 128
f 279 432 256
f 279 278 432
f 128 484 129
f 431 279 255
f 128 487 484
f 484 465 431
f 329 429 188
f 329 328 429
f 229 384 330
f 330 384 331
f 391 182 181
f 463 391 181
f 487 426 484
f 487 486 426
f 503 416 413
f 385 128 70
f 331 385 70
f 495 327 387
f 413 140 471
f 489 494 356
f 248 176 108
f 174 176 248
f 175 433 266
f 266 433 127
f 393 463 395
f 463 181 395
f 490 457 455
f 458 462 453
f 462 458 481
f 482 320 504
f 320 482 248
f 480 482 504
f 408 336 467
f 408 467 287
f 468 184 186
f 468 186 340
f 336 491 467
f 336 193 491
f 192 406 436
f 193 192 436
f 407 505 341
f 506 412 507
f 503 371 416
f 245 68 440
f 508 494 325
f 449 349 198
f 449 198 412
f 342 438 343
f 435 475 263
f 343 438 493
f 435 265 475
f 90 89 377
f 301 366 451
f 507 412 115
f 417 274 506
f 267 509 66
f 509 267 501
f 459 415 443
f 443 415 381
f 369 371 510
f 386 382 332
f 396 386 332
f 484 426 465
f 465 426 279
f 430 22 374
f 445 496 485
f 496 486 485
f 506 274 449
f 507 115 511
f 395 464 174
f 395 181 464
f 505 512 341
f 513 353 430
f 115 513 511
f 513 115 353
f 510 371 503
f 508 357 494
f 508 411 357
f 508 227 411
f 508 228 227
f 508 444 228
f 508 496 444
f 508 486 496
f 508 427 486
f 508 354 427
f 508 355 354
f 508 495 355
f 508 327 495
f 508 328 327
f 508 448 328
f 508 447 448
f 508 410 447
f 508 470 410
f 508 439 470
f 508 407 439
f 508 505 407
f 508 512 505
f 508 469 512
f 508 502 469
f 508 441 502
f 508 476 441
f 508 442 476
f 508 474 442
f 508 473 474
f 508 483 473
f 508 345 483
f 508 374 345
f 508 430 374
f 508 513 430
f 508 511 513
f 508 507 511
f 508 506 507
f 508 417 506
f 508 390 417
f 508 389 390
f 508 471 389
f 508 413 471
f 508 503 413
f 508 510 503
f 508 369 510
f 508 67 369
f 508 440 67
f 508 245 440
f 508 372 245
f 372 508 488
f 506 449 412
f 264 406 265
f 406 341 265
f 493 322 492
f 492 322 422
f 498 14 514
f 515 66 509
f 455 457 453
f 464 183 175
f 464 175 174
f 512 469 342
f 341 512 342
f 265 343 475
f 265 341 343
f 14 516 514
f 14 515 516
f 515 14 66
f 457 394 460
f 457 460 458
f 461 394 490
f 394 395 460
f 460 395 174
f 517 499 500
f 518 499 517
f 499 518 478
f 478 518 402
f 402 518 400
f 400 518 399
f 399 518 338
f 338 518 318
f 318 518 316
f 316 518 319
f 319 518 380
f 380 518 15
f 5 15 518
f 15 5 7
f 5 518 321
f 321 518 243
f 243 518 244
f 244 518 109
f 109 518 110
f 110 518 249
f 249 518 247
f 247 518 320
f 320 518 504
f 504 518 480
f 480 518 481
f 481 518 462
f 462 518 456
f 456 518 454
f 454 518 479
f 519 518 517
f 518 519 520
f 54 519 298
f 520 54 53
f 520 53 155
f 520 155 240
f 520 240 239
f 520 239 238
f 520 238 309
f 520 309 310
f 520 310 420
f 520 420 313
f 520 313 312
f 423 312 497
f 312 423 520
f 520 423 96
f 520 96 98
f 520 98 379
f 520 379 378
f 520 378 452
f 520 452 451
f 520 451 366
f 520 366 365
f 520 365 367
f 520 367 208
f 520 208 209
f 520 209 164
f 520 164 163
f 520 163 307
f 520 307 376
f 54 520 519
f 13 517 500
f 12 517 13
f 517 12 519
f 519 297 298
f 284 519 12
f 519 284 297
f 514 12 498
f 12 515 284
f 12 514 515
f 358 284 515
f 515 514 516
f 224 284 358
f 284 224 283
f 224 358 225
f 509 358 515
f 509 299 358
f 477 509 501
f 418 509 477
f 509 418 299
f 299 223 300
f 268 477 269
f 418 477 268
f 280 299 418
f 223 152 151
f 299 280 223
f 223 280 152
f 359 418 360
f 418 359 280
f 282 280 359
f 280 282 281
f 419 282 359
f 419 133 282
f 218 133 419
f 218 131 133
f 135 218 136
f 218 135 131
f 363 131 135
f 131 363 361
f 206 363 135
f 206 216 363
f 207 216 206
f 207 217 216
f 259 217 207
f 259 296 217
f 292 259 291
f 259 292 296
f 141 296 292
f 296 141 142
f 339 141 292
f 339 143 141
f 16 143 339
f 16 144 143
f 2 16 18
f 16 2 144
f 36 144 2
f 144 36 35
f 36 2 4
f 308 520 376
f 25 520 26
f 520 308 26
f 306 520 25
f 455 518 490
f 518 455 479
f 120 520 306
f 518 461 490
f 119 520 120
f 518 392 461
f 488 520 119
f 518 324 392
f 520 488 518
f 518 325 324
f 508 518 488
f 518 508 325
# 1036 faces, 0 coords texture

# End of File
