####
#
# OBJ File Generated by Meshlab
#
####
# Object right_foot_geom.obj
#
# Vertices: 520
# Faces: 1036
#
####
v -0.024121 -0.011509 -0.021134
v -0.024787 -0.009950 -0.021134
v -0.017298 -0.008253 -0.022543
v 0.018516 -0.004820 -0.022543
v 0.010938 -0.003603 -0.023485
v 0.011139 -0.002899 -0.023485
v -0.009210 -0.016986 -0.022543
v -0.010243 -0.016366 -0.022543
v -0.005540 -0.010219 -0.023485
v -0.045349 -0.043178 -0.007346
v -0.047934 -0.040206 -0.007346
v -0.040444 -0.038508 -0.010969
v 0.000000 -0.049210 -0.014172
v 0.000920 -0.054099 -0.011936
v 0.000000 -0.054099 -0.011949
v 0.003047 -0.049113 -0.014172
v -0.040664 -0.007865 -0.016940
v -0.048152 -0.006167 -0.014172
v -0.041070 -0.005260 -0.016940
v 0.039654 -0.048600 -0.007346
v 0.037980 -0.041007 -0.010969
v 0.042585 -0.045979 -0.007346
v -0.018250 -0.019704 -0.021134
v -0.019433 -0.018503 -0.021134
v -0.013936 -0.013268 -0.022543
v -0.050201 -0.023952 -0.010969
v -0.050300 -0.023942 -0.010923
v -0.050300 -0.023721 -0.010969
v 0.035365 -0.043345 -0.010969
v 0.026729 -0.049295 -0.010969
v 0.023381 -0.043123 -0.014172
v 0.029729 -0.047497 -0.010969
v 0.010406 -0.004965 -0.023485
v 0.003473 -0.001657 -0.023958
v 0.010693 -0.004292 -0.023485
v 0.026006 -0.041550 -0.014172
v 0.019943 -0.036781 -0.016940
v 0.022181 -0.035439 -0.016940
v -0.020665 -0.044527 -0.014172
v -0.026729 -0.049295 -0.010969
v -0.023381 -0.043123 -0.014172
v 0.034952 -0.022489 -0.016940
v 0.028788 -0.018523 -0.019263
v 0.036276 -0.020221 -0.016940
v -0.048619 -0.027101 -0.010969
v -0.050300 -0.029981 -0.009411
v -0.050300 -0.028037 -0.009937
v -0.001674 -0.026977 -0.021134
v -0.002396 -0.019231 -0.022543
v -0.001200 -0.019345 -0.022543
v 0.009619 -0.054099 -0.011546
v 0.009094 -0.048339 -0.014172
v 0.010178 -0.054099 -0.011506
v 0.006083 -0.048822 -0.014172
v 0.033308 -0.054099 -0.006910
v 0.031927 -0.054099 -0.007346
v 0.033334 -0.053256 -0.007346
v 0.017867 -0.045754 -0.014172
v 0.012792 -0.039919 -0.016940
v 0.015239 -0.039025 -0.016940
v -0.023324 -0.054099 -0.009473
v -0.025107 -0.054099 -0.009092
v -0.023622 -0.050901 -0.010969
v 0.035380 -0.033687 -0.014172
v 0.040444 -0.038508 -0.010969
v 0.040979 -0.026368 -0.014172
v 0.042532 -0.023707 -0.014172
v 0.001674 -0.026977 -0.021134
v 0.000000 -0.027030 -0.021134
v 0.001200 -0.019345 -0.022543
v -0.017626 -0.037978 -0.016940
v -0.019943 -0.036781 -0.016940
v -0.006740 -0.054099 -0.011753
v -0.009619 -0.054099 -0.011546
v -0.006083 -0.048822 -0.014172
v -0.026271 -0.022036 -0.019263
v -0.033490 -0.024671 -0.016940
v -0.027583 -0.020319 -0.019263
v 0.005188 -0.041642 -0.016940
v 0.002599 -0.041890 -0.016940
v 0.004272 -0.034297 -0.019263
v -0.050300 -0.020749 -0.011506
v -0.045127 -0.018115 -0.014172
v -0.043916 -0.020952 -0.014172
v -0.050300 -0.020192 -0.011607
v -0.047675 -0.009221 -0.014172
v -0.050300 -0.009729 -0.012940
v -0.050300 -0.008448 -0.013031
v 0.012070 -0.047665 -0.014172
v 0.015113 -0.054099 -0.010969
v 0.013700 -0.054099 -0.011151
v 0.017144 -0.053501 -0.010969
v 0.033491 -0.006477 -0.019263
v 0.025822 -0.006721 -0.021134
v 0.026187 -0.005065 -0.021134
v 0.039266 -0.028925 -0.014172
v 0.033490 -0.024671 -0.016940
v 0.050300 -0.042191 -0.005437
v 0.047934 -0.040206 -0.007346
v 0.050300 -0.037112 -0.007346
v -0.020541 -0.017229 -0.021134
v -0.014731 -0.012356 -0.022543
v 0.018182 -0.005989 -0.022543
v -0.001849 -0.003410 -0.023958
v -0.006162 -0.009846 -0.023485
v -0.002056 -0.003285 -0.023958
v -0.016752 -0.009337 -0.022543
v -0.010077 -0.005617 -0.023485
v 0.000000 -0.041973 -0.016940
v -0.003047 -0.049113 -0.014172
v -0.002599 -0.041890 -0.016940
v -0.014517 -0.031280 -0.019263
v -0.016425 -0.030294 -0.019263
v -0.009094 -0.048339 -0.014172
v -0.010295 -0.040654 -0.016940
v -0.007756 -0.041229 -0.016940
v -0.033024 -0.008596 -0.019263
v -0.033491 -0.006477 -0.019263
v -0.037457 -0.017871 -0.016940
v -0.038489 -0.015451 -0.016940
v -0.030850 -0.014719 -0.019263
v -0.031701 -0.012726 -0.019263
v -0.042532 -0.023707 -0.014172
v 0.037457 -0.017871 -0.016940
v 0.030850 -0.014719 -0.019263
v 0.038489 -0.015451 -0.016940
v 0.036661 -0.054099 -0.005756
v 0.033861 -0.054099 -0.006734
v 0.036566 -0.051029 -0.007346
v 0.017336 -0.054099 -0.010635
v 0.017012 -0.054099 -0.010684
v 0.014517 -0.031280 -0.019263
v 0.017626 -0.037978 -0.016940
v 0.012551 -0.032142 -0.019263
v 0.031897 -0.026754 -0.016940
v 0.026271 -0.022036 -0.019263
v 0.029333 -0.054099 -0.008058
v 0.026580 -0.054099 -0.008732
v 0.017813 -0.054099 -0.010548
v 0.050300 -0.047891 -0.003097
v 0.050075 -0.047677 -0.003317
v 0.050300 -0.047418 -0.003317
v 0.045704 -0.054099 -0.002185
v 0.047023 -0.050771 -0.003317
v 0.050105 -0.054099 -0.000112
v 0.043786 -0.053664 -0.003317
v 0.030177 -0.028732 -0.016940
v 0.023339 -0.025200 -0.019263
v 0.024854 -0.023665 -0.019263
v 0.020541 -0.017229 -0.021134
v 0.015467 -0.011393 -0.022543
v 0.021567 -0.015887 -0.021134
v 0.012186 -0.014935 -0.022543
v 0.006760 -0.009434 -0.023485
v 0.007331 -0.008985 -0.023485
v -0.008384 -0.007982 -0.023485
v -0.003582 -0.019040 -0.022543
v -0.004995 -0.026551 -0.021134
v -0.004754 -0.018775 -0.022543
v 0.008140 -0.017539 -0.022543
v 0.004233 -0.010841 -0.023485
v 0.004896 -0.010550 -0.023485
v 0.020041 -0.027967 -0.019263
v 0.024332 -0.033957 -0.016940
v 0.017298 -0.008253 -0.022543
v 0.010077 -0.005617 -0.023485
v -0.036566 -0.051029 -0.007346
v -0.043786 -0.053664 -0.003317
v -0.039654 -0.048600 -0.007346
v -0.026006 -0.041550 -0.014172
v -0.029729 -0.047497 -0.010969
v -0.028528 -0.039812 -0.014172
v 0.003569 -0.001432 -0.023958
v 0.003651 -0.001203 -0.023958
v 0.002140 -0.034501 -0.019263
v 0.007756 -0.041229 -0.016940
v 0.010295 -0.040654 -0.016940
v -0.010535 -0.032878 -0.019263
v -0.012551 -0.032142 -0.019263
v -0.009813 -0.025132 -0.021134
v 0.018250 -0.019704 -0.021134
v 0.019433 -0.018503 -0.021134
v 0.006389 -0.033958 -0.019263
v 0.000000 -0.034570 -0.019263
v -0.050300 -0.004206 -0.013270
v -0.050300 -0.006443 -0.013174
v -0.048439 -0.003090 -0.014172
v -0.050300 -0.017620 -0.012004
v -0.046160 -0.015206 -0.014172
v -0.050300 -0.016571 -0.012165
v -0.029878 -0.016654 -0.019263
v -0.036276 -0.020221 -0.016940
v -0.025354 -0.008352 -0.021134
v -0.025822 -0.006721 -0.021134
v -0.028788 -0.018523 -0.019263
v -0.023361 -0.013021 -0.021134
v -0.050300 -0.024098 -0.010887
v -0.046845 -0.030142 -0.010969
v -0.050300 -0.032365 -0.008766
v -0.044886 -0.033065 -0.010969
v -0.040979 -0.026368 -0.014172
v -0.047010 -0.012238 -0.014172
v -0.050300 -0.023998 -0.010911
v -0.000920 -0.054099 -0.011936
v -0.003356 -0.054099 -0.011900
v -0.017144 -0.053501 -0.010969
v -0.017867 -0.045754 -0.014172
v -0.014997 -0.046802 -0.014172
v 0.009813 -0.025132 -0.021134
v 0.011351 -0.024457 -0.021134
v 0.014997 -0.046802 -0.014172
v 0.023622 -0.050901 -0.010969
v 0.025107 -0.054099 -0.009092
v 0.020424 -0.052303 -0.010969
v 0.021125 -0.054099 -0.009944
v 0.038766 -0.054099 -0.005020
v 0.023324 -0.054099 -0.009473
v 0.043233 -0.054099 -0.003317
v 0.033826 -0.004333 -0.019263
v 0.026448 -0.003387 -0.021134
v 0.026607 -0.001697 -0.021134
v 0.026387 -0.032341 -0.016940
v 0.021733 -0.026636 -0.019263
v 0.031701 -0.012726 -0.019263
v 0.039370 -0.012970 -0.016940
v -0.018269 -0.029188 -0.019263
v -0.020041 -0.027967 -0.019263
v -0.014284 -0.022822 -0.021134
v -0.012843 -0.023686 -0.021134
v -0.010406 -0.004965 -0.023485
v -0.024854 -0.023665 -0.019263
v 0.016993 -0.020826 -0.021134
v 0.007037 -0.018022 -0.022543
v 0.048152 -0.006167 -0.014172
v 0.041070 -0.005260 -0.016940
v 0.041315 -0.002635 -0.016940
v 0.004754 -0.018775 -0.022543
v 0.002860 -0.011294 -0.023485
v 0.003553 -0.011090 -0.023485
v -0.003651 -0.001203 -0.023958
v -0.011139 -0.002899 -0.023485
v -0.003717 -0.000967 -0.023958
v 0.022509 -0.014484 -0.021134
v 0.016141 -0.010386 -0.022543
v 0.015670 -0.021868 -0.021134
v -0.012792 -0.039919 -0.016940
v -0.012070 -0.047665 -0.014172
v -0.021567 -0.015887 -0.021134
v -0.033308 -0.054099 -0.006910
v -0.033334 -0.053256 -0.007346
v -0.031927 -0.054099 -0.007346
v -0.004272 -0.034297 -0.019263
v -0.003341 -0.026816 -0.021134
v -0.002140 -0.034501 -0.019263
v 0.000000 -0.019383 -0.022543
v -0.000722 -0.011638 -0.023485
v 0.008238 -0.025707 -0.021134
v 0.005907 -0.018435 -0.022543
v -0.005188 -0.041642 -0.016940
v 0.011410 -0.001461 -0.023485
v 0.003808 -0.000487 -0.023958
v 0.003831 -0.000244 -0.023958
v -0.026448 -0.003387 -0.021134
v -0.026607 -0.001697 -0.021134
v -0.019080 -0.001217 -0.022543
v -0.031897 -0.026754 -0.016940
v -0.039266 -0.028925 -0.014172
v -0.042749 -0.035857 -0.010969
v -0.041315 -0.002635 -0.016940
v -0.034028 -0.002171 -0.019263
v -0.034095 0.000000 -0.019263
v -0.026659 0.000000 -0.021134
v -0.039370 -0.012970 -0.016940
v -0.032426 -0.010682 -0.019263
v -0.050300 -0.011492 -0.012765
v -0.040096 -0.010438 -0.016940
v 0.050300 -0.004206 -0.013270
v 0.048439 -0.003090 -0.014172
v 0.050300 -0.003208 -0.013312
v 0.045127 -0.018115 -0.014172
v 0.018967 -0.002429 -0.022543
v 0.019080 -0.001217 -0.022543
v -0.010178 -0.054099 -0.011506
v 0.004995 -0.026551 -0.021134
v 0.003582 -0.019040 -0.022543
v 0.008479 -0.033484 -0.019263
v 0.010535 -0.032878 -0.019263
v 0.016425 -0.030294 -0.019263
v 0.020665 -0.044527 -0.014172
v 0.045349 -0.043178 -0.007346
v 0.037396 -0.031368 -0.014172
v 0.032611 -0.045510 -0.010969
v 0.028528 -0.039812 -0.014172
v 0.050300 -0.023942 -0.010923
v 0.050201 -0.023952 -0.010969
v 0.050300 -0.023721 -0.010969
v 0.009710 -0.006248 -0.023485
v 0.016752 -0.009337 -0.022543
v 0.023361 -0.013021 -0.021134
v 0.050300 -0.023998 -0.010911
v 0.050300 -0.009729 -0.012940
v 0.047675 -0.009221 -0.014172
v 0.050300 -0.008448 -0.013031
v 0.050300 -0.011492 -0.012765
v 0.047010 -0.012238 -0.014172
v -0.015670 -0.021868 -0.021134
v -0.008238 -0.025707 -0.021134
v -0.007037 -0.018022 -0.022543
v -0.015239 -0.039025 -0.016940
v 0.003364 -0.001875 -0.023958
v 0.010243 -0.016366 -0.022543
v 0.006162 -0.009846 -0.023485
v -0.008862 -0.007433 -0.023485
v -0.015467 -0.011393 -0.022543
v -0.009304 -0.006854 -0.023485
v -0.022509 -0.014484 -0.021134
v 0.001849 -0.003410 -0.023958
v 0.002056 -0.003285 -0.023958
v -0.018516 -0.004820 -0.022543
v -0.018779 -0.003632 -0.022543
v 0.011297 -0.002185 -0.023485
v 0.001185 -0.003701 -0.023958
v 0.028337 -0.030597 -0.016940
v 0.018269 -0.029188 -0.019263
v 0.014284 -0.022822 -0.021134
v 0.010651 -0.054099 -0.011458
v -0.050300 -0.042191 -0.005437
v -0.050300 -0.037112 -0.007346
v -0.034952 -0.022489 -0.016940
v -0.043800 -0.054099 -0.003070
v -0.044141 -0.054099 -0.002921
v -0.021733 -0.026636 -0.019263
v -0.026387 -0.032341 -0.016940
v -0.023339 -0.025200 -0.019263
v -0.001441 -0.011569 -0.023485
v 0.005540 -0.010219 -0.023485
v 0.009210 -0.016986 -0.022543
v 0.002396 -0.019231 -0.022543
v -0.026187 -0.005065 -0.021134
v -0.011297 -0.002185 -0.023485
v -0.033826 -0.004333 -0.019263
v -0.050300 -0.037054 -0.007365
v -0.050300 -0.033584 -0.008402
v -0.011237 -0.015681 -0.022543
v -0.050300 -0.003208 -0.013312
v -0.048535 0.000000 -0.014172
v 0.050300 -0.006443 -0.013174
v -0.002957 -0.002481 -0.023958
v -0.003105 -0.002287 -0.023958
v 0.026659 0.000000 -0.021134
v 0.048619 -0.027101 -0.010969
v 0.040664 -0.007865 -0.016940
v -0.010651 -0.054099 -0.011458
v 0.003356 -0.054099 -0.011900
v -0.004209 -0.054099 -0.011863
v -0.015113 -0.054099 -0.010969
v -0.013700 -0.054099 -0.011151
v 0.012843 -0.023686 -0.021134
v 0.030937 -0.037917 -0.014172
v 0.050300 -0.049119 -0.002488
v 0.050300 -0.054099 -0.000014
v 0.042749 -0.035857 -0.010969
v 0.046845 -0.030142 -0.010969
v 0.050300 -0.029981 -0.009411
v 0.050300 -0.032365 -0.008766
v 0.027583 -0.020319 -0.019263
v 0.050300 -0.037054 -0.007365
v 0.044886 -0.033065 -0.010969
v 0.050300 -0.033584 -0.008402
v 0.029878 -0.016654 -0.019263
v 0.048535 0.000000 -0.014172
v 0.041397 0.000000 -0.016940
v 0.050300 -0.015178 -0.012342
v 0.050300 -0.013094 -0.012606
v -0.022181 -0.035439 -0.016940
v -0.028337 -0.030597 -0.016940
v -0.033224 -0.035873 -0.014172
v -0.030177 -0.028732 -0.016940
v -0.005907 -0.018435 -0.022543
v -0.003553 -0.011090 -0.023485
v -0.008140 -0.017539 -0.022543
v -0.004233 -0.010841 -0.023485
v 0.018779 -0.003632 -0.022543
v 0.011478 -0.000731 -0.023485
v 0.011500 0.000000 -0.023485
v -0.018967 -0.002429 -0.022543
v 0.017775 -0.007135 -0.022543
v -0.002154 -0.011454 -0.023485
v -0.002860 -0.011294 -0.023485
v -0.000719 -0.003822 -0.023958
v 0.013086 -0.014130 -0.022543
v 0.007873 -0.008500 -0.023485
v 0.008384 -0.007982 -0.023485
v 0.024787 -0.009950 -0.021134
v 0.014731 -0.012356 -0.022543
v -0.032611 -0.045510 -0.010969
v -0.008479 -0.033484 -0.019263
v -0.042585 -0.045979 -0.007346
v -0.050075 -0.047677 -0.003317
v -0.020424 -0.052303 -0.010969
v -0.021125 -0.054099 -0.009944
v 0.001441 -0.011569 -0.023485
v 0.003341 -0.026816 -0.021134
v 0.006629 -0.026180 -0.021134
v -0.003364 -0.001875 -0.023958
v 0.003241 -0.002085 -0.023958
v 0.002255 -0.003148 -0.023958
v 0.002446 -0.002998 -0.023958
v -0.024332 -0.033957 -0.016940
v -0.037980 -0.041007 -0.010969
v -0.013086 -0.014130 -0.022543
v -0.016993 -0.020826 -0.021134
v -0.041397 0.000000 -0.016940
v -0.050300 -0.015178 -0.012342
v -0.050300 -0.013094 -0.012606
v 0.019117 0.000000 -0.022543
v 0.040096 -0.010438 -0.016940
v 0.033024 -0.008596 -0.019263
v 0.000481 -0.003861 -0.023958
v 0.002154 -0.011454 -0.023485
v 0.034028 -0.002171 -0.019263
v 0.004209 -0.054099 -0.011863
v -0.017012 -0.054099 -0.010684
v 0.033224 -0.035873 -0.014172
v 0.043800 -0.054099 -0.003070
v 0.044141 -0.054099 -0.002921
v 0.043916 -0.020952 -0.014172
v 0.024121 -0.011509 -0.021134
v 0.046160 -0.015206 -0.014172
v 0.050300 -0.016571 -0.012165
v 0.050300 -0.020192 -0.011607
v 0.050300 -0.017620 -0.012004
v -0.006760 -0.009434 -0.023485
v -0.011351 -0.024457 -0.021134
v -0.006629 -0.026180 -0.021134
v 0.000000 -0.011661 -0.023485
v 0.000000 -0.003892 -0.023958
v 0.000722 -0.011638 -0.023485
v 0.003839 0.000000 -0.023958
v 0.013936 -0.013268 -0.022543
v -0.018182 -0.005989 -0.022543
v 0.000955 -0.003769 -0.023958
v -0.002255 -0.003148 -0.023958
v 0.003105 -0.002287 -0.023958
v 0.009304 -0.006854 -0.023485
v -0.011410 -0.001461 -0.023485
v -0.003808 -0.000487 -0.023958
v 0.025354 -0.008352 -0.021134
v 0.032426 -0.010682 -0.019263
v 0.008862 -0.007433 -0.023485
v -0.006389 -0.033958 -0.019263
v -0.010693 -0.004292 -0.023485
v -0.017775 -0.007135 -0.022543
v -0.010938 -0.003603 -0.023485
v -0.037396 -0.031368 -0.014172
v -0.026580 -0.054099 -0.008732
v -0.050300 -0.000911 -0.013345
v -0.050300 0.000000 -0.013358
v 0.050300 -0.000911 -0.013345
v 0.050300 0.000000 -0.013358
v -0.002446 -0.002998 -0.023958
v -0.001185 -0.003701 -0.023958
v -0.001412 -0.003618 -0.023958
v 0.006740 -0.054099 -0.011753
v -0.029333 -0.054099 -0.008058
v 0.050300 -0.020749 -0.011506
v 0.050300 -0.028037 -0.009937
v -0.012186 -0.014935 -0.022543
v -0.004896 -0.010550 -0.023485
v 0.002627 -0.002837 -0.023958
v 0.003717 -0.000967 -0.023958
v 0.003770 -0.000729 -0.023958
v -0.003569 -0.001432 -0.023958
v -0.019117 0.000000 -0.022543
v -0.003473 -0.001657 -0.023958
v 0.000240 -0.003884 -0.023958
v -0.003770 -0.000729 -0.023958
v -0.000481 -0.003861 -0.023958
v -0.050300 -0.047418 -0.003317
v -0.045704 -0.054099 -0.002185
v -0.035365 -0.043345 -0.010969
v -0.050300 -0.047891 -0.003097
v -0.007331 -0.008985 -0.023485
v -0.016141 -0.010386 -0.022543
v -0.009710 -0.006248 -0.023485
v -0.000955 -0.003769 -0.023958
v -0.011500 0.000000 -0.023485
v -0.030937 -0.037917 -0.014172
v -0.035380 -0.033687 -0.014172
v 0.001412 -0.003618 -0.023958
v -0.017336 -0.054099 -0.010635
v -0.017813 -0.054099 -0.010548
v 0.050300 -0.024098 -0.010887
v -0.002798 -0.002664 -0.023958
v -0.003831 -0.000244 -0.023958
v -0.003839 0.000000 -0.023958
v 0.002957 -0.002481 -0.023958
v -0.000240 -0.003884 -0.023958
v 0.000719 -0.003822 -0.023958
v 0.011237 -0.015681 -0.022543
v -0.050300 -0.049119 -0.002488
v -0.047023 -0.050771 -0.003317
v -0.050105 -0.054099 -0.000112
v -0.050300 -0.054099 -0.000014
v -0.007873 -0.008500 -0.023485
v -0.002627 -0.002837 -0.023958
v -0.011478 -0.000731 -0.023485
v 0.002798 -0.002664 -0.023958
v -0.003241 -0.002085 -0.023958
v 0.001634 -0.003521 -0.023958
v -0.036661 -0.054099 -0.005756
v -0.033861 -0.054099 -0.006734
v -0.038766 -0.054099 -0.005020
v -0.043233 -0.054099 -0.003317
v -0.001634 -0.003521 -0.023958
v 0.034095 0.000000 -0.019263
v 0.050300 0.000000 0.000001
v 0.050300 -0.054099 0.000001
v -0.050300 0.000000 0.000001
v -0.050300 -0.054099 0.000001
# 520 vertices, 0 vertices normals

f 1 2 3
f 4 5 6
f 7 8 9
f 10 11 12
f 13 14 15
f 14 13 16
f 17 18 19
f 20 21 22
f 23 24 25
f 26 27 28
f 20 29 21
f 30 31 32
f 33 34 35
f 36 37 38
f 39 40 41
f 42 43 44
f 45 46 47
f 48 49 50
f 51 52 53
f 52 51 54
f 55 56 57
f 58 59 60
f 61 62 63
f 21 64 65
f 66 42 67
f 68 69 70
f 71 39 72
f 73 74 75
f 76 77 78
f 79 80 81
f 82 83 84
f 83 82 85
f 86 87 88
f 39 41 72
f 89 90 91
f 90 89 92
f 93 94 95
f 96 97 42
f 98 99 100
f 24 101 102
f 94 103 4
f 104 105 106
f 107 3 108
f 109 110 111
f 112 72 113
f 114 115 116
f 117 17 118
f 119 83 120
f 121 120 122
f 45 26 123
f 124 125 126
f 57 127 128
f 127 57 129
f 130 131 92
f 60 132 133
f 60 134 132
f 135 136 97
f 137 138 30
f 130 92 139
f 140 141 142
f 143 144 145
f 144 143 146
f 147 148 149
f 150 151 152
f 153 154 155
f 25 102 156
f 157 158 159
f 160 161 162
f 38 163 164
f 165 166 33
f 167 168 169
f 170 171 172
f 35 173 174
f 175 68 81
f 52 176 177
f 178 179 180
f 149 181 182
f 176 183 177
f 80 109 184
f 13 110 109
f 185 18 186
f 18 185 187
f 188 189 83
f 189 188 190
f 9 105 104
f 191 192 121
f 193 117 194
f 195 191 196
f 197 45 47
f 45 197 26
f 46 198 199
f 198 46 45
f 200 198 201
f 202 86 17
f 26 203 27
f 204 205 110
f 204 13 15
f 13 204 110
f 206 207 208
f 54 79 52
f 132 209 210
f 92 211 58
f 212 138 213
f 138 212 30
f 139 214 215
f 214 139 92
f 127 129 216
f 214 217 215
f 217 214 212
f 216 146 218
f 146 216 129
f 219 220 221
f 222 163 223
f 141 98 142
f 98 141 99
f 126 224 225
f 67 42 44
f 226 227 228
f 112 113 229
f 108 3 230
f 231 76 24
f 119 120 121
f 192 119 121
f 165 33 35
f 232 153 181
f 209 233 160
f 234 235 236
f 237 238 239
f 240 241 242
f 243 151 244
f 163 245 223
f 208 207 246
f 247 208 246
f 16 80 79
f 54 16 79
f 76 78 248
f 249 250 251
f 9 8 105
f 252 158 253
f 184 111 254
f 255 50 256
f 69 50 255
f 257 258 233
f 111 259 252
f 260 261 262
f 263 264 265
f 266 267 77
f 12 11 268
f 18 187 269
f 270 271 272
f 192 123 119
f 1 121 2
f 122 273 274
f 274 273 117
f 121 122 2
f 2 122 193
f 26 197 203
f 123 26 84
f 28 84 26
f 84 28 82
f 275 86 202
f 86 275 87
f 276 202 17
f 277 278 279
f 280 126 225
f 281 260 282
f 74 114 75
f 114 74 283
f 284 285 237
f 286 257 287
f 32 31 36
f 37 132 288
f 57 32 129
f 146 20 144
f 144 22 141
f 213 217 212
f 30 289 31
f 141 22 290
f 291 147 135
f 144 20 22
f 292 293 29
f 294 295 296
f 151 297 244
f 243 298 299
f 300 295 294
f 301 302 303
f 304 302 301
f 302 304 305
f 228 227 306
f 266 77 76
f 307 180 308
f 207 39 309
f 166 310 33
f 311 312 154
f 196 1 3
f 107 196 3
f 313 314 315
f 248 316 314
f 312 317 318
f 319 194 320
f 281 321 260
f 149 182 136
f 238 322 239
f 147 136 135
f 222 148 323
f 223 181 148
f 148 181 149
f 324 325 163
f 289 133 37
f 179 309 112
f 247 246 115
f 212 289 30
f 52 326 53
f 326 52 89
f 11 327 328
f 77 267 329
f 330 331 168
f 201 123 329
f 250 167 171
f 332 333 334
f 69 48 50
f 49 157 335
f 160 336 337
f 68 70 338
f 184 48 69
f 175 184 68
f 183 81 284
f 68 184 69
f 91 326 89
f 287 257 209
f 194 339 320
f 319 320 340
f 341 19 270
f 200 342 343
f 316 195 196
f 8 306 344
f 228 306 8
f 78 77 195
f 329 192 195
f 187 185 345
f 187 346 269
f 17 19 341
f 120 83 273
f 120 273 122
f 196 121 1
f 191 121 196
f 84 83 119
f 123 84 119
f 83 85 188
f 234 277 347
f 277 234 278
f 348 315 349
f 221 282 350
f 351 67 295
f 302 352 234
f 131 90 92
f 75 114 259
f 353 114 283
f 114 353 247
f 354 14 16
f 355 110 205
f 110 355 75
f 355 73 75
f 247 206 208
f 356 247 357
f 247 356 206
f 358 160 337
f 258 239 233
f 57 30 32
f 137 57 56
f 57 137 30
f 212 58 289
f 214 58 212
f 29 359 21
f 32 293 292
f 146 129 20
f 145 360 361
f 144 360 145
f 360 144 141
f 128 55 57
f 99 65 362
f 363 364 365
f 364 363 351
f 351 66 67
f 97 136 366
f 129 29 20
f 29 293 359
f 367 368 369
f 141 290 99
f 290 65 99
f 67 44 124
f 43 299 370
f 366 152 43
f 371 236 372
f 373 305 374
f 226 375 227
f 376 377 378
f 159 379 380
f 381 229 7
f 308 381 382
f 284 338 285
f 336 317 312
f 4 321 383
f 282 384 385
f 320 386 340
f 118 17 341
f 103 5 4
f 165 35 387
f 388 389 390
f 298 166 165
f 391 392 393
f 311 336 312
f 394 165 387
f 44 370 125
f 150 395 151
f 147 149 136
f 38 324 163
f 245 153 232
f 289 37 31
f 288 358 324
f 171 167 396
f 115 246 397
f 397 246 178
f 309 39 71
f 178 309 179
f 398 399 10
f 61 400 401
f 400 61 63
f 10 399 11
f 49 158 157
f 48 252 253
f 338 70 402
f 70 69 255
f 80 184 175
f 184 254 48
f 403 68 338
f 403 338 284
f 80 175 81
f 52 79 176
f 286 404 257
f 286 284 404
f 316 196 107
f 117 118 194
f 108 230 405
f 339 263 386
f 297 406 310
f 154 407 408
f 329 123 192
f 195 192 191
f 78 195 248
f 248 195 316
f 101 76 248
f 24 76 101
f 333 376 334
f 375 172 409
f 410 10 12
f 342 11 328
f 11 342 200
f 411 25 156
f 412 332 23
f 269 346 413
f 202 414 415
f 276 17 117
f 86 18 17
f 88 18 86
f 18 88 186
f 95 383 281
f 383 321 281
f 282 385 416
f 417 418 352
f 220 282 221
f 402 419 420
f 421 221 350
f 110 75 259
f 114 247 115
f 259 114 116
f 16 422 354
f 422 16 54
f 206 400 207
f 423 206 356
f 58 60 289
f 31 37 36
f 133 132 37
f 214 92 58
f 211 59 58
f 177 286 59
f 36 38 293
f 32 36 293
f 21 359 424
f 164 163 222
f 129 292 29
f 129 32 292
f 360 141 140
f 425 218 146
f 425 146 426
f 427 124 280
f 97 366 43
f 280 124 126
f 67 124 427
f 290 21 65
f 22 21 290
f 44 125 124
f 125 299 428
f 370 299 125
f 44 43 370
f 374 305 304
f 429 373 430
f 373 429 305
f 431 280 432
f 227 332 306
f 376 378 334
f 8 344 433
f 105 8 433
f 434 112 229
f 113 72 226
f 380 308 382
f 158 435 159
f 379 308 380
f 113 226 229
f 50 335 256
f 50 49 335
f 435 307 159
f 435 397 307
f 436 256 437
f 257 233 209
f 257 237 258
f 338 402 285
f 70 438 402
f 385 262 439
f 181 391 440
f 194 118 339
f 441 194 319
f 238 442 322
f 433 106 105
f 106 433 443
f 321 261 260
f 444 297 445
f 297 444 406
f 340 446 447
f 387 5 103
f 387 35 5
f 324 358 325
f 358 337 325
f 391 393 440
f 154 408 155
f 153 155 392
f 448 103 94
f 225 449 418
f 395 450 151
f 136 150 152
f 299 298 165
f 43 243 299
f 136 152 366
f 97 43 42
f 424 222 323
f 222 223 148
f 252 451 158
f 116 115 451
f 246 309 178
f 246 207 309
f 199 200 343
f 200 199 198
f 267 201 329
f 158 397 435
f 307 178 180
f 109 111 184
f 110 259 111
f 81 68 403
f 81 403 284
f 176 79 183
f 79 81 183
f 452 453 454
f 25 24 102
f 102 101 314
f 101 248 314
f 320 339 386
f 453 2 441
f 453 441 454
f 193 194 441
f 2 193 441
f 263 341 264
f 341 270 264
f 77 329 195
f 267 200 201
f 12 268 455
f 170 172 375
f 171 396 172
f 456 63 62
f 63 456 40
f 227 333 332
f 409 172 333
f 198 45 201
f 201 45 123
f 378 266 76
f 231 378 76
f 334 378 231
f 332 334 23
f 264 270 272
f 202 415 275
f 273 276 117
f 189 202 276
f 414 189 190
f 189 414 202
f 457 187 345
f 187 457 346
f 346 457 458
f 459 371 460
f 443 433 461
f 384 262 385
f 462 380 463
f 95 281 220
f 220 281 282
f 350 282 416
f 353 357 247
f 451 115 397
f 451 397 158
f 464 422 54
f 464 54 51
f 251 40 465
f 40 251 250
f 63 40 39
f 287 209 134
f 134 209 132
f 59 286 287
f 289 60 133
f 37 288 324
f 37 324 38
f 89 52 177
f 89 177 59
f 293 164 222
f 293 38 164
f 293 222 359
f 359 222 424
f 426 146 143
f 363 66 351
f 99 367 100
f 367 99 368
f 21 424 64
f 424 147 64
f 96 42 66
f 99 362 368
f 427 296 295
f 296 427 466
f 364 351 467
f 299 165 428
f 126 125 224
f 466 280 431
f 280 466 427
f 295 67 427
f 432 429 430
f 429 432 280
f 280 225 429
f 334 231 23
f 23 231 24
f 306 332 412
f 344 306 468
f 7 228 8
f 469 9 104
f 434 229 381
f 179 112 180
f 72 170 375
f 72 375 226
f 389 159 380
f 155 470 392
f 321 471 472
f 309 71 112
f 71 72 112
f 397 178 307
f 308 180 381
f 379 307 308
f 159 307 379
f 438 436 437
f 404 237 257
f 284 237 404
f 209 160 210
f 237 239 258
f 233 239 161
f 210 160 358
f 70 255 438
f 255 256 436
f 473 452 240
f 285 402 420
f 264 272 265
f 265 272 474
f 321 472 261
f 475 452 473
f 438 476 419
f 6 471 321
f 4 6 321
f 477 340 447
f 478 388 390
f 241 340 242
f 132 358 288
f 132 210 358
f 325 337 311
f 337 336 311
f 163 325 245
f 325 311 245
f 181 153 391
f 153 392 391
f 94 4 383
f 94 383 95
f 394 103 448
f 394 387 103
f 43 152 243
f 152 151 243
f 440 393 395
f 395 393 450
f 244 297 298
f 243 244 298
f 181 440 182
f 182 440 395
f 323 148 147
f 424 323 147
f 327 399 479
f 399 327 11
f 378 455 266
f 331 480 168
f 396 167 481
f 399 482 479
f 253 158 49
f 48 253 49
f 111 252 254
f 254 252 48
f 16 109 80
f 16 13 109
f 183 284 286
f 177 183 286
f 433 468 483
f 344 468 433
f 156 102 313
f 484 316 107
f 102 314 313
f 485 107 108
f 390 389 486
f 3 2 453
f 118 341 339
f 339 341 263
f 122 274 193
f 274 117 193
f 265 474 487
f 386 265 446
f 172 488 333
f 488 377 333
f 40 171 41
f 40 250 171
f 409 333 227
f 375 409 227
f 489 455 378
f 333 377 376
f 488 410 377
f 396 481 172
f 269 413 270
f 270 413 271
f 19 18 269
f 19 269 270
f 273 189 276
f 83 189 273
f 234 352 235
f 278 459 279
f 459 278 371
f 438 255 436
f 256 335 478
f 161 490 162
f 340 386 446
f 282 260 384
f 260 262 384
f 219 221 421
f 259 451 252
f 259 116 451
f 491 492 206
f 492 400 206
f 400 492 401
f 207 63 39
f 400 63 207
f 59 287 60
f 60 287 134
f 92 89 211
f 211 89 59
f 65 291 362
f 368 96 66
f 291 135 96
f 96 135 97
f 224 394 448
f 125 394 224
f 493 295 300
f 351 493 467
f 493 351 295
f 41 171 170
f 41 170 72
f 388 157 389
f 157 159 389
f 382 381 469
f 313 494 156
f 494 313 348
f 469 381 9
f 381 7 9
f 495 487 496
f 445 497 444
f 229 226 228
f 229 228 7
f 285 420 238
f 285 238 237
f 233 161 160
f 160 162 336
f 441 319 454
f 437 256 498
f 239 490 161
f 6 174 471
f 450 497 445
f 238 499 442
f 318 154 312
f 154 318 407
f 438 419 402
f 298 297 166
f 297 310 166
f 239 322 490
f 380 382 463
f 5 174 6
f 245 500 153
f 245 311 500
f 223 232 181
f 223 245 232
f 136 182 150
f 182 395 150
f 501 502 503
f 501 503 504
f 502 501 399
f 168 502 169
f 480 502 168
f 502 480 503
f 411 23 25
f 468 23 411
f 483 505 506
f 485 108 405
f 314 316 484
f 315 314 485
f 386 263 265
f 507 265 487
f 398 10 410
f 169 398 410
f 410 12 489
f 455 267 266
f 167 169 481
f 481 169 410
f 172 481 488
f 481 410 488
f 234 236 278
f 303 234 347
f 234 303 302
f 35 174 5
f 389 380 462
f 393 470 508
f 508 450 393
f 450 508 497
f 225 418 417
f 509 485 405
f 423 491 206
f 456 465 40
f 368 66 363
f 368 365 369
f 365 368 363
f 64 147 291
f 65 64 291
f 428 165 394
f 125 428 394
f 335 157 388
f 335 388 478
f 162 317 336
f 180 434 381
f 180 112 434
f 162 490 510
f 507 487 495
f 452 454 240
f 230 3 452
f 3 453 452
f 155 408 470
f 392 470 393
f 35 34 173
f 33 310 34
f 433 483 461
f 498 256 478
f 151 445 297
f 151 450 445
f 420 499 238
f 500 154 153
f 311 154 500
f 399 501 482
f 505 156 506
f 306 412 468
f 412 23 468
f 314 484 485
f 484 107 485
f 169 502 398
f 502 399 398
f 268 11 200
f 489 12 455
f 377 489 378
f 377 410 489
f 305 352 302
f 429 225 417
f 219 95 220
f 235 421 236
f 162 510 317
f 438 437 476
f 511 250 512
f 250 511 167
f 511 513 167
f 291 368 362
f 368 291 96
f 447 446 495
f 242 340 477
f 454 241 240
f 506 156 494
f 446 507 495
f 446 265 507
f 454 319 241
f 241 319 340
f 230 452 475
f 405 230 475
f 420 419 499
f 485 349 315
f 349 485 509
f 168 513 514
f 513 168 167
f 514 330 168
f 200 455 268
f 455 200 267
f 236 421 372
f 278 236 371
f 305 417 352
f 429 417 305
f 93 95 219
f 352 93 219
f 461 483 506
f 486 389 462
f 505 411 156
f 382 469 463
f 261 439 262
f 472 439 261
f 471 439 472
f 174 439 471
f 173 439 174
f 34 439 173
f 310 439 34
f 406 439 310
f 444 439 406
f 497 439 444
f 508 439 497
f 470 439 508
f 408 439 470
f 407 439 408
f 318 439 407
f 317 439 318
f 510 439 317
f 490 439 510
f 322 439 490
f 442 439 322
f 499 439 442
f 419 439 499
f 476 439 419
f 437 439 476
f 498 439 437
f 478 439 498
f 390 439 478
f 486 439 390
f 462 439 486
f 463 439 462
f 515 439 463
f 104 439 515
f 106 439 104
f 443 439 106
f 461 439 443
f 506 439 461
f 494 439 506
f 348 439 494
f 349 439 348
f 509 439 349
f 405 439 509
f 475 439 405
f 473 439 475
f 240 439 473
f 242 439 240
f 477 439 242
f 447 439 477
f 495 439 447
f 439 495 496
f 313 315 348
f 249 512 250
f 352 219 235
f 235 219 421
f 421 350 516
f 225 224 449
f 418 448 94
f 463 469 515
f 515 469 104
f 483 468 505
f 468 411 505
f 372 421 516
f 352 418 93
f 418 94 93
f 224 448 449
f 449 448 418
f 517 459 460
f 517 279 459
f 517 277 279
f 517 347 277
f 517 303 347
f 517 301 303
f 517 304 301
f 517 374 304
f 517 373 374
f 517 430 373
f 517 432 430
f 517 431 432
f 517 466 431
f 517 296 466
f 517 294 296
f 493 294 517
f 294 493 300
f 517 467 493
f 517 364 467
f 517 365 364
f 517 369 365
f 517 367 369
f 517 100 367
f 517 98 100
f 517 142 98
f 517 140 142
f 517 360 140
f 518 360 517
f 360 518 361
f 519 518 517
f 518 519 520
f 457 519 458
f 345 519 457
f 185 519 345
f 186 519 185
f 88 519 186
f 87 519 88
f 275 519 87
f 415 519 275
f 414 519 415
f 190 519 414
f 188 519 190
f 85 519 188
f 82 519 85
f 28 519 82
f 27 519 28
f 197 27 203
f 27 197 519
f 47 519 197
f 46 519 47
f 199 519 46
f 343 519 199
f 342 519 343
f 328 519 342
f 327 519 328
f 479 519 327
f 482 519 479
f 501 519 482
f 520 501 504
f 501 520 519
f 371 517 460
f 516 517 372
f 517 371 372
f 350 517 516
f 346 519 413
f 519 346 458
f 416 517 350
f 519 271 413
f 385 517 416
f 519 272 271
f 439 517 385
f 519 474 272
f 517 439 519
f 519 487 474
f 496 519 439
f 519 496 487
f 503 520 504
f 480 520 503
f 520 480 518
f 518 145 361
f 143 518 480
f 518 143 145
f 330 480 331
f 480 513 143
f 480 330 513
f 216 143 513
f 513 330 514
f 425 143 216
f 143 425 426
f 425 216 218
f 511 216 513
f 511 127 216
f 249 511 512
f 456 511 249
f 511 456 127
f 127 55 128
f 465 249 251
f 456 249 465
f 138 127 456
f 55 137 56
f 127 138 55
f 55 138 137
f 61 456 62
f 456 61 138
f 217 138 61
f 138 217 213
f 401 217 61
f 401 215 217
f 492 215 401
f 492 139 215
f 423 492 491
f 492 423 139
f 131 139 423
f 139 131 130
f 356 131 423
f 356 90 131
f 357 90 356
f 357 91 90
f 353 91 357
f 353 326 91
f 74 353 283
f 353 74 326
f 51 326 74
f 326 51 53
f 73 51 74
f 73 464 51
f 355 464 73
f 355 422 464
f 204 355 205
f 355 204 422
f 14 422 204
f 422 14 354
f 14 204 15
# 1036 faces, 0 coords texture

# End of File
