# OpenSCAD obj exporter
v -0.264937 0 -0.0467022
v -0.26412 0.0286856 -0.0467022
v -0.261675 0.0571944 -0.0467022
v -0.241633 0 -0.0556331
v -0.240888 0.0261625 -0.0556331
v -0.238658 0.0521636 -0.0556331
v -0.257616 0.0853505 -0.0467022
v -0.234957 0.0778432 -0.0556331
v -0.229807 0.103043 -0.0556331
v -0.25197 0.11298 -0.0467022
v -0.286607 0 -0.0369784
v -0.30651 0 -0.0265216
v -0.285723 0.0310319 -0.0369784
v -0.305565 0.0331869 -0.0265216
v -0.324523 0 -0.0153964
v -0.3335 0 -0.00882333
v -0.3335 0 1.38778e-17
v -0.323523 0.0351373 -0.0153964
v -0.3335 0.0362209 -0.00806821
v -0.283078 0.0618725 -0.0369784
v -0.302736 0.0661692 -0.0265216
v -0.298041 0.0987436 -0.0265216
v -0.320528 0.070058 -0.0153964
v -0.3335 0.0728933 -0.00577932
v -0.315557 0.104547 -0.0153964
v -0.3335 0.0932416 -0.0036713
v -0.331127 0.109705 -0.0036713
v -0.3335 0.110491 -0.00152206
v -0.3335 0.119271 1.38778e-17
v -0.278688 0.0923317 -0.0369784
v -0.244769 0.139914 -0.0467022
v -0.23606 0.165985 -0.0467022
v -0.291508 0.130709 -0.0265216
v -0.283178 0.161869 -0.0265216
v -0.30864 0.138391 -0.0153964
v -0.327834 0.146997 1.38778e-17
v -0.323869 0.145219 -0.0036713
v -0.314614 0.179838 -0.0036713
v -0.29982 0.171382 -0.0153964
v -0.318466 0.18204 1.38778e-17
v -0.289152 0.203316 -0.0153964
v -0.30342 0.213348 -0.0036713
v -0.307134 0.21596 1.38778e-17
v -0.297378 0.24 1.38778e-17
v -0.2838 0.24 -0.00930014
v -0.292604 0.24 -0.0036713
v -0.272579 0.122222 -0.0369784
v -0.26479 0.151358 -0.0369784
v -0.255368 0.179561 -0.0369784
v -0.273102 0.192031 -0.0265216
v -0.261343 0.221008 -0.0265216
v -0.244372 0.206657 -0.0369784
v -0.23187 0.232479 -0.0369784
v -0.239371 0.24 -0.0321072
v -0.252147 0.24 -0.0265216
v -0.276702 0.233997 -0.0153964
v -0.273795 0.24 -0.0153964
v -0.21684 0 -0.0637161
v -0.216171 0.023478 -0.0637161
v -0.21417 0.0468112 -0.0637161
v -0.190709 0 -0.0709012
v -0.190121 0.0206488 -0.0709012
v -0.188361 0.0411702 -0.0709012
v -0.210848 0.0698559 -0.0637161
v -0.206227 0.0924698 -0.0637161
v -0.18544 0.0614379 -0.0709012
v -0.181375 0.0813267 -0.0709012
v -0.200334 0.114514 -0.0637161
v -0.163403 0 -0.0771443
v -0.1629 0.0176923 -0.0771443
v -0.161392 0.0352754 -0.0771443
v -0.158888 0.0526411 -0.0771443
v -0.13509 0 -0.0824068
v -0.134673 0.0146267 -0.0824068
v -0.125 0 -0.0838778
v -0.125 0.013576 -0.0838215
v -0.133427 0.0291631 -0.0824068
v -0.125 0.0273213 -0.0836507
v -0.131357 0.0435198 -0.0824068
v -0.125 0.0414136 -0.08336
v -0.128478 0.0576082 -0.0824068
v -0.125 0.0560486 -0.0829399
v -0.155406 0.0696823 -0.0771443
v -0.176192 0.100714 -0.0709012
v -0.169923 0.119481 -0.0709012
v -0.150965 0.0862938 -0.0771443
v -0.125 0.0706183 -0.0824068
v -0.125 0.0714518 -0.0823679
v -0.125 0.0878931 -0.0814401
v -0.145593 0.102373 -0.0771443
v -0.139324 0.117822 -0.0771443
v -0.125 0.105708 -0.0802668
v -0.125 0 1.38778e-17
v -0.193205 0.135851 -0.0637161
v -0.184886 0.156352 -0.0637161
v -0.22324 0.127607 -0.0556331
v -0.215297 0.151385 -0.0556331
v -0.206026 0.174229 -0.0556331
v -0.225896 0.191032 -0.0467022
v -0.214338 0.214902 -0.0467022
v -0.203626 0.24 -0.0454236
v -0.195485 0.195999 -0.0556331
v -0.183739 0.216561 -0.0556331
v -0.201459 0.237446 -0.0467022
v -0.199749 0.24 -0.0467022
v -0.162606 0.137511 -0.0709012
v -0.175427 0.175888 -0.0637161
v -0.154287 0.154693 -0.0709012
v -0.125 0.125329 -0.0787975
v -0.132196 0.132544 -0.0771443
v -0.125 0.14514 -0.0771443
v -0.125 0.147329 -0.0769196
v -0.125 0.1725 -0.0740867
v -0.145017 0.170921 -0.0709012
v -0.164886 0.19434 -0.0637161
v -0.153329 0.211594 -0.0637161
v -0.134852 0.186096 -0.0709012
v -0.125 0.198663 -0.0709012
v -0.125 0.201972 -0.0704168
v -0.140826 0.227543 -0.0637161
v -0.129375 0.24 -0.0637161
v -0.125 0.237426 -0.0648646
v -0.126355 0.24 -0.0642306
v -0.125 0.24 -0.0644378
v -0.17086 0.235787 -0.0556331
v -0.173913 0.24 -0.0539786
v -0.167558 0.24 -0.0556331
v -0.148536 0.24 -0.0598459
v -0.227573 0.24 -0.0369784
v -0.125 0.24 1.38778e-17
f  1 11 2
f  1 2 5
f  2 13 3
f  1 5 4
f  59 4 5
f  2 6 5
f  5 6 60
f  2 3 6
f  3 20 7
f  7 30 10
f  3 8 6
f  7 9 8
f  3 7 8
f  10 96 9
f  7 10 9
f  12 15 14
f  14 18 21
f  11 12 13
f  12 14 13
f  13 14 20
f  14 21 20
f  15 16 19
f  15 19 18
f  14 15 18
f  18 24 23
f  18 23 21
f  18 19 24
f  20 21 30
f  21 23 22
f  21 22 30
f  30 22 47
f  22 25 33
f  22 33 47
f  23 26 25
f  23 24 26
f  22 23 25
f  25 27 35
f  25 26 27
f  26 28 27
f  27 28 29
f  2 11 13
f  3 13 20
f  7 20 30
f  10 30 47
f  10 47 31
f  10 31 96
f  31 48 32
f  31 32 97
f  32 49 99
f  33 35 34
f  34 39 50
f  27 37 35
f  27 29 36
f  27 36 37
f  35 37 39
f  37 36 40
f  37 38 39
f  37 40 38
f  25 35 33
f  34 35 39
f  38 40 43
f  38 43 42
f  39 38 41
f  39 41 50
f  38 42 41
f  41 42 56
f  42 43 44
f  42 44 46
f  56 42 45
f  42 46 45
f  47 33 48
f  31 47 48
f  33 34 48
f  48 34 49
f  49 34 50
f  32 48 49
f  49 50 52
f  50 41 51
f  50 51 52
f  51 56 55
f  99 49 52
f  51 53 52
f  100 52 53
f  55 54 53
f  53 54 129
f  51 55 53
f  51 41 56
f  56 45 57
f  55 56 57
f  62 58 59
f  63 59 60
f  60 64 66
f  61 58 62
f  62 59 63
f  61 62 70
f  63 60 66
f  62 63 71
f  63 66 72
f  58 4 59
f  59 5 60
f  60 6 64
f  66 64 67
f  67 64 65
f  84 65 68
f  67 65 84
f  84 68 85
f  6 8 64
f  64 8 65
f  8 9 65
f  68 9 96
f  65 9 68
f  61 70 69
f  62 71 70
f  74 69 70
f  77 70 71
f  63 72 71
f  73 69 74
f  74 70 77
f  73 74 75
f  74 76 75
f  74 77 76
f  77 78 76
f  79 71 72
f  77 71 79
f  81 72 83
f  79 72 81
f  77 79 78
f  79 80 78
f  79 81 82
f  79 82 80
f  66 83 72
f  67 86 83
f  66 67 83
f  67 84 86
f  84 90 86
f  85 91 90
f  84 85 90
f  83 86 87
f  81 83 87
f  81 87 82
f  86 88 87
f  86 89 88
f  86 90 89
f  90 92 89
f  91 109 92
f  90 91 92
f  85 68 94
f  94 95 106
f  96 31 97
f  68 96 94
f  94 96 97
f  97 32 98
f  32 99 98
f  94 97 95
f  95 97 98
f  95 98 107
f  98 99 102
f  99 52 100
f  99 100 102
f  100 53 104
f  104 129 101
f  107 98 102
f  102 100 103
f  107 102 115
f  102 103 115
f  103 104 125
f  100 104 103
f  126 104 105
f  104 101 105
f  125 104 126
f  85 94 106
f  95 108 106
f  85 106 91
f  95 107 108
f  107 114 108
f  91 106 110
f  91 110 109
f  110 111 109
f  110 108 111
f  108 112 111
f  110 106 108
f  114 113 112
f  108 114 112
f  114 117 113
f  107 115 114
f  114 115 117
f  117 115 116
f  117 118 113
f  117 116 118
f  116 119 118
f  116 120 119
f  120 122 119
f  123 120 121
f  123 122 120
f  123 124 122
f  103 116 115
f  103 125 116
f  125 126 127
f  125 120 116
f  125 128 120
f  125 127 128
f  128 121 120
f  104 53 129
f  15 17 16
f  16 17 19
f  17 24 19
f  17 28 24
f  17 29 28
f  24 28 26
f  11 93 12
f  15 93 17
f  12 93 15
f  17 130 29
f  29 130 36
f  46 44 124
f  46 124 45
f  36 130 40
f  40 130 43
f  43 130 44
f  61 93 58
f  61 69 93
f  73 93 69
f  73 75 93
f  1 4 93
f  1 93 11
f  58 93 4
f  17 93 130
f  129 54 124
f  129 124 101
f  123 121 124
f  126 105 124
f  127 126 124
f  105 101 124
f  127 124 128
f  128 124 121
f  55 57 124
f  55 124 54
f  57 45 124
f  44 130 124
f  76 93 75
f  76 78 130
f  78 80 130
f  80 82 130
f  76 130 93
f  82 87 130
f  87 88 130
f  88 89 130
f  89 92 130
f  92 109 130
f  111 130 109
f  111 112 130
f  119 122 124
f  112 113 130
f  113 118 130
f  119 130 118
f  119 124 130
