# OpenSCAD obj exporter
v 0.125 0 -0.0838778
v 0.125 0.013576 -0.0838215
v 0.13509 0 -0.0824068
v 0.134673 0.0146267 -0.0824068
v 0.125 0.0273213 -0.0836507
v 0.133427 0.0291631 -0.0824068
v 0.125 0.0414136 -0.08336
v 0.131357 0.0435198 -0.0824068
v 0.125 0.0560486 -0.0829399
v 0.128478 0.0576082 -0.0824068
v 0.163403 0 -0.0771443
v 0.1629 0.0176923 -0.0771443
v 0.161392 0.0352754 -0.0771443
v 0.158888 0.0526411 -0.0771443
v 0.125 0.0706183 -0.0824068
v 0.125 0.0714518 -0.0823679
v 0.125 0.0878931 -0.0814401
v 0.150965 0.0862938 -0.0771443
v 0.125 0.105708 -0.0802668
v 0.145593 0.102373 -0.0771443
v 0.139324 0.117822 -0.0771443
v 0.155406 0.0696823 -0.0771443
v 0.176192 0.100714 -0.0709012
v 0.169923 0.119481 -0.0709012
v 0.190121 0.0206488 -0.0709012
v 0.190709 0 -0.0709012
v 0.188361 0.0411702 -0.0709012
v 0.216171 0.023478 -0.0637161
v 0.21684 0 -0.0637161
v 0.21417 0.0468112 -0.0637161
v 0.18544 0.0614379 -0.0709012
v 0.181375 0.0813267 -0.0709012
v 0.200334 0.114514 -0.0637161
v 0.210848 0.0698559 -0.0637161
v 0.206227 0.0924698 -0.0637161
v 0.125 0 1.38778e-17
v 0.125 0.125329 -0.0787975
v 0.132196 0.132544 -0.0771443
v 0.125 0.14514 -0.0771443
v 0.125 0.147329 -0.0769196
v 0.125 0.1725 -0.0740867
v 0.145017 0.170921 -0.0709012
v 0.162606 0.137511 -0.0709012
v 0.154287 0.154693 -0.0709012
v 0.175427 0.175888 -0.0637161
v 0.134852 0.186096 -0.0709012
v 0.125 0.198663 -0.0709012
v 0.125 0.201972 -0.0704168
v 0.125 0.237426 -0.0648646
v 0.125 0.24 -0.0644378
v 0.126355 0.24 -0.0642306
v 0.129375 0.24 -0.0637161
v 0.140826 0.227543 -0.0637161
v 0.164886 0.19434 -0.0637161
v 0.153329 0.211594 -0.0637161
v 0.148536 0.24 -0.0598459
v 0.167558 0.24 -0.0556331
v 0.17086 0.235787 -0.0556331
v 0.173913 0.24 -0.0539786
v 0.193205 0.135851 -0.0637161
v 0.184886 0.156352 -0.0637161
v 0.22324 0.127607 -0.0556331
v 0.215297 0.151385 -0.0556331
v 0.206026 0.174229 -0.0556331
v 0.195485 0.195999 -0.0556331
v 0.183739 0.216561 -0.0556331
v 0.199749 0.24 -0.0467022
v 0.201459 0.237446 -0.0467022
v 0.225896 0.191032 -0.0467022
v 0.214338 0.214902 -0.0467022
v 0.203626 0.24 -0.0454236
v 0.125 0.24 1.38778e-17
v 0.227573 0.24 -0.0369784
v 0.241633 0 -0.0556331
v 0.240888 0.0261625 -0.0556331
v 0.238658 0.0521636 -0.0556331
v 0.264937 0 -0.0467022
v 0.26412 0.0286856 -0.0467022
v 0.261675 0.0571944 -0.0467022
v 0.234957 0.0778432 -0.0556331
v 0.229807 0.103043 -0.0556331
v 0.25197 0.11298 -0.0467022
v 0.257616 0.0853505 -0.0467022
v 0.278688 0.0923317 -0.0369784
v 0.286607 0 -0.0369784
v 0.30651 0 -0.0265216
v 0.285723 0.0310319 -0.0369784
v 0.305565 0.0331869 -0.0265216
v 0.324523 0 -0.0153964
v 0.3335 0 -0.00882333
v 0.3335 0 1.38778e-17
v 0.323523 0.0351373 -0.0153964
v 0.3335 0.0362209 -0.00806821
v 0.283078 0.0618725 -0.0369784
v 0.302736 0.0661692 -0.0265216
v 0.298041 0.0987436 -0.0265216
v 0.320528 0.070058 -0.0153964
v 0.3335 0.0728933 -0.00577932
v 0.315557 0.104547 -0.0153964
v 0.3335 0.0932416 -0.0036713
v 0.331127 0.109705 -0.0036713
v 0.3335 0.110491 -0.00152206
v 0.3335 0.119271 1.38778e-17
v 0.244769 0.139914 -0.0467022
v 0.23606 0.165985 -0.0467022
v 0.272579 0.122222 -0.0369784
v 0.26479 0.151358 -0.0369784
v 0.255368 0.179561 -0.0369784
v 0.244372 0.206657 -0.0369784
v 0.23187 0.232479 -0.0369784
v 0.239371 0.24 -0.0321072
v 0.252147 0.24 -0.0265216
v 0.273102 0.192031 -0.0265216
v 0.261343 0.221008 -0.0265216
v 0.273795 0.24 -0.0153964
v 0.276702 0.233997 -0.0153964
v 0.291508 0.130709 -0.0265216
v 0.283178 0.161869 -0.0265216
v 0.29982 0.171382 -0.0153964
v 0.30864 0.138391 -0.0153964
v 0.323869 0.145219 -0.0036713
v 0.327834 0.146997 1.38778e-17
v 0.314614 0.179838 -0.0036713
v 0.289152 0.203316 -0.0153964
v 0.2838 0.24 -0.00930014
v 0.292604 0.24 -0.0036713
v 0.30342 0.213348 -0.0036713
v 0.307134 0.21596 1.38778e-17
v 0.297378 0.24 1.38778e-17
v 0.318466 0.18204 1.38778e-17
f  3 1 2
f  3 2 4
f  4 2 5
f  4 5 6
f  3 4 11
f  4 6 12
f  6 5 7
f  6 7 8
f  8 7 9
f  8 9 10
f  6 8 13
f  8 14 13
f  8 10 14
f  10 22 14
f  4 12 11
f  6 13 12
f  11 12 26
f  12 13 25
f  13 14 27
f  10 9 15
f  10 15 16
f  10 16 22
f  18 16 17
f  22 16 18
f  20 17 19
f  21 19 37
f  20 19 21
f  18 17 20
f  22 18 32
f  14 22 31
f  22 32 31
f  18 23 32
f  18 20 23
f  20 21 24
f  20 24 23
f  12 25 26
f  26 25 29
f  25 27 28
f  13 27 25
f  14 31 27
f  27 31 30
f  25 28 29
f  27 30 28
f  30 31 34
f  29 28 74
f  28 30 75
f  30 34 76
f  31 32 34
f  32 35 34
f  32 23 35
f  23 24 33
f  23 33 35
f  76 34 80
f  34 35 80
f  35 33 81
f  80 35 81
f  33 62 81
f  38 37 39
f  21 37 38
f  38 39 40
f  38 40 44
f  21 38 43
f  38 44 43
f  42 40 41
f  42 41 46
f  44 40 42
f  21 43 24
f  24 43 60
f  43 44 61
f  44 42 45
f  44 45 61
f  46 41 47
f  46 47 48
f  46 48 55
f  42 46 54
f  46 55 54
f  53 48 49
f  51 49 50
f  51 52 49
f  53 49 52
f  55 48 53
f  42 54 45
f  53 52 56
f  54 55 66
f  55 53 58
f  53 56 58
f  56 57 58
f  55 58 66
f  58 57 59
f  24 60 33
f  43 61 60
f  60 61 63
f  61 45 64
f  61 64 63
f  33 60 62
f  60 63 62
f  62 63 104
f  64 105 63
f  64 69 105
f  54 65 45
f  54 66 65
f  45 65 64
f  65 66 70
f  66 58 68
f  58 59 68
f  66 68 70
f  59 67 68
f  68 67 71
f  64 65 69
f  65 70 69
f  69 70 109
f  68 110 70
f  68 71 73
f  68 73 110
f  28 75 74
f  74 75 77
f  75 30 76
f  75 76 78
f  76 79 78
f  75 78 77
f  77 78 85
f  78 79 87
f  80 81 83
f  76 80 79
f  79 80 83
f  81 62 82
f  81 82 83
f  79 83 94
f  83 82 84
f  78 87 85
f  79 94 87
f  83 84 94
f  82 106 84
f  85 87 86
f  86 87 88
f  87 94 88
f  88 94 95
f  86 88 89
f  88 95 92
f  88 92 89
f  89 92 90
f  90 92 93
f  92 95 97
f  92 97 93
f  93 97 98
f  94 84 95
f  95 84 96
f  95 96 97
f  84 106 96
f  96 106 117
f  96 117 99
f  97 99 98
f  96 99 97
f  99 120 101
f  99 101 100
f  98 99 100
f  100 101 102
f  101 103 102
f  82 62 104
f  104 63 105
f  105 69 108
f  104 105 107
f  82 104 106
f  105 108 107
f  104 107 106
f  106 107 117
f  117 107 118
f  107 108 118
f  108 113 118
f  69 109 108
f  70 110 109
f  73 111 110
f  110 111 112
f  109 110 114
f  110 112 114
f  108 109 113
f  109 114 113
f  113 114 124
f  114 112 115
f  114 116 124
f  114 115 116
f  116 115 125
f  117 118 120
f  118 113 119
f  99 117 120
f  118 119 120
f  101 120 121
f  101 121 103
f  103 121 122
f  120 119 121
f  121 119 123
f  122 123 130
f  121 123 122
f  119 113 124
f  119 124 123
f  123 124 127
f  124 116 127
f  116 125 126
f  116 126 127
f  127 129 128
f  127 126 129
f  123 127 130
f  130 127 128
f  3 74 1
f  3 11 29
f  11 26 29
f  3 29 74
f  91 36 1
f  51 50 72
f  51 72 52
f  52 72 56
f  56 72 57
f  57 72 59
f  59 72 67
f  67 72 71
f  129 72 36
f  71 72 73
f  73 72 111
f  111 72 112
f  112 72 115
f  115 72 125
f  74 91 1
f  74 77 91
f  91 103 36
f  103 122 36
f  122 130 36
f  77 85 91
f  85 86 91
f  86 89 91
f  89 90 91
f  90 93 91
f  91 93 98
f  91 98 100
f  91 100 102
f  91 102 103
f  130 128 36
f  128 129 36
f  125 72 126
f  126 72 129
f  5 2 1
f  36 5 1
f  36 7 5
f  36 9 7
f  36 15 9
f  36 16 15
f  17 16 36
f  19 17 36
f  37 19 36
f  37 36 39
f  39 36 40
f  40 36 41
f  47 41 36
f  47 36 48
f  49 48 36
f  72 50 49
f  72 49 36
