# OpenSCAD obj exporter
v -0.125 0 -0.0838778
v -0.125 0.013576 -0.0838215
v -0.125 0.0273213 -0.0836507
v -0.105943 0 -0.0866562
v -0.105617 0.0114709 -0.0866562
v -0.104639 0.022871 -0.0866562
v -0.125 0.0414136 -0.08336
v -0.125 0.0560486 -0.0829399
v -0.103016 0.0341302 -0.0866562
v -0.100758 0.0451789 -0.0866562
v -0.097879 0.0559491 -0.0866562
v -0.0761439 0 -0.0898665
v -0.0759092 0.00824437 -0.0898665
v -0.0752065 0.0164379 -0.0898665
v -0.0740401 0.0245301 -0.0898665
v -0.0724172 0.0324711 -0.0898665
v -0.0703478 0.0402118 -0.0898665
v -0.0678447 0.0477047 -0.0898665
v -0.0649234 0.0549034 -0.0898665
v -0.125 0.0706183 -0.0824068
v -0.124807 0.0713413 -0.0824068
v -0.125 0.0714518 -0.0823679
v -0.120366 0.0846347 -0.0824068
v -0.0943963 0.0663743 -0.0866562
v -0.125 0.0878931 -0.0814401
v -0.115183 0.0974062 -0.0824068
v -0.10929 0.109577 -0.0824068
v -0.125 0.105708 -0.0802668
v -0.0903316 0.0763903 -0.0866562
v -0.0857101 0.0859354 -0.0866562
v -0.08056 0.0949506 -0.0866562
v -0.0749133 0.10338 -0.0866562
v -0.0688048 0.111173 -0.0866562
v -0.045875 0 -0.0920177
v -0.0457335 0.00496704 -0.0920177
v -0.0453102 0.00990346 -0.0920177
v -0.0446074 0.0147788 -0.0920177
v -0.0436297 0.0195631 -0.0920177
v -0.0423829 0.0242267 -0.0920177
v -0.0408749 0.028741 -0.0920177
v -0.0391148 0.033078 -0.0920177
v -0.0371136 0.0372112 -0.0920177
v -0.0348836 0.0411149 -0.0920177
v -0.0324385 0.0447651 -0.0920177
v -0.0153231 0 -0.0930966
v -0.0152759 0.00165909 -0.0930966
v -0.0151345 0.00330795 -0.0930966
v -0.0148998 0.00493642 -0.0930966
v -0.0145732 0.00653445 -0.0930966
v -0.0141567 0.0080922 -0.0930966
v -0.013653 0.00960005 -0.0930966
v -0.0130651 0.0110487 -0.0930966
v -0.0123967 0.0124293 -0.0930966
v -0.0116518 0.0137332 -0.0930966
v -0.0108351 0.0149524 -0.0930966
v -0.00995158 0.0160795 -0.0930966
v -0.00900672 0.0171074 -0.0930966
v -0.00800632 0.0180299 -0.0930966
v -0.00695656 0.0188412 -0.0930966
v -0.00586391 0.0195363 -0.0930966
v -0.00473511 0.020111 -0.0930966
v -0.00357712 0.0205617 -0.0930966
v -0.00239707 0.0208856 -0.0930966
v -0.00120224 0.0210807 -0.0930966
v -0.0297934 0.0481394 -0.0920177
v -0.0269646 0.0512168 -0.0920177
v -0.0239696 0.0539785 -0.0920177
v -0.0208268 0.0564073 -0.0920177
v -0.0175556 0.0584884 -0.0920177
v -0.0616017 0.0617637 -0.0898665
v -0.0579003 0.0682431 -0.0898665
v -0.0538419 0.0743018 -0.0898665
v -0.0494515 0.0799024 -0.0898665
v -0.0447563 0.0850104 -0.0898665
v -0.0397851 0.0895943 -0.0898665
v -0.062272 0.11828 -0.0866562
v -0.0345686 0.0936257 -0.0898665
v -0.0141761 0.0602089 -0.0920177
v -0.0107093 0.0615582 -0.0920177
v -0.00717642 0.062528 -0.0920177
v -0.00359931 0.0631123 -0.0920177
v -0.029139 0.09708 -0.0898665
v -0.0235298 0.0999357 -0.0898665
v -0.0177754 0.102175 -0.0898665
v -0.0119115 0.103785 -0.0898665
v -0.00597418 0.104755 -0.0898665
v -0.125 0 1.38778e-17
v -0.102723 0.121073 -0.0824068
v -0.0955229 0.131822 -0.0824068
v -0.125 0.125329 -0.0787975
v -0.125 0.14514 -0.0771443
v -0.124253 0.146448 -0.0771443
v -0.125 0.147329 -0.0769196
v -0.115544 0.15945 -0.0771443
v -0.125 0.1725 -0.0740867
v -0.106122 0.171469 -0.0771443
v -0.0877338 0.141758 -0.0824068
v -0.0794038 0.15082 -0.0824068
v -0.0705842 0.158953 -0.0824068
v -0.125 0.198663 -0.0709012
v -0.123856 0.200123 -0.0709012
v -0.125 0.201972 -0.0704168
v -0.096046 0.182431 -0.0771443
v -0.112096 0.212916 -0.0709012
v -0.0996453 0.224397 -0.0709012
v -0.085378 0.192267 -0.0771443
v -0.0741835 0.200919 -0.0771443
v -0.0625317 0.208332 -0.0771443
v -0.0865802 0.234494 -0.0709012
v -0.0779257 0.24 -0.0709012
v -0.0720371 0.24 -0.0714653
v -0.125 0.237426 -0.0648646
v -0.125 0.24 -0.0644378
v -0.106574 0.24 -0.0672548
v -0.0886131 0.24 -0.0696699
v -0.0553553 0.124658 -0.0866562
v -0.0480973 0.130267 -0.0866562
v -0.0405428 0.135073 -0.0866562
v -0.0327383 0.139046 -0.0866562
v -0.0613295 0.166105 -0.0824068
v -0.0516966 0.172233 -0.0824068
v -0.041745 0.1773 -0.0824068
v -0.024732 0.142162 -0.0866562
v -0.0165732 0.144402 -0.0866562
v -0.00831223 0.145751 -0.0866562
v -0.0315361 0.181273 -0.0824068
v -0.0504944 0.21446 -0.0771443
v -0.0565078 0.24 -0.0726951
v -0.0381457 0.219266 -0.0771443
v -0.0417528 0.24 -0.0736115
v -0.0211327 0.184129 -0.0824068
v -0.010599 0.185849 -0.0824068
v -0.0255619 0.22272 -0.0771443
v -0.0275451 0.24 -0.0742458
v -0.0128205 0.224801 -0.0771443
v -0.0136873 0.24 -0.0746184
v -0.125 0.24 1.38778e-17
v 0.0153231 0 -0.0930966
v 0.0152759 0.00165909 -0.0930966
v 0.0151345 0.00330795 -0.0930966
v 0.0148998 0.00493642 -0.0930966
v 0.0145732 0.00653445 -0.0930966
v 0.0116518 0.0137332 -0.0930966
v 0.0108351 0.0149524 -0.0930966
v 0.013653 0.00960005 -0.0930966
v 0.0130651 0.0110487 -0.0930966
v 0.0141567 0.0080922 -0.0930966
v 0.0123967 0.0124293 -0.0930966
v 0 0.0211459 -0.0930966
v 0.00120224 0.0210807 -0.0930966
v 0.00357712 0.0205617 -0.0930966
v 0.00239707 0.0208856 -0.0930966
v 0.00473511 0.020111 -0.0930966
v 0.00586391 0.0195363 -0.0930966
v 0.00695656 0.0188412 -0.0930966
v 0.00800632 0.0180299 -0.0930966
v 0.00900672 0.0171074 -0.0930966
v 0.00995158 0.0160795 -0.0930966
v 0.0175556 0.0584884 -0.0920177
v 0.0208268 0.0564073 -0.0920177
v 0.0269646 0.0512168 -0.0920177
v 0.0297934 0.0481394 -0.0920177
v 0.0239696 0.0539785 -0.0920177
v 0.045875 0 -0.0920177
v 0.0457335 0.00496704 -0.0920177
v 0.0453102 0.00990346 -0.0920177
v 0.0446074 0.0147788 -0.0920177
v 0.0436297 0.0195631 -0.0920177
v 0.0423829 0.0242267 -0.0920177
v 0.0408749 0.028741 -0.0920177
v 0.0371136 0.0372112 -0.0920177
v 0.0348836 0.0411149 -0.0920177
v 0.0324385 0.0447651 -0.0920177
v 0.0391148 0.033078 -0.0920177
v 0 0.0633074 -0.0920177
v 0.00359931 0.0631123 -0.0920177
v 0.00717642 0.062528 -0.0920177
v 0.0107093 0.0615582 -0.0920177
v 0.0141761 0.0602089 -0.0920177
v 0.00597418 0.104755 -0.0898665
v 0.0119115 0.103785 -0.0898665
v 0 0.105079 -0.0898665
v 0.0177754 0.102175 -0.0898665
v 0.029139 0.09708 -0.0898665
v 0.0235298 0.0999357 -0.0898665
v 0.0397851 0.0895943 -0.0898665
v 0.0447563 0.0850104 -0.0898665
v 0.0538419 0.0743018 -0.0898665
v 0.0616017 0.0617637 -0.0898665
v 0.0579003 0.0682431 -0.0898665
v 0.0494515 0.0799024 -0.0898665
v 0.0345686 0.0936257 -0.0898665
v 0.062272 0.11828 -0.0866562
v 0.0761439 0 -0.0898665
v 0.0759092 0.00824437 -0.0898665
v 0.0752065 0.0164379 -0.0898665
v 0.0740401 0.0245301 -0.0898665
v 0.0724172 0.0324711 -0.0898665
v 0.0703478 0.0402118 -0.0898665
v 0.0678447 0.0477047 -0.0898665
v 0.0649234 0.0549034 -0.0898665
v 0.105943 0 -0.0866562
v 0.105617 0.0114709 -0.0866562
v 0.104639 0.022871 -0.0866562
v 0.125 0 -0.0838778
v 0.125 0.013576 -0.0838215
v 0.125 0.0273213 -0.0836507
v 0.103016 0.0341302 -0.0866562
v 0.100758 0.0451789 -0.0866562
v 0.097879 0.0559491 -0.0866562
v 0.125 0.0414136 -0.08336
v 0.125 0.0560486 -0.0829399
v 0.0857101 0.0859354 -0.0866562
v 0.0903316 0.0763903 -0.0866562
v 0.0749133 0.10338 -0.0866562
v 0.0688048 0.111173 -0.0866562
v 0.08056 0.0949506 -0.0866562
v 0.0943963 0.0663743 -0.0866562
v 0.125 0.0706183 -0.0824068
v 0.124807 0.0713413 -0.0824068
v 0.125 0.0714518 -0.0823679
v 0.120366 0.0846347 -0.0824068
v 0.125 0.0878931 -0.0814401
v 0.10929 0.109577 -0.0824068
v 0.115183 0.0974062 -0.0824068
v 0.125 0.105708 -0.0802668
v 0.125 0 1.38778e-17
v 0 0.146202 -0.0866562
v 0.00831223 0.145751 -0.0866562
v 0.0165732 0.144402 -0.0866562
v 0.024732 0.142162 -0.0866562
v 0.0327383 0.139046 -0.0866562
v 0.0405428 0.135073 -0.0866562
v 0.0480973 0.130267 -0.0866562
v 0.0553553 0.124658 -0.0866562
v 0.041745 0.1773 -0.0824068
v 0.0516966 0.172233 -0.0824068
v 0.0613295 0.166105 -0.0824068
v 0 0.186424 -0.0824068
v 0.010599 0.185849 -0.0824068
v 0.0211327 0.184129 -0.0824068
v 0.0128205 0.224801 -0.0771443
v 0 0.225497 -0.0771443
v 0 0.24 -0.0747414
v 0.0136873 0.24 -0.0746184
v 0.0255619 0.22272 -0.0771443
v 0.0275451 0.24 -0.0742458
v 0.0315361 0.181273 -0.0824068
v 0.0381457 0.219266 -0.0771443
v 0.0417528 0.24 -0.0736115
v 0.0504944 0.21446 -0.0771443
v 0.0565078 0.24 -0.0726951
v 0.0877338 0.141758 -0.0824068
v 0.0705842 0.158953 -0.0824068
v 0.0794038 0.15082 -0.0824068
v 0.0955229 0.131822 -0.0824068
v 0.102723 0.121073 -0.0824068
v 0.125 0.125329 -0.0787975
v 0.125 0.14514 -0.0771443
v 0.124253 0.146448 -0.0771443
v 0.125 0.147329 -0.0769196
v 0.106122 0.171469 -0.0771443
v 0.115544 0.15945 -0.0771443
v 0.125 0.1725 -0.0740867
v 0.0625317 0.208332 -0.0771443
v 0.0741835 0.200919 -0.0771443
v 0.085378 0.192267 -0.0771443
v 0.0720371 0.24 -0.0714653
v 0.0779257 0.24 -0.0709012
v 0.0865802 0.234494 -0.0709012
v 0.096046 0.182431 -0.0771443
v 0.125 0.198663 -0.0709012
v 0.123856 0.200123 -0.0709012
v 0.125 0.201972 -0.0704168
v 0.0996453 0.224397 -0.0709012
v 0.112096 0.212916 -0.0709012
v 0.0886131 0.24 -0.0696699
v 0.106574 0.24 -0.0672548
v 0.125 0.237426 -0.0648646
v 0.125 0.24 -0.0644378
v 0.125 0.24 1.38778e-17
f  4 1 2
f  4 2 5
f  5 2 3
f  5 3 6
f  4 5 13
f  5 6 14
f  6 9 15
f  6 3 7
f  9 7 8
f  6 7 9
f  9 8 10
f  10 8 11
f  4 13 12
f  5 14 13
f  6 15 14
f  12 13 35
f  13 14 36
f  37 14 15
f  15 16 38
f  9 10 16
f  9 16 15
f  10 17 16
f  10 11 17
f  11 24 18
f  11 18 17
f  18 24 19
f  21 20 22
f  11 8 20
f  11 20 21
f  21 23 24
f  21 22 25
f  21 25 23
f  23 25 26
f  11 21 24
f  24 23 29
f  23 26 29
f  29 26 30
f  26 28 27
f  30 26 27
f  27 88 31
f  26 25 28
f  27 28 90
f  27 90 88
f  19 24 29
f  29 30 70
f  19 29 70
f  30 71 70
f  30 31 71
f  71 31 72
f  30 27 31
f  31 88 32
f  32 88 89
f  32 89 33
f  72 31 32
f  73 32 33
f  12 35 34
f  13 36 35
f  36 14 37
f  37 15 38
f  38 16 39
f  34 35 46
f  35 36 47
f  36 37 48
f  37 38 49
f  38 39 50
f  39 40 51
f  39 16 17
f  40 17 18
f  39 17 40
f  40 18 41
f  19 42 41
f  18 19 41
f  19 70 42
f  43 70 71
f  42 70 43
f  43 71 44
f  44 72 65
f  65 73 66
f  34 46 45
f  35 47 46
f  36 48 47
f  37 49 48
f  38 50 49
f  39 51 50
f  52 40 41
f  53 41 42
f  51 40 52
f  52 41 53
f  53 42 54
f  54 43 55
f  55 44 56
f  56 65 57
f  45 46 139
f  46 47 140
f  47 48 141
f  48 49 142
f  49 50 147
f  50 51 145
f  51 52 146
f  52 53 148
f  53 54 143
f  54 55 144
f  57 66 58
f  58 59 61
f  59 60 61
f  58 61 62
f  58 62 63
f  55 56 158
f  56 57 157
f  57 58 156
f  58 63 64
f  58 64 149
f  58 149 150
f  58 150 152
f  58 152 151
f  54 42 43
f  55 43 44
f  56 44 65
f  57 65 66
f  58 66 67
f  59 67 68
f  58 67 59
f  59 68 60
f  60 69 61
f  60 68 69
f  61 78 62
f  62 79 63
f  63 80 64
f  64 81 149
f  61 69 78
f  62 78 79
f  63 79 80
f  64 80 81
f  81 175 149
f  44 71 72
f  72 32 73
f  65 72 73
f  66 73 74
f  66 74 67
f  67 74 75
f  68 75 77
f  74 33 76
f  73 33 74
f  74 76 75
f  75 76 116
f  75 116 77
f  77 116 117
f  77 117 82
f  67 75 68
f  68 77 69
f  69 82 78
f  78 83 79
f  69 77 82
f  78 82 83
f  79 83 84
f  79 84 80
f  80 84 85
f  80 85 81
f  81 86 175
f  82 118 83
f  83 119 84
f  84 123 85
f  81 85 86
f  86 182 175
f  85 124 86
f  86 125 182
f  88 90 91
f  88 91 92
f  92 91 93
f  89 92 94
f  88 92 89
f  89 94 97
f  92 93 94
f  94 93 95
f  94 95 96
f  97 94 96
f  96 103 98
f  33 89 97
f  33 97 76
f  76 98 116
f  76 97 98
f  116 98 99
f  97 96 98
f  98 103 99
f  99 103 106
f  99 106 120
f  96 95 100
f  96 100 101
f  101 100 102
f  101 102 104
f  103 101 104
f  96 101 103
f  103 104 106
f  106 104 105
f  106 105 107
f  120 106 107
f  121 107 108
f  105 109 107
f  105 115 109
f  109 115 110
f  109 110 111
f  109 108 107
f  109 111 108
f  108 111 128
f  104 102 112
f  114 112 113
f  104 112 114
f  104 114 105
f  105 114 115
f  116 99 117
f  117 120 118
f  82 117 118
f  83 118 119
f  118 121 119
f  117 99 120
f  118 120 121
f  119 121 122
f  119 122 123
f  123 122 126
f  120 107 121
f  84 119 123
f  85 123 124
f  86 124 125
f  125 228 182
f  123 126 124
f  124 126 131
f  124 131 125
f  125 132 228
f  125 131 132
f  132 239 228
f  121 108 122
f  122 108 127
f  122 127 126
f  126 127 129
f  108 128 127
f  127 128 130
f  127 130 129
f  130 134 129
f  126 129 131
f  131 129 133
f  131 133 132
f  132 135 239
f  132 133 135
f  129 134 133
f  133 136 135
f  133 134 136
f  135 243 239
f  135 244 243
f  135 136 244
f  45 139 138
f  46 140 139
f  48 142 141
f  47 141 140
f  49 147 142
f  53 143 148
f  54 144 143
f  50 145 147
f  51 146 145
f  52 148 146
f  55 158 144
f  56 157 158
f  57 156 157
f  58 155 156
f  58 151 153
f  58 153 154
f  58 154 155
f  157 156 161
f  147 145 169
f  139 140 165
f  138 139 164
f  140 141 166
f  141 142 167
f  142 147 168
f  145 146 170
f  148 143 171
f  146 148 174
f  143 144 172
f  144 158 173
f  158 157 162
f  146 174 170
f  148 171 174
f  150 149 176
f  150 177 152
f  151 179 153
f  151 152 178
f  153 159 154
f  154 160 155
f  156 155 163
f  154 159 160
f  149 175 176
f  152 177 178
f  150 176 177
f  151 178 179
f  153 179 159
f  155 160 163
f  156 163 161
f  157 161 162
f  144 173 172
f  158 162 173
f  143 172 171
f  139 165 164
f  140 166 165
f  141 167 166
f  142 168 167
f  147 169 168
f  145 170 169
f  164 165 194
f  165 166 195
f  166 167 196
f  167 168 197
f  168 169 198
f  173 162 188
f  162 161 191
f  172 173 190
f  171 172 189
f  170 174 200
f  170 199 169
f  174 171 201
f  169 199 198
f  170 200 199
f  171 189 201
f  172 190 189
f  174 201 200
f  175 180 176
f  176 181 177
f  177 183 178
f  177 181 183
f  178 185 179
f  159 179 184
f  160 186 163
f  160 159 192
f  178 183 185
f  179 185 184
f  159 184 192
f  175 182 180
f  176 180 181
f  180 182 229
f  180 230 181
f  181 231 183
f  184 185 233
f  183 232 185
f  161 163 187
f  162 191 188
f  161 187 191
f  160 192 186
f  163 186 187
f  173 188 190
f  188 191 215
f  186 192 235
f  184 234 192
f  192 234 235
f  191 187 216
f  186 193 187
f  187 193 216
f  186 235 193
f  165 195 194
f  166 196 195
f  167 197 196
f  168 198 197
f  195 196 203
f  194 195 202
f  196 197 204
f  200 201 218
f  197 198 208
f  198 199 209
f  198 209 208
f  199 200 210
f  199 210 209
f  200 218 210
f  195 203 202
f  196 204 203
f  197 208 204
f  202 203 205
f  203 206 205
f  203 204 206
f  204 208 207
f  204 207 206
f  209 210 212
f  208 209 211
f  208 211 207
f  209 212 211
f  189 190 213
f  201 189 214
f  190 188 217
f  190 217 213
f  201 214 218
f  189 213 214
f  188 215 217
f  191 216 215
f  217 224 213
f  215 216 256
f  217 215 257
f  215 256 257
f  210 218 220
f  214 213 225
f  218 214 222
f  214 225 222
f  210 220 212
f  218 222 220
f  220 219 212
f  220 221 219
f  220 222 221
f  222 223 221
f  222 225 223
f  213 224 225
f  217 257 224
f  225 224 226
f  225 226 223
f  224 257 258
f  224 258 226
f  182 228 229
f  180 229 230
f  181 230 231
f  183 231 232
f  228 240 229
f  229 241 230
f  228 239 240
f  229 240 241
f  230 248 231
f  230 241 248
f  185 232 233
f  184 233 234
f  233 232 237
f  233 238 234
f  235 234 254
f  231 236 232
f  232 236 237
f  231 248 236
f  233 237 238
f  234 238 254
f  237 266 238
f  239 242 240
f  241 249 248
f  240 246 241
f  241 246 249
f  239 243 242
f  242 243 245
f  243 244 245
f  240 242 246
f  242 247 246
f  242 245 247
f  236 248 251
f  248 249 251
f  237 236 265
f  236 251 265
f  246 250 249
f  246 247 250
f  249 250 252
f  249 252 251
f  265 251 268
f  251 252 268
f  193 235 255
f  193 253 216
f  235 254 255
f  193 255 253
f  216 253 256
f  254 238 267
f  255 254 271
f  255 262 253
f  254 267 271
f  257 256 260
f  256 253 263
f  257 260 258
f  256 263 260
f  260 259 258
f  260 261 259
f  253 262 263
f  255 271 262
f  260 263 261
f  263 264 261
f  263 262 264
f  237 265 266
f  238 266 267
f  266 275 267
f  266 265 270
f  265 268 270
f  266 270 275
f  268 269 270
f  269 277 270
f  262 271 273
f  271 267 276
f  267 275 276
f  262 273 264
f  273 272 264
f  271 276 273
f  273 274 272
f  273 276 274
f  275 270 278
f  270 277 278
f  275 279 276
f  276 279 274
f  275 278 279
f  278 280 279
f  4 227 1
f  4 12 227
f  1 227 87
f  110 115 114
f  110 137 111
f  111 137 128
f  130 128 137
f  130 137 134
f  134 137 136
f  136 137 244
f  244 137 245
f  245 137 247
f  247 137 250
f  250 137 252
f  114 113 137
f  110 114 137
f  87 281 137
f  12 34 227
f  34 45 227
f  45 138 227
f  138 164 227
f  164 194 227
f  194 202 227
f  202 205 227
f  87 227 281
f  252 137 268
f  268 137 269
f  269 137 277
f  277 137 278
f  278 137 280
f  137 281 280
f  2 1 87
f  2 87 3
f  3 87 7
f  7 87 8
f  8 87 20
f  20 87 22
f  22 87 25
f  25 87 28
f  90 28 87
f  90 87 91
f  91 87 93
f  93 87 95
f  95 87 100
f  100 87 102
f  102 87 137
f  102 137 112
f  112 137 113
f  205 206 227
f  281 206 207
f  281 207 211
f  281 211 212
f  281 227 206
f  281 212 219
f  281 219 221
f  221 223 281
f  223 226 281
f  226 258 281
f  258 259 281
f  259 261 281
f  261 264 281
f  264 272 281
f  280 274 279
f  272 274 281
f  280 281 274
