# OpenSCAD obj exporter
v 0.125 -0.24 -0.0644378
v 0.126355 -0.24 -0.0642306
v 0.125 -0.237426 -0.0648646
v 0.129375 -0.24 -0.0637161
v 0.140826 -0.227543 -0.0637161
v 0.125 -0.198663 -0.0709012
v 0.125 -0.201972 -0.0704168
v 0.134852 -0.186096 -0.0709012
v 0.153329 -0.211594 -0.0637161
v 0.164886 -0.19434 -0.0637161
v 0.148536 -0.24 -0.0598459
v 0.167558 -0.24 -0.0556331
v 0.17086 -0.235787 -0.0556331
v 0.173913 -0.24 -0.0539786
v 0.125 -0.1725 -0.0740867
v 0.145017 -0.170921 -0.0709012
v 0.125 -0.147329 -0.0769196
v 0.125 -0.14514 -0.0771443
v 0.125 -0.125329 -0.0787975
v 0.132196 -0.132544 -0.0771443
v 0.154287 -0.154693 -0.0709012
v 0.175427 -0.175888 -0.0637161
v 0.162606 -0.137511 -0.0709012
v 0.183739 -0.216561 -0.0556331
v 0.199749 -0.24 -0.0467022
v 0.201459 -0.237446 -0.0467022
v 0.195485 -0.195999 -0.0556331
v 0.203626 -0.24 -0.0454236
v 0.214338 -0.214902 -0.0467022
v 0.225896 -0.191032 -0.0467022
v 0.184886 -0.156352 -0.0637161
v 0.193205 -0.135851 -0.0637161
v 0.206026 -0.174229 -0.0556331
v 0.215297 -0.151385 -0.0556331
v 0.22324 -0.127607 -0.0556331
v 0.125 -0.24 1.38778e-17
v 0.227573 -0.24 -0.0369784
v 0.125 -0.105708 -0.0802668
v 0.139324 -0.117822 -0.0771443
v 0.145593 -0.102373 -0.0771443
v 0.125 -0.0878931 -0.0814401
v 0.125 -0.0714518 -0.0823679
v 0.125 -0.0706183 -0.0824068
v 0.150965 -0.0862938 -0.0771443
v 0.169923 -0.119481 -0.0709012
v 0.176192 -0.100714 -0.0709012
v 0.155406 -0.0696823 -0.0771443
v 0.125 -0.0560486 -0.0829399
v 0.128478 -0.0576082 -0.0824068
v 0.125 -0.0414136 -0.08336
v 0.131357 -0.0435198 -0.0824068
v 0.125 -0.0273213 -0.0836507
v 0.133427 -0.0291631 -0.0824068
v 0.125 -0.013576 -0.0838215
v 0.125 0 -0.0838778
v 0.134673 -0.0146267 -0.0824068
v 0.13509 0 -0.0824068
v 0.158888 -0.0526411 -0.0771443
v 0.161392 -0.0352754 -0.0771443
v 0.1629 -0.0176923 -0.0771443
v 0.163403 0 -0.0771443
v 0.200334 -0.114514 -0.0637161
v 0.181375 -0.0813267 -0.0709012
v 0.18544 -0.0614379 -0.0709012
v 0.206227 -0.0924698 -0.0637161
v 0.210848 -0.0698559 -0.0637161
v 0.188361 -0.0411702 -0.0709012
v 0.190121 -0.0206488 -0.0709012
v 0.190709 0 -0.0709012
v 0.21417 -0.0468112 -0.0637161
v 0.216171 -0.023478 -0.0637161
v 0.21684 0 -0.0637161
v 0.125 0 1.38778e-17
v 0.23606 -0.165985 -0.0467022
v 0.244769 -0.139914 -0.0467022
v 0.23187 -0.232479 -0.0369784
v 0.239371 -0.24 -0.0321072
v 0.252147 -0.24 -0.0265216
v 0.244372 -0.206657 -0.0369784
v 0.261343 -0.221008 -0.0265216
v 0.273102 -0.192031 -0.0265216
v 0.273795 -0.24 -0.0153964
v 0.276702 -0.233997 -0.0153964
v 0.255368 -0.179561 -0.0369784
v 0.26479 -0.151358 -0.0369784
v 0.272579 -0.122222 -0.0369784
v 0.2838 -0.24 -0.00930014
v 0.292604 -0.24 -0.0036713
v 0.297378 -0.24 1.38778e-17
v 0.30342 -0.213348 -0.0036713
v 0.307134 -0.21596 1.38778e-17
v 0.289152 -0.203316 -0.0153964
v 0.318466 -0.18204 1.38778e-17
v 0.283178 -0.161869 -0.0265216
v 0.291508 -0.130709 -0.0265216
v 0.29982 -0.171382 -0.0153964
v 0.314614 -0.179838 -0.0036713
v 0.30864 -0.138391 -0.0153964
v 0.323869 -0.145219 -0.0036713
v 0.327834 -0.146997 1.38778e-17
v 0.229807 -0.103043 -0.0556331
v 0.25197 -0.11298 -0.0467022
v 0.234957 -0.0778432 -0.0556331
v 0.257616 -0.0853505 -0.0467022
v 0.238658 -0.0521636 -0.0556331
v 0.240888 -0.0261625 -0.0556331
v 0.241633 0 -0.0556331
v 0.261675 -0.0571944 -0.0467022
v 0.26412 -0.0286856 -0.0467022
v 0.264937 0 -0.0467022
v 0.278688 -0.0923317 -0.0369784
v 0.298041 -0.0987436 -0.0265216
v 0.283078 -0.0618725 -0.0369784
v 0.302736 -0.0661692 -0.0265216
v 0.315557 -0.104547 -0.0153964
v 0.3335 -0.119271 1.38778e-17
v 0.331127 -0.109705 -0.0036713
v 0.3335 -0.110491 -0.00152206
v 0.3335 -0.0932416 -0.0036713
v 0.320528 -0.070058 -0.0153964
v 0.3335 -0.0728933 -0.00577932
v 0.285723 -0.0310319 -0.0369784
v 0.305565 -0.0331869 -0.0265216
v 0.286607 0 -0.0369784
v 0.30651 0 -0.0265216
v 0.323523 -0.0351373 -0.0153964
v 0.3335 -0.0362209 -0.00806821
v 0.324523 0 -0.0153964
v 0.3335 0 -0.00882333
v 0.3335 0 1.38778e-17
f  2 1 3
f  2 3 5
f  2 5 4
f  5 3 7
f  5 7 9
f  9 7 6
f  8 9 6
f  8 6 15
f  8 10 9
f  8 16 10
f  10 16 22
f  4 5 11
f  5 13 11
f  11 13 12
f  5 9 13
f  12 13 14
f  9 24 13
f  9 10 24
f  16 15 17
f  8 15 16
f  16 17 21
f  21 17 18
f  21 18 20
f  20 18 19
f  20 19 39
f  23 20 39
f  21 20 23
f  16 21 22
f  21 31 22
f  23 39 45
f  21 23 31
f  23 45 32
f  13 24 26
f  13 26 14
f  14 26 25
f  25 26 28
f  26 24 29
f  10 27 24
f  10 22 27
f  24 27 29
f  27 22 33
f  26 37 28
f  26 29 76
f  27 33 30
f  29 27 30
f  29 30 79
f  23 32 31
f  32 45 62
f  22 31 33
f  31 34 33
f  31 32 34
f  33 34 74
f  30 33 74
f  34 32 35
f  32 62 35
f  34 35 75
f  26 76 37
f  39 19 38
f  39 38 40
f  40 38 41
f  40 41 44
f  44 41 42
f  44 42 43
f  49 43 48
f  47 43 49
f  44 43 47
f  39 40 45
f  40 44 46
f  40 46 45
f  44 47 63
f  47 58 64
f  44 63 46
f  47 64 63
f  51 48 50
f  49 48 51
f  51 50 52
f  51 52 53
f  49 51 58
f  47 49 58
f  51 53 59
f  51 59 58
f  53 52 54
f  53 54 56
f  56 54 55
f  56 55 57
f  53 56 60
f  56 57 61
f  58 59 67
f  59 53 60
f  56 61 60
f  59 60 68
f  60 61 69
f  45 46 62
f  46 63 65
f  46 65 62
f  63 66 65
f  63 64 66
f  62 65 101
f  35 62 101
f  65 103 101
f  65 66 103
f  66 105 103
f  58 67 64
f  59 68 67
f  64 67 70
f  60 69 68
f  67 68 71
f  68 69 72
f  64 70 66
f  67 71 70
f  68 72 71
f  66 70 105
f  70 71 106
f  71 72 107
f  30 74 84
f  74 34 75
f  74 75 85
f  75 35 102
f  75 102 86
f  37 76 77
f  76 78 77
f  29 79 76
f  76 79 80
f  76 80 78
f  30 84 79
f  78 80 83
f  79 84 81
f  79 81 80
f  80 81 92
f  78 83 82
f  82 83 87
f  80 92 83
f  74 85 84
f  84 85 94
f  81 84 94
f  75 86 85
f  85 86 95
f  85 95 94
f  83 92 90
f  83 90 87
f  87 90 88
f  88 90 89
f  89 90 91
f  81 96 92
f  92 96 97
f  90 92 97
f  90 97 91
f  91 97 93
f  81 94 96
f  94 95 98
f  94 98 96
f  95 115 98
f  96 98 99
f  96 99 97
f  93 97 99
f  93 99 100
f  98 117 99
f  99 117 100
f  100 117 116
f  35 101 102
f  101 104 102
f  101 103 104
f  103 105 108
f  103 108 104
f  102 104 111
f  104 108 113
f  70 106 105
f  105 106 109
f  105 109 108
f  71 107 106
f  106 107 110
f  108 109 122
f  106 110 109
f  109 110 124
f  86 102 111
f  104 113 111
f  108 122 113
f  109 124 122
f  86 111 112
f  86 112 95
f  95 112 115
f  111 113 114
f  111 114 112
f  112 114 120
f  98 115 117
f  112 120 115
f  116 117 118
f  115 119 117
f  117 119 118
f  115 120 119
f  119 120 121
f  113 122 123
f  113 123 114
f  122 124 125
f  122 125 123
f  114 123 126
f  123 125 128
f  114 126 120
f  120 126 121
f  121 126 127
f  123 128 126
f  126 128 127
f  127 128 129
f  2 4 1
f  4 11 1
f  11 12 1
f  12 14 1
f  14 25 1
f  25 28 1
f  28 37 1
f  37 77 1
f  89 36 1
f  77 78 1
f  78 82 1
f  82 87 1
f  57 55 73
f  57 73 61
f  61 73 69
f  69 73 72
f  130 73 36
f  72 73 107
f  107 73 110
f  110 73 124
f  87 88 1
f  88 89 1
f  89 91 36
f  91 93 36
f  93 100 36
f  100 116 36
f  116 130 36
f  124 73 125
f  125 73 128
f  128 73 130
f  118 119 121
f  116 118 130
f  118 121 130
f  121 127 130
f  127 129 130
f  128 130 129
f  3 1 7
f  1 36 7
f  36 6 7
f  6 36 15
f  17 15 36
f  38 19 36
f  17 36 18
f  19 18 36
f  38 36 41
f  42 41 36
f  48 43 36
f  42 36 43
f  48 36 50
f  50 36 52
f  52 36 54
f  73 55 54
f  73 54 36
