# OpenSCAD obj exporter
v -0.112096 -0.212916 -0.0709012
v -0.0996453 -0.224397 -0.0709012
v -0.125 -0.201972 -0.0704168
v -0.123856 -0.200123 -0.0709012
v -0.125 -0.198663 -0.0709012
v -0.096046 -0.182431 -0.0771443
v -0.0865802 -0.234494 -0.0709012
v -0.0779257 -0.24 -0.0709012
v -0.0720371 -0.24 -0.0714653
v -0.085378 -0.192267 -0.0771443
v -0.0741835 -0.200919 -0.0771443
v -0.0625317 -0.208332 -0.0771443
v -0.125 -0.24 -0.0644378
v -0.125 -0.237426 -0.0648646
v -0.106574 -0.24 -0.0672548
v -0.0886131 -0.24 -0.0696699
v -0.125 -0.1725 -0.0740867
v -0.115544 -0.15945 -0.0771443
v -0.106122 -0.171469 -0.0771443
v -0.102723 -0.121073 -0.0824068
v -0.0955229 -0.131822 -0.0824068
v -0.124253 -0.146448 -0.0771443
v -0.125 -0.147329 -0.0769196
v -0.125 -0.14514 -0.0771443
v -0.125 -0.125329 -0.0787975
v -0.0794038 -0.15082 -0.0824068
v -0.0705842 -0.158953 -0.0824068
v -0.0877338 -0.141758 -0.0824068
v -0.0565078 -0.24 -0.0726951
v -0.0504944 -0.21446 -0.0771443
v -0.0417528 -0.24 -0.0736115
v -0.0381457 -0.219266 -0.0771443
v -0.0315361 -0.181273 -0.0824068
v -0.0275451 -0.24 -0.0742458
v -0.0255619 -0.22272 -0.0771443
v -0.0136873 -0.24 -0.0746184
v -0.0128205 -0.224801 -0.0771443
v -0.0211327 -0.184129 -0.0824068
v -0.010599 -0.185849 -0.0824068
v -0.0613295 -0.166105 -0.0824068
v -0.0516966 -0.172233 -0.0824068
v -0.041745 -0.1773 -0.0824068
v -0.0553553 -0.124658 -0.0866562
v -0.0480973 -0.130267 -0.0866562
v -0.0405428 -0.135073 -0.0866562
v -0.0327383 -0.139046 -0.0866562
v -0.024732 -0.142162 -0.0866562
v -0.0165732 -0.144402 -0.0866562
v -0.00831223 -0.145751 -0.0866562
v -0.125 -0.24 1.38778e-17
v -0.115183 -0.0974062 -0.0824068
v -0.10929 -0.109577 -0.0824068
v -0.125 -0.105708 -0.0802668
v -0.120366 -0.0846347 -0.0824068
v -0.124807 -0.0713413 -0.0824068
v -0.125 -0.0714518 -0.0823679
v -0.125 -0.0706183 -0.0824068
v -0.0943963 -0.0663743 -0.0866562
v -0.125 -0.0878931 -0.0814401
v -0.08056 -0.0949506 -0.0866562
v -0.0688048 -0.111173 -0.0866562
v -0.0749133 -0.10338 -0.0866562
v -0.0903316 -0.0763903 -0.0866562
v -0.0857101 -0.0859354 -0.0866562
v -0.125 -0.0560486 -0.0829399
v -0.125 -0.0414136 -0.08336
v -0.097879 -0.0559491 -0.0866562
v -0.100758 -0.0451789 -0.0866562
v -0.103016 -0.0341302 -0.0866562
v -0.125 -0.0273213 -0.0836507
v -0.125 -0.013576 -0.0838215
v -0.125 0 -0.0838778
v -0.104639 -0.022871 -0.0866562
v -0.105617 -0.0114709 -0.0866562
v -0.105943 0 -0.0866562
v -0.0649234 -0.0549034 -0.0898665
v -0.0678447 -0.0477047 -0.0898665
v -0.0703478 -0.0402118 -0.0898665
v -0.0724172 -0.0324711 -0.0898665
v -0.0740401 -0.0245301 -0.0898665
v -0.0752065 -0.0164379 -0.0898665
v -0.0759092 -0.00824437 -0.0898665
v -0.0761439 0 -0.0898665
v -0.062272 -0.11828 -0.0866562
v -0.0345686 -0.0936257 -0.0898665
v -0.0494515 -0.0799024 -0.0898665
v -0.0579003 -0.0682431 -0.0898665
v -0.0616017 -0.0617637 -0.0898665
v -0.0538419 -0.0743018 -0.0898665
v -0.0447563 -0.0850104 -0.0898665
v -0.0397851 -0.0895943 -0.0898665
v -0.0235298 -0.0999357 -0.0898665
v -0.029139 -0.09708 -0.0898665
v -0.0177754 -0.102175 -0.0898665
v -0.0119115 -0.103785 -0.0898665
v -0.00597418 -0.104755 -0.0898665
v -0.0141761 -0.0602089 -0.0920177
v -0.0107093 -0.0615582 -0.0920177
v -0.00717642 -0.062528 -0.0920177
v -0.00359931 -0.0631123 -0.0920177
v -0.0391148 -0.033078 -0.0920177
v -0.0324385 -0.0447651 -0.0920177
v -0.0348836 -0.0411149 -0.0920177
v -0.0371136 -0.0372112 -0.0920177
v -0.0408749 -0.028741 -0.0920177
v -0.0423829 -0.0242267 -0.0920177
v -0.0436297 -0.0195631 -0.0920177
v -0.0446074 -0.0147788 -0.0920177
v -0.0453102 -0.00990346 -0.0920177
v -0.0457335 -0.00496704 -0.0920177
v -0.045875 0 -0.0920177
v -0.0239696 -0.0539785 -0.0920177
v -0.0297934 -0.0481394 -0.0920177
v -0.0269646 -0.0512168 -0.0920177
v -0.0208268 -0.0564073 -0.0920177
v -0.0175556 -0.0584884 -0.0920177
v -0.00995158 -0.0160795 -0.0930966
v -0.00900672 -0.0171074 -0.0930966
v -0.00800632 -0.0180299 -0.0930966
v -0.00695656 -0.0188412 -0.0930966
v -0.00586391 -0.0195363 -0.0930966
v -0.00473511 -0.020111 -0.0930966
v -0.00239707 -0.0208856 -0.0930966
v -0.00357712 -0.0205617 -0.0930966
v -0.00120224 -0.0210807 -0.0930966
v -0.0123967 -0.0124293 -0.0930966
v -0.0141567 -0.0080922 -0.0930966
v -0.0130651 -0.0110487 -0.0930966
v -0.013653 -0.00960005 -0.0930966
v -0.0108351 -0.0149524 -0.0930966
v -0.0116518 -0.0137332 -0.0930966
v -0.0145732 -0.00653445 -0.0930966
v -0.0148998 -0.00493642 -0.0930966
v -0.0151345 -0.00330795 -0.0930966
v -0.0152759 -0.00165909 -0.0930966
v -0.0153231 0 -0.0930966
v -0.125 0 1.38778e-17
v 0 -0.225497 -0.0771443
v 0 -0.24 -0.0747414
v 0.0136873 -0.24 -0.0746184
v 0.0128205 -0.224801 -0.0771443
v 0.0275451 -0.24 -0.0742458
v 0.0255619 -0.22272 -0.0771443
v 0 -0.186424 -0.0824068
v 0.010599 -0.185849 -0.0824068
v 0.0211327 -0.184129 -0.0824068
v 0.0417528 -0.24 -0.0736115
v 0.0381457 -0.219266 -0.0771443
v 0.0565078 -0.24 -0.0726951
v 0.0504944 -0.21446 -0.0771443
v 0.0315361 -0.181273 -0.0824068
v 0 -0.146202 -0.0866562
v 0.00831223 -0.145751 -0.0866562
v 0.0165732 -0.144402 -0.0866562
v 0.024732 -0.142162 -0.0866562
v 0.041745 -0.1773 -0.0824068
v 0.0516966 -0.172233 -0.0824068
v 0.0613295 -0.166105 -0.0824068
v 0.0327383 -0.139046 -0.0866562
v 0.0405428 -0.135073 -0.0866562
v 0.0480973 -0.130267 -0.0866562
v 0.0553553 -0.124658 -0.0866562
v 0.0720371 -0.24 -0.0714653
v 0.0779257 -0.24 -0.0709012
v 0.0865802 -0.234494 -0.0709012
v 0.0625317 -0.208332 -0.0771443
v 0.0741835 -0.200919 -0.0771443
v 0.085378 -0.192267 -0.0771443
v 0.0996453 -0.224397 -0.0709012
v 0.112096 -0.212916 -0.0709012
v 0.096046 -0.182431 -0.0771443
v 0.125 -0.201972 -0.0704168
v 0.123856 -0.200123 -0.0709012
v 0.125 -0.198663 -0.0709012
v 0.0886131 -0.24 -0.0696699
v 0.106574 -0.24 -0.0672548
v 0.125 -0.24 -0.0644378
v 0.125 -0.237426 -0.0648646
v 0.0705842 -0.158953 -0.0824068
v 0.0794038 -0.15082 -0.0824068
v 0.0877338 -0.141758 -0.0824068
v 0.106122 -0.171469 -0.0771443
v 0.125 -0.1725 -0.0740867
v 0.115544 -0.15945 -0.0771443
v 0.0955229 -0.131822 -0.0824068
v 0.102723 -0.121073 -0.0824068
v 0.124253 -0.146448 -0.0771443
v 0.125 -0.147329 -0.0769196
v 0.125 -0.14514 -0.0771443
v 0.125 -0.125329 -0.0787975
v 0.125 -0.24 1.38778e-17
v 0 -0.105079 -0.0898665
v 0.00597418 -0.104755 -0.0898665
v 0.0119115 -0.103785 -0.0898665
v 0.0177754 -0.102175 -0.0898665
v 0.0235298 -0.0999357 -0.0898665
v 0.029139 -0.09708 -0.0898665
v 0 -0.0633074 -0.0920177
v 0.00359931 -0.0631123 -0.0920177
v 0.00717642 -0.062528 -0.0920177
v 0.0107093 -0.0615582 -0.0920177
v 0.0141761 -0.0602089 -0.0920177
v 0.0345686 -0.0936257 -0.0898665
v 0.062272 -0.11828 -0.0866562
v 0.0397851 -0.0895943 -0.0898665
v 0.0447563 -0.0850104 -0.0898665
v 0.0494515 -0.0799024 -0.0898665
v 0.0538419 -0.0743018 -0.0898665
v 0.0579003 -0.0682431 -0.0898665
v 0.0616017 -0.0617637 -0.0898665
v 0.0175556 -0.0584884 -0.0920177
v 0.0208268 -0.0564073 -0.0920177
v 0.0239696 -0.0539785 -0.0920177
v 0.0269646 -0.0512168 -0.0920177
v 0.0297934 -0.0481394 -0.0920177
v 0 -0.0211459 -0.0930966
v 0.00120224 -0.0210807 -0.0930966
v 0.00239707 -0.0208856 -0.0930966
v 0.00357712 -0.0205617 -0.0930966
v 0.00473511 -0.020111 -0.0930966
v 0.00586391 -0.0195363 -0.0930966
v 0.00695656 -0.0188412 -0.0930966
v 0.00800632 -0.0180299 -0.0930966
v 0.00900672 -0.0171074 -0.0930966
v 0.00995158 -0.0160795 -0.0930966
v 0.0108351 -0.0149524 -0.0930966
v 0.0116518 -0.0137332 -0.0930966
v 0.0123967 -0.0124293 -0.0930966
v 0.0130651 -0.0110487 -0.0930966
v 0.013653 -0.00960005 -0.0930966
v 0.0141567 -0.0080922 -0.0930966
v 0.0145732 -0.00653445 -0.0930966
v 0.0148998 -0.00493642 -0.0930966
v 0.0151345 -0.00330795 -0.0930966
v 0.0152759 -0.00165909 -0.0930966
v 0.0153231 0 -0.0930966
v 0.0324385 -0.0447651 -0.0920177
v 0.0348836 -0.0411149 -0.0920177
v 0.0371136 -0.0372112 -0.0920177
v 0.0391148 -0.033078 -0.0920177
v 0.0408749 -0.028741 -0.0920177
v 0.0423829 -0.0242267 -0.0920177
v 0.0436297 -0.0195631 -0.0920177
v 0.0446074 -0.0147788 -0.0920177
v 0.0453102 -0.00990346 -0.0920177
v 0.0457335 -0.00496704 -0.0920177
v 0.045875 0 -0.0920177
v 0.0688048 -0.111173 -0.0866562
v 0.0749133 -0.10338 -0.0866562
v 0.08056 -0.0949506 -0.0866562
v 0.0857101 -0.0859354 -0.0866562
v 0.0903316 -0.0763903 -0.0866562
v 0.10929 -0.109577 -0.0824068
v 0.115183 -0.0974062 -0.0824068
v 0.125 -0.105708 -0.0802668
v 0.0943963 -0.0663743 -0.0866562
v 0.120366 -0.0846347 -0.0824068
v 0.124807 -0.0713413 -0.0824068
v 0.125 -0.0714518 -0.0823679
v 0.125 -0.0706183 -0.0824068
v 0.125 -0.0878931 -0.0814401
v 0.0649234 -0.0549034 -0.0898665
v 0.0678447 -0.0477047 -0.0898665
v 0.0703478 -0.0402118 -0.0898665
v 0.0724172 -0.0324711 -0.0898665
v 0.0740401 -0.0245301 -0.0898665
v 0.0752065 -0.0164379 -0.0898665
v 0.0759092 -0.00824437 -0.0898665
v 0.0761439 0 -0.0898665
v 0.097879 -0.0559491 -0.0866562
v 0.100758 -0.0451789 -0.0866562
v 0.103016 -0.0341302 -0.0866562
v 0.125 -0.0560486 -0.0829399
v 0.125 -0.0414136 -0.08336
v 0.104639 -0.022871 -0.0866562
v 0.105617 -0.0114709 -0.0866562
v 0.105943 0 -0.0866562
v 0.125 -0.0273213 -0.0836507
v 0.125 -0.013576 -0.0838215
v 0.125 0 -0.0838778
v 0.125 0 1.38778e-17
f  1 3 4
f  4 3 5
f  1 4 6
f  4 5 17
f  4 17 19
f  1 10 2
f  1 6 10
f  4 19 6
f  7 8 16
f  7 9 8
f  7 2 11
f  7 12 9
f  7 11 12
f  2 10 11
f  10 40 11
f  12 11 41
f  15 13 14
f  2 15 14
f  1 14 3
f  1 2 14
f  7 16 15
f  7 15 2
f  19 17 18
f  18 17 23
f  18 23 22
f  6 19 26
f  19 18 28
f  22 23 24
f  22 24 25
f  18 22 21
f  20 22 25
f  18 21 28
f  21 22 20
f  10 6 27
f  19 28 26
f  6 26 27
f  10 27 40
f  28 21 61
f  28 84 26
f  27 26 43
f  28 61 84
f  26 84 43
f  9 30 29
f  29 30 32
f  9 12 30
f  31 32 35
f  31 29 32
f  31 35 34
f  30 12 42
f  12 41 42
f  30 33 32
f  30 42 33
f  34 35 37
f  34 37 36
f  35 39 37
f  36 37 138
f  36 138 139
f  37 144 138
f  32 38 35
f  35 38 39
f  32 33 38
f  37 39 144
f  40 27 44
f  40 45 41
f  33 42 47
f  42 41 46
f  42 46 47
f  11 40 41
f  27 43 44
f  40 44 45
f  41 45 46
f  44 93 45
f  46 45 92
f  33 48 38
f  33 47 48
f  38 49 39
f  39 152 144
f  38 48 49
f  39 49 152
f  46 94 47
f  47 95 48
f  48 96 49
f  49 192 152
f  52 53 51
f  20 52 60
f  52 51 64
f  52 25 53
f  20 25 52
f  51 53 59
f  51 59 54
f  54 59 56
f  54 56 55
f  55 56 57
f  55 57 65
f  54 55 58
f  55 65 67
f  51 54 63
f  54 58 63
f  51 63 64
f  55 67 58
f  21 20 62
f  20 60 62
f  21 62 61
f  52 64 60
f  61 62 86
f  62 60 89
f  64 63 88
f  63 58 76
f  64 87 60
f  60 87 89
f  63 76 88
f  64 88 87
f  68 65 66
f  69 66 70
f  68 66 69
f  67 65 68
f  73 70 71
f  69 70 73
f  73 71 74
f  74 71 72
f  74 72 75
f  69 73 80
f  73 74 81
f  74 75 82
f  58 67 77
f  67 68 78
f  67 78 77
f  68 69 79
f  68 79 78
f  69 80 79
f  58 77 76
f  73 81 80
f  75 83 82
f  74 82 81
f  79 80 107
f  80 81 108
f  81 82 109
f  82 83 110
f  43 84 91
f  61 90 84
f  84 90 91
f  61 86 90
f  44 43 85
f  44 85 93
f  43 91 85
f  62 89 86
f  89 87 102
f  90 112 91
f  85 91 115
f  90 86 114
f  86 89 113
f  90 114 112
f  46 92 94
f  45 93 92
f  47 94 95
f  48 95 96
f  49 96 192
f  95 100 96
f  96 198 192
f  85 116 93
f  92 93 97
f  92 98 94
f  85 115 116
f  91 112 115
f  93 116 97
f  92 97 98
f  94 99 95
f  94 98 99
f  95 99 100
f  96 100 198
f  76 77 101
f  87 88 103
f  88 76 104
f  77 78 105
f  78 79 106
f  76 101 104
f  78 106 105
f  77 105 101
f  88 104 103
f  87 103 102
f  86 113 114
f  89 102 113
f  79 107 106
f  80 108 107
f  81 109 108
f  82 110 109
f  83 111 110
f  106 129 105
f  106 107 127
f  107 108 132
f  108 109 133
f  109 110 134
f  110 111 135
f  103 104 131
f  113 102 117
f  102 103 130
f  114 113 118
f  112 114 119
f  112 120 115
f  97 116 122
f  97 124 98
f  99 125 100
f  98 123 99
f  100 216 198
f  116 115 121
f  112 119 120
f  115 120 121
f  116 121 122
f  98 124 123
f  97 122 124
f  99 123 125
f  100 125 216
f  104 101 126
f  101 105 128
f  113 117 118
f  102 130 117
f  103 131 130
f  101 128 126
f  104 126 131
f  105 129 128
f  107 132 127
f  108 133 132
f  109 134 133
f  111 136 135
f  110 135 134
f  106 127 129
f  114 118 119
f  120 119 122
f  120 122 121
f  122 119 124
f  123 124 119
f  123 119 125
f  125 119 216
f  119 217 216
f  119 218 217
f  119 219 218
f  119 118 223
f  118 117 224
f  117 130 225
f  131 126 227
f  126 128 228
f  128 129 229
f  129 127 230
f  127 132 231
f  130 131 226
f  132 133 232
f  133 134 233
f  134 135 234
f  135 136 235
f  138 141 139
f  139 141 140
f  138 144 141
f  140 141 143
f  142 143 148
f  140 143 142
f  141 145 143
f  141 144 145
f  143 145 146
f  143 146 148
f  148 146 151
f  142 148 147
f  148 150 147
f  147 150 149
f  149 150 166
f  148 151 150
f  150 151 156
f  150 156 166
f  166 156 157
f  144 152 145
f  145 153 146
f  145 152 153
f  146 153 154
f  146 154 151
f  151 154 155
f  152 192 153
f  153 193 154
f  154 194 155
f  155 195 159
f  151 155 156
f  156 155 159
f  156 159 157
f  157 160 158
f  158 161 179
f  167 157 158
f  157 159 160
f  159 196 160
f  160 197 161
f  158 160 161
f  179 161 162
f  149 166 163
f  163 166 165
f  166 167 165
f  163 165 164
f  164 165 175
f  165 169 175
f  167 169 165
f  166 157 167
f  167 158 168
f  167 168 169
f  169 168 170
f  170 168 171
f  173 171 182
f  170 171 173
f  170 173 172
f  173 174 172
f  173 182 174
f  182 183 174
f  169 176 175
f  169 170 176
f  170 178 176
f  176 178 177
f  170 172 178
f  168 158 179
f  168 179 171
f  171 179 180
f  180 181 182
f  179 162 180
f  180 204 181
f  180 162 204
f  181 204 248
f  181 248 185
f  171 180 182
f  182 181 184
f  182 184 183
f  184 188 183
f  184 187 188
f  184 181 185
f  185 186 187
f  184 185 187
f  187 189 188
f  186 189 187
f  186 190 189
f  153 192 193
f  154 193 194
f  192 198 193
f  193 199 194
f  155 194 195
f  159 195 196
f  160 196 197
f  193 198 199
f  194 199 200
f  194 200 195
f  195 200 201
f  195 201 196
f  196 202 197
f  197 211 203
f  196 201 202
f  197 202 211
f  203 211 212
f  205 212 213
f  161 197 203
f  161 203 162
f  162 203 205
f  162 205 204
f  204 205 206
f  248 206 207
f  204 206 248
f  203 212 205
f  205 213 206
f  206 213 214
f  206 214 207
f  207 215 208
f  249 207 208
f  208 237 209
f  198 216 199
f  199 217 200
f  200 218 201
f  201 219 202
f  202 220 211
f  199 216 217
f  200 217 218
f  201 218 219
f  202 219 220
f  211 221 212
f  211 220 221
f  212 221 222
f  213 222 223
f  212 222 213
f  213 223 214
f  214 224 215
f  215 225 237
f  237 226 238
f  238 227 239
f  119 220 219
f  119 221 220
f  119 222 221
f  119 223 222
f  118 224 223
f  117 225 224
f  130 226 225
f  214 223 224
f  131 227 226
f  126 228 227
f  128 229 228
f  129 230 229
f  127 231 230
f  132 232 231
f  133 233 232
f  134 234 233
f  135 235 234
f  136 236 235
f  215 224 225
f  237 225 226
f  238 226 227
f  239 227 228
f  240 228 229
f  241 229 230
f  239 228 240
f  240 229 241
f  230 231 242
f  231 232 243
f  232 233 244
f  233 234 245
f  234 235 246
f  235 236 247
f  207 214 215
f  208 215 237
f  209 237 238
f  210 238 239
f  209 238 210
f  210 239 262
f  240 263 262
f  239 240 262
f  240 241 263
f  264 241 242
f  263 241 264
f  264 242 265
f  241 230 242
f  231 243 242
f  232 244 243
f  233 245 244
f  234 246 245
f  235 247 246
f  265 242 243
f  243 244 266
f  267 244 245
f  245 246 268
f  246 247 269
f  248 207 249
f  249 208 250
f  185 248 249
f  185 249 186
f  186 249 250
f  250 251 253
f  250 208 209
f  250 209 251
f  209 210 251
f  210 262 252
f  210 252 251
f  252 262 256
f  186 250 253
f  253 251 254
f  253 254 255
f  186 253 190
f  253 255 190
f  254 261 255
f  254 251 252
f  254 252 257
f  252 256 257
f  256 270 258
f  254 257 261
f  257 258 261
f  258 259 261
f  257 256 258
f  258 270 260
f  270 273 260
f  258 260 259
f  256 262 263
f  263 264 270
f  256 263 270
f  264 271 270
f  264 265 271
f  265 266 272
f  265 272 271
f  265 243 266
f  266 244 267
f  267 245 268
f  246 269 268
f  266 267 275
f  267 268 276
f  268 269 277
f  270 271 273
f  271 272 273
f  272 275 274
f  272 274 273
f  275 278 274
f  266 275 272
f  267 276 275
f  268 277 276
f  275 276 278
f  276 279 278
f  276 277 279
f  277 280 279
f  8 191 16
f  8 9 191
f  9 29 191
f  15 191 13
f  15 16 191
f  13 191 50
f  75 137 83
f  75 72 137
f  83 137 111
f  111 137 136
f  136 137 236
f  236 137 247
f  247 137 269
f  50 281 137
f  31 191 29
f  31 34 191
f  34 36 191
f  36 139 191
f  139 140 191
f  140 142 191
f  164 175 176
f  142 147 191
f  147 149 191
f  149 163 191
f  163 164 191
f  50 191 281
f  164 176 191
f  176 177 191
f  269 137 277
f  277 137 280
f  137 281 280
f  3 14 13
f  3 50 5
f  17 5 50
f  23 17 50
f  23 50 24
f  24 50 25
f  25 50 53
f  53 50 59
f  59 50 56
f  56 50 57
f  57 50 65
f  3 13 50
f  65 50 66
f  66 50 70
f  70 50 71
f  137 72 71
f  71 50 137
f  281 172 174
f  174 183 281
f  191 177 178
f  191 178 172
f  191 172 281
f  183 188 281
f  189 281 188
f  189 190 281
f  255 281 190
f  255 261 281
f  261 259 281
f  259 260 281
f  260 273 281
f  273 274 281
f  274 278 281
f  279 281 278
f  280 281 279
