# OpenSCAD obj exporter
v -0.23606 -0.165985 -0.0467022
v -0.244769 -0.139914 -0.0467022
v -0.318466 -0.18204 1.38778e-17
v -0.297378 -0.24 1.38778e-17
v -0.30342 -0.213348 -0.0036713
v -0.307134 -0.21596 1.38778e-17
v -0.2838 -0.24 -0.00930014
v -0.292604 -0.24 -0.0036713
v -0.289152 -0.203316 -0.0153964
v -0.283178 -0.161869 -0.0265216
v -0.291508 -0.130709 -0.0265216
v -0.314614 -0.179838 -0.0036713
v -0.30864 -0.138391 -0.0153964
v -0.327834 -0.146997 1.38778e-17
v -0.323869 -0.145219 -0.0036713
v -0.29982 -0.171382 -0.0153964
v -0.261343 -0.221008 -0.0265216
v -0.273102 -0.192031 -0.0265216
v -0.23187 -0.232479 -0.0369784
v -0.239371 -0.24 -0.0321072
v -0.252147 -0.24 -0.0265216
v -0.244372 -0.206657 -0.0369784
v -0.276702 -0.233997 -0.0153964
v -0.273795 -0.24 -0.0153964
v -0.255368 -0.179561 -0.0369784
v -0.26479 -0.151358 -0.0369784
v -0.272579 -0.122222 -0.0369784
v -0.257616 -0.0853505 -0.0467022
v -0.229807 -0.103043 -0.0556331
v -0.25197 -0.11298 -0.0467022
v -0.234957 -0.0778432 -0.0556331
v -0.261675 -0.0571944 -0.0467022
v -0.26412 -0.0286856 -0.0467022
v -0.264937 0 -0.0467022
v -0.238658 -0.0521636 -0.0556331
v -0.240888 -0.0261625 -0.0556331
v -0.241633 0 -0.0556331
v -0.298041 -0.0987436 -0.0265216
v -0.283078 -0.0618725 -0.0369784
v -0.302736 -0.0661692 -0.0265216
v -0.315557 -0.104547 -0.0153964
v -0.3335 -0.119271 1.38778e-17
v -0.331127 -0.109705 -0.0036713
v -0.3335 -0.110491 -0.00152206
v -0.3335 -0.0932416 -0.0036713
v -0.320528 -0.070058 -0.0153964
v -0.3335 -0.0728933 -0.00577932
v -0.285723 -0.0310319 -0.0369784
v -0.305565 -0.0331869 -0.0265216
v -0.286607 0 -0.0369784
v -0.30651 0 -0.0265216
v -0.323523 -0.0351373 -0.0153964
v -0.3335 -0.0362209 -0.00806821
v -0.324523 0 -0.0153964
v -0.3335 0 -0.00882333
v -0.3335 0 1.38778e-17
v -0.278688 -0.0923317 -0.0369784
v -0.203626 -0.24 -0.0454236
v -0.214338 -0.214902 -0.0467022
v -0.225896 -0.191032 -0.0467022
v -0.183739 -0.216561 -0.0556331
v -0.201459 -0.237446 -0.0467022
v -0.199749 -0.24 -0.0467022
v -0.195485 -0.195999 -0.0556331
v -0.184886 -0.156352 -0.0637161
v -0.193205 -0.135851 -0.0637161
v -0.206026 -0.174229 -0.0556331
v -0.215297 -0.151385 -0.0556331
v -0.22324 -0.127607 -0.0556331
v -0.153329 -0.211594 -0.0637161
v -0.164886 -0.19434 -0.0637161
v -0.140826 -0.227543 -0.0637161
v -0.129375 -0.24 -0.0637161
v -0.126355 -0.24 -0.0642306
v -0.125 -0.24 -0.0644378
v -0.125 -0.237426 -0.0648646
v -0.125 -0.198663 -0.0709012
v -0.125 -0.201972 -0.0704168
v -0.134852 -0.186096 -0.0709012
v -0.17086 -0.235787 -0.0556331
v -0.173913 -0.24 -0.0539786
v -0.167558 -0.24 -0.0556331
v -0.148536 -0.24 -0.0598459
v -0.175427 -0.175888 -0.0637161
v -0.154287 -0.154693 -0.0709012
v -0.162606 -0.137511 -0.0709012
v -0.125 -0.1725 -0.0740867
v -0.145017 -0.170921 -0.0709012
v -0.125 -0.147329 -0.0769196
v -0.125 -0.14514 -0.0771443
v -0.125 -0.125329 -0.0787975
v -0.132196 -0.132544 -0.0771443
v -0.227573 -0.24 -0.0369784
v -0.125 -0.24 1.38778e-17
v -0.206227 -0.0924698 -0.0637161
v -0.210848 -0.0698559 -0.0637161
v -0.200334 -0.114514 -0.0637161
v -0.181375 -0.0813267 -0.0709012
v -0.18544 -0.0614379 -0.0709012
v -0.21417 -0.0468112 -0.0637161
v -0.21684 0 -0.0637161
v -0.216171 -0.023478 -0.0637161
v -0.188361 -0.0411702 -0.0709012
v -0.190709 0 -0.0709012
v -0.190121 -0.0206488 -0.0709012
v -0.169923 -0.119481 -0.0709012
v -0.176192 -0.100714 -0.0709012
v -0.155406 -0.0696823 -0.0771443
v -0.139324 -0.117822 -0.0771443
v -0.145593 -0.102373 -0.0771443
v -0.125 -0.105708 -0.0802668
v -0.150965 -0.0862938 -0.0771443
v -0.125 -0.0878931 -0.0814401
v -0.125 -0.0714518 -0.0823679
v -0.125 -0.0706183 -0.0824068
v -0.158888 -0.0526411 -0.0771443
v -0.161392 -0.0352754 -0.0771443
v -0.1629 -0.0176923 -0.0771443
v -0.163403 0 -0.0771443
v -0.128478 -0.0576082 -0.0824068
v -0.125 -0.0560486 -0.0829399
v -0.131357 -0.0435198 -0.0824068
v -0.125 -0.0414136 -0.08336
v -0.133427 -0.0291631 -0.0824068
v -0.125 -0.0273213 -0.0836507
v -0.134673 -0.0146267 -0.0824068
v -0.13509 0 -0.0824068
v -0.125 -0.013576 -0.0838215
v -0.125 0 -0.0838778
v -0.125 0 1.38778e-17
f  2 27 30
f  1 26 2
f  60 25 1
f  1 2 68
f  2 30 69
f  5 6 3
f  5 3 12
f  23 5 9
f  8 4 5
f  4 6 5
f  23 8 5
f  23 7 8
f  9 12 16
f  18 9 16
f  5 12 9
f  18 16 10
f  10 13 11
f  16 15 13
f  12 14 15
f  16 12 15
f  3 14 12
f  15 14 42
f  13 15 43
f  15 42 43
f  10 16 13
f  11 13 41
f  21 24 17
f  18 25 22
f  17 9 18
f  17 18 22
f  17 22 19
f  21 19 20
f  19 93 20
f  59 19 22
f  21 17 19
f  60 22 25
f  17 24 23
f  24 7 23
f  17 23 9
f  25 10 26
f  18 10 25
f  26 11 27
f  2 26 27
f  26 10 11
f  1 25 26
f  30 57 28
f  28 39 32
f  69 30 29
f  30 28 29
f  31 32 35
f  28 31 29
f  28 32 31
f  32 48 33
f  33 50 34
f  33 34 36
f  33 36 35
f  100 35 36
f  32 33 35
f  34 37 36
f  102 36 37
f  27 38 57
f  11 41 38
f  27 11 38
f  57 40 39
f  38 46 40
f  57 38 40
f  13 43 41
f  38 41 46
f  42 44 43
f  41 45 47
f  41 43 45
f  43 44 45
f  41 47 46
f  40 52 49
f  49 54 51
f  39 49 48
f  39 40 49
f  48 51 50
f  48 49 51
f  46 53 52
f  40 46 52
f  46 47 53
f  52 53 55
f  52 55 54
f  49 52 54
f  27 57 30
f  28 57 39
f  32 39 48
f  33 48 50
f  62 58 93
f  59 62 19
f  60 67 64
f  59 22 60
f  59 60 64
f  80 62 61
f  81 63 62
f  63 58 62
f  59 61 62
f  80 81 62
f  59 64 61
f  64 67 84
f  61 64 71
f  64 84 71
f  65 66 86
f  66 97 106
f  1 68 67
f  60 1 67
f  68 2 69
f  68 69 66
f  66 69 97
f  65 67 68
f  84 67 65
f  65 68 66
f  84 88 71
f  72 70 78
f  73 72 76
f  74 73 76
f  74 76 75
f  72 78 76
f  79 70 71
f  79 71 88
f  79 78 70
f  79 77 78
f  79 87 77
f  82 81 80
f  80 61 70
f  80 72 83
f  82 80 83
f  80 70 72
f  61 71 70
f  83 72 73
f  84 65 85
f  84 85 88
f  65 86 85
f  66 106 86
f  86 106 109
f  88 89 87
f  88 85 89
f  79 88 87
f  86 109 92
f  85 92 89
f  92 90 89
f  92 109 91
f  92 91 90
f  85 86 92
f  62 93 19
f  107 97 95
f  106 97 107
f  107 95 98
f  98 95 96
f  98 96 99
f  69 29 97
f  95 29 31
f  97 29 95
f  95 31 96
f  96 31 35
f  99 96 100
f  103 100 102
f  105 102 101
f  99 100 103
f  99 103 116
f  103 105 117
f  103 102 105
f  105 101 104
f  105 104 118
f  96 35 100
f  100 36 102
f  102 37 101
f  106 110 109
f  107 112 110
f  106 107 110
f  99 116 108
f  98 108 112
f  107 98 112
f  98 99 108
f  110 112 113
f  109 111 91
f  109 110 111
f  110 113 111
f  112 108 114
f  112 114 113
f  108 120 114
f  120 115 114
f  120 121 115
f  103 117 116
f  105 118 117
f  104 119 118
f  117 118 124
f  126 118 119
f  108 116 120
f  120 116 122
f  122 116 117
f  122 117 124
f  120 122 121
f  122 123 121
f  122 124 123
f  124 125 123
f  124 118 126
f  126 119 127
f  124 126 125
f  126 128 125
f  126 127 128
f  127 129 128
f  8 94 4
f  8 7 94
f  4 130 6
f  6 130 3
f  37 56 129
f  42 56 44
f  44 56 45
f  50 51 56
f  34 50 56
f  45 56 47
f  47 56 53
f  51 54 56
f  53 56 55
f  54 55 56
f  3 130 14
f  14 130 42
f  34 56 37
f  42 130 56
f  74 94 73
f  74 75 94
f  93 94 20
f  93 58 94
f  21 94 24
f  21 20 94
f  24 94 7
f  4 94 130
f  81 94 63
f  82 94 81
f  63 94 58
f  82 83 94
f  83 73 94
f  104 101 119
f  101 37 127
f  101 127 119
f  37 129 127
f  56 130 129
f  75 76 94
f  76 78 130
f  77 87 130
f  77 130 78
f  76 130 94
f  87 89 130
f  89 90 130
f  91 130 90
f  111 130 91
f  113 130 111
f  128 129 125
f  114 130 113
f  115 130 114
f  115 121 130
f  121 123 130
f  125 130 123
f  125 129 130
