####
#
# OBJ File Generated by Meshlab
#
####
# Object left_foot_geom.obj
#
# Vertices: 512
# Faces: 1020
#
####
v 0.037718 0.031798 -0.013747
v 0.035685 0.034149 -0.013747
v 0.040792 0.039037 -0.010534
v 0.041753 0.000000 -0.016525
v 0.041670 0.002671 -0.016525
v 0.048856 0.003132 -0.013747
v 0.040441 0.010581 -0.016525
v 0.033308 0.008715 -0.018856
v 0.039709 0.013148 -0.016525
v -0.008209 0.017779 -0.022147
v -0.012953 0.024012 -0.020733
v -0.011448 0.024793 -0.020733
v -0.045515 0.018364 -0.013747
v -0.050349 0.017898 -0.011731
v -0.050349 0.020315 -0.011362
v 0.050349 0.051940 -0.001161
v 0.050036 0.054299 -0.000158
v 0.050349 0.054299 -0.000001
v 0.047427 0.051468 -0.002856
v 0.001196 0.003752 -0.023566
v 0.000962 0.003821 -0.023566
v 0.003584 0.011242 -0.023092
v -0.047427 0.051468 -0.002856
v -0.050349 0.048490 -0.002856
v -0.050349 0.051940 -0.001161
v -0.024542 0.034423 -0.016525
v -0.031203 0.038438 -0.013747
v -0.028773 0.040358 -0.013747
v -0.001425 0.003668 -0.023566
v -0.003584 0.011242 -0.023092
v -0.001196 0.003752 -0.023566
v 0.003863 0.000247 -0.023566
v 0.003840 0.000494 -0.023566
v 0.011577 0.000742 -0.023092
v -0.016566 0.030709 -0.018856
v -0.014642 0.031709 -0.018856
v -0.033510 0.036366 -0.013747
v -0.038306 0.041570 -0.010534
v -0.035669 0.043940 -0.010534
v -0.041013 0.007973 -0.016525
v -0.048085 0.009347 -0.013747
v -0.047415 0.012405 -0.013747
v -0.050349 0.036759 -0.007326
v -0.045272 0.033519 -0.010534
v -0.047248 0.030556 -0.010534
v -0.050349 0.037278 -0.007172
v -0.017777 0.038500 -0.016525
v -0.023582 0.043715 -0.013747
v -0.020843 0.045138 -0.013747
v 0.047248 0.030556 -0.010534
v 0.041331 0.026731 -0.013747
v 0.045272 0.033519 -0.010534
v -0.050349 0.023952 -0.010712
v -0.026835 0.001720 -0.020733
v -0.034320 0.002200 -0.018856
v -0.034117 0.004392 -0.018856
v -0.030134 0.016882 -0.018856
v -0.036588 0.020498 -0.016525
v -0.029035 0.018778 -0.018856
v -0.015127 0.047444 -0.013747
v -0.017292 0.054235 -0.010534
v -0.012174 0.048319 -0.013747
v -0.004938 0.010696 -0.023092
v -0.007098 0.018269 -0.022147
v -0.004270 0.010990 -0.023092
v -0.019130 0.002462 -0.022147
v -0.026676 0.003434 -0.020733
v -0.026412 0.005134 -0.020733
v -0.002074 0.003331 -0.023566
v -0.005588 0.010359 -0.023092
v -0.001864 0.003457 -0.023566
v -0.016280 0.010529 -0.022147
v -0.022702 0.014682 -0.020733
v -0.015599 0.011550 -0.022147
v -0.039994 0.049268 -0.006900
v -0.036881 0.051729 -0.006900
v -0.042952 0.046611 -0.006900
v 0.041424 0.005332 -0.016525
v -0.050036 0.054299 -0.000158
v -0.050349 0.054299 -0.000001
v 0.034320 0.002200 -0.018856
v 0.046556 0.015415 -0.013747
v 0.045515 0.018364 -0.013747
v -0.041424 0.005332 -0.016525
v -0.048856 0.003132 -0.013747
v -0.048566 0.006252 -0.013747
v -0.034389 0.000000 -0.018856
v -0.041753 0.000000 -0.016525
v -0.041670 0.002671 -0.016525
v -0.020718 0.017466 -0.020733
v -0.014856 0.012525 -0.022147
v -0.026497 0.022338 -0.018856
v -0.019601 0.018757 -0.020733
v -0.019281 0.000000 -0.022147
v -0.019243 0.001233 -0.022147
v 0.010785 0.004352 -0.023092
v 0.010495 0.005033 -0.023092
v 0.017446 0.008366 -0.022147
v -0.023541 0.025546 -0.018856
v -0.018406 0.019975 -0.020733
v -0.002173 0.011611 -0.023092
v -0.002417 0.019495 -0.022147
v -0.001453 0.011727 -0.023092
v -0.023562 0.013200 -0.020733
v -0.008308 0.026060 -0.020733
v -0.012659 0.032583 -0.018856
v -0.010626 0.033329 -0.018856
v -0.030437 0.029127 -0.016525
v -0.035685 0.034149 -0.013747
v -0.035253 0.022798 -0.016525
v -0.041331 0.026731 -0.013747
v -0.039603 0.029322 -0.013747
v 0.039603 0.029322 -0.013747
v -0.009898 0.025477 -0.020733
v -0.020114 0.037286 -0.016525
v -0.015804 0.022168 -0.020733
v -0.021919 0.027002 -0.018856
v -0.020213 0.028351 -0.018856
v -0.043117 0.036349 -0.010534
v -0.048346 0.040757 -0.006900
v -0.040792 0.039037 -0.010534
v -0.033102 0.054299 -0.006900
v -0.033620 0.053987 -0.006900
v -0.033610 0.054299 -0.006740
v -0.033779 0.006566 -0.018856
v 0.041013 0.007973 -0.016525
v 0.048085 0.009347 -0.013747
v 0.033779 0.006566 -0.018856
v 0.044293 0.021240 -0.013747
v 0.050349 0.023952 -0.010712
v 0.050349 0.024144 -0.010678
v 0.045738 0.043771 -0.006900
v 0.050349 0.042447 -0.005291
v 0.048346 0.040757 -0.006900
v 0.050349 0.044515 -0.004461
v 0.019130 0.002462 -0.022147
v 0.018940 0.003681 -0.022147
v 0.026412 0.005134 -0.020733
v 0.002173 0.011611 -0.023092
v 0.001453 0.011727 -0.023092
v 0.002417 0.019495 -0.022147
v -0.050349 0.011737 -0.012499
v -0.050349 0.013173 -0.012358
v -0.027821 0.020598 -0.018856
v -0.024329 0.011666 -0.020733
v -0.031116 0.014921 -0.018856
v -0.003863 0.000247 -0.023566
v -0.011577 0.000742 -0.023092
v -0.003840 0.000494 -0.023566
v -0.010164 0.005694 -0.023092
v -0.016896 0.009466 -0.022147
v -0.009384 0.006948 -0.023092
v -0.008938 0.007535 -0.023092
v 0.003750 0.000980 -0.023566
v 0.003682 0.001219 -0.023566
v 0.011235 0.002939 -0.023092
v -0.025067 0.023990 -0.018856
v -0.044293 0.021240 -0.013747
v -0.050349 0.024144 -0.010678
v -0.017446 0.008366 -0.022147
v -0.010495 0.005033 -0.023092
v -0.025000 0.010087 -0.020733
v -0.031973 0.012900 -0.018856
v -0.028582 0.031016 -0.016525
v -0.018426 0.029589 -0.018856
v -0.022372 0.035925 -0.016525
v -0.012291 0.015140 -0.022147
v -0.017138 0.021112 -0.020733
v -0.033778 0.025009 -0.016525
v -0.032171 0.027121 -0.016525
v -0.042897 0.024033 -0.013747
v -0.050349 0.024271 -0.010652
v -0.037718 0.031798 -0.013747
v -0.039709 0.013148 -0.016525
v -0.046556 0.015415 -0.013747
v -0.050349 0.014803 -0.012153
v -0.050349 0.016671 -0.011918
v -0.032705 0.010829 -0.018856
v -0.038820 0.015663 -0.016525
v 0.026958 0.049973 -0.010534
v 0.020843 0.045138 -0.013747
v 0.023826 0.051599 -0.010534
v -0.029984 0.048149 -0.010534
v -0.018021 0.046383 -0.013747
v -0.015369 0.039561 -0.016525
v -0.032891 0.046135 -0.010534
v 0.029984 0.048149 -0.010534
v 0.033620 0.053987 -0.006900
v -0.036959 0.054299 -0.005582
v -0.033814 0.054299 -0.006676
v -0.045738 0.043771 -0.006900
v -0.026230 0.042120 -0.013747
v -0.026958 0.049973 -0.010534
v 0.026835 0.001720 -0.020733
v 0.026676 0.003434 -0.020733
v 0.034117 0.004392 -0.018856
v 0.002884 0.011449 -0.023092
v 0.014055 0.013451 -0.022147
v 0.013199 0.014324 -0.022147
v 0.019601 0.018757 -0.020733
v 0.016566 0.030709 -0.018856
v 0.014642 0.031709 -0.018856
v 0.017777 0.038500 -0.016525
v 0.015369 0.039561 -0.016525
v 0.018021 0.046383 -0.013747
v 0.034389 0.000000 -0.018856
v 0.050349 0.003228 -0.013061
v 0.050349 0.004032 -0.013027
v 0.050349 0.017898 -0.011731
v 0.050349 0.020315 -0.011362
v 0.036588 0.020498 -0.016525
v 0.037779 0.018116 -0.016525
v 0.042897 0.024033 -0.013747
v 0.025067 0.023990 -0.018856
v 0.023541 0.025546 -0.018856
v 0.030437 0.029127 -0.016525
v -0.002622 0.042465 -0.016525
v -0.006135 0.049493 -0.013747
v -0.003074 0.049787 -0.013747
v -0.000728 0.011797 -0.023092
v -0.001210 0.019610 -0.022147
v -0.002822 0.002701 -0.023566
v -0.008455 0.008092 -0.023092
v -0.007940 0.008616 -0.023092
v -0.050349 0.004032 -0.013027
v -0.050349 0.006482 -0.012923
v -0.013199 0.014324 -0.022147
v 0.005958 0.018688 -0.022147
v 0.004795 0.019033 -0.022147
v 0.008308 0.026060 -0.020733
v -0.033308 0.008715 -0.018856
v -0.002275 0.003192 -0.023566
v -0.007394 0.009108 -0.023092
v -0.006818 0.009563 -0.023092
v -0.050349 0.028208 -0.009732
v -0.049037 0.027472 -0.010534
v -0.050349 0.030655 -0.009077
v -0.017928 0.007234 -0.022147
v -0.037779 0.018116 -0.016525
v 0.050349 0.028208 -0.009732
v 0.049037 0.027472 -0.010534
v 0.050349 0.030655 -0.009077
v 0.050349 0.032561 -0.008567
v 0.042952 0.046611 -0.006900
v 0.039994 0.049268 -0.006900
v 0.012902 0.040466 -0.016525
v 0.008552 0.033943 -0.018856
v 0.010383 0.041212 -0.016525
v -0.017312 0.054299 -0.010499
v -0.017076 0.054299 -0.010534
v -0.017363 0.054299 -0.010490
v -0.020599 0.053021 -0.010534
v -0.026614 0.032784 -0.016525
v -0.010383 0.041212 -0.016525
v -0.007823 0.041796 -0.016525
v -0.050349 0.038125 -0.006900
v -0.050349 0.042447 -0.005291
v -0.043884 0.054299 -0.003011
v -0.038713 0.054299 -0.004972
v 0.006686 0.026540 -0.020733
v 0.005038 0.026916 -0.020733
v -0.000725 0.003875 -0.023566
v -0.000484 0.003914 -0.023566
v 0.011599 0.000000 -0.023092
v 0.003871 0.000000 -0.023566
v 0.038820 0.015663 -0.016525
v 0.048566 0.006252 -0.013747
v 0.050349 0.006482 -0.012923
v 0.047415 0.012405 -0.013747
v 0.048952 0.000000 -0.013747
v 0.015804 0.022168 -0.020733
v 0.014407 0.023135 -0.020733
v 0.018426 0.029589 -0.018856
v 0.018676 0.004887 -0.022147
v 0.026043 0.006814 -0.020733
v 0.020213 0.028351 -0.018856
v 0.004938 0.010696 -0.023092
v 0.001648 0.003570 -0.023566
v 0.004270 0.010990 -0.023092
v -0.010331 0.016591 -0.022147
v -0.014407 0.023135 -0.020733
v 0.002822 0.002701 -0.023566
v 0.002650 0.002875 -0.023566
v 0.007940 0.008616 -0.023092
v -0.050349 0.002473 -0.013071
v -0.048952 0.000000 -0.013747
v -0.050349 0.000000 -0.013106
v -0.026888 0.000000 -0.020733
v -0.003750 0.000980 -0.023566
v -0.011235 0.002939 -0.023092
v -0.003682 0.001219 -0.023566
v -0.001648 0.003570 -0.023566
v 0.000000 0.003945 -0.023566
v -0.000242 0.003938 -0.023566
v 0.000000 0.011821 -0.023092
v -0.011334 0.015897 -0.022147
v 0.003599 0.001452 -0.023566
v -0.005958 0.018688 -0.022147
v -0.004795 0.019033 -0.022147
v -0.002983 0.002515 -0.023566
v 0.003132 0.002318 -0.023566
v 0.002983 0.002515 -0.023566
v 0.009384 0.006948 -0.023092
v -0.011508 0.001481 -0.023092
v -0.018940 0.003681 -0.022147
v -0.011393 0.002214 -0.023092
v 0.011334 0.015897 -0.022147
v 0.010331 0.016591 -0.022147
v -0.023826 0.051599 -0.010534
v -0.026825 0.054299 -0.008539
v -0.025073 0.054299 -0.008965
v -0.025572 0.008467 -0.020733
v -0.003599 0.001452 -0.023566
v -0.010785 0.004352 -0.023092
v -0.003503 0.001679 -0.023566
v -0.018676 0.004887 -0.022147
v -0.050349 0.024849 -0.010534
v 0.033610 0.054299 -0.006740
v 0.033814 0.054299 -0.006676
v 0.043117 0.036349 -0.010534
v 0.031203 0.038438 -0.013747
v 0.024542 0.034423 -0.016525
v 0.028773 0.040358 -0.013747
v 0.050349 0.037278 -0.007172
v 0.050349 0.038125 -0.006900
v 0.032891 0.046135 -0.010534
v 0.036881 0.051729 -0.006900
v 0.000000 0.027401 -0.020733
v -0.002159 0.034975 -0.018856
v 0.000000 0.035044 -0.018856
v 0.012174 0.048319 -0.013747
v 0.013204 0.054299 -0.011016
v 0.013680 0.054299 -0.010969
v 0.009172 0.049003 -0.013747
v 0.033510 0.036366 -0.013747
v 0.035669 0.043940 -0.010534
v 0.028582 0.031016 -0.016525
v 0.026614 0.032784 -0.016525
v 0.029292 0.054299 -0.007939
v 0.033102 0.054299 -0.006900
v 0.023582 0.043715 -0.013747
v 0.017292 0.054235 -0.010534
v 0.017076 0.054299 -0.010534
v 0.017312 0.054299 -0.010499
v -0.009172 0.049003 -0.013747
v -0.013680 0.054299 -0.010969
v -0.029292 0.054299 -0.007939
v -0.022216 0.054299 -0.009573
v -0.021096 0.054299 -0.009812
v 0.001210 0.019610 -0.022147
v 0.001688 0.027347 -0.020733
v -0.005038 0.026916 -0.020733
v -0.003613 0.019301 -0.022147
v -0.047690 0.054299 -0.001257
v -0.044275 0.054299 -0.002856
v -0.011032 0.003653 -0.023092
v 0.012953 0.024012 -0.020733
v 0.006818 0.009563 -0.023092
v 0.002074 0.003331 -0.023566
v 0.006215 0.009980 -0.023092
v 0.017138 0.021112 -0.020733
v 0.012291 0.015140 -0.022147
v 0.032171 0.027121 -0.016525
v 0.050349 0.007487 -0.012852
v 0.050349 0.014803 -0.012153
v 0.050349 0.016671 -0.011918
v 0.050349 0.013173 -0.012358
v 0.050349 0.011737 -0.012499
v 0.050349 0.002473 -0.013071
v 0.050349 0.000000 -0.013106
v 0.016280 0.010529 -0.022147
v 0.015599 0.011550 -0.022147
v 0.022702 0.014682 -0.020733
v 0.001425 0.003668 -0.023566
v 0.011448 0.024793 -0.020733
v 0.009898 0.025477 -0.020733
v 0.003613 0.019301 -0.022147
v -0.050349 0.009787 -0.012690
v -0.050349 0.007487 -0.012852
v -0.003132 0.002318 -0.023566
v 0.003802 0.000739 -0.023566
v 0.011393 0.002214 -0.023092
v 0.000484 0.003914 -0.023566
v -0.002650 0.002875 -0.023566
v -0.006215 0.009980 -0.023092
v -0.014055 0.013451 -0.022147
v -0.009289 0.017219 -0.022147
v -0.003392 0.001901 -0.023566
v -0.009793 0.006333 -0.023092
v 0.000242 0.003938 -0.023566
v 0.008455 0.008092 -0.023092
v 0.019281 0.000000 -0.022147
v -0.021752 0.016106 -0.020733
v 0.011508 0.001481 -0.023092
v -0.003802 0.000739 -0.023566
v -0.003871 0.000000 -0.023566
v -0.050349 0.044515 -0.004461
v -0.050349 0.032561 -0.008567
v -0.040441 0.010581 -0.016525
v 0.050349 0.024849 -0.010534
v 0.050349 0.036759 -0.007326
v 0.020114 0.037286 -0.016525
v 0.002159 0.034975 -0.018856
v 0.044079 0.054299 -0.002936
v 0.044275 0.054299 -0.002856
v 0.043884 0.054299 -0.003011
v 0.038306 0.041570 -0.010534
v 0.026230 0.042120 -0.013747
v 0.022372 0.035925 -0.016525
v 0.008209 0.017779 -0.022147
v 0.007098 0.018269 -0.022147
v 0.002622 0.042465 -0.016525
v 0.000000 0.042549 -0.016525
v 0.003074 0.049787 -0.013747
v -0.005692 0.054299 -0.011612
v -0.003352 0.054299 -0.011713
v -0.006443 0.034424 -0.018856
v -0.004310 0.034768 -0.018856
v -0.001688 0.027347 -0.020733
v 0.027821 0.020598 -0.018856
v 0.026497 0.022338 -0.018856
v -0.044079 0.054299 -0.002936
v 0.019243 0.001233 -0.022147
v 0.032705 0.010829 -0.018856
v 0.035253 0.022798 -0.016525
v 0.033778 0.025009 -0.016525
v 0.050349 0.009787 -0.012690
v 0.031973 0.012900 -0.018856
v 0.025000 0.010087 -0.020733
v 0.031116 0.014921 -0.018856
v 0.047690 0.054299 -0.001257
v 0.029035 0.018778 -0.018856
v 0.018406 0.019975 -0.020733
v 0.000000 0.019650 -0.022147
v 0.000728 0.011797 -0.023092
v 0.009289 0.017219 -0.022147
v 0.005588 0.010359 -0.023092
v 0.003392 0.001901 -0.023566
v 0.003268 0.002113 -0.023566
v 0.009793 0.006333 -0.023092
v 0.018338 0.006072 -0.022147
v 0.025572 0.008467 -0.020733
v -0.011599 0.000000 -0.023092
v -0.002884 0.011449 -0.023092
v 0.006135 0.049493 -0.013747
v 0.007663 0.054299 -0.011500
v 0.006731 0.054299 -0.011567
v -0.003268 0.002113 -0.023566
v 0.001864 0.003457 -0.023566
v 0.010164 0.005694 -0.023092
v 0.000725 0.003875 -0.023566
v 0.008938 0.007535 -0.023092
v 0.017928 0.007234 -0.022147
v 0.016896 0.009466 -0.022147
v -0.000962 0.003821 -0.023566
v 0.023562 0.013200 -0.020733
v 0.007394 0.009108 -0.023092
v -0.018338 0.006072 -0.022147
v -0.026043 0.006814 -0.020733
v -0.050349 0.048182 -0.002988
v 0.050349 0.048182 -0.002988
v 0.050349 0.048490 -0.002856
v 0.010164 0.054299 -0.011321
v 0.038713 0.054299 -0.004972
v 0.036959 0.054299 -0.005582
v 0.020599 0.053021 -0.010534
v -0.012902 0.040466 -0.016525
v -0.008552 0.033943 -0.018856
v -0.010164 0.054299 -0.011321
v -0.007663 0.054299 -0.011500
v -0.005233 0.042213 -0.016525
v -0.003369 0.027184 -0.020733
v 0.010626 0.033329 -0.018856
v 0.015127 0.047444 -0.013747
v 0.007823 0.041796 -0.016525
v 0.026888 0.000000 -0.020733
v 0.011032 0.003653 -0.023092
v 0.024329 0.011666 -0.020733
v 0.050349 0.024271 -0.010652
v 0.012659 0.032583 -0.018856
v -0.050349 0.003228 -0.013061
v -0.002467 0.003039 -0.023566
v 0.002467 0.003039 -0.023566
v 0.002275 0.003192 -0.023566
v 0.003503 0.001679 -0.023566
v 0.001158 0.054299 -0.011744
v 0.003352 0.054299 -0.011713
v -0.001158 0.054299 -0.011744
v 0.017363 0.054299 -0.010490
v 0.021919 0.027002 -0.018856
v 0.022216 0.054299 -0.009573
v 0.025073 0.054299 -0.008965
v -0.006731 0.054299 -0.011567
v 0.020718 0.017466 -0.020733
v 0.004310 0.034768 -0.018856
v 0.006443 0.034424 -0.018856
v 0.003369 0.027184 -0.020733
v 0.021752 0.016106 -0.020733
v 0.014856 0.012525 -0.022147
v 0.026825 0.054299 -0.008539
v 0.021096 0.054299 -0.009812
v 0.000000 0.049886 -0.013747
v 0.000000 0.054299 -0.011761
v 0.005692 0.054299 -0.011612
v -0.013204 0.054299 -0.011016
v 0.030134 0.016882 -0.018856
v -0.006686 0.026540 -0.020733
v 0.005233 0.042213 -0.016525
v 0.050349 0.054299 0.000000
v 0.050349 0.000000 0.000000
v -0.050349 0.054299 0.000000
v -0.050349 0.000000 0.000000
# 512 vertices, 0 vertices normals

f 1 2 3
f 4 5 6
f 7 8 9
f 10 11 12
f 13 14 15
f 16 17 18
f 17 16 19
f 20 21 22
f 23 24 25
f 26 27 28
f 29 30 31
f 32 33 34
f 11 35 36
f 37 38 39
f 40 41 42
f 43 44 45
f 44 43 46
f 47 48 49
f 50 51 52
f 13 15 53
f 54 55 56
f 57 58 59
f 60 61 62
f 63 64 65
f 66 67 68
f 69 70 71
f 72 73 74
f 39 75 76
f 39 77 75
f 5 78 6
f 25 79 23
f 79 25 80
f 5 81 78
f 82 9 83
f 84 85 86
f 87 88 89
f 74 90 91
f 90 92 93
f 94 54 95
f 96 97 98
f 93 99 100
f 101 102 103
f 104 59 73
f 105 106 107
f 11 36 12
f 108 109 37
f 110 111 112
f 58 111 110
f 51 113 52
f 10 12 114
f 35 115 47
f 116 117 118
f 119 120 121
f 122 123 124
f 67 125 68
f 78 126 127
f 78 128 126
f 129 130 83
f 130 129 131
f 132 133 134
f 133 132 135
f 136 137 138
f 139 140 141
f 42 142 143
f 73 59 144
f 145 146 104
f 147 148 149
f 150 151 72
f 152 74 153
f 154 155 156
f 92 108 157
f 53 158 13
f 158 53 159
f 160 150 161
f 150 160 151
f 162 163 146
f 108 37 164
f 165 166 115
f 167 168 116
f 91 90 93
f 144 169 170
f 44 120 119
f 159 171 158
f 171 159 172
f 169 112 170
f 121 77 38
f 173 119 121
f 56 84 125
f 174 42 175
f 175 176 177
f 178 179 163
f 180 181 182
f 183 76 123
f 47 184 185
f 117 26 118
f 186 76 183
f 187 180 188
f 189 123 76
f 123 189 190
f 121 191 77
f 192 183 193
f 194 195 196
f 22 21 197
f 198 199 200
f 201 202 203
f 203 204 205
f 4 206 5
f 207 6 208
f 209 83 210
f 211 129 212
f 129 211 213
f 214 215 216
f 217 218 219
f 220 102 221
f 222 223 224
f 225 86 85
f 86 225 226
f 88 85 89
f 227 93 100
f 224 227 167
f 228 229 230
f 26 192 166
f 168 117 116
f 59 110 144
f 93 92 157
f 125 84 40
f 68 125 231
f 35 47 36
f 232 233 234
f 100 117 168
f 167 100 168
f 173 121 109
f 170 112 173
f 59 58 110
f 58 171 111
f 111 44 112
f 235 45 236
f 45 235 237
f 171 236 45
f 191 23 77
f 176 42 143
f 42 176 175
f 125 40 231
f 84 41 40
f 84 86 41
f 238 162 145
f 174 175 13
f 179 13 239
f 239 13 158
f 146 179 239
f 50 240 241
f 240 50 242
f 134 3 132
f 166 48 115
f 242 50 243
f 244 245 19
f 246 247 248
f 61 249 250
f 28 183 192
f 165 26 166
f 61 251 249
f 184 49 252
f 100 99 117
f 117 253 26
f 254 62 255
f 185 184 60
f 120 256 257
f 76 258 259
f 260 261 247
f 262 101 263
f 264 265 34
f 266 212 83
f 267 208 6
f 208 267 268
f 269 9 82
f 196 128 78
f 270 4 6
f 6 78 267
f 271 272 273
f 138 274 275
f 276 271 273
f 277 278 279
f 280 116 281
f 282 283 284
f 285 286 287
f 286 285 85
f 88 286 85
f 14 175 177
f 175 14 13
f 94 288 54
f 289 290 291
f 71 70 292
f 293 294 295
f 296 116 280
f 155 297 96
f 298 105 299
f 300 152 153
f 301 302 303
f 304 305 306
f 307 308 271
f 214 200 215
f 228 22 229
f 109 121 37
f 37 121 38
f 166 192 48
f 309 310 311
f 310 309 193
f 170 173 109
f 170 109 108
f 90 144 92
f 227 100 167
f 145 151 160
f 151 145 104
f 104 57 59
f 238 312 162
f 313 314 315
f 305 68 316
f 171 45 111
f 46 120 44
f 120 46 256
f 317 171 172
f 171 317 236
f 236 317 235
f 77 23 75
f 38 77 39
f 111 45 44
f 89 85 84
f 87 89 55
f 312 178 162
f 148 94 95
f 312 231 178
f 163 179 146
f 162 146 145
f 158 58 239
f 58 158 171
f 146 239 58
f 146 58 57
f 213 211 51
f 188 318 319
f 52 1 320
f 320 3 134
f 321 322 323
f 324 134 325
f 134 324 52
f 326 187 327
f 328 329 330
f 331 332 333
f 332 331 334
f 335 321 336
f 337 338 335
f 188 339 340
f 339 188 180
f 341 181 180
f 342 343 344
f 255 345 218
f 62 250 346
f 250 62 61
f 49 309 252
f 26 28 192
f 39 76 186
f 193 347 310
f 252 348 349
f 93 157 99
f 157 108 99
f 141 350 351
f 299 352 353
f 115 48 47
f 36 47 106
f 23 79 354
f 23 354 355
f 291 356 314
f 314 238 160
f 292 65 29
f 81 194 196
f 9 266 83
f 201 357 202
f 358 359 360
f 361 362 271
f 1 363 2
f 210 83 130
f 81 196 78
f 196 195 128
f 206 81 5
f 206 194 81
f 268 267 364
f 365 82 366
f 269 365 367
f 365 269 82
f 368 269 367
f 369 6 207
f 270 369 370
f 369 270 6
f 52 320 134
f 371 372 373
f 22 197 229
f 278 374 279
f 375 376 202
f 377 139 141
f 30 298 299
f 101 353 102
f 142 41 378
f 41 142 42
f 379 41 86
f 41 379 378
f 380 152 300
f 307 358 308
f 381 154 382
f 139 383 140
f 222 224 384
f 234 280 385
f 292 63 65
f 10 114 64
f 224 167 233
f 91 93 386
f 280 281 11
f 70 280 387
f 353 352 102
f 103 102 220
f 65 64 30
f 292 70 63
f 388 150 389
f 152 72 74
f 383 390 140
f 385 280 70
f 70 387 10
f 150 72 389
f 302 282 391
f 294 220 295
f 362 358 307
f 198 391 199
f 264 34 392
f 149 148 304
f 99 253 117
f 164 37 253
f 281 165 11
f 116 165 281
f 144 170 92
f 92 170 108
f 144 110 169
f 110 112 169
f 74 73 393
f 73 144 393
f 238 145 160
f 104 146 57
f 290 305 316
f 394 381 382
f 395 306 289
f 396 148 147
f 54 56 67
f 54 87 55
f 121 120 191
f 257 191 120
f 191 257 397
f 45 398 43
f 45 237 398
f 173 44 119
f 112 44 173
f 66 68 305
f 67 56 125
f 399 42 174
f 231 399 174
f 82 209 366
f 209 82 83
f 400 241 240
f 213 51 50
f 52 401 50
f 401 52 324
f 320 1 3
f 337 215 338
f 402 201 203
f 403 328 330
f 19 404 405
f 404 19 245
f 245 406 404
f 406 245 327
f 3 335 407
f 408 409 341
f 188 340 318
f 410 411 376
f 412 413 414
f 219 415 416
f 252 251 61
f 251 252 349
f 47 49 184
f 309 348 252
f 348 309 311
f 192 193 48
f 253 27 26
f 253 37 27
f 183 123 193
f 193 122 347
f 122 193 123
f 352 417 418
f 419 418 329
f 331 343 342
f 343 331 333
f 420 421 363
f 184 252 61
f 60 184 61
f 76 259 189
f 23 422 75
f 422 23 355
f 75 258 76
f 258 75 422
f 263 101 103
f 265 32 34
f 234 296 280
f 382 156 137
f 137 156 274
f 392 34 423
f 291 314 313
f 138 275 8
f 9 424 266
f 211 425 51
f 272 357 273
f 425 426 113
f 127 368 427
f 368 127 269
f 127 126 269
f 8 424 9
f 126 8 7
f 428 429 430
f 241 213 50
f 266 430 212
f 83 212 129
f 267 78 127
f 127 364 267
f 364 127 427
f 19 405 431
f 432 420 425
f 199 362 433
f 221 419 434
f 140 435 141
f 308 436 357
f 308 437 436
f 411 228 230
f 357 375 202
f 377 141 261
f 295 221 434
f 86 226 379
f 438 439 440
f 275 441 442
f 197 21 139
f 356 238 314
f 396 443 148
f 300 153 223
f 439 301 440
f 440 301 303
f 153 91 386
f 153 74 91
f 384 224 233
f 386 93 227
f 232 234 69
f 167 116 296
f 30 299 444
f 444 299 101
f 101 299 353
f 445 446 334
f 446 445 447
f 64 105 298
f 30 64 298
f 435 295 350
f 350 295 434
f 389 72 152
f 380 389 152
f 448 389 380
f 70 10 63
f 63 10 64
f 280 11 387
f 387 11 10
f 34 33 394
f 359 449 437
f 450 438 440
f 410 277 411
f 449 278 437
f 451 383 139
f 440 303 371
f 360 359 437
f 220 221 295
f 452 391 198
f 441 453 442
f 454 450 371
f 362 307 271
f 31 30 455
f 456 371 373
f 284 283 457
f 455 101 262
f 21 451 139
f 395 304 306
f 382 154 156
f 99 164 253
f 99 108 164
f 118 26 165
f 116 118 165
f 11 165 35
f 165 115 35
f 72 104 73
f 151 104 72
f 393 144 90
f 74 393 90
f 315 314 161
f 314 160 161
f 29 65 30
f 458 312 238
f 291 290 356
f 356 458 238
f 316 459 458
f 459 231 312
f 458 459 312
f 304 66 305
f 148 66 304
f 55 89 84
f 55 84 56
f 460 23 191
f 23 460 24
f 191 397 460
f 162 178 163
f 174 13 179
f 231 174 178
f 178 174 179
f 231 40 399
f 40 42 399
f 243 50 401
f 461 19 462
f 19 461 132
f 135 132 461
f 334 446 463
f 216 215 337
f 363 421 216
f 3 407 244
f 132 3 244
f 132 244 19
f 464 327 465
f 188 465 327
f 465 188 319
f 327 187 188
f 2 335 3
f 407 335 336
f 181 466 182
f 205 342 466
f 341 203 181
f 402 203 341
f 28 39 186
f 28 186 183
f 107 467 468
f 345 469 470
f 468 467 254
f 471 255 218
f 221 102 419
f 472 418 419
f 473 247 246
f 474 331 342
f 247 475 248
f 248 475 331
f 467 185 60
f 106 47 185
f 48 193 49
f 49 193 309
f 388 389 448
f 149 304 395
f 137 274 138
f 476 194 206
f 136 394 137
f 394 382 137
f 156 477 274
f 274 441 275
f 200 199 433
f 478 456 430
f 331 475 334
f 351 434 328
f 273 357 201
f 336 323 326
f 322 273 409
f 2 216 335
f 271 308 272
f 272 308 357
f 51 425 113
f 426 363 113
f 213 400 479
f 400 213 241
f 213 131 129
f 131 213 479
f 128 138 8
f 128 8 126
f 275 442 8
f 8 442 424
f 7 9 269
f 126 7 269
f 424 428 266
f 428 430 266
f 17 19 431
f 436 437 410
f 436 410 357
f 376 411 230
f 376 230 480
f 437 277 410
f 437 278 277
f 85 481 225
f 85 285 481
f 482 233 232
f 303 302 452
f 384 233 482
f 443 94 148
f 300 223 222
f 153 386 223
f 483 484 457
f 455 444 101
f 455 30 444
f 233 167 234
f 234 167 296
f 294 103 220
f 263 103 294
f 141 435 350
f 390 293 295
f 33 381 394
f 454 478 98
f 478 454 456
f 371 303 372
f 457 484 358
f 484 359 358
f 199 284 362
f 457 358 362
f 421 200 214
f 284 457 362
f 452 302 391
f 96 485 97
f 438 97 485
f 97 438 450
f 161 388 315
f 388 161 150
f 391 282 284
f 306 305 290
f 289 306 290
f 356 316 458
f 290 316 356
f 68 231 459
f 316 68 459
f 288 87 54
f 148 95 66
f 325 134 133
f 414 486 487
f 219 416 488
f 489 342 344
f 421 214 216
f 361 271 490
f 406 327 464
f 408 341 180
f 245 336 327
f 336 326 327
f 407 336 244
f 244 336 245
f 323 408 187
f 182 491 492
f 491 182 466
f 181 203 205
f 181 205 466
f 204 474 205
f 260 229 261
f 254 467 62
f 123 190 124
f 37 39 27
f 27 39 28
f 106 185 467
f 106 467 107
f 102 472 419
f 105 107 468
f 218 415 219
f 415 218 493
f 329 418 217
f 102 352 472
f 330 329 413
f 417 255 418
f 417 468 255
f 472 352 418
f 352 468 417
f 332 334 463
f 205 474 342
f 480 473 246
f 350 434 351
f 351 328 403
f 279 22 411
f 197 139 229
f 297 485 96
f 34 394 136
f 476 392 194
f 195 138 128
f 195 136 138
f 453 96 98
f 211 432 425
f 420 494 421
f 261 495 496
f 261 497 495
f 338 322 321
f 335 338 321
f 409 402 341
f 321 323 336
f 187 408 180
f 326 323 187
f 456 373 432
f 363 216 2
f 490 271 276
f 338 490 322
f 494 200 421
f 216 337 335
f 113 1 52
f 113 363 1
f 425 420 426
f 426 420 363
f 357 410 375
f 375 410 376
f 202 480 203
f 202 376 480
f 411 22 228
f 277 279 411
f 223 386 227
f 223 227 224
f 69 385 70
f 69 234 385
f 140 390 435
f 390 295 435
f 283 483 457
f 303 452 372
f 498 494 420
f 360 437 308
f 358 360 308
f 433 361 490
f 433 362 361
f 372 452 499
f 499 452 198
f 391 284 199
f 156 155 477
f 477 155 96
f 66 54 67
f 95 54 66
f 462 19 16
f 182 500 180
f 500 182 492
f 180 500 339
f 466 489 501
f 489 466 342
f 114 106 105
f 64 114 105
f 502 488 503
f 488 502 219
f 502 486 414
f 486 502 503
f 217 219 413
f 504 414 487
f 218 470 493
f 470 218 345
f 468 254 255
f 467 60 62
f 345 505 469
f 418 255 471
f 329 217 413
f 434 419 328
f 419 329 328
f 261 141 497
f 141 351 497
f 229 377 261
f 229 139 377
f 194 136 195
f 423 34 136
f 430 506 211
f 453 98 478
f 274 477 441
f 442 453 429
f 212 430 211
f 506 432 211
f 203 480 204
f 497 351 495
f 230 260 247
f 230 229 260
f 323 322 408
f 322 409 408
f 215 433 490
f 215 490 338
f 273 201 402
f 409 273 402
f 480 230 473
f 473 230 247
f 279 374 22
f 374 20 22
f 454 371 456
f 450 440 371
f 491 466 501
f 507 468 352
f 299 507 352
f 12 36 114
f 114 36 106
f 445 412 414
f 445 504 447
f 504 445 414
f 418 471 217
f 471 218 217
f 62 505 345
f 505 62 346
f 255 62 345
f 495 403 412
f 495 351 403
f 423 136 194
f 392 423 194
f 429 478 430
f 429 453 478
f 372 499 494
f 200 433 215
f 441 477 453
f 477 96 453
f 430 456 506
f 506 456 432
f 247 261 496
f 475 508 445
f 246 248 331
f 246 331 474
f 276 273 322
f 490 276 322
f 450 98 97
f 98 450 454
f 299 105 507
f 105 468 507
f 414 413 502
f 413 219 502
f 475 445 334
f 508 412 445
f 403 330 413
f 403 413 412
f 265 33 32
f 265 381 33
f 265 154 381
f 265 155 154
f 265 297 155
f 265 485 297
f 265 438 485
f 265 439 438
f 265 301 439
f 265 302 301
f 265 282 302
f 265 283 282
f 265 483 283
f 265 484 483
f 265 359 484
f 265 449 359
f 265 278 449
f 265 374 278
f 265 20 374
f 265 21 20
f 265 451 21
f 265 383 451
f 265 390 383
f 265 293 390
f 265 294 293
f 265 263 294
f 265 262 263
f 265 455 262
f 265 31 455
f 265 29 31
f 265 292 29
f 265 71 292
f 265 69 71
f 265 232 69
f 265 482 232
f 265 384 482
f 265 222 384
f 265 300 222
f 265 380 300
f 265 448 380
f 265 388 448
f 265 315 388
f 265 313 315
f 265 291 313
f 265 289 291
f 265 395 289
f 265 149 395
f 265 147 149
f 147 265 396
f 494 499 200
f 499 198 200
f 373 498 420
f 432 373 420
f 424 429 428
f 442 429 424
f 496 495 475
f 247 496 475
f 204 480 246
f 204 246 474
f 475 495 508
f 495 412 508
f 373 372 498
f 498 372 494
f 509 16 18
f 510 16 509
f 461 16 510
f 16 461 462
f 461 510 135
f 135 510 133
f 133 510 325
f 325 510 324
f 324 510 401
f 401 510 243
f 243 510 242
f 242 510 240
f 240 510 400
f 400 510 479
f 130 479 510
f 479 130 131
f 130 510 210
f 210 510 209
f 209 510 366
f 366 510 365
f 365 510 367
f 367 510 368
f 368 510 427
f 427 510 364
f 364 510 268
f 268 510 208
f 208 510 207
f 207 510 369
f 369 510 370
f 511 510 509
f 510 511 512
f 25 511 80
f 460 25 24
f 25 460 512
f 512 460 397
f 512 397 257
f 512 257 256
f 512 256 46
f 512 46 43
f 512 43 398
f 512 398 237
f 512 237 235
f 512 235 317
f 512 317 172
f 53 172 159
f 172 53 512
f 512 53 15
f 512 15 14
f 512 14 177
f 512 177 176
f 512 176 143
f 512 143 142
f 512 142 378
f 512 378 379
f 512 379 226
f 512 226 225
f 512 225 481
f 512 481 285
f 512 285 287
f 25 512 511
f 17 509 18
f 509 431 511
f 509 17 431
f 354 511 431
f 79 511 354
f 511 79 80
f 406 431 405
f 464 431 406
f 406 405 404
f 431 464 354
f 354 258 355
f 355 258 422
f 259 354 464
f 354 259 258
f 465 259 464
f 465 189 259
f 339 465 319
f 500 465 339
f 339 319 318
f 465 500 189
f 339 318 340
f 189 347 190
f 190 347 124
f 124 347 122
f 310 189 500
f 189 310 347
f 492 310 500
f 492 311 310
f 491 311 492
f 491 348 311
f 332 491 501
f 491 332 348
f 332 501 489
f 505 348 332
f 343 489 344
f 332 489 343
f 348 505 349
f 251 250 249
f 332 343 333
f 349 505 251
f 251 505 250
f 250 505 346
f 463 505 332
f 463 469 505
f 446 469 463
f 446 470 469
f 504 446 447
f 446 504 470
f 415 470 504
f 470 415 493
f 487 415 504
f 486 415 487
f 415 486 416
f 486 488 416
f 488 486 503
f 286 512 287
f 87 512 88
f 512 286 88
f 288 512 87
f 270 510 4
f 510 270 370
f 94 512 288
f 510 206 4
f 443 512 94
f 510 476 206
f 396 512 443
f 510 392 476
f 512 396 510
f 510 264 392
f 265 510 396
f 510 265 264
# 1020 faces, 0 coords texture

# End of File
