####
#
# OBJ File Generated by Meshlab
#
####
# Object right_foot_geom.obj
#
# Vertices: 512
# Faces: 1020
#
####
v -0.048856 -0.003132 -0.013747
v -0.048952 0.000000 -0.013747
v -0.041753 0.000000 -0.016525
v 0.000000 -0.042549 -0.016525
v -0.002622 -0.042465 -0.016525
v -0.002159 -0.034975 -0.018856
v 0.050349 -0.007487 -0.012852
v 0.048566 -0.006252 -0.013747
v 0.050349 -0.006482 -0.012923
v -0.004270 -0.010990 -0.023092
v -0.007098 -0.018269 -0.022147
v -0.004938 -0.010696 -0.023092
v 0.011235 -0.002939 -0.023092
v 0.003682 -0.001219 -0.023566
v 0.003750 -0.000980 -0.023566
v 0.037779 -0.018116 -0.016525
v 0.031116 -0.014921 -0.018856
v 0.038820 -0.015663 -0.016525
v 0.000000 -0.049886 -0.013747
v 0.001158 -0.054299 -0.011744
v 0.000000 -0.054299 -0.011761
v 0.003074 -0.049787 -0.013747
v 0.017777 -0.038500 -0.016525
v 0.016566 -0.030709 -0.018856
v 0.020114 -0.037286 -0.016525
v 0.047248 -0.030556 -0.010534
v 0.050349 -0.028208 -0.009732
v 0.050349 -0.030655 -0.009077
v 0.049037 -0.027472 -0.010534
v -0.029984 -0.048149 -0.010534
v -0.032891 -0.046135 -0.010534
v -0.028773 -0.040358 -0.013747
v -0.010785 -0.004352 -0.023092
v -0.011032 -0.003653 -0.023092
v -0.003682 -0.001219 -0.023566
v 0.001210 -0.019610 -0.022147
v 0.000000 -0.019650 -0.022147
v 0.000000 -0.011821 -0.023092
v -0.017777 -0.038500 -0.016525
v -0.023582 -0.043715 -0.013747
v -0.020114 -0.037286 -0.016525
v -0.050349 -0.024849 -0.010534
v -0.042897 -0.024033 -0.013747
v -0.049037 -0.027472 -0.010534
v -0.050349 -0.024271 -0.010652
v -0.017076 -0.054299 -0.010534
v -0.012174 -0.048319 -0.013747
v -0.013680 -0.054299 -0.010969
v -0.017292 -0.054235 -0.010534
v -0.009793 -0.006333 -0.023092
v -0.016280 -0.010529 -0.022147
v -0.010164 -0.005694 -0.023092
v -0.011393 -0.002214 -0.023092
v -0.018940 -0.003681 -0.022147
v -0.011508 -0.001481 -0.023092
v -0.047248 -0.030556 -0.010534
v -0.006135 -0.049493 -0.013747
v -0.009172 -0.049003 -0.013747
v -0.007823 -0.041796 -0.016525
v -0.004310 -0.034768 -0.018856
v -0.005038 -0.026916 -0.020733
v -0.003369 -0.027184 -0.020733
v -0.010331 -0.016591 -0.022147
v -0.015804 -0.022168 -0.020733
v -0.011334 -0.015897 -0.022147
v 0.039603 -0.029322 -0.013747
v 0.035253 -0.022798 -0.016525
v 0.041331 -0.026731 -0.013747
v -0.010164 -0.054299 -0.011321
v -0.013204 -0.054299 -0.011016
v 0.005588 -0.010359 -0.023092
v 0.002074 -0.003331 -0.023566
v 0.006215 -0.009980 -0.023092
v 0.038713 -0.054299 -0.004972
v 0.036881 -0.051729 -0.006900
v 0.043884 -0.054299 -0.003011
v -0.006215 -0.009980 -0.023092
v -0.006818 -0.009563 -0.023092
v -0.050349 -0.036759 -0.007326
v -0.050349 -0.032561 -0.008567
v -0.047427 -0.051468 -0.002856
v -0.050349 -0.051940 -0.001161
v -0.050349 -0.048490 -0.002856
v 0.002622 -0.042465 -0.016525
v 0.006135 -0.049493 -0.013747
v -0.008308 -0.026060 -0.020733
v -0.009898 -0.025477 -0.020733
v -0.042952 -0.046611 -0.006900
v -0.045738 -0.043771 -0.006900
v -0.040792 -0.039037 -0.010534
v -0.017138 -0.021112 -0.020733
v -0.021919 -0.027002 -0.018856
v -0.018406 -0.019975 -0.020733
v -0.032171 -0.027121 -0.016525
v -0.033778 -0.025009 -0.016525
v -0.027821 -0.020598 -0.018856
v 0.018406 -0.019975 -0.020733
v 0.012291 -0.015140 -0.022147
v 0.013199 -0.014324 -0.022147
v -0.048566 -0.006252 -0.013747
v -0.050349 -0.007487 -0.012852
v -0.050349 -0.006482 -0.012923
v 0.033510 -0.036366 -0.013747
v 0.030437 -0.029127 -0.016525
v 0.035685 -0.034149 -0.013747
v 0.026958 -0.049973 -0.010534
v 0.023582 -0.043715 -0.013747
v 0.026230 -0.042120 -0.013747
v 0.020213 -0.028351 -0.018856
v 0.015804 -0.022168 -0.020733
v 0.021919 -0.027002 -0.018856
v 0.045272 -0.033519 -0.010534
v 0.033779 -0.006566 -0.018856
v 0.026412 -0.005134 -0.020733
v 0.026676 -0.003434 -0.020733
v -0.045515 -0.018364 -0.013747
v -0.046556 -0.015415 -0.013747
v -0.039709 -0.013148 -0.016525
v -0.041424 -0.005332 -0.016525
v 0.029292 -0.054299 -0.007939
v 0.026825 -0.054299 -0.008539
v 0.033620 -0.053987 -0.006900
v 0.029984 -0.048149 -0.010534
v 0.050349 -0.002473 -0.013071
v 0.048952 0.000000 -0.013747
v 0.050349 0.000000 -0.013106
v 0.048856 -0.003132 -0.013747
v -0.044079 -0.054299 -0.002936
v -0.044275 -0.054299 -0.002856
v -0.039994 -0.049268 -0.006900
v -0.050349 -0.028208 -0.009732
v -0.050349 -0.030655 -0.009077
v -0.020213 -0.028351 -0.018856
v -0.024542 -0.034423 -0.016525
v -0.022702 -0.014682 -0.020733
v -0.023562 -0.013200 -0.020733
v -0.038306 -0.041570 -0.010534
v -0.018021 -0.046383 -0.013747
v -0.020843 -0.045138 -0.013747
v -0.015369 -0.039561 -0.016525
v -0.022372 -0.035925 -0.016525
v -0.026614 -0.032784 -0.016525
v -0.028582 -0.031016 -0.016525
v -0.023541 -0.025546 -0.018856
v -0.018676 -0.004887 -0.022147
v -0.026412 -0.005134 -0.020733
v -0.035685 -0.034149 -0.013747
v -0.037718 -0.031798 -0.013747
v -0.011235 -0.002939 -0.023092
v -0.041670 -0.002671 -0.016525
v -0.034320 -0.002200 -0.018856
v -0.003840 -0.000494 -0.023566
v -0.011577 -0.000742 -0.023092
v -0.003863 -0.000247 -0.023566
v -0.012291 -0.015140 -0.022147
v -0.007394 -0.009108 -0.023092
v 0.045515 -0.018364 -0.013747
v 0.027821 -0.020598 -0.018856
v 0.022702 -0.014682 -0.020733
v 0.029035 -0.018778 -0.018856
v 0.017363 -0.054299 -0.010490
v 0.020599 -0.053021 -0.010534
v 0.021096 -0.054299 -0.009812
v 0.017292 -0.054235 -0.010534
v 0.035669 -0.043940 -0.010534
v 0.028773 -0.040358 -0.013747
v 0.031203 -0.038438 -0.013747
v 0.023541 -0.025546 -0.018856
v 0.019601 -0.018757 -0.020733
v 0.026614 -0.032784 -0.016525
v -0.005233 -0.042213 -0.016525
v 0.026043 -0.006814 -0.020733
v 0.018676 -0.004887 -0.022147
v -0.026958 -0.049973 -0.010534
v 0.003352 -0.054299 -0.011713
v 0.005692 -0.054299 -0.011612
v -0.050349 -0.024144 -0.010678
v -0.044293 -0.021240 -0.013747
v -0.018426 -0.029589 -0.018856
v -0.016566 -0.030709 -0.018856
v -0.012953 -0.024012 -0.020733
v -0.039603 -0.029322 -0.013747
v -0.035253 -0.022798 -0.016525
v -0.033620 -0.053987 -0.006900
v -0.041331 -0.026731 -0.013747
v -0.048346 -0.040757 -0.006900
v -0.043117 -0.036349 -0.010534
v -0.014407 -0.023135 -0.020733
v -0.025000 -0.010087 -0.020733
v -0.032705 -0.010829 -0.018856
v -0.025572 -0.008467 -0.020733
v -0.026835 -0.001720 -0.020733
v -0.034389 0.000000 -0.018856
v -0.026888 0.000000 -0.020733
v -0.050349 -0.004032 -0.013027
v -0.048085 -0.009347 -0.013747
v -0.037779 -0.018116 -0.016525
v -0.038820 -0.015663 -0.016525
v -0.033308 -0.008715 -0.018856
v -0.030134 -0.016882 -0.018856
v -0.031116 -0.014921 -0.018856
v -0.050349 -0.014803 -0.012153
v -0.047415 -0.012405 -0.013747
v -0.050349 -0.013173 -0.012358
v -0.003802 -0.000739 -0.023566
v -0.019281 0.000000 -0.022147
v -0.013199 -0.014324 -0.022147
v -0.019601 -0.018757 -0.020733
v -0.014055 -0.013451 -0.022147
v -0.024329 -0.011666 -0.020733
v -0.003599 -0.001452 -0.023566
v -0.010495 -0.005033 -0.023092
v -0.003503 -0.001679 -0.023566
v 0.011032 -0.003653 -0.023092
v -0.050349 -0.009787 -0.012690
v -0.050349 -0.003228 -0.013061
v -0.050349 -0.002473 -0.013071
v 0.018940 -0.003681 -0.022147
v 0.019130 -0.002462 -0.022147
v 0.007098 -0.018269 -0.022147
v 0.004270 -0.010990 -0.023092
v 0.004938 -0.010696 -0.023092
v 0.010164 -0.005694 -0.023092
v 0.017446 -0.008366 -0.022147
v 0.016896 -0.009466 -0.022147
v 0.010495 -0.005033 -0.023092
v 0.007394 -0.009108 -0.023092
v 0.007940 -0.008616 -0.023092
v 0.032171 -0.027121 -0.016525
v 0.026497 -0.022338 -0.018856
v 0.032705 -0.010829 -0.018856
v 0.039709 -0.013148 -0.016525
v 0.025000 -0.010087 -0.020733
v 0.025572 -0.008467 -0.020733
v 0.022216 -0.054299 -0.009573
v 0.005233 -0.042213 -0.016525
v 0.050349 -0.032561 -0.008567
v 0.033814 -0.054299 -0.006676
v 0.033610 -0.054299 -0.006740
v 0.033102 -0.054299 -0.006900
v 0.047415 -0.012405 -0.013747
v 0.041013 -0.007973 -0.016525
v 0.048085 -0.009347 -0.013747
v 0.050349 -0.009787 -0.012690
v 0.044293 -0.021240 -0.013747
v 0.050349 -0.023952 -0.010712
v 0.050349 -0.024144 -0.010678
v 0.050349 -0.016671 -0.011918
v 0.046556 -0.015415 -0.013747
v 0.050349 -0.014803 -0.012153
v 0.024542 -0.034423 -0.016525
v 0.047427 -0.051468 -0.002856
v 0.050349 -0.048182 -0.002988
v 0.050349 -0.048490 -0.002856
v 0.045738 -0.043771 -0.006900
v 0.050349 -0.036759 -0.007326
v -0.001688 -0.027347 -0.020733
v -0.006443 -0.034424 -0.018856
v -0.008552 -0.033943 -0.018856
v 0.006443 -0.034424 -0.018856
v 0.004310 -0.034768 -0.018856
v 0.005038 -0.026916 -0.020733
v -0.005692 -0.054299 -0.011612
v -0.003074 -0.049787 -0.013747
v -0.006731 -0.054299 -0.011567
v 0.041670 -0.002671 -0.016525
v 0.034389 0.000000 -0.018856
v 0.041753 0.000000 -0.016525
v -0.023826 -0.051599 -0.010534
v -0.017363 -0.054299 -0.010490
v -0.020599 -0.053021 -0.010534
v -0.021096 -0.054299 -0.009812
v 0.047690 -0.054299 -0.001257
v 0.044275 -0.054299 -0.002856
v 0.036959 -0.054299 -0.005582
v 0.032891 -0.046135 -0.010534
v 0.050349 -0.024849 -0.010534
v -0.047690 -0.054299 -0.001257
v -0.050036 -0.054299 -0.000158
v -0.050349 -0.048182 -0.002988
v -0.050349 -0.044515 -0.004461
v -0.033779 -0.006566 -0.018856
v -0.034117 -0.004392 -0.018856
v -0.026676 -0.003434 -0.020733
v -0.029035 -0.018778 -0.018856
v -0.043884 -0.054299 -0.003011
v -0.036881 -0.051729 -0.006900
v -0.002417 -0.019495 -0.022147
v -0.036588 -0.020498 -0.016525
v -0.035669 -0.043940 -0.010534
v -0.031203 -0.038438 -0.013747
v -0.050349 -0.037278 -0.007172
v -0.050349 -0.038125 -0.006900
v -0.045272 -0.033519 -0.010534
v -0.033510 -0.036366 -0.013747
v -0.014642 -0.031709 -0.018856
v -0.012659 -0.032583 -0.018856
v -0.050349 0.000000 -0.013106
v -0.017446 -0.008366 -0.022147
v -0.017928 -0.007234 -0.022147
v -0.026497 -0.022338 -0.018856
v -0.009384 -0.006948 -0.023092
v -0.003132 -0.002318 -0.023566
v -0.014856 -0.012525 -0.022147
v -0.015599 -0.011550 -0.022147
v -0.008938 -0.007535 -0.023092
v -0.008455 -0.008092 -0.023092
v -0.019243 -0.001233 -0.022147
v -0.007940 -0.008616 -0.023092
v -0.000962 -0.003821 -0.023566
v -0.003584 -0.011242 -0.023092
v -0.001196 -0.003752 -0.023566
v -0.003750 -0.000980 -0.023566
v 0.011393 -0.002214 -0.023092
v 0.019281 0.000000 -0.022147
v 0.011577 -0.000742 -0.023092
v 0.011599 0.000000 -0.023092
v -0.003392 -0.001901 -0.023566
v 0.002159 -0.034975 -0.018856
v 0.000000 -0.035044 -0.018856
v 0.004795 -0.019033 -0.022147
v 0.002884 -0.011449 -0.023092
v 0.003584 -0.011242 -0.023092
v 0.003840 -0.000494 -0.023566
v 0.003863 -0.000247 -0.023566
v 0.012953 -0.024012 -0.020733
v 0.018426 -0.029589 -0.018856
v 0.041424 -0.005332 -0.016525
v 0.034117 -0.004392 -0.018856
v 0.033308 -0.008715 -0.018856
v -0.000728 -0.011797 -0.023092
v -0.001453 -0.011727 -0.023092
v -0.000242 -0.003938 -0.023566
v 0.034320 -0.002200 -0.018856
v 0.026835 -0.001720 -0.020733
v 0.012174 -0.048319 -0.013747
v 0.007823 -0.041796 -0.016525
v 0.010383 -0.041212 -0.016525
v 0.023826 -0.051599 -0.010534
v 0.025073 -0.054299 -0.008965
v 0.025067 -0.023990 -0.018856
v 0.028582 -0.031016 -0.016525
v 0.031973 -0.012900 -0.018856
v 0.036588 -0.020498 -0.016525
v 0.040792 -0.039037 -0.010534
v 0.012902 -0.040466 -0.016525
v 0.008552 -0.033943 -0.018856
v 0.042897 -0.024033 -0.013747
v 0.050349 -0.024271 -0.010652
v 0.040441 -0.010581 -0.016525
v 0.050349 -0.051940 -0.001161
v 0.039994 -0.049268 -0.006900
v 0.044079 -0.054299 -0.002936
v 0.038306 -0.041570 -0.010534
v 0.050349 -0.044515 -0.004461
v -0.010626 -0.033329 -0.018856
v -0.012902 -0.040466 -0.016525
v -0.001648 -0.003570 -0.023566
v 0.026888 0.000000 -0.020733
v -0.050349 -0.020315 -0.011362
v -0.050349 -0.017898 -0.011731
v -0.026230 -0.042120 -0.013747
v -0.010383 -0.041212 -0.016525
v -0.022216 -0.054299 -0.009573
v -0.017312 -0.054299 -0.010499
v 0.050036 -0.054299 -0.000158
v -0.050349 -0.054299 -0.000001
v -0.050349 -0.011737 -0.012499
v 0.002417 -0.019495 -0.022147
v 0.002173 -0.011611 -0.023092
v 0.003613 -0.019301 -0.022147
v 0.015127 -0.047444 -0.013747
v -0.038713 -0.054299 -0.004972
v -0.050349 -0.042447 -0.005291
v -0.041013 -0.007973 -0.016525
v -0.030437 -0.029127 -0.016525
v -0.025067 -0.023990 -0.018856
v -0.020718 -0.017466 -0.020733
v -0.016896 -0.009466 -0.022147
v -0.026043 -0.006814 -0.020733
v -0.018338 -0.006072 -0.022147
v 0.008455 -0.008092 -0.023092
v 0.002822 -0.002701 -0.023566
v 0.002983 -0.002515 -0.023566
v -0.019130 -0.002462 -0.022147
v -0.002074 -0.003331 -0.023566
v -0.002275 -0.003192 -0.023566
v -0.000484 -0.003914 -0.023566
v -0.002173 -0.011611 -0.023092
v -0.000725 -0.003875 -0.023566
v 0.019243 -0.001233 -0.022147
v -0.003871 0.000000 -0.023566
v -0.008209 -0.017779 -0.022147
v -0.009289 -0.017219 -0.022147
v 0.012659 -0.032583 -0.018856
v 0.014642 -0.031709 -0.018856
v 0.000962 -0.003821 -0.023566
v 0.001196 -0.003752 -0.023566
v 0.023562 -0.013200 -0.020733
v 0.030134 -0.016882 -0.018856
v 0.014856 -0.012525 -0.022147
v 0.020718 -0.017466 -0.020733
v 0.017928 -0.007234 -0.022147
v 0.021752 -0.016106 -0.020733
v 0.011508 -0.001481 -0.023092
v 0.003871 0.000000 -0.023566
v -0.003352 -0.054299 -0.011713
v 0.018021 -0.046383 -0.013747
v 0.017312 -0.054299 -0.010499
v 0.010164 -0.054299 -0.011321
v 0.009172 -0.049003 -0.013747
v 0.013204 -0.054299 -0.011016
v 0.020843 -0.045138 -0.013747
v 0.033778 -0.025009 -0.016525
v 0.042952 -0.046611 -0.006900
v 0.050349 -0.017898 -0.011731
v 0.050349 -0.013173 -0.012358
v 0.050349 -0.003228 -0.013061
v 0.050349 -0.054299 -0.000001
v 0.037718 -0.031798 -0.013747
v -0.050349 -0.023952 -0.010712
v -0.015127 -0.047444 -0.013747
v -0.007663 -0.054299 -0.011500
v 0.007663 -0.054299 -0.011500
v -0.001425 -0.003668 -0.023566
v -0.031973 -0.012900 -0.018856
v -0.050349 -0.016671 -0.011918
v 0.017138 -0.021112 -0.020733
v 0.000000 -0.027401 -0.020733
v 0.003369 -0.027184 -0.020733
v -0.004795 -0.019033 -0.022147
v -0.002884 -0.011449 -0.023092
v -0.040441 -0.010581 -0.016525
v -0.021752 -0.016106 -0.020733
v 0.008938 -0.007535 -0.023092
v -0.003268 -0.002113 -0.023566
v -0.001864 -0.003457 -0.023566
v -0.005588 -0.010359 -0.023092
v -0.001210 -0.019610 -0.022147
v 0.003802 -0.000739 -0.023566
v 0.016280 -0.010529 -0.022147
v 0.006818 -0.009563 -0.023092
v -0.006686 -0.026540 -0.020733
v 0.015599 -0.011550 -0.022147
v 0.014055 -0.013451 -0.022147
v 0.010785 -0.004352 -0.023092
v 0.002650 -0.002875 -0.023566
v 0.022372 -0.035925 -0.016525
v 0.017076 -0.054299 -0.010534
v 0.050349 -0.020315 -0.011362
v 0.050349 -0.037278 -0.007172
v 0.050349 -0.004032 -0.013027
v 0.050349 -0.042447 -0.005291
v 0.048346 -0.040757 -0.006900
v 0.043117 -0.036349 -0.010534
v -0.025073 -0.054299 -0.008965
v -0.033610 -0.054299 -0.006740
v -0.033814 -0.054299 -0.006676
v 0.006731 -0.054299 -0.011567
v 0.009898 -0.025477 -0.020733
v 0.008209 -0.017779 -0.022147
v 0.011448 -0.024793 -0.020733
v 0.014407 -0.023135 -0.020733
v 0.000728 -0.011797 -0.023092
v -0.011448 -0.024793 -0.020733
v -0.003613 -0.019301 -0.022147
v -0.002822 -0.002701 -0.023566
v 0.002275 -0.003192 -0.023566
v -0.011599 0.000000 -0.023092
v -0.005958 -0.018688 -0.022147
v 0.000725 -0.003875 -0.023566
v 0.009384 -0.006948 -0.023092
v 0.009793 -0.006333 -0.023092
v 0.001453 -0.011727 -0.023092
v 0.000242 -0.003938 -0.023566
v 0.000484 -0.003914 -0.023566
v 0.003268 -0.002113 -0.023566
v 0.003392 -0.001901 -0.023566
v 0.024329 -0.011666 -0.020733
v 0.018338 -0.006072 -0.022147
v 0.013680 -0.054299 -0.010969
v 0.015369 -0.039561 -0.016525
v 0.050349 -0.011737 -0.012499
v 0.050349 -0.038125 -0.006900
v -0.033102 -0.054299 -0.006900
v -0.036959 -0.054299 -0.005582
v 0.010331 -0.016591 -0.022147
v 0.011334 -0.015897 -0.022147
v -0.002983 -0.002515 -0.023566
v 0.000000 -0.003945 -0.023566
v -0.002650 -0.002875 -0.023566
v 0.003132 -0.002318 -0.023566
v 0.002467 -0.003039 -0.023566
v -0.002467 -0.003039 -0.023566
v 0.003503 -0.001679 -0.023566
v 0.003599 -0.001452 -0.023566
v 0.001648 -0.003570 -0.023566
v -0.029292 -0.054299 -0.007939
v -0.026825 -0.054299 -0.008539
v -0.001158 -0.054299 -0.011744
v 0.009289 -0.017219 -0.022147
v 0.008308 -0.026060 -0.020733
v 0.010626 -0.033329 -0.018856
v 0.001688 -0.027347 -0.020733
v 0.001425 -0.003668 -0.023566
v 0.006686 -0.026540 -0.020733
v 0.005958 -0.018688 -0.022147
v 0.001864 -0.003457 -0.023566
v 0.050349 0.000000 0.000000
v 0.050349 -0.054299 0.000000
v -0.050349 0.000000 0.000000
v -0.050349 -0.054299 0.000000
# 512 vertices, 0 vertices normals

f 1 2 3
f 4 5 6
f 7 8 9
f 10 11 12
f 13 14 15
f 16 17 18
f 19 20 21
f 20 19 22
f 23 24 25
f 26 27 28
f 27 26 29
f 30 31 32
f 33 34 35
f 36 37 38
f 39 40 41
f 42 43 44
f 43 42 45
f 46 47 48
f 47 46 49
f 50 51 52
f 53 54 55
f 56 44 43
f 57 58 59
f 60 61 62
f 63 64 65
f 66 67 68
f 69 70 58
f 71 72 73
f 74 75 76
f 77 63 78
f 56 79 80
f 81 82 83
f 22 84 85
f 86 87 11
f 88 89 90
f 91 92 93
f 94 95 96
f 97 98 99
f 100 101 102
f 103 104 105
f 106 107 108
f 109 110 111
f 112 66 68
f 113 114 115
f 116 117 118
f 100 1 119
f 120 121 106
f 122 123 75
f 124 125 126
f 125 124 127
f 81 128 129
f 128 81 130
f 131 56 132
f 56 131 44
f 133 134 92
f 135 136 51
f 137 88 90
f 88 81 89
f 138 139 39
f 140 138 39
f 41 40 141
f 142 143 144
f 145 146 54
f 147 148 94
f 34 149 35
f 119 150 151
f 152 153 154
f 78 155 156
f 157 16 18
f 158 159 160
f 161 162 163
f 162 161 164
f 165 166 167
f 168 97 169
f 167 170 103
f 171 59 60
f 172 173 114
f 139 174 40
f 175 22 176
f 123 108 166
f 177 43 45
f 43 177 178
f 44 131 42
f 179 133 64
f 180 179 181
f 95 182 183
f 91 93 155
f 174 184 30
f 182 185 183
f 89 186 90
f 90 186 187
f 181 179 188
f 39 41 180
f 189 190 191
f 192 193 194
f 195 100 102
f 100 195 1
f 196 100 119
f 197 116 198
f 190 118 199
f 200 201 136
f 202 203 117
f 203 202 204
f 205 55 152
f 192 194 206
f 207 208 209
f 181 188 63
f 210 201 189
f 211 33 35
f 212 33 213
f 214 14 13
f 101 196 215
f 196 101 100
f 1 216 217
f 1 195 216
f 114 218 219
f 220 221 222
f 223 224 225
f 224 223 226
f 98 227 228
f 229 230 158
f 18 231 232
f 231 233 234
f 163 162 235
f 85 84 236
f 237 26 28
f 111 97 168
f 238 239 122
f 239 240 122
f 241 242 243
f 243 7 244
f 7 243 8
f 245 246 247
f 246 245 157
f 248 249 250
f 166 251 167
f 252 253 254
f 253 252 255
f 256 26 237
f 6 60 257
f 258 259 61
f 5 60 6
f 260 261 262
f 263 57 264
f 57 263 265
f 5 171 60
f 266 267 268
f 127 268 125
f 269 174 139
f 175 20 22
f 270 271 49
f 271 270 272
f 273 274 252
f 275 75 74
f 123 166 276
f 27 29 277
f 278 279 81
f 89 280 281
f 280 81 83
f 81 280 89
f 56 80 132
f 198 116 118
f 197 198 201
f 282 283 284
f 96 183 285
f 286 130 287
f 130 286 128
f 133 92 64
f 134 142 92
f 62 61 288
f 285 289 200
f 90 187 148
f 92 142 144
f 32 290 291
f 292 186 293
f 186 292 294
f 187 294 148
f 290 137 295
f 296 180 181
f 297 296 87
f 180 41 179
f 179 134 133
f 217 2 1
f 2 217 298
f 150 3 193
f 148 182 94
f 185 43 289
f 299 300 33
f 301 94 96
f 302 50 303
f 304 305 306
f 65 64 155
f 207 209 307
f 284 283 192
f 308 206 153
f 151 150 193
f 209 304 306
f 156 155 309
f 210 189 300
f 34 145 149
f 98 228 99
f 310 311 312
f 149 53 313
f 13 15 314
f 315 316 317
f 50 52 318
f 319 4 320
f 321 322 323
f 316 324 325
f 24 326 327
f 328 113 329
f 231 234 330
f 331 332 333
f 334 335 267
f 242 113 328
f 113 115 329
f 236 84 261
f 336 337 338
f 235 339 340
f 339 235 162
f 168 169 341
f 103 342 104
f 17 233 343
f 67 160 344
f 103 170 342
f 345 103 105
f 336 338 346
f 338 337 347
f 122 275 238
f 275 122 75
f 348 277 29
f 277 348 349
f 241 350 242
f 165 167 103
f 351 252 254
f 76 352 353
f 352 76 75
f 165 103 354
f 112 68 26
f 253 255 355
f 59 259 258
f 356 357 297
f 236 261 337
f 5 57 171
f 57 59 171
f 10 12 358
f 335 315 359
f 127 328 266
f 116 360 361
f 141 362 134
f 59 47 363
f 272 364 271
f 46 365 49
f 273 252 366
f 115 219 335
f 82 279 367
f 279 82 81
f 203 204 368
f 368 196 203
f 196 368 215
f 198 118 190
f 117 203 118
f 31 290 32
f 188 179 64
f 188 64 63
f 369 370 371
f 372 336 346
f 259 356 86
f 356 297 86
f 200 289 201
f 289 197 201
f 148 294 182
f 185 56 43
f 362 32 134
f 291 295 142
f 287 130 290
f 373 286 287
f 147 90 148
f 94 182 95
f 187 186 294
f 79 294 292
f 294 79 56
f 295 90 147
f 137 90 295
f 374 89 281
f 89 374 186
f 186 374 293
f 31 287 290
f 130 81 88
f 375 196 119
f 375 119 282
f 143 295 376
f 144 376 377
f 208 301 378
f 295 147 376
f 51 379 52
f 135 285 136
f 92 144 93
f 93 144 208
f 65 155 78
f 63 65 78
f 191 380 381
f 155 207 309
f 38 331 333
f 382 383 384
f 209 208 304
f 306 305 302
f 302 51 50
f 305 51 302
f 33 300 34
f 35 149 313
f 385 308 153
f 386 78 387
f 213 33 211
f 114 173 218
f 388 389 390
f 335 391 315
f 154 153 392
f 393 181 394
f 23 395 396
f 323 397 398
f 348 247 349
f 247 348 245
f 160 399 400
f 104 230 229
f 169 401 402
f 267 335 359
f 233 403 234
f 158 404 159
f 405 324 316
f 316 325 406
f 114 219 115
f 266 334 267
f 127 266 268
f 328 334 266
f 22 19 4
f 407 263 264
f 162 164 408
f 75 123 276
f 120 122 240
f 122 120 106
f 409 164 161
f 410 411 412
f 162 408 413
f 339 162 413
f 170 111 168
f 251 111 170
f 66 229 414
f 229 158 414
f 352 165 415
f 75 165 352
f 170 168 342
f 342 168 104
f 416 249 248
f 249 416 157
f 157 18 232
f 245 16 157
f 26 348 29
f 68 344 348
f 18 343 231
f 157 232 249
f 243 328 8
f 250 241 417
f 241 250 249
f 418 127 124
f 366 351 419
f 351 366 252
f 252 352 415
f 353 252 274
f 252 353 352
f 415 165 354
f 112 420 66
f 116 421 360
f 58 47 59
f 70 47 58
f 47 70 48
f 139 40 39
f 140 39 297
f 49 138 422
f 357 140 297
f 47 422 357
f 423 69 58
f 423 57 265
f 57 423 58
f 365 270 49
f 410 424 411
f 411 337 336
f 425 10 358
f 201 198 426
f 426 198 190
f 361 117 116
f 117 361 427
f 117 427 202
f 129 278 81
f 408 23 413
f 110 98 428
f 164 336 372
f 22 4 84
f 319 320 429
f 430 369 262
f 60 258 61
f 60 59 258
f 389 431 432
f 86 297 87
f 421 178 177
f 178 421 116
f 178 116 197
f 291 290 295
f 142 295 143
f 141 134 179
f 41 141 179
f 174 30 362
f 362 30 32
f 30 287 31
f 184 287 30
f 130 88 290
f 290 88 137
f 119 1 150
f 150 1 3
f 433 203 375
f 203 196 375
f 144 377 208
f 143 376 144
f 182 294 185
f 294 56 185
f 305 135 51
f 301 96 378
f 285 200 136
f 95 183 96
f 434 135 305
f 51 136 379
f 155 93 207
f 93 208 207
f 64 91 155
f 64 92 91
f 283 119 151
f 55 385 153
f 432 431 311
f 307 209 306
f 212 299 33
f 299 52 379
f 52 299 212
f 136 201 210
f 199 282 146
f 145 54 149
f 149 54 53
f 382 384 435
f 54 385 55
f 436 50 318
f 437 438 386
f 212 318 52
f 318 212 213
f 257 288 439
f 405 440 324
f 189 191 300
f 54 146 385
f 399 441 225
f 73 72 442
f 438 63 77
f 303 50 436
f 443 259 86
f 311 11 10
f 12 393 438
f 68 67 344
f 67 158 160
f 18 17 343
f 344 400 17
f 160 159 399
f 344 17 16
f 158 402 404
f 404 444 159
f 104 341 230
f 230 402 158
f 402 444 404
f 169 99 445
f 403 446 214
f 446 14 214
f 441 223 225
f 343 233 231
f 316 406 317
f 227 447 228
f 328 329 334
f 242 330 113
f 330 114 113
f 218 405 219
f 8 328 127
f 243 242 328
f 85 236 337
f 411 85 337
f 339 413 106
f 339 121 340
f 121 339 106
f 122 106 123
f 107 448 108
f 409 449 164
f 413 23 107
f 106 108 123
f 414 158 67
f 66 414 67
f 249 232 241
f 246 157 450
f 450 157 416
f 26 68 348
f 112 256 451
f 256 112 26
f 344 245 348
f 245 344 16
f 232 231 330
f 241 232 350
f 8 452 9
f 452 8 127
f 415 345 255
f 252 415 255
f 255 453 355
f 453 255 454
f 345 420 455
f 255 345 454
f 454 345 455
f 75 276 165
f 276 166 165
f 105 104 229
f 345 105 420
f 452 127 418
f 47 49 422
f 422 140 357
f 259 357 356
f 47 357 363
f 296 39 180
f 297 39 296
f 264 57 5
f 4 264 5
f 364 269 271
f 269 364 456
f 457 458 184
f 176 85 459
f 85 176 22
f 85 424 459
f 424 85 411
f 201 426 189
f 426 190 189
f 118 203 433
f 118 433 199
f 460 461 462
f 327 326 463
f 462 461 326
f 338 347 346
f 37 257 439
f 429 257 37
f 36 464 369
f 4 6 320
f 320 6 429
f 429 6 257
f 87 465 393
f 288 61 466
f 134 291 142
f 32 291 134
f 40 362 141
f 40 174 362
f 376 94 301
f 376 147 94
f 377 376 301
f 377 301 208
f 178 289 43
f 289 178 197
f 304 378 305
f 208 378 304
f 309 207 307
f 309 307 467
f 442 72 468
f 300 381 34
f 381 145 34
f 55 153 152
f 313 53 205
f 153 469 392
f 470 11 311
f 77 78 386
f 445 382 435
f 438 77 386
f 12 438 358
f 370 471 397
f 380 146 145
f 381 380 145
f 151 193 192
f 283 151 192
f 385 192 308
f 308 192 206
f 441 472 473
f 87 296 465
f 394 181 63
f 331 288 332
f 332 389 388
f 257 62 288
f 257 60 62
f 61 443 431
f 61 259 443
f 474 475 476
f 322 397 323
f 344 160 400
f 159 441 399
f 104 168 341
f 97 99 169
f 159 444 441
f 473 477 478
f 173 13 218
f 314 440 405
f 314 15 440
f 17 479 233
f 403 214 480
f 479 403 233
f 234 403 480
f 330 234 172
f 330 172 114
f 329 115 335
f 329 335 334
f 336 449 481
f 449 336 164
f 412 336 481
f 336 412 411
f 408 372 482
f 448 327 251
f 164 372 408
f 372 346 482
f 232 330 350
f 350 330 242
f 417 241 483
f 483 243 244
f 243 483 241
f 454 451 484
f 451 454 112
f 453 454 484
f 354 103 345
f 415 354 345
f 105 229 420
f 420 229 66
f 457 184 485
f 363 357 259
f 59 363 259
f 19 264 4
f 486 373 287
f 486 184 458
f 184 486 287
f 299 210 300
f 210 379 136
f 379 210 299
f 251 327 109
f 167 251 170
f 337 260 347
f 337 261 260
f 461 222 71
f 463 487 110
f 110 488 98
f 321 370 322
f 84 319 261
f 84 4 319
f 465 296 181
f 465 181 393
f 183 185 289
f 183 289 285
f 378 434 305
f 96 285 135
f 53 55 205
f 153 206 469
f 489 302 303
f 38 333 490
f 228 447 383
f 156 309 491
f 472 492 473
f 472 384 492
f 332 288 389
f 475 38 490
f 311 10 425
f 435 384 472
f 78 156 387
f 442 468 227
f 227 468 493
f 282 119 283
f 284 192 385
f 146 284 385
f 146 282 284
f 300 191 381
f 380 199 146
f 401 435 444
f 402 401 444
f 394 63 438
f 393 394 438
f 494 156 491
f 11 87 393
f 11 393 12
f 288 466 389
f 446 495 496
f 439 288 331
f 222 497 71
f 17 399 479
f 400 399 17
f 230 169 402
f 341 169 230
f 225 479 399
f 479 225 224
f 224 226 446
f 218 314 405
f 218 13 314
f 479 224 403
f 224 446 403
f 480 214 173
f 173 214 13
f 106 413 107
f 107 25 448
f 455 420 112
f 454 455 112
f 422 138 140
f 271 269 139
f 485 174 498
f 174 485 184
f 499 269 456
f 269 499 174
f 500 407 264
f 500 19 21
f 19 500 264
f 482 395 23
f 408 482 23
f 428 98 97
f 251 109 111
f 108 251 166
f 108 448 251
f 98 442 227
f 488 442 98
f 396 326 24
f 461 71 501
f 221 497 222
f 347 502 503
f 23 396 24
f 220 222 461
f 327 110 109
f 327 463 110
f 504 37 36
f 36 38 464
f 38 439 331
f 37 439 38
f 378 96 434
f 434 96 135
f 333 332 388
f 323 398 505
f 306 302 489
f 464 38 475
f 226 495 446
f 358 438 437
f 312 311 425
f 433 375 199
f 199 375 282
f 190 199 191
f 191 199 380
f 474 476 370
f 99 228 382
f 99 382 445
f 370 476 471
f 443 86 431
f 431 470 311
f 369 474 370
f 491 309 467
f 219 405 316
f 335 219 391
f 234 480 172
f 172 480 173
f 396 462 326
f 107 23 25
f 49 271 138
f 271 139 138
f 499 498 174
f 262 321 506
f 346 395 482
f 487 71 73
f 487 73 442
f 323 505 221
f 221 505 497
f 346 347 503
f 504 36 369
f 326 461 501
f 326 487 463
f 111 428 97
f 111 110 428
f 261 430 262
f 319 504 261
f 395 502 460
f 460 220 461
f 467 307 489
f 307 306 489
f 387 156 494
f 478 226 223
f 226 478 495
f 228 383 382
f 169 445 401
f 445 435 401
f 390 389 310
f 431 86 470
f 470 86 11
f 432 311 310
f 389 432 310
f 466 61 431
f 466 431 389
f 321 323 507
f 370 397 322
f 446 496 14
f 219 316 391
f 391 316 315
f 25 24 327
f 25 327 448
f 395 460 396
f 396 460 462
f 326 501 487
f 501 71 487
f 71 497 508
f 502 321 507
f 260 262 347
f 506 321 502
f 346 503 395
f 464 475 474
f 369 464 474
f 507 323 220
f 220 323 221
f 444 472 441
f 444 435 472
f 324 406 325
f 440 406 324
f 15 406 440
f 14 406 15
f 496 406 14
f 495 406 496
f 478 406 495
f 477 406 478
f 492 406 477
f 384 406 492
f 383 406 384
f 447 406 383
f 493 406 447
f 468 406 493
f 72 406 468
f 508 406 72
f 497 406 508
f 505 406 497
f 398 406 505
f 397 406 398
f 471 406 397
f 476 406 471
f 475 406 476
f 490 406 475
f 333 406 490
f 388 406 333
f 390 406 388
f 310 406 390
f 312 406 310
f 425 406 312
f 358 406 425
f 437 406 358
f 386 406 437
f 387 406 386
f 494 406 387
f 491 406 494
f 467 406 491
f 489 406 467
f 303 406 489
f 436 406 303
f 318 406 436
f 213 406 318
f 211 406 213
f 35 406 211
f 313 406 35
f 205 406 313
f 152 406 205
f 154 406 152
f 406 154 392
f 110 487 488
f 487 442 488
f 71 508 72
f 319 429 504
f 504 429 37
f 503 502 395
f 371 370 321
f 227 493 447
f 473 478 223
f 441 473 223
f 261 504 430
f 430 504 369
f 262 371 321
f 262 369 371
f 502 507 220
f 502 220 460
f 473 492 477
f 347 506 502
f 347 262 506
f 509 124 126
f 509 418 124
f 509 452 418
f 509 9 452
f 509 7 9
f 509 244 7
f 509 483 244
f 509 417 483
f 509 250 417
f 509 248 250
f 509 416 248
f 509 450 416
f 509 246 450
f 349 246 509
f 246 349 247
f 509 277 349
f 509 27 277
f 509 28 27
f 509 237 28
f 509 256 237
f 509 451 256
f 509 484 451
f 509 453 484
f 509 355 453
f 509 253 355
f 351 253 509
f 253 351 254
f 510 351 509
f 351 510 419
f 511 510 509
f 510 511 512
f 217 511 298
f 216 511 217
f 195 511 216
f 102 511 195
f 101 511 102
f 215 511 101
f 368 511 215
f 204 511 368
f 202 511 204
f 427 511 202
f 361 511 427
f 360 511 361
f 421 511 360
f 45 421 177
f 421 45 511
f 42 511 45
f 131 511 42
f 132 511 131
f 80 511 132
f 79 511 80
f 292 511 79
f 293 511 292
f 374 511 293
f 281 511 374
f 280 511 281
f 82 280 83
f 280 82 511
f 512 82 367
f 82 512 511
f 125 509 126
f 267 509 268
f 509 125 268
f 359 509 267
f 2 511 3
f 511 2 298
f 315 509 359
f 511 193 3
f 317 509 315
f 511 194 193
f 406 509 317
f 511 206 194
f 509 406 511
f 511 469 206
f 392 511 406
f 511 392 469
f 279 512 367
f 512 278 510
f 512 279 278
f 273 510 278
f 366 510 273
f 510 366 419
f 286 278 129
f 373 278 286
f 286 129 128
f 278 373 273
f 273 76 274
f 274 76 353
f 74 273 373
f 273 74 76
f 486 74 373
f 486 275 74
f 498 486 458
f 499 486 498
f 498 458 457
f 486 499 275
f 498 457 485
f 275 120 238
f 238 120 239
f 239 120 240
f 121 275 499
f 275 121 120
f 456 121 499
f 456 340 121
f 364 340 456
f 364 235 340
f 70 364 272
f 364 70 235
f 70 272 270
f 412 235 70
f 46 270 365
f 70 270 46
f 235 412 163
f 161 449 409
f 70 46 48
f 163 412 161
f 161 412 449
f 449 412 481
f 69 412 70
f 69 410 412
f 423 410 69
f 423 424 410
f 263 423 265
f 423 263 424
f 176 424 263
f 424 176 459
f 407 176 263
f 500 176 407
f 176 500 175
f 500 20 175
f 20 500 21
# 1020 faces, 0 coords texture

# End of File
