####
#
# OBJ File Generated by Meshlab
#
####
# Object left_foot_geom.obj
#
# Vertices: 516
# Faces: 1028
#
####
v -0.016652 0.019995 -0.022072
v -0.021296 0.025572 -0.020167
v -0.019638 0.026850 -0.020167
v 0.051000 0.018644 -0.011724
v 0.050551 0.019880 -0.011724
v 0.051000 0.020057 -0.011455
v 0.005084 0.039978 -0.017802
v 0.002986 0.047151 -0.014984
v 0.005960 0.046871 -0.014984
v 0.044439 0.041452 -0.008037
v 0.041731 0.044142 -0.008037
v 0.046080 0.048741 -0.003935
v -0.025743 0.021154 -0.020167
v -0.031257 0.025685 -0.017802
v -0.024356 0.022718 -0.020167
v -0.034251 0.021591 -0.017802
v -0.040157 0.025314 -0.014984
v -0.038478 0.027769 -0.014984
v -0.010324 0.031564 -0.020167
v -0.012535 0.038323 -0.017802
v -0.008308 0.032146 -0.020167
v 0.051000 0.006399 -0.013144
v 0.047187 0.005920 -0.014984
v 0.051000 0.008495 -0.012986
v -0.017902 0.028022 -0.020167
v -0.021736 0.034022 -0.017802
v -0.019543 0.035311 -0.017802
v -0.005960 0.046871 -0.014984
v -0.006524 0.051299 -0.012833
v -0.004356 0.051299 -0.012930
v -0.051000 0.025912 -0.010078
v -0.049194 0.022994 -0.011724
v -0.051000 0.023838 -0.010608
v -0.047644 0.026017 -0.011724
v 0.018586 0.002332 -0.023506
v 0.011070 0.002097 -0.024466
v 0.018402 0.003487 -0.023506
v -0.044222 0.017391 -0.014984
v -0.050551 0.019880 -0.011724
v -0.034671 0.032340 -0.014984
v -0.041892 0.034425 -0.011724
v -0.039633 0.036969 -0.011724
v -0.005789 0.017698 -0.023506
v -0.009617 0.024127 -0.022072
v -0.008073 0.024679 -0.022072
v -0.010088 0.039029 -0.017802
v -0.006260 0.032600 -0.020167
v -0.045905 0.028937 -0.011724
v 0.003274 0.025745 -0.022072
v 0.001176 0.018572 -0.023506
v 0.001640 0.025898 -0.022072
v -0.035548 0.019412 -0.017802
v -0.041678 0.022759 -0.014984
v -0.003404 0.001591 -0.024946
v -0.009876 0.005393 -0.024466
v -0.003296 0.001800 -0.024946
v 0.017418 0.006850 -0.023506
v 0.010198 0.004766 -0.024466
v 0.016951 0.007923 -0.023506
v 0.049194 0.022994 -0.011724
v 0.051000 0.025912 -0.010078
v 0.051000 0.023838 -0.010608
v 0.047644 0.026017 -0.011724
v -0.014934 0.037466 -0.017802
v -0.017508 0.043926 -0.014984
v -0.014697 0.044931 -0.014984
v -0.001601 0.003381 -0.024946
v -0.005429 0.009809 -0.024466
v -0.004798 0.010129 -0.024466
v 0.043159 0.051299 -0.003935
v 0.048497 0.051299 -0.001323
v 0.009876 0.005393 -0.024466
v 0.016416 0.008965 -0.023506
v -0.036647 0.030114 -0.014984
v -0.051000 0.018644 -0.011724
v -0.051000 0.016755 -0.012033
v -0.051000 0.020057 -0.011455
v -0.037218 0.039369 -0.011724
v -0.049319 0.035593 -0.008037
v -0.051000 0.033137 -0.008037
v -0.051000 0.036806 -0.006696
v -0.035832 0.048989 -0.008037
v -0.037522 0.051299 -0.006181
v -0.035906 0.051299 -0.006768
v 0.018697 0.001168 -0.023506
v 0.026073 0.001629 -0.022072
v -0.015156 0.010938 -0.023506
v -0.022057 0.013905 -0.022072
v -0.021134 0.015252 -0.022072
v -0.029279 0.015988 -0.020167
v -0.028210 0.017783 -0.020167
v -0.025858 0.031048 -0.017802
v -0.010198 0.004766 -0.024466
v -0.016416 0.008965 -0.023506
v 0.032362 0.008253 -0.020167
v 0.031776 0.010255 -0.020167
v 0.039292 0.010020 -0.017802
v 0.024845 0.008018 -0.022072
v 0.024289 0.009552 -0.022072
v -0.031776 0.010255 -0.020167
v -0.037718 0.014833 -0.017802
v -0.031065 0.012217 -0.020167
v 0.006039 0.009452 -0.024466
v 0.005429 0.009809 -0.024466
v 0.009025 0.016307 -0.023506
v 0.037218 0.039369 -0.011724
v 0.038858 0.046658 -0.008037
v -0.038858 0.046658 -0.008037
v -0.042292 0.051299 -0.004292
v -0.042724 0.051299 -0.004121
v -0.023844 0.032599 -0.017802
v -0.027956 0.038220 -0.014984
v -0.025484 0.039889 -0.014984
v -0.022913 0.041400 -0.014984
v 0.010916 0.002784 -0.024466
v 0.018146 0.004627 -0.023506
v 0.046067 0.011748 -0.014984
v 0.051000 0.012150 -0.012636
v 0.046720 0.008852 -0.014984
v 0.051000 0.013007 -0.012546
v 0.001601 0.003381 -0.024946
v 0.001385 0.003473 -0.024946
v 0.004148 0.010408 -0.024466
v -0.045234 0.014599 -0.014984
v -0.051000 0.013692 -0.012454
v -0.051000 0.016460 -0.012081
v -0.036706 0.017157 -0.017802
v -0.043035 0.020115 -0.014984
v -0.046067 0.011748 -0.014984
v -0.051000 0.013007 -0.012546
v -0.051000 0.031654 -0.008491
v -0.051000 0.032149 -0.008349
v -0.029571 0.027584 -0.017802
v -0.027769 0.029374 -0.017802
v -0.044439 0.041452 -0.008037
v -0.041731 0.044142 -0.008037
v 0.025918 0.003252 -0.022072
v 0.025662 0.004862 -0.022072
v 0.032820 0.006218 -0.020167
v -0.031957 0.043692 -0.011724
v -0.018586 0.002332 -0.023506
v -0.026073 0.001629 -0.022072
v -0.025918 0.003252 -0.022072
v -0.015818 0.009971 -0.023506
v -0.013998 0.021910 -0.022072
v -0.016096 0.029082 -0.020167
v -0.000705 0.003670 -0.024946
v -0.002802 0.010843 -0.024466
v -0.002111 0.010996 -0.024466
v 0.008073 0.024679 -0.022072
v 0.006496 0.025134 -0.022072
v 0.010324 0.031564 -0.020167
v 0.000000 0.011194 -0.024466
v -0.000708 0.011172 -0.024466
v 0.000000 0.018609 -0.023506
v 0.027769 0.029374 -0.017802
v 0.021296 0.025572 -0.020167
v 0.025858 0.031048 -0.017802
v -0.029132 0.045598 -0.011724
v -0.008990 0.051299 -0.012648
v 0.000000 0.003736 -0.024946
v -0.000236 0.003729 -0.024946
v 0.025304 0.006453 -0.022072
v 0.017817 0.005750 -0.023506
v 0.033345 0.002084 -0.020167
v 0.033148 0.004159 -0.020167
v 0.040247 0.005050 -0.017802
v 0.033411 0.000000 -0.020167
v 0.040566 0.000000 -0.017802
v -0.005084 0.039978 -0.017802
v -0.008912 0.046407 -0.014984
v 0.004356 0.051299 -0.012930
v 0.006524 0.051299 -0.012833
v -0.006496 0.025134 -0.022072
v -0.004895 0.025490 -0.022072
v -0.023148 0.048865 -0.011724
v -0.026067 0.051299 -0.009762
v -0.024302 0.051299 -0.010210
v -0.026193 0.047325 -0.011724
v -0.032775 0.051299 -0.007904
v -0.032665 0.051127 -0.008037
v -0.047187 0.005920 -0.014984
v -0.051000 0.004557 -0.013228
v -0.051000 0.006399 -0.013144
v -0.051000 0.020454 -0.011366
v -0.043985 0.031743 -0.011724
v -0.046080 0.048741 -0.003935
v -0.049069 0.045772 -0.003935
v -0.032373 0.051299 -0.008037
v 0.047468 0.002966 -0.014984
v 0.051000 0.001740 -0.013312
v 0.047562 0.000000 -0.014984
v 0.051000 0.003187 -0.013290
v 0.045234 0.014599 -0.014984
v 0.051000 0.016755 -0.012033
v 0.051000 0.016460 -0.012081
v 0.044222 0.017391 -0.014984
v 0.006260 0.032600 -0.020167
v 0.004188 0.032927 -0.020167
v -0.007977 0.016838 -0.023506
v -0.011123 0.023480 -0.022072
v -0.017883 0.018916 -0.022072
v -0.022871 0.024193 -0.020167
v -0.039292 0.010020 -0.017802
v -0.025662 0.004862 -0.022072
v -0.008215 0.007663 -0.024466
v -0.013657 0.012738 -0.023506
v -0.007714 0.008161 -0.024466
v -0.000471 0.003707 -0.024946
v -0.001412 0.011107 -0.024466
v -0.022893 0.012501 -0.022072
v -0.030232 0.014131 -0.020167
v -0.010916 0.002784 -0.024466
v -0.018146 0.004627 -0.023506
v -0.017817 0.005750 -0.023506
v 0.004798 0.010129 -0.024466
v -0.002986 0.047151 -0.014984
v -0.002080 0.051299 -0.012998
v 0.000000 0.047244 -0.014984
v -0.003249 0.051299 -0.012980
v -0.007601 0.039581 -0.017802
v 0.039848 0.007550 -0.017802
v 0.031065 0.012217 -0.020167
v 0.023638 0.011048 -0.022072
v 0.030232 0.014131 -0.020167
v -0.004148 0.010408 -0.024466
v -0.003482 0.010647 -0.024466
v -0.010478 0.004121 -0.024466
v 0.024356 0.022718 -0.020167
v 0.022871 0.024193 -0.020167
v 0.000000 0.051299 -0.013029
v -0.020250 0.042748 -0.014984
v -0.032558 0.034439 -0.014984
v -0.014226 0.030029 -0.020167
v -0.012300 0.030857 -0.020167
v 0.002802 0.010843 -0.024466
v 0.002111 0.010996 -0.024466
v 0.003510 0.018279 -0.023506
v 0.040486 0.002530 -0.017802
v 0.051000 0.009663 -0.012897
v -0.009851 0.051299 -0.012583
v -0.011827 0.045759 -0.014984
v -0.017272 0.036460 -0.017802
v -0.040566 0.000000 -0.017802
v -0.047562 0.000000 -0.014984
v -0.047468 0.002966 -0.014984
v -0.024289 0.009552 -0.022072
v -0.023638 0.011048 -0.022072
v -0.032819 0.023684 -0.017802
v -0.027030 0.019507 -0.020167
v -0.046972 0.038599 -0.008037
v -0.051000 0.042484 -0.004414
v -0.051000 0.043597 -0.003935
v -0.051000 0.047572 -0.001977
v -0.051000 0.027850 -0.009582
v -0.016780 0.051299 -0.011756
v -0.013681 0.051299 -0.012171
v -0.020014 0.050213 -0.011724
v -0.021424 0.051299 -0.010850
v -0.020447 0.051299 -0.011067
v -0.048497 0.051299 -0.001323
v -0.043159 0.051299 -0.003935
v 0.003404 0.001591 -0.024946
v 0.003296 0.001800 -0.024946
v 0.022057 0.013905 -0.022072
v 0.015156 0.010938 -0.023506
v 0.021134 0.015252 -0.022072
v 0.051000 0.000000 -0.013338
v 0.051000 0.038977 -0.005830
v 0.046972 0.038599 -0.008037
v 0.051000 0.041908 -0.004661
v -0.011011 0.015055 -0.023506
v -0.015355 0.020993 -0.022072
v -0.006896 0.017302 -0.023506
v -0.011070 0.002097 -0.024466
v -0.030316 0.036402 -0.014984
v -0.034656 0.041612 -0.011724
v -0.017418 0.006850 -0.023506
v -0.040247 0.005050 -0.017802
v -0.046720 0.008852 -0.014984
v -0.025304 0.006453 -0.022072
v -0.003176 0.002002 -0.024946
v -0.009516 0.005998 -0.024466
v 0.011181 0.001403 -0.024466
v -0.012824 0.013565 -0.023506
v -0.011941 0.014338 -0.023506
v 0.010718 0.003459 -0.024466
v 0.010478 0.004121 -0.024466
v -0.004188 0.032927 -0.020167
v -0.002546 0.040215 -0.017802
v 0.036706 0.017157 -0.017802
v 0.043035 0.020115 -0.014984
v -0.004659 0.018024 -0.023506
v -0.003510 0.018279 -0.023506
v 0.008308 0.032146 -0.020167
v 0.012535 0.038323 -0.017802
v 0.020129 0.016540 -0.022072
v 0.019044 0.017763 -0.022072
v 0.051000 0.020454 -0.011366
v 0.045905 0.028937 -0.011724
v 0.038478 0.027769 -0.014984
v 0.043985 0.031743 -0.011724
v 0.012732 0.051299 -0.012282
v 0.008912 0.046407 -0.014984
v 0.009851 0.051299 -0.012583
v 0.029571 0.027584 -0.017802
v 0.032558 0.034439 -0.014984
v 0.016652 0.019995 -0.022072
v 0.015355 0.020993 -0.022072
v 0.019638 0.026850 -0.020167
v 0.000708 0.011172 -0.024466
v -0.003754 0.000235 -0.024946
v -0.011248 0.000703 -0.024466
v -0.003732 0.000468 -0.024946
v -0.018402 0.003487 -0.023506
v -0.026124 0.000000 -0.022072
v -0.033411 0.000000 -0.020167
v -0.033345 0.002084 -0.020167
v 0.002080 0.051299 -0.012998
v 0.002097 0.033122 -0.020167
v 0.000000 0.033188 -0.020167
v 0.000000 0.040296 -0.017802
v 0.041678 0.022759 -0.014984
v -0.028392 0.051299 -0.009171
v -0.039848 0.007550 -0.017802
v -0.051000 0.000000 -0.013338
v -0.051000 0.001740 -0.013312
v -0.051000 0.009663 -0.012897
v -0.051000 0.012150 -0.012636
v -0.012732 0.051299 -0.012282
v -0.016977 0.051299 -0.011724
v 0.026124 0.000000 -0.022072
v -0.002015 0.003155 -0.024946
v -0.006624 0.009056 -0.024466
v -0.006039 0.009452 -0.024466
v 0.001412 0.011107 -0.024466
v 0.051000 0.049516 -0.000954
v 0.051000 0.051299 -0.000015
v -0.020129 0.016540 -0.022072
v -0.019044 0.017763 -0.022072
v -0.038581 0.012451 -0.017802
v -0.018697 0.001168 -0.023506
v 0.002398 0.002878 -0.024946
v 0.002211 0.003022 -0.024946
v 0.006624 0.009056 -0.024466
v -0.024845 0.008018 -0.022072
v -0.014435 0.011862 -0.023506
v 0.001162 0.003553 -0.024946
v -0.001176 0.018572 -0.023506
v -0.003274 0.025745 -0.022072
v -0.001640 0.025898 -0.022072
v 0.000705 0.003670 -0.024946
v 0.007183 0.008625 -0.024466
v 0.003176 0.002002 -0.024946
v 0.009516 0.005998 -0.024466
v -0.002348 0.018462 -0.023506
v -0.002097 0.033122 -0.020167
v 0.000000 0.025950 -0.022072
v 0.023844 0.032599 -0.017802
v 0.021736 0.034022 -0.017802
v 0.025484 0.039889 -0.014984
v 0.004659 0.018024 -0.023506
v 0.003249 0.051299 -0.012980
v 0.037718 0.014833 -0.017802
v 0.038581 0.012451 -0.017802
v 0.003043 0.002195 -0.024946
v -0.003761 0.000000 -0.024946
v -0.033148 0.004159 -0.020167
v -0.032820 0.006218 -0.020167
v 0.035548 0.019412 -0.017802
v 0.034251 0.021591 -0.017802
v 0.014435 0.011862 -0.023506
v 0.003761 0.000000 -0.024946
v 0.003732 0.000468 -0.024946
v 0.003754 0.000235 -0.024946
v 0.003695 0.000700 -0.024946
v 0.003643 0.000929 -0.024946
v 0.003577 0.001154 -0.024946
v 0.003497 0.001375 -0.024946
v 0.002898 0.002381 -0.024946
v 0.002742 0.002558 -0.024946
v 0.002575 0.002724 -0.024946
v 0.002015 0.003155 -0.024946
v 0.001812 0.003274 -0.024946
v 0.000935 0.003618 -0.024946
v 0.000471 0.003707 -0.024946
v 0.000236 0.003729 -0.024946
v -0.000935 0.003618 -0.024946
v -0.001162 0.003553 -0.024946
v -0.001385 0.003473 -0.024946
v -0.001812 0.003274 -0.024946
v -0.002211 0.003022 -0.024946
v -0.002398 0.002878 -0.024946
v -0.002575 0.002724 -0.024946
v -0.002742 0.002558 -0.024946
v -0.002898 0.002381 -0.024946
v -0.003043 0.002195 -0.024946
v -0.003497 0.001375 -0.024946
v -0.003577 0.001154 -0.024946
v -0.003643 0.000929 -0.024946
v -0.003695 0.000700 -0.024946
v -0.010718 0.003459 -0.024466
v 0.051000 0.004557 -0.013228
v -0.016807 0.051299 -0.011752
v -0.040486 0.002530 -0.017802
v -0.051000 0.003187 -0.013290
v -0.051000 0.008495 -0.012986
v -0.051000 0.038977 -0.005830
v -0.051000 0.041908 -0.004661
v -0.051000 0.049516 -0.000954
v -0.051000 0.051299 -0.000015
v -0.013259 0.051299 -0.012227
v -0.009025 0.016307 -0.023506
v 0.011270 0.000000 -0.024466
v 0.011248 0.000703 -0.024466
v 0.042292 0.051299 -0.004292
v 0.042724 0.051299 -0.004121
v 0.035832 0.048989 -0.008037
v -0.012585 0.022739 -0.022072
v -0.010038 0.015712 -0.023506
v -0.007183 0.008625 -0.024466
v -0.016951 0.007923 -0.023506
v -0.032362 0.008253 -0.020167
v -0.008683 0.007135 -0.024466
v 0.015818 0.009971 -0.023506
v 0.002546 0.040215 -0.017802
v 0.022893 0.012501 -0.022072
v 0.004895 0.025490 -0.022072
v 0.017883 0.018916 -0.022072
v 0.012824 0.013565 -0.023506
v 0.007714 0.008161 -0.024466
v 0.011941 0.014338 -0.023506
v 0.051000 0.013692 -0.012454
v 0.002348 0.018462 -0.023506
v 0.018734 0.000000 -0.023506
v -0.009117 0.006579 -0.024466
v 0.030316 0.036402 -0.014984
v 0.027956 0.038220 -0.014984
v 0.031957 0.043692 -0.011724
v 0.039633 0.036969 -0.011724
v 0.009117 0.006579 -0.024466
v 0.013657 0.012738 -0.023506
v 0.008683 0.007135 -0.024466
v 0.025743 0.021154 -0.020167
v 0.037522 0.051299 -0.006181
v 0.019543 0.035311 -0.017802
v 0.022913 0.041400 -0.014984
v 0.049319 0.035593 -0.008037
v 0.051000 0.032149 -0.008349
v 0.051000 0.033137 -0.008037
v 0.051000 0.031654 -0.008491
v 0.034671 0.032340 -0.014984
v 0.032819 0.023684 -0.017802
v 0.027030 0.019507 -0.020167
v 0.031257 0.025685 -0.017802
v 0.007977 0.016838 -0.023506
v -0.011270 0.000000 -0.024466
v -0.018734 0.000000 -0.023506
v 0.051000 0.047572 -0.001977
v 0.049069 0.045772 -0.003935
v 0.051000 0.043597 -0.003935
v 0.010088 0.039029 -0.017802
v 0.017272 0.036460 -0.017802
v 0.020250 0.042748 -0.014984
v 0.021424 0.051299 -0.010850
v 0.020014 0.050213 -0.011724
v 0.020447 0.051299 -0.011067
v 0.032665 0.051127 -0.008037
v 0.032373 0.051299 -0.008037
v 0.032775 0.051299 -0.007904
v 0.005789 0.017698 -0.023506
v 0.051000 0.027850 -0.009582
v 0.041892 0.034425 -0.011724
v 0.036647 0.030114 -0.014984
v 0.040157 0.025314 -0.014984
v 0.012585 0.022739 -0.022072
v 0.011123 0.023480 -0.022072
v 0.014226 0.030029 -0.020167
v 0.012300 0.030857 -0.020167
v 0.009617 0.024127 -0.022072
v 0.017902 0.028022 -0.020167
v 0.016096 0.029082 -0.020167
v -0.011181 0.001403 -0.024466
v 0.013998 0.021910 -0.022072
v 0.003482 0.010647 -0.024466
v 0.008215 0.007663 -0.024466
v 0.029279 0.015988 -0.020167
v 0.023148 0.048865 -0.011724
v 0.026067 0.051299 -0.009762
v 0.026193 0.047325 -0.011724
v 0.024302 0.051299 -0.010210
v 0.035906 0.051299 -0.006768
v 0.014697 0.044931 -0.014984
v 0.016807 0.051299 -0.011752
v 0.017508 0.043926 -0.014984
v 0.016780 0.051299 -0.011756
v 0.051000 0.036806 -0.006696
v 0.051000 0.042484 -0.004414
v 0.011011 0.015055 -0.023506
v 0.011827 0.045759 -0.014984
v 0.014934 0.037466 -0.017802
v 0.010038 0.015712 -0.023506
v 0.007601 0.039581 -0.017802
v 0.008990 0.051299 -0.012648
v 0.029132 0.045598 -0.011724
v 0.034656 0.041612 -0.011724
v 0.028210 0.017783 -0.020167
v 0.013681 0.051299 -0.012171
v 0.013259 0.051299 -0.012227
v 0.028392 0.051299 -0.009171
v 0.016977 0.051299 -0.011724
v 0.006896 0.017302 -0.023506
v 0.051000 0.051299 0.000001
v 0.051000 0.000000 0.000001
v -0.051000 0.051299 0.000001
v -0.051000 0.000000 0.000001
# 516 vertices, 0 vertices normals

f 1 2 3
f 4 5 6
f 7 8 9
f 10 11 12
f 13 14 15
f 16 17 18
f 19 20 21
f 22 23 24
f 25 26 27
f 28 29 30
f 31 32 33
f 32 31 34
f 35 36 37
f 38 39 32
f 40 41 42
f 43 44 45
f 21 46 47
f 17 48 18
f 49 50 51
f 52 53 16
f 54 55 56
f 57 58 59
f 60 61 62
f 61 60 63
f 64 65 66
f 67 68 69
f 12 70 71
f 58 72 73
f 18 41 74
f 75 38 76
f 38 75 39
f 39 75 77
f 40 42 78
f 79 80 81
f 82 83 84
f 85 35 86
f 87 88 89
f 90 16 91
f 2 92 3
f 93 94 55
f 90 52 16
f 95 96 97
f 98 99 96
f 100 101 102
f 103 104 105
f 11 106 107
f 108 109 82
f 109 108 110
f 111 112 113
f 26 114 27
f 36 115 116
f 117 118 119
f 118 117 120
f 121 122 123
f 124 125 126
f 127 128 53
f 101 38 127
f 125 129 130
f 129 125 124
f 131 48 34
f 48 131 132
f 15 133 134
f 42 135 78
f 78 135 136
f 41 135 42
f 137 138 139
f 140 108 82
f 3 92 111
f 141 142 143
f 144 88 87
f 145 25 146
f 147 148 149
f 150 151 152
f 153 154 155
f 101 124 38
f 76 124 126
f 124 76 38
f 156 157 158
f 113 140 159
f 3 111 25
f 92 112 111
f 28 160 29
f 161 154 153
f 162 154 161
f 37 116 163
f 164 57 99
f 165 166 167
f 138 163 139
f 168 165 169
f 170 171 28
f 9 172 173
f 174 21 175
f 176 177 178
f 177 176 179
f 82 180 181
f 180 82 84
f 182 183 184
f 185 32 39
f 32 185 33
f 39 77 185
f 186 79 41
f 53 34 48
f 135 187 136
f 135 188 187
f 181 180 189
f 190 191 192
f 191 190 193
f 194 195 196
f 195 194 197
f 117 97 194
f 198 49 199
f 2 134 92
f 20 64 66
f 200 201 44
f 202 203 1
f 127 38 128
f 90 127 52
f 204 129 124
f 141 143 205
f 206 207 208
f 209 149 210
f 211 212 90
f 213 214 215
f 104 121 216
f 217 218 219
f 218 217 220
f 47 46 221
f 222 95 97
f 223 224 225
f 50 155 51
f 226 43 227
f 54 228 93
f 38 32 128
f 53 48 17
f 229 230 156
f 219 218 231
f 232 179 176
f 134 233 92
f 234 64 235
f 19 64 20
f 163 164 98
f 236 237 238
f 116 164 163
f 116 115 164
f 139 95 222
f 139 163 95
f 169 239 190
f 165 86 166
f 167 139 222
f 240 119 118
f 171 160 28
f 160 171 241
f 235 64 19
f 46 242 171
f 46 20 242
f 20 66 242
f 243 232 64
f 244 245 246
f 211 90 88
f 247 102 248
f 249 18 14
f 127 53 52
f 74 41 40
f 91 16 250
f 41 251 135
f 252 188 135
f 188 252 253
f 188 253 254
f 34 31 255
f 66 256 257
f 64 232 65
f 258 259 260
f 140 82 181
f 187 261 262
f 187 110 108
f 110 187 262
f 263 264 72
f 265 266 267
f 68 200 69
f 268 192 191
f 98 164 99
f 269 270 271
f 234 243 64
f 272 1 273
f 200 44 274
f 275 214 213
f 250 14 13
f 16 53 17
f 133 74 40
f 40 78 233
f 276 277 140
f 26 113 114
f 278 247 248
f 102 101 212
f 279 182 280
f 214 281 215
f 282 55 283
f 248 102 212
f 248 212 211
f 284 36 35
f 207 202 285
f 286 1 272
f 287 288 57
f 164 287 57
f 289 170 290
f 197 291 292
f 293 175 294
f 148 43 293
f 152 295 296
f 297 298 229
f 6 5 299
f 300 301 302
f 303 304 305
f 306 156 307
f 308 309 310
f 311 155 50
f 312 313 314
f 275 315 214
f 316 317 318
f 315 281 214
f 319 219 231
f 276 78 277
f 92 276 112
f 44 234 235
f 113 179 114
f 57 59 224
f 115 287 164
f 86 35 137
f 167 222 119
f 166 137 139
f 166 139 167
f 222 97 119
f 119 97 117
f 190 167 23
f 320 321 322
f 292 323 60
f 221 46 171
f 221 171 170
f 47 221 170
f 289 47 170
f 232 176 65
f 176 259 258
f 259 176 178
f 140 181 159
f 179 189 324
f 189 179 181
f 325 280 204
f 245 326 327
f 280 328 329
f 212 127 90
f 212 101 127
f 128 32 53
f 53 32 34
f 88 91 250
f 88 90 91
f 48 79 186
f 132 79 48
f 79 132 80
f 14 74 133
f 15 14 133
f 82 109 83
f 34 255 131
f 171 330 241
f 258 260 331
f 65 176 258
f 168 332 165
f 333 334 335
f 332 86 165
f 336 311 50
f 337 71 338
f 71 337 12
f 44 235 19
f 44 19 45
f 25 111 26
f 146 27 234
f 203 134 2
f 1 203 2
f 339 15 340
f 285 202 1
f 339 13 15
f 339 250 13
f 276 140 112
f 112 140 113
f 111 113 26
f 1 3 273
f 204 124 341
f 341 124 101
f 342 142 141
f 343 344 345
f 215 247 278
f 346 100 247
f 347 339 340
f 122 348 123
f 349 350 351
f 94 211 88
f 94 88 144
f 334 272 335
f 236 352 237
f 288 58 57
f 353 343 345
f 72 354 355
f 322 217 219
f 49 51 320
f 356 350 349
f 350 289 357
f 155 351 358
f 359 360 361
f 362 236 238
f 8 319 363
f 319 8 219
f 197 4 195
f 4 197 5
f 194 364 197
f 97 365 194
f 99 57 224
f 311 153 155
f 354 366 355
f 367 313 312
f 279 280 325
f 247 100 102
f 368 279 369
f 141 205 315
f 275 141 315
f 215 346 247
f 370 371 323
f 97 96 365
f 297 372 298
f 373 374 375
f 373 376 374
f 373 377 376
f 373 378 377
f 373 379 378
f 373 263 379
f 373 264 263
f 373 354 264
f 373 366 354
f 373 380 366
f 373 381 380
f 373 382 381
f 373 343 382
f 373 344 343
f 373 383 344
f 373 384 383
f 373 121 384
f 373 122 121
f 373 348 122
f 373 385 348
f 373 352 385
f 373 386 352
f 373 387 386
f 373 161 387
f 373 162 161
f 373 209 162
f 373 147 209
f 373 388 147
f 373 389 388
f 373 390 389
f 373 67 390
f 373 391 67
f 373 333 391
f 373 392 333
f 373 393 392
f 373 394 393
f 373 395 394
f 373 396 395
f 373 397 396
f 373 282 397
f 373 56 282
f 373 54 56
f 373 398 54
f 373 399 398
f 373 400 399
f 373 401 400
f 373 314 401
f 373 312 314
f 312 373 367
f 398 402 228
f 403 23 22
f 190 403 193
f 403 190 23
f 169 165 239
f 192 169 190
f 217 30 220
f 30 217 28
f 170 28 217
f 357 289 290
f 321 357 322
f 350 47 289
f 21 20 46
f 65 331 404
f 331 65 258
f 66 404 256
f 404 66 65
f 114 179 232
f 243 114 232
f 159 181 179
f 113 159 179
f 204 280 129
f 329 129 280
f 129 329 130
f 405 246 279
f 327 246 245
f 246 327 406
f 182 184 407
f 407 280 182
f 280 407 328
f 88 250 89
f 55 94 144
f 81 251 79
f 251 81 408
f 41 79 251
f 133 40 233
f 133 233 134
f 14 18 74
f 250 249 14
f 409 135 251
f 135 409 252
f 251 408 409
f 277 108 140
f 78 108 277
f 254 187 188
f 187 254 410
f 410 261 187
f 261 410 411
f 242 330 171
f 330 242 412
f 242 257 412
f 257 242 66
f 179 324 177
f 37 36 116
f 137 35 138
f 86 137 166
f 68 413 200
f 237 386 336
f 414 373 415
f 107 416 417
f 416 107 418
f 364 225 291
f 60 299 5
f 299 60 62
f 419 146 234
f 25 27 146
f 145 146 419
f 420 145 419
f 27 114 243
f 234 27 243
f 207 340 202
f 15 134 203
f 340 15 202
f 202 15 203
f 92 233 276
f 233 78 276
f 208 286 421
f 93 278 422
f 281 423 100
f 399 402 398
f 424 347 206
f 347 340 207
f 278 248 422
f 422 248 211
f 201 234 44
f 274 44 43
f 208 285 286
f 285 1 286
f 273 3 145
f 145 3 25
f 287 379 288
f 293 174 175
f 374 376 36
f 58 263 72
f 288 263 58
f 59 58 73
f 72 355 425
f 415 284 35
f 199 320 426
f 49 320 199
f 290 170 217
f 320 358 321
f 8 322 219
f 358 357 321
f 224 427 225
f 295 428 198
f 298 429 229
f 430 431 432
f 7 426 8
f 433 194 196
f 117 433 120
f 433 117 194
f 95 163 96
f 163 98 96
f 238 336 434
f 392 334 333
f 317 244 318
f 100 204 341
f 100 341 101
f 369 325 423
f 369 279 325
f 142 318 368
f 318 279 368
f 281 369 423
f 315 205 281
f 96 99 223
f 99 224 223
f 344 383 345
f 157 308 310
f 157 310 158
f 311 161 153
f 23 167 119
f 119 24 23
f 24 119 240
f 239 165 167
f 239 167 190
f 426 322 8
f 320 322 426
f 175 47 350
f 175 21 47
f 279 246 182
f 183 246 406
f 246 183 182
f 89 250 339
f 87 89 339
f 18 48 186
f 18 186 41
f 136 187 108
f 78 136 108
f 435 415 85
f 85 415 35
f 384 121 104
f 138 37 163
f 35 37 138
f 435 85 86
f 401 213 400
f 213 401 275
f 400 402 399
f 402 400 213
f 398 228 54
f 396 436 424
f 264 354 72
f 414 415 435
f 391 68 67
f 314 275 401
f 304 7 9
f 437 438 439
f 440 106 10
f 345 383 103
f 402 215 278
f 213 215 402
f 54 93 55
f 377 287 115
f 287 377 378
f 355 366 441
f 55 144 283
f 208 207 285
f 206 347 207
f 226 274 43
f 226 200 274
f 420 419 413
f 413 419 200
f 200 419 201
f 419 234 201
f 431 353 432
f 209 210 154
f 335 272 420
f 335 420 413
f 442 430 429
f 380 381 443
f 378 379 287
f 147 149 209
f 209 154 162
f 376 115 36
f 115 376 377
f 230 308 157
f 444 297 229
f 224 59 427
f 425 266 265
f 382 343 353
f 373 375 415
f 375 374 415
f 51 155 358
f 51 358 320
f 351 350 357
f 351 357 358
f 198 199 7
f 199 426 7
f 416 418 445
f 360 446 447
f 362 238 428
f 151 428 295
f 300 302 448
f 449 448 450
f 448 449 300
f 197 292 60
f 300 451 63
f 451 300 449
f 452 306 307
f 453 454 455
f 361 360 447
f 105 104 456
f 365 96 364
f 365 364 194
f 316 318 142
f 457 458 313
f 367 457 313
f 244 246 405
f 423 325 204
f 423 204 100
f 142 368 143
f 205 369 281
f 223 225 364
f 96 223 364
f 238 49 428
f 394 208 421
f 284 374 36
f 415 374 284
f 290 217 322
f 357 290 322
f 45 19 174
f 174 19 21
f 250 16 249
f 16 18 249
f 332 435 86
f 12 459 460
f 459 12 337
f 461 460 459
f 394 421 393
f 383 104 103
f 104 383 384
f 402 278 228
f 228 278 93
f 422 211 94
f 93 422 94
f 389 226 227
f 393 334 392
f 283 87 436
f 283 144 87
f 395 424 206
f 420 273 145
f 272 273 420
f 393 421 334
f 335 413 68
f 421 286 334
f 334 286 272
f 67 226 390
f 397 283 436
f 210 294 356
f 356 294 350
f 336 386 311
f 379 263 288
f 425 355 266
f 441 380 443
f 266 441 372
f 355 441 266
f 267 266 297
f 266 372 297
f 427 73 265
f 59 73 427
f 296 295 462
f 295 198 462
f 447 463 464
f 465 466 467
f 468 469 470
f 10 106 11
f 471 236 362
f 428 49 198
f 12 417 70
f 417 12 107
f 460 10 12
f 61 63 472
f 472 63 451
f 5 197 60
f 60 323 63
f 473 452 440
f 474 452 473
f 475 301 300
f 267 297 454
f 229 429 230
f 430 432 308
f 476 477 478
f 237 336 238
f 479 480 152
f 481 482 446
f 333 68 391
f 68 333 335
f 458 316 142
f 458 142 342
f 314 313 483
f 313 141 483
f 318 405 279
f 318 244 405
f 281 100 346
f 215 281 346
f 143 368 369
f 143 369 205
f 484 476 482
f 216 121 123
f 294 175 350
f 148 293 294
f 390 226 389
f 396 424 395
f 395 208 394
f 208 395 206
f 282 283 397
f 388 148 147
f 389 148 388
f 123 485 471
f 352 386 237
f 397 436 396
f 387 161 311
f 386 387 311
f 87 339 347
f 436 87 347
f 69 200 226
f 67 69 226
f 227 43 148
f 389 227 148
f 148 294 149
f 149 294 210
f 43 45 293
f 293 45 174
f 349 351 155
f 154 349 155
f 366 380 441
f 443 381 486
f 431 382 353
f 486 431 442
f 298 442 429
f 225 487 291
f 291 487 370
f 73 72 425
f 73 425 265
f 8 172 9
f 172 8 363
f 152 151 295
f 446 478 463
f 488 489 490
f 489 488 491
f 418 470 492
f 470 418 468
f 445 418 492
f 493 494 495
f 494 493 496
f 270 497 448
f 497 270 269
f 450 448 497
f 301 474 473
f 307 158 437
f 498 460 461
f 460 498 10
f 11 107 12
f 323 475 300
f 63 323 300
f 156 158 307
f 455 229 306
f 310 481 359
f 474 306 452
f 371 453 301
f 364 291 197
f 345 103 499
f 310 484 481
f 480 471 150
f 481 484 482
f 296 500 493
f 478 479 501
f 56 55 282
f 483 141 275
f 314 483 275
f 484 502 476
f 502 105 476
f 348 385 236
f 385 352 236
f 336 50 434
f 150 362 151
f 436 347 424
f 154 210 349
f 210 356 349
f 372 442 298
f 441 443 372
f 499 502 309
f 353 345 432
f 381 431 486
f 431 381 382
f 442 431 430
f 462 503 304
f 462 198 503
f 504 9 173
f 304 504 305
f 504 304 9
f 359 481 360
f 438 359 361
f 360 481 446
f 480 150 152
f 501 493 495
f 439 361 505
f 418 439 468
f 505 361 490
f 488 495 466
f 488 465 491
f 465 488 466
f 10 271 270
f 271 10 498
f 448 473 270
f 437 158 438
f 107 439 418
f 270 473 10
f 473 440 10
f 292 291 323
f 454 297 444
f 499 103 502
f 230 157 156
f 452 307 106
f 440 452 106
f 438 361 439
f 506 439 107
f 507 454 371
f 371 454 453
f 487 265 507
f 455 306 474
f 225 427 487
f 306 229 156
f 429 308 230
f 429 430 308
f 313 342 141
f 313 458 342
f 104 216 456
f 216 123 456
f 308 499 309
f 502 103 105
f 151 362 428
f 477 456 480
f 372 486 442
f 443 486 372
f 479 152 501
f 500 508 493
f 508 500 509
f 490 464 488
f 463 478 501
f 198 7 503
f 503 7 304
f 482 476 478
f 482 478 446
f 361 447 490
f 463 501 464
f 468 510 469
f 510 468 490
f 490 489 510
f 495 511 466
f 511 495 494
f 466 511 467
f 302 301 473
f 302 473 448
f 106 506 107
f 506 437 439
f 427 265 487
f 291 370 323
f 106 437 506
f 307 437 106
f 158 359 438
f 158 310 359
f 507 265 454
f 265 267 454
f 475 371 301
f 323 371 475
f 487 507 371
f 370 487 371
f 301 455 474
f 453 455 301
f 434 50 49
f 238 434 49
f 471 362 150
f 456 123 512
f 309 502 484
f 309 484 310
f 478 480 479
f 477 480 478
f 493 508 496
f 500 303 509
f 303 500 304
f 447 464 490
f 446 463 447
f 501 296 493
f 501 152 296
f 105 456 476
f 476 456 477
f 505 490 468
f 439 505 468
f 444 229 455
f 454 444 455
f 512 123 471
f 485 236 471
f 432 499 308
f 432 345 499
f 296 462 500
f 462 304 500
f 464 501 495
f 464 495 488
f 512 471 480
f 456 512 480
f 123 348 485
f 485 348 236
f 513 337 338
f 514 337 513
f 337 514 459
f 459 514 461
f 461 514 498
f 498 514 271
f 271 514 269
f 269 514 497
f 497 514 450
f 450 514 449
f 449 514 451
f 451 514 472
f 472 514 61
f 61 514 62
f 62 514 299
f 299 514 6
f 6 514 4
f 4 514 195
f 195 514 196
f 196 514 433
f 433 514 120
f 120 514 118
f 118 514 240
f 240 514 24
f 24 514 22
f 22 514 403
f 403 514 193
f 193 514 191
f 191 514 268
f 515 514 513
f 514 515 516
f 410 515 411
f 516 410 254
f 516 254 253
f 516 253 252
f 516 252 409
f 516 409 408
f 516 408 81
f 516 81 80
f 516 80 132
f 516 132 131
f 516 131 255
f 516 255 31
f 516 31 33
f 516 33 185
f 516 185 77
f 516 77 75
f 516 75 76
f 516 76 126
f 516 126 125
f 516 125 130
f 516 130 329
f 516 329 328
f 516 328 407
f 516 407 184
f 516 184 183
f 516 183 406
f 516 406 327
f 516 327 326
f 410 516 515
f 71 513 338
f 513 71 515
f 261 515 71
f 515 261 411
f 416 71 70
f 445 71 416
f 416 70 417
f 71 445 261
f 261 109 262
f 262 109 110
f 83 261 445
f 261 83 109
f 492 83 445
f 492 84 83
f 510 492 470
f 489 492 510
f 510 470 469
f 492 489 84
f 84 324 180
f 180 324 189
f 177 84 489
f 84 177 324
f 491 177 489
f 491 178 177
f 465 178 491
f 465 259 178
f 508 465 467
f 303 465 508
f 508 467 511
f 465 303 259
f 508 511 494
f 259 257 260
f 508 494 496
f 260 257 331
f 331 257 404
f 404 257 256
f 303 508 509
f 330 259 303
f 259 330 257
f 257 330 412
f 504 303 305
f 303 504 330
f 160 330 504
f 330 160 241
f 173 160 504
f 173 29 160
f 172 29 173
f 172 30 29
f 319 172 363
f 172 319 30
f 218 30 319
f 30 218 220
f 218 319 231
f 245 516 326
f 317 516 244
f 516 245 244
f 316 516 317
f 192 514 169
f 514 192 268
f 458 516 316
f 514 168 169
f 457 516 458
f 514 332 168
f 367 516 457
f 514 435 332
f 516 367 514
f 514 414 435
f 373 514 367
f 514 373 414
# 1028 faces, 0 coords texture

# End of File
