####
#
# OBJ File Generated by Meshlab
#
####
# Object right_foot_geom.obj
#
# Vertices: 516
# Faces: 1028
#
####
v -0.017902 -0.028022 -0.020167
v -0.019638 -0.026850 -0.020167
v -0.013998 -0.021910 -0.022072
v 0.051000 -0.012150 -0.012636
v 0.046720 -0.008852 -0.014984
v 0.051000 -0.009663 -0.012897
v 0.035906 -0.051299 -0.006768
v 0.035832 -0.048989 -0.008037
v 0.037522 -0.051299 -0.006181
v 0.001640 -0.025898 -0.022072
v 0.000000 -0.018609 -0.023506
v 0.001176 -0.018572 -0.023506
v 0.020447 -0.051299 -0.011067
v 0.020014 -0.050213 -0.011724
v 0.021424 -0.051299 -0.010850
v -0.035548 -0.019412 -0.017802
v -0.041678 -0.022759 -0.014984
v -0.036706 -0.017157 -0.017802
v -0.022871 -0.024193 -0.020167
v -0.027769 -0.029374 -0.017802
v -0.024356 -0.022718 -0.020167
v 0.018586 -0.002332 -0.023506
v 0.011070 -0.002097 -0.024466
v 0.011181 -0.001403 -0.024466
v 0.032775 -0.051299 -0.007904
v 0.032373 -0.051299 -0.008037
v 0.032665 -0.051127 -0.008037
v 0.005789 -0.017698 -0.023506
v 0.003482 -0.010647 -0.024466
v 0.004148 -0.010408 -0.024466
v -0.003497 -0.001375 -0.024946
v -0.010718 -0.003459 -0.024466
v -0.003577 -0.001154 -0.024946
v -0.004356 -0.051299 -0.012930
v -0.006524 -0.051299 -0.012833
v -0.005960 -0.046871 -0.014984
v -0.012585 -0.022739 -0.022072
v -0.016096 -0.029082 -0.020167
v -0.008308 -0.032146 -0.020167
v -0.012535 -0.038323 -0.017802
v -0.010324 -0.031564 -0.020167
v 0.039848 -0.007550 -0.017802
v 0.040247 -0.005050 -0.017802
v 0.037718 -0.014833 -0.017802
v 0.031065 -0.012217 -0.020167
v 0.031776 -0.010255 -0.020167
v -0.038581 -0.012451 -0.017802
v -0.039292 -0.010020 -0.017802
v -0.031776 -0.010255 -0.020167
v -0.013681 -0.051299 -0.012171
v -0.011827 -0.045759 -0.014984
v -0.013259 -0.051299 -0.012227
v -0.014697 -0.044931 -0.014984
v -0.022913 -0.041400 -0.014984
v -0.025484 -0.039889 -0.014984
v -0.021736 -0.034022 -0.017802
v 0.025484 -0.039889 -0.014984
v 0.021736 -0.034022 -0.017802
v 0.023844 -0.032599 -0.017802
v 0.023148 -0.048865 -0.011724
v 0.026067 -0.051299 -0.009762
v 0.024302 -0.051299 -0.010210
v 0.026193 -0.047325 -0.011724
v 0.029132 -0.045598 -0.011724
v -0.049194 -0.022994 -0.011724
v -0.050551 -0.019880 -0.011724
v -0.044222 -0.017391 -0.014984
v -0.022057 -0.013905 -0.022072
v -0.022893 -0.012501 -0.022072
v -0.016416 -0.008965 -0.023506
v 0.022913 -0.041400 -0.014984
v 0.031957 -0.043692 -0.011724
v -0.032373 -0.051299 -0.008037
v -0.032775 -0.051299 -0.007904
v -0.032665 -0.051127 -0.008037
v -0.021424 -0.051299 -0.010850
v -0.023148 -0.048865 -0.011724
v -0.020014 -0.050213 -0.011724
v -0.024302 -0.051299 -0.010210
v -0.014934 -0.037466 -0.017802
v -0.012300 -0.030857 -0.020167
v -0.029279 -0.015988 -0.020167
v -0.030232 -0.014131 -0.020167
v -0.017883 -0.018916 -0.022072
v -0.019044 -0.017763 -0.022072
v 0.008683 -0.007135 -0.024466
v 0.002742 -0.002558 -0.024946
v 0.002898 -0.002381 -0.024946
v -0.046972 -0.038599 -0.008037
v -0.051000 -0.041908 -0.004661
v -0.051000 -0.038977 -0.005830
v -0.026067 -0.051299 -0.009762
v -0.028392 -0.051299 -0.009171
v -0.026193 -0.047325 -0.011724
v -0.037218 -0.039369 -0.011724
v -0.044439 -0.041452 -0.008037
v -0.039633 -0.036969 -0.011724
v 0.024356 -0.022718 -0.020167
v 0.017883 -0.018916 -0.022072
v 0.019044 -0.017763 -0.022072
v 0.027956 -0.038220 -0.014984
v 0.051000 -0.004557 -0.013228
v 0.047468 -0.002966 -0.014984
v 0.051000 -0.003187 -0.013290
v 0.047187 -0.005920 -0.014984
v 0.045905 -0.028937 -0.011724
v 0.041678 -0.022759 -0.014984
v 0.047644 -0.026017 -0.011724
v 0.042292 -0.051299 -0.004292
v 0.040486 -0.002530 -0.017802
v 0.040566 0.000000 -0.017802
v -0.046720 -0.008852 -0.014984
v -0.047187 -0.005920 -0.014984
v -0.040247 -0.005050 -0.017802
v -0.005789 -0.017698 -0.023506
v -0.006896 -0.017302 -0.023506
v -0.004148 -0.010408 -0.024466
v 0.016652 -0.019995 -0.022072
v 0.012824 -0.013565 -0.023506
v 0.020129 -0.016540 -0.022072
v 0.014435 -0.011862 -0.023506
v 0.015156 -0.010938 -0.023506
v 0.011941 -0.014338 -0.023506
v -0.025304 -0.006453 -0.022072
v -0.032820 -0.006218 -0.020167
v -0.025662 -0.004862 -0.022072
v -0.003732 -0.000468 -0.024946
v -0.011248 -0.000703 -0.024466
v -0.003754 -0.000235 -0.024946
v 0.002802 -0.010843 -0.024466
v 0.001162 -0.003553 -0.024946
v -0.037522 -0.051299 -0.006181
v -0.042292 -0.051299 -0.004292
v -0.035832 -0.048989 -0.008037
v -0.016780 -0.051299 -0.011756
v -0.032558 -0.034439 -0.014984
v -0.034671 -0.032340 -0.014984
v -0.029571 -0.027584 -0.017802
v -0.025743 -0.021154 -0.020167
v -0.020129 -0.016540 -0.022072
v -0.028210 -0.017783 -0.020167
v -0.034251 -0.021591 -0.017802
v 0.007714 -0.008161 -0.024466
v 0.008215 -0.007663 -0.024466
v 0.002575 -0.002724 -0.024946
v 0.003274 -0.025745 -0.022072
v 0.002348 -0.018462 -0.023506
v 0.009025 -0.016307 -0.023506
v 0.005429 -0.009809 -0.024466
v 0.006039 -0.009452 -0.024466
v -0.038478 -0.027769 -0.014984
v -0.040157 -0.025314 -0.014984
v -0.037718 -0.014833 -0.017802
v -0.045905 -0.028937 -0.011724
v -0.047644 -0.026017 -0.011724
v -0.010038 -0.015712 -0.023506
v -0.015355 -0.020993 -0.022072
v -0.011011 -0.015055 -0.023506
v 0.051000 -0.001740 -0.013312
v 0.047562 0.000000 -0.014984
v 0.051000 -0.020057 -0.011455
v 0.050551 -0.019880 -0.011724
v 0.051000 -0.018644 -0.011724
v 0.017508 -0.043926 -0.014984
v 0.020250 -0.042748 -0.014984
v 0.032820 -0.006218 -0.020167
v -0.047468 -0.002966 -0.014984
v -0.047562 0.000000 -0.014984
v -0.040566 0.000000 -0.017802
v 0.033345 -0.002084 -0.020167
v 0.026073 -0.001629 -0.022072
v 0.026124 0.000000 -0.022072
v 0.011248 -0.000703 -0.024466
v 0.003761 0.000000 -0.024946
v 0.011270 0.000000 -0.024466
v 0.038581 -0.012451 -0.017802
v 0.030232 -0.014131 -0.020167
v 0.022893 -0.012501 -0.022072
v 0.023638 -0.011048 -0.022072
v 0.025858 -0.031048 -0.017802
v 0.030316 -0.036402 -0.014984
v 0.028210 -0.017783 -0.020167
v 0.022057 -0.013905 -0.022072
v 0.029279 -0.015988 -0.020167
v 0.006524 -0.051299 -0.012833
v 0.004356 -0.051299 -0.012930
v 0.005960 -0.046871 -0.014984
v 0.009117 -0.006579 -0.024466
v -0.026073 -0.001629 -0.022072
v -0.033345 -0.002084 -0.020167
v -0.026124 0.000000 -0.022072
v -0.025918 -0.003252 -0.022072
v -0.051000 -0.042484 -0.004414
v -0.049069 -0.045772 -0.003935
v -0.051000 -0.043597 -0.003935
v -0.031257 -0.025685 -0.017802
v -0.032819 -0.023684 -0.017802
v -0.020250 -0.042748 -0.014984
v -0.017272 -0.036460 -0.017802
v -0.027030 -0.019507 -0.020167
v -0.016652 -0.019995 -0.022072
v -0.011941 -0.014338 -0.023506
v -0.018402 -0.003487 -0.023506
v -0.018586 -0.002332 -0.023506
v -0.011270 0.000000 -0.024466
v -0.003761 0.000000 -0.024946
v -0.031957 -0.043692 -0.011724
v -0.027956 -0.038220 -0.014984
v -0.019543 -0.035311 -0.017802
v -0.002986 -0.047151 -0.014984
v -0.005084 -0.039978 -0.017802
v -0.011123 -0.023480 -0.022072
v -0.014226 -0.030029 -0.020167
v -0.041731 -0.044142 -0.008037
v -0.051000 -0.031654 -0.008491
v -0.051000 -0.027850 -0.009582
v -0.051000 -0.047572 -0.001977
v -0.046080 -0.048741 -0.003935
v -0.051000 -0.049516 -0.000954
v -0.038858 -0.046658 -0.008037
v -0.042724 -0.051299 -0.004121
v -0.035906 -0.051299 -0.006768
v -0.023844 -0.032599 -0.017802
v -0.034656 -0.041612 -0.011724
v 0.019543 -0.035311 -0.017802
v 0.017902 -0.028022 -0.020167
v 0.035548 -0.019412 -0.017802
v 0.036706 -0.017157 -0.017802
v -0.017508 -0.043926 -0.014984
v -0.016977 -0.051299 -0.011724
v -0.016807 -0.051299 -0.011752
v 0.041731 -0.044142 -0.008037
v 0.037218 -0.039369 -0.011724
v 0.044439 -0.041452 -0.008037
v 0.042724 -0.051299 -0.004121
v 0.046080 -0.048741 -0.003935
v 0.043159 -0.051299 -0.003935
v 0.038858 -0.046658 -0.008037
v 0.034251 -0.021591 -0.017802
v 0.033148 -0.004159 -0.020167
v -0.051000 -0.008495 -0.012986
v -0.051000 -0.009663 -0.012897
v -0.045234 -0.014599 -0.014984
v -0.046067 -0.011748 -0.014984
v 0.015818 -0.009971 -0.023506
v 0.016416 -0.008965 -0.023506
v 0.025918 -0.003252 -0.022072
v 0.025304 -0.006453 -0.022072
v 0.018146 -0.004627 -0.023506
v 0.018402 -0.003487 -0.023506
v 0.039292 -0.010020 -0.017802
v 0.032362 -0.008253 -0.020167
v 0.019638 -0.026850 -0.020167
v 0.015355 -0.020993 -0.022072
v 0.011011 -0.015055 -0.023506
v 0.002097 -0.033122 -0.020167
v 0.027769 -0.029374 -0.017802
v 0.021296 -0.025572 -0.020167
v 0.022871 -0.024193 -0.020167
v -0.008912 -0.046407 -0.014984
v -0.010088 -0.039029 -0.017802
v 0.012300 -0.030857 -0.020167
v 0.009617 -0.024127 -0.022072
v 0.014226 -0.030029 -0.020167
v 0.007601 -0.039581 -0.017802
v 0.006260 -0.032600 -0.020167
v 0.010088 -0.039029 -0.017802
v -0.009516 -0.005998 -0.024466
v -0.015818 -0.009971 -0.023506
v -0.009876 -0.005393 -0.024466
v -0.008683 -0.007135 -0.024466
v -0.009117 -0.006579 -0.024466
v -0.002898 -0.002381 -0.024946
v 0.009516 -0.005998 -0.024466
v 0.003176 -0.002002 -0.024946
v 0.009876 -0.005393 -0.024466
v -0.029132 -0.045598 -0.011724
v -0.043159 -0.051299 -0.003935
v -0.012824 -0.013565 -0.023506
v -0.016951 -0.007923 -0.023506
v -0.017418 -0.006850 -0.023506
v -0.010198 -0.004766 -0.024466
v -0.015156 -0.010938 -0.023506
v -0.041892 -0.034425 -0.011724
v -0.036647 -0.030114 -0.014984
v -0.031065 -0.012217 -0.020167
v -0.009617 -0.024127 -0.022072
v -0.030316 -0.036402 -0.014984
v -0.007977 -0.016838 -0.023506
v 0.002080 -0.051299 -0.012998
v 0.000000 -0.051299 -0.013029
v 0.000000 -0.047244 -0.014984
v 0.000000 -0.025950 -0.022072
v 0.000000 -0.040296 -0.017802
v -0.002546 -0.040215 -0.017802
v -0.002097 -0.033122 -0.020167
v 0.005084 -0.039978 -0.017802
v 0.008912 -0.046407 -0.014984
v -0.051000 -0.020454 -0.011366
v -0.051000 -0.023838 -0.010608
v -0.048497 -0.051299 -0.001323
v -0.051000 -0.051299 -0.000015
v 0.048497 -0.051299 -0.001323
v 0.000000 -0.033188 -0.020167
v -0.008990 -0.051299 -0.012648
v 0.008990 -0.051299 -0.012648
v 0.009851 -0.051299 -0.012583
v 0.028392 -0.051299 -0.009171
v 0.034656 -0.041612 -0.011724
v 0.051000 -0.020454 -0.011366
v 0.049069 -0.045772 -0.003935
v 0.045234 -0.014599 -0.014984
v 0.025662 -0.004862 -0.022072
v 0.046067 -0.011748 -0.014984
v 0.033411 0.000000 -0.020167
v -0.039848 -0.007550 -0.017802
v -0.051000 -0.020057 -0.011455
v -0.007714 -0.008161 -0.024466
v -0.002742 -0.002558 -0.024946
v -0.002575 -0.002724 -0.024946
v -0.008215 -0.007663 -0.024466
v 0.027030 -0.019507 -0.020167
v 0.021134 -0.015252 -0.022072
v 0.024289 -0.009552 -0.022072
v 0.024845 -0.008018 -0.022072
v -0.003695 -0.000700 -0.024946
v -0.011070 -0.002097 -0.024466
v 0.017418 -0.006850 -0.023506
v 0.010478 -0.004121 -0.024466
v 0.010718 -0.003459 -0.024466
v 0.051000 -0.016460 -0.012081
v 0.051000 -0.013692 -0.012454
v 0.013998 -0.021910 -0.022072
v 0.010038 -0.015712 -0.023506
v 0.032558 -0.034439 -0.014984
v 0.025743 -0.021154 -0.020167
v 0.036647 -0.030114 -0.014984
v 0.029571 -0.027584 -0.017802
v 0.031257 -0.025685 -0.017802
v 0.038478 -0.027769 -0.014984
v 0.051000 -0.042484 -0.004414
v 0.051000 -0.043597 -0.003935
v 0.051000 0.000000 -0.013338
v 0.017272 -0.036460 -0.017802
v 0.004188 -0.032927 -0.020167
v 0.007183 -0.008625 -0.024466
v 0.002398 -0.002878 -0.024946
v 0.003043 -0.002195 -0.024946
v 0.003754 -0.000235 -0.024946
v 0.003732 -0.000468 -0.024946
v -0.010916 -0.002784 -0.024466
v -0.003643 -0.000929 -0.024946
v 0.010916 -0.002784 -0.024466
v 0.016951 -0.007923 -0.023506
v 0.010198 -0.004766 -0.024466
v -0.024845 -0.008018 -0.022072
v -0.017817 -0.005750 -0.023506
v -0.018146 -0.004627 -0.023506
v -0.033148 -0.004159 -0.020167
v -0.014435 -0.011862 -0.023506
v -0.013657 -0.012738 -0.023506
v -0.021134 -0.015252 -0.022072
v -0.051000 -0.025912 -0.010078
v -0.043035 -0.020115 -0.014984
v -0.024289 -0.009552 -0.022072
v -0.025858 -0.031048 -0.017802
v -0.004798 -0.010129 -0.024466
v -0.006260 -0.032600 -0.020167
v -0.004188 -0.032927 -0.020167
v -0.004895 -0.025490 -0.022072
v -0.000471 -0.003707 -0.024946
v -0.002111 -0.010996 -0.024466
v -0.000705 -0.003670 -0.024946
v -0.006624 -0.009056 -0.024466
v -0.007183 -0.008625 -0.024466
v -0.002398 -0.002878 -0.024946
v -0.002348 -0.018462 -0.023506
v -0.003510 -0.018279 -0.023506
v -0.001412 -0.011107 -0.024466
v 0.002986 -0.047151 -0.014984
v 0.003249 -0.051299 -0.012980
v -0.007601 -0.039581 -0.017802
v -0.049319 -0.035593 -0.008037
v -0.051000 -0.036806 -0.006696
v -0.051000 -0.033137 -0.008037
v -0.051000 -0.032149 -0.008349
v -0.043985 -0.031743 -0.011724
v 0.051000 -0.049516 -0.000954
v 0.051000 -0.051299 -0.000015
v 0.002546 -0.040215 -0.017802
v 0.049194 -0.022994 -0.011724
v 0.044222 -0.017391 -0.014984
v 0.051000 -0.047572 -0.001977
v 0.003695 -0.000700 -0.024946
v 0.003643 -0.000929 -0.024946
v 0.003577 -0.001154 -0.024946
v 0.003497 -0.001375 -0.024946
v 0.003404 -0.001591 -0.024946
v 0.003296 -0.001800 -0.024946
v 0.002211 -0.003022 -0.024946
v 0.002015 -0.003155 -0.024946
v 0.001812 -0.003274 -0.024946
v 0.001601 -0.003381 -0.024946
v 0.001385 -0.003473 -0.024946
v 0.000935 -0.003618 -0.024946
v 0.000705 -0.003670 -0.024946
v 0.000471 -0.003707 -0.024946
v 0.000236 -0.003729 -0.024946
v 0.000000 -0.003736 -0.024946
v -0.000236 -0.003729 -0.024946
v -0.000935 -0.003618 -0.024946
v -0.001162 -0.003553 -0.024946
v -0.001385 -0.003473 -0.024946
v -0.001601 -0.003381 -0.024946
v -0.001812 -0.003274 -0.024946
v -0.002015 -0.003155 -0.024946
v -0.002211 -0.003022 -0.024946
v -0.003043 -0.002195 -0.024946
v -0.003176 -0.002002 -0.024946
v -0.003296 -0.001800 -0.024946
v -0.003404 -0.001591 -0.024946
v -0.051000 -0.001740 -0.013312
v -0.051000 0.000000 -0.013338
v -0.051000 -0.016755 -0.012033
v -0.051000 -0.016460 -0.012081
v 0.018697 -0.001168 -0.023506
v 0.013657 -0.012738 -0.023506
v -0.011181 -0.001403 -0.024466
v 0.008073 -0.024679 -0.022072
v -0.001640 -0.025898 -0.022072
v -0.001176 -0.018572 -0.023506
v -0.002080 -0.051299 -0.012998
v 0.014697 -0.044931 -0.014984
v 0.012535 -0.038323 -0.017802
v 0.014934 -0.037466 -0.017802
v 0.004895 -0.025490 -0.022072
v 0.016977 -0.051299 -0.011724
v 0.016807 -0.051299 -0.011752
v 0.010324 -0.031564 -0.020167
v 0.011827 -0.045759 -0.014984
v 0.013681 -0.051299 -0.012171
v 0.013259 -0.051299 -0.012227
v 0.008308 -0.032146 -0.020167
v 0.006496 -0.025134 -0.022072
v 0.004659 -0.018024 -0.023506
v 0.011123 -0.023480 -0.022072
v 0.006624 -0.009056 -0.024466
v -0.010478 -0.004121 -0.024466
v -0.023638 -0.011048 -0.022072
v -0.009851 -0.051299 -0.012583
v -0.020447 -0.051299 -0.011067
v -0.021296 -0.025572 -0.020167
v -0.003274 -0.025745 -0.022072
v -0.004659 -0.018024 -0.023506
v -0.008073 -0.024679 -0.022072
v -0.009025 -0.016307 -0.023506
v -0.006039 -0.009452 -0.024466
v 0.012732 -0.051299 -0.012282
v 0.051000 -0.027850 -0.009582
v 0.051000 -0.025912 -0.010078
v 0.051000 -0.023838 -0.010608
v 0.051000 -0.041908 -0.004661
v 0.046972 -0.038599 -0.008037
v 0.051000 -0.016755 -0.012033
v 0.000000 -0.011194 -0.024466
v -0.000708 -0.011172 -0.024466
v -0.051000 -0.018644 -0.011724
v -0.051000 -0.012150 -0.012636
v 0.017817 -0.005750 -0.023506
v -0.002802 -0.010843 -0.024466
v 0.018734 0.000000 -0.023506
v 0.001412 -0.011107 -0.024466
v 0.003510 -0.018279 -0.023506
v 0.051000 -0.008495 -0.012986
v 0.007977 -0.016838 -0.023506
v 0.004798 -0.010129 -0.024466
v 0.043985 -0.031743 -0.011724
v 0.049319 -0.035593 -0.008037
v 0.041892 -0.034425 -0.011724
v 0.012585 -0.022739 -0.022072
v 0.016096 -0.029082 -0.020167
v 0.051000 -0.006399 -0.013144
v 0.051000 -0.013007 -0.012546
v -0.051000 -0.013692 -0.012454
v -0.051000 -0.013007 -0.012546
v -0.032362 -0.008253 -0.020167
v -0.018734 0.000000 -0.023506
v -0.051000 -0.003187 -0.013290
v -0.040486 -0.002530 -0.017802
v -0.012732 -0.051299 -0.012282
v 0.051000 -0.036806 -0.006696
v 0.051000 -0.033137 -0.008037
v 0.051000 -0.038977 -0.005830
v -0.051000 -0.006399 -0.013144
v 0.043035 -0.020115 -0.014984
v 0.002111 -0.010996 -0.024466
v -0.003482 -0.010647 -0.024466
v 0.006896 -0.017302 -0.023506
v 0.032819 -0.023684 -0.017802
v 0.016780 -0.051299 -0.011756
v -0.005429 -0.009809 -0.024466
v -0.051000 -0.004557 -0.013228
v -0.033411 0.000000 -0.020167
v -0.006496 -0.025134 -0.022072
v -0.003249 -0.051299 -0.012980
v 0.039633 -0.036969 -0.011724
v 0.034671 -0.032340 -0.014984
v 0.000708 -0.011172 -0.024466
v -0.018697 -0.001168 -0.023506
v 0.051000 -0.032149 -0.008349
v 0.051000 -0.031654 -0.008491
v 0.040157 -0.025314 -0.014984
v 0.051000 0.000000 0.000001
v 0.051000 -0.051299 0.000001
v -0.051000 0.000000 0.000001
v -0.051000 -0.051299 0.000001
# 516 vertices, 0 vertices normals

f 1 2 3
f 4 5 6
f 7 8 9
f 10 11 12
f 13 14 15
f 16 17 18
f 19 20 21
f 22 23 24
f 25 26 27
f 28 29 30
f 31 32 33
f 34 35 36
f 37 38 3
f 39 40 41
f 5 42 43
f 44 45 46
f 47 48 49
f 50 51 52
f 51 50 53
f 54 55 56
f 57 58 59
f 60 61 62
f 61 60 63
f 27 63 64
f 65 66 67
f 68 69 70
f 71 58 57
f 27 64 72
f 73 74 75
f 76 77 78
f 77 76 79
f 41 80 81
f 82 83 69
f 84 21 85
f 86 87 88
f 89 90 91
f 92 93 94
f 95 96 97
f 98 99 100
f 72 57 101
f 102 103 104
f 103 102 105
f 106 107 108
f 9 8 109
f 103 110 111
f 112 113 114
f 115 116 117
f 118 119 99
f 120 121 122
f 118 123 119
f 15 60 62
f 60 15 14
f 124 125 126
f 127 128 129
f 130 131 29
f 132 133 134
f 50 135 53
f 136 137 138
f 21 139 140
f 141 142 82
f 143 87 144
f 87 143 145
f 146 12 147
f 148 149 150
f 151 152 142
f 18 67 153
f 141 82 68
f 142 17 16
f 154 155 17
f 156 157 158
f 103 159 104
f 159 103 160
f 161 162 163
f 60 164 165
f 42 166 43
f 167 168 169
f 170 171 172
f 173 174 175
f 44 46 176
f 177 178 179
f 101 180 181
f 182 183 184
f 185 186 187
f 63 71 57
f 14 164 60
f 121 86 188
f 189 190 191
f 126 125 192
f 193 194 195
f 194 193 96
f 196 151 197
f 80 198 199
f 200 141 68
f 158 201 202
f 203 126 204
f 20 138 21
f 128 205 206
f 55 207 208
f 209 54 56
f 210 36 211
f 212 213 37
f 214 96 95
f 197 151 142
f 155 215 216
f 217 218 219
f 218 217 194
f 220 218 214
f 133 220 134
f 220 133 221
f 222 132 134
f 1 223 2
f 224 220 95
f 225 226 58
f 107 227 228
f 78 77 229
f 230 229 231
f 229 230 78
f 232 233 234
f 235 236 237
f 236 235 238
f 239 182 184
f 240 171 170
f 103 111 160
f 43 170 110
f 241 112 242
f 112 241 113
f 243 244 48
f 183 245 246
f 166 247 240
f 248 249 250
f 251 252 42
f 253 254 118
f 118 255 123
f 44 177 45
f 229 198 80
f 256 10 146
f 257 258 259
f 257 259 98
f 260 51 261
f 262 263 264
f 265 266 267
f 268 269 270
f 192 189 204
f 271 272 273
f 274 275 276
f 73 94 93
f 94 73 75
f 94 277 55
f 218 221 278
f 221 218 220
f 207 220 224
f 201 19 84
f 201 84 279
f 280 281 282
f 283 68 269
f 20 136 138
f 196 197 200
f 137 284 285
f 82 18 83
f 286 153 49
f 47 243 48
f 199 209 213
f 287 213 212
f 224 95 288
f 287 212 289
f 290 291 292
f 256 293 10
f 294 295 296
f 10 12 146
f 187 297 298
f 138 196 21
f 96 89 284
f 299 65 300
f 65 299 66
f 278 301 218
f 219 301 302
f 301 219 218
f 97 96 284
f 16 18 82
f 303 237 236
f 294 296 304
f 35 305 36
f 94 75 277
f 54 94 55
f 306 298 307
f 298 306 187
f 308 27 26
f 27 308 63
f 308 61 63
f 8 72 238
f 109 238 235
f 238 109 8
f 72 181 309
f 310 162 161
f 236 234 311
f 312 176 251
f 166 313 247
f 314 251 5
f 240 247 171
f 111 170 315
f 113 167 114
f 153 47 49
f 48 112 316
f 66 299 317
f 318 319 320
f 319 318 321
f 250 23 22
f 22 24 173
f 245 276 246
f 322 120 323
f 46 324 325
f 326 327 127
f 328 329 330
f 331 312 332
f 5 251 42
f 312 44 176
f 46 248 252
f 333 334 254
f 226 333 253
f 184 183 178
f 335 180 257
f 98 120 336
f 337 338 339
f 337 339 340
f 311 341 342
f 341 311 234
f 59 226 253
f 253 333 254
f 71 225 58
f 60 165 63
f 159 160 343
f 71 344 225
f 345 146 266
f 202 279 318
f 346 347 145
f 274 348 275
f 173 349 174
f 173 350 349
f 129 128 206
f 351 326 352
f 326 351 327
f 249 353 23
f 354 355 328
f 229 77 198
f 92 77 79
f 77 92 94
f 220 214 95
f 214 218 96
f 134 220 207
f 75 134 207
f 218 194 96
f 194 217 195
f 80 199 213
f 81 80 213
f 269 70 270
f 269 68 70
f 142 16 82
f 356 124 357
f 357 124 358
f 125 114 359
f 85 140 360
f 19 21 84
f 279 84 361
f 21 196 139
f 139 200 140
f 140 362 283
f 363 65 155
f 65 363 300
f 364 65 67
f 200 142 141
f 197 142 200
f 365 49 356
f 68 82 69
f 125 359 192
f 77 94 198
f 231 53 135
f 53 231 229
f 56 55 223
f 208 288 366
f 56 223 1
f 55 208 223
f 117 289 367
f 211 368 369
f 368 39 370
f 371 372 373
f 374 375 376
f 377 378 379
f 290 380 381
f 380 290 292
f 211 260 382
f 90 96 193
f 96 90 89
f 383 384 385
f 386 383 385
f 383 386 154
f 284 387 151
f 97 284 137
f 139 196 200
f 285 284 151
f 137 285 138
f 303 388 389
f 388 303 236
f 380 390 297
f 63 57 64
f 64 57 72
f 27 72 8
f 25 8 7
f 8 25 27
f 238 72 309
f 236 238 232
f 391 392 162
f 393 311 342
f 236 393 388
f 393 236 311
f 350 174 349
f 394 174 350
f 395 174 394
f 396 174 395
f 397 174 396
f 398 174 397
f 399 174 398
f 275 174 399
f 348 174 275
f 88 174 348
f 87 174 88
f 145 174 87
f 347 174 145
f 400 174 347
f 401 174 400
f 402 174 401
f 403 174 402
f 404 174 403
f 131 174 404
f 405 174 131
f 406 174 405
f 407 174 406
f 408 174 407
f 409 174 408
f 410 174 409
f 371 174 410
f 373 174 371
f 411 174 373
f 412 174 411
f 413 174 412
f 414 174 413
f 415 174 414
f 416 174 415
f 417 174 416
f 376 174 417
f 320 174 376
f 319 174 320
f 273 174 319
f 418 174 273
f 419 174 418
f 420 174 419
f 421 174 420
f 31 174 421
f 33 174 31
f 352 174 33
f 326 174 352
f 127 174 326
f 129 174 127
f 174 129 206
f 43 240 170
f 43 166 240
f 168 422 423
f 424 243 67
f 243 424 425
f 249 23 250
f 46 325 248
f 42 252 166
f 246 276 355
f 45 324 46
f 100 121 120
f 98 100 120
f 179 328 324
f 276 398 355
f 23 394 350
f 23 350 24
f 24 350 173
f 22 173 426
f 171 22 426
f 273 272 418
f 99 427 100
f 428 128 127
f 312 251 314
f 176 46 251
f 251 46 252
f 392 228 44
f 228 177 44
f 429 28 263
f 11 430 431
f 259 118 99
f 259 99 98
f 292 210 294
f 291 432 292
f 53 229 80
f 123 143 119
f 338 98 339
f 101 59 180
f 57 59 101
f 433 434 435
f 266 146 436
f 437 164 14
f 164 437 438
f 13 437 14
f 434 439 435
f 440 441 442
f 441 440 433
f 434 443 439
f 435 262 264
f 74 134 75
f 134 74 222
f 420 270 421
f 444 445 429
f 148 150 334
f 264 263 446
f 361 360 321
f 318 361 321
f 412 117 413
f 447 401 400
f 351 358 327
f 149 403 402
f 346 145 143
f 447 347 346
f 277 75 207
f 277 207 55
f 288 95 136
f 288 136 366
f 157 2 201
f 3 2 157
f 18 153 83
f 448 281 32
f 356 49 124
f 449 365 281
f 32 357 351
f 69 449 280
f 353 394 23
f 394 353 395
f 282 281 448
f 203 204 327
f 119 143 427
f 140 200 362
f 362 200 68
f 85 21 140
f 360 140 283
f 155 65 17
f 364 67 18
f 215 154 386
f 154 215 155
f 284 383 387
f 152 17 142
f 192 359 189
f 36 260 211
f 305 260 36
f 260 305 450
f 230 451 78
f 451 76 78
f 198 94 54
f 198 54 199
f 199 54 209
f 38 1 3
f 366 136 20
f 452 20 19
f 453 378 377
f 261 40 39
f 454 455 115
f 455 287 115
f 3 157 156
f 456 156 457
f 156 158 457
f 157 201 158
f 115 287 116
f 431 453 377
f 380 294 390
f 211 382 368
f 256 294 304
f 304 296 293
f 155 216 363
f 138 285 196
f 285 151 196
f 136 95 137
f 95 97 137
f 89 383 284
f 384 89 91
f 89 384 383
f 307 298 458
f 227 184 228
f 392 44 312
f 459 108 460
f 391 310 461
f 310 391 162
f 234 462 341
f 462 234 463
f 238 233 232
f 464 312 331
f 312 464 392
f 392 163 162
f 163 392 464
f 236 232 234
f 238 309 233
f 465 466 409
f 110 170 111
f 467 67 66
f 67 467 424
f 112 468 242
f 153 243 47
f 67 243 153
f 188 88 348
f 170 172 315
f 313 22 247
f 247 22 171
f 166 248 313
f 252 248 166
f 228 184 177
f 322 323 183
f 179 354 328
f 184 178 177
f 121 188 122
f 183 122 245
f 123 346 143
f 99 119 427
f 469 330 353
f 324 469 325
f 411 470 412
f 29 131 30
f 328 355 329
f 469 353 249
f 313 250 22
f 248 250 313
f 471 173 175
f 426 173 471
f 171 426 471
f 122 274 245
f 245 274 276
f 28 130 29
f 147 472 473
f 378 454 470
f 188 348 274
f 5 474 6
f 474 5 105
f 103 43 110
f 473 130 445
f 475 476 149
f 180 258 257
f 180 253 258
f 185 187 306
f 477 340 106
f 478 479 477
f 58 226 59
f 59 253 180
f 63 165 71
f 264 446 480
f 458 440 442
f 440 458 298
f 165 435 344
f 225 481 226
f 164 435 165
f 165 344 71
f 164 433 435
f 440 298 267
f 474 105 482
f 482 105 102
f 332 314 483
f 314 332 312
f 314 4 483
f 4 314 5
f 11 431 466
f 147 12 472
f 255 447 123
f 481 480 333
f 445 130 28
f 362 68 283
f 321 360 271
f 330 397 396
f 431 379 466
f 130 405 131
f 330 395 353
f 395 330 396
f 329 397 330
f 208 207 288
f 207 224 288
f 2 366 452
f 366 20 452
f 126 192 204
f 365 356 357
f 484 244 243
f 244 484 485
f 486 316 125
f 83 153 286
f 280 449 281
f 449 286 365
f 286 49 365
f 70 69 280
f 270 70 282
f 70 280 282
f 276 399 398
f 189 191 487
f 357 358 351
f 358 203 327
f 83 286 449
f 69 83 449
f 17 65 364
f 17 364 18
f 316 112 114
f 49 48 486
f 422 167 488
f 167 422 168
f 489 167 169
f 489 169 190
f 359 114 190
f 359 190 189
f 53 80 40
f 40 80 41
f 209 56 1
f 38 209 1
f 41 81 287
f 81 213 287
f 410 466 371
f 369 368 453
f 368 261 39
f 430 453 431
f 202 201 279
f 456 37 156
f 37 3 156
f 117 367 414
f 378 370 454
f 450 490 260
f 490 51 260
f 51 490 52
f 380 292 294
f 295 211 369
f 256 304 293
f 345 256 146
f 443 444 439
f 298 265 267
f 297 390 345
f 297 345 266
f 387 383 154
f 387 154 151
f 339 98 336
f 257 98 338
f 491 478 492
f 462 463 493
f 447 400 347
f 409 466 410
f 66 317 467
f 243 425 484
f 113 241 494
f 171 471 172
f 324 328 469
f 328 330 469
f 45 179 324
f 177 179 45
f 495 228 392
f 322 183 182
f 120 122 323
f 323 122 183
f 246 355 354
f 183 246 178
f 276 275 399
f 144 87 86
f 496 406 130
f 121 144 86
f 427 144 121
f 100 427 121
f 427 143 144
f 419 270 420
f 30 131 404
f 436 146 473
f 319 271 273
f 454 115 470
f 470 497 412
f 470 115 497
f 480 475 148
f 480 148 334
f 435 439 262
f 439 263 262
f 429 445 28
f 266 436 443
f 498 30 475
f 263 498 475
f 253 118 258
f 258 118 259
f 380 186 381
f 186 380 187
f 187 380 297
f 339 322 499
f 72 101 181
f 107 228 495
f 239 184 227
f 433 438 500
f 438 433 164
f 500 441 433
f 435 264 344
f 344 264 225
f 5 43 105
f 105 43 103
f 293 430 11
f 10 293 11
f 254 255 118
f 254 334 255
f 123 447 346
f 334 150 255
f 272 268 418
f 272 283 268
f 375 202 318
f 84 85 361
f 361 85 360
f 283 269 268
f 360 283 272
f 270 282 421
f 501 456 457
f 223 208 366
f 223 366 2
f 452 19 201
f 2 452 201
f 448 32 31
f 289 456 501
f 327 428 127
f 128 487 205
f 358 124 203
f 124 126 203
f 32 352 33
f 352 32 351
f 281 357 32
f 281 365 357
f 151 154 152
f 152 154 17
f 316 114 125
f 48 316 486
f 486 125 124
f 49 486 124
f 113 494 502
f 502 167 113
f 167 502 488
f 190 503 191
f 190 169 503
f 114 489 190
f 114 167 489
f 51 40 261
f 51 53 40
f 213 38 37
f 213 209 38
f 212 37 289
f 289 37 456
f 370 504 454
f 504 455 454
f 260 261 382
f 382 261 368
f 296 453 430
f 293 296 430
f 432 210 292
f 210 432 505
f 34 210 505
f 210 34 36
f 390 256 345
f 390 294 256
f 298 297 265
f 265 297 266
f 234 506 479
f 234 233 506
f 233 335 507
f 309 181 233
f 234 479 463
f 463 491 493
f 491 463 478
f 468 244 485
f 244 468 112
f 244 112 48
f 508 11 465
f 508 465 409
f 248 469 249
f 325 469 248
f 178 246 354
f 178 354 179
f 355 398 329
f 329 398 397
f 149 401 150
f 401 149 402
f 373 470 411
f 122 188 274
f 86 88 188
f 375 318 320
f 421 448 31
f 30 404 403
f 436 473 445
f 146 147 473
f 472 407 496
f 466 379 371
f 431 377 379
f 497 117 412
f 497 115 117
f 481 333 226
f 480 334 333
f 225 264 481
f 264 480 481
f 263 475 446
f 446 475 480
f 436 445 444
f 443 436 444
f 439 429 263
f 439 444 429
f 267 443 434
f 267 266 443
f 263 28 498
f 28 30 498
f 479 340 477
f 507 338 337
f 499 322 239
f 239 322 182
f 479 337 340
f 107 239 227
f 440 267 434
f 433 440 434
f 11 466 465
f 508 407 472
f 282 448 421
f 475 149 148
f 475 30 476
f 271 360 272
f 321 271 319
f 279 361 318
f 416 374 417
f 457 158 374
f 413 117 414
f 268 270 419
f 130 406 405
f 501 416 415
f 416 501 457
f 457 374 416
f 414 501 415
f 509 487 128
f 204 509 128
f 327 204 428
f 428 204 128
f 116 289 117
f 116 287 289
f 370 39 504
f 455 41 287
f 453 368 370
f 453 370 378
f 295 369 296
f 296 369 453
f 210 211 295
f 294 210 295
f 506 507 479
f 233 507 506
f 181 180 335
f 233 181 335
f 463 479 478
f 108 107 391
f 255 150 447
f 150 401 447
f 496 407 406
f 418 268 419
f 379 378 372
f 379 372 371
f 473 472 496
f 473 496 130
f 336 120 322
f 339 336 322
f 391 495 392
f 391 107 495
f 460 391 461
f 391 460 108
f 478 510 492
f 510 478 106
f 12 508 472
f 12 11 508
f 30 403 476
f 476 403 149
f 158 202 374
f 374 202 375
f 204 189 509
f 509 189 487
f 39 41 504
f 504 41 455
f 340 499 239
f 479 507 337
f 335 257 338
f 335 338 507
f 372 378 470
f 372 470 373
f 340 339 499
f 478 477 106
f 511 108 459
f 106 511 510
f 511 106 108
f 508 408 407
f 508 409 408
f 376 375 320
f 417 374 376
f 367 289 501
f 367 501 414
f 106 340 512
f 340 239 512
f 512 239 107
f 106 512 107
f 513 159 343
f 513 104 159
f 513 102 104
f 513 482 102
f 513 474 482
f 513 6 474
f 513 4 6
f 513 483 4
f 513 332 483
f 513 331 332
f 513 464 331
f 513 163 464
f 513 161 163
f 513 310 161
f 513 461 310
f 513 460 461
f 513 459 460
f 513 511 459
f 513 510 511
f 513 492 510
f 513 491 492
f 513 493 491
f 513 462 493
f 513 341 462
f 513 342 341
f 513 393 342
f 513 388 393
f 514 388 513
f 388 514 389
f 515 514 513
f 514 515 516
f 422 515 423
f 488 515 422
f 502 515 488
f 494 515 502
f 241 515 494
f 242 515 241
f 468 515 242
f 485 515 468
f 484 515 485
f 425 515 484
f 424 515 425
f 467 515 424
f 317 515 467
f 299 515 317
f 300 515 299
f 363 515 300
f 216 515 363
f 215 515 216
f 386 515 215
f 385 515 386
f 384 515 385
f 91 515 384
f 90 515 91
f 193 515 90
f 195 515 193
f 217 515 195
f 219 515 217
f 516 219 302
f 219 516 515
f 160 513 343
f 315 513 111
f 513 160 111
f 172 513 315
f 168 515 169
f 515 168 423
f 471 513 172
f 515 503 169
f 175 513 471
f 515 191 503
f 174 513 175
f 515 487 191
f 513 174 515
f 515 205 487
f 206 515 174
f 515 206 205
f 301 516 302
f 516 301 514
f 303 514 301
f 514 303 389
f 133 301 278
f 132 301 133
f 133 278 221
f 301 132 303
f 303 109 237
f 237 109 235
f 9 303 132
f 303 9 109
f 222 9 132
f 222 7 9
f 93 222 74
f 92 222 93
f 93 74 73
f 222 92 7
f 7 308 25
f 25 308 26
f 61 7 92
f 7 61 308
f 79 61 92
f 79 62 61
f 76 62 79
f 76 15 62
f 50 76 451
f 490 76 50
f 50 451 230
f 76 490 15
f 50 230 231
f 15 441 13
f 50 231 135
f 13 441 437
f 437 441 438
f 438 441 500
f 490 50 52
f 458 15 490
f 15 458 441
f 441 458 442
f 305 490 450
f 490 305 458
f 306 458 305
f 458 306 307
f 35 306 305
f 35 185 306
f 34 185 35
f 34 186 185
f 432 34 505
f 34 432 186
f 290 186 432
f 186 290 381
f 290 432 291
# 1028 faces, 0 coords texture

# End of File
