####
#
# OBJ File Generated by Meshlab
#
####
# Object left_foot_geom.obj
#
# Vertices: 540
# Faces: 1076
#
####
v 0.029467 0.051681 -0.009464
v 0.028207 0.052299 -0.009464
v 0.029819 0.052299 -0.008995
v 0.017008 0.007716 -0.024857
v 0.009909 0.005252 -0.025812
v 0.016472 0.008731 -0.024857
v -0.010754 0.003368 -0.025812
v -0.017477 0.006672 -0.024857
v -0.010513 0.004013 -0.025812
v 0.009148 0.006409 -0.025812
v 0.002908 0.002319 -0.026290
v 0.008713 0.006949 -0.025812
v -0.049484 0.034665 -0.009464
v -0.051350 0.034722 -0.008454
v -0.051350 0.035972 -0.007987
v 0.011107 0.002043 -0.025812
v 0.003655 0.000904 -0.026290
v 0.010952 0.002711 -0.025812
v -0.027121 0.018998 -0.021535
v -0.034366 0.021029 -0.019182
v -0.032929 0.023068 -0.019182
v -0.041818 0.022166 -0.016377
v -0.047803 0.025339 -0.013133
v -0.040292 0.024654 -0.016377
v -0.036769 0.029329 -0.016377
v -0.039765 0.036005 -0.013133
v -0.034786 0.031497 -0.016377
v 0.010513 0.004013 -0.025812
v 0.003509 0.001339 -0.026290
v 0.010231 0.004642 -0.025812
v -0.044370 0.016938 -0.016377
v -0.050720 0.019362 -0.013133
v -0.049359 0.022395 -0.013133
v 0.014983 0.036488 -0.019182
v 0.012341 0.030053 -0.021535
v 0.012577 0.037324 -0.019182
v -0.051350 0.027219 -0.010888
v -0.051350 0.031122 -0.009744
v -0.023924 0.031750 -0.019182
v -0.030418 0.035453 -0.016377
v -0.028050 0.037225 -0.016377
v -0.002356 0.017981 -0.024857
v -0.003284 0.025074 -0.023429
v -0.001180 0.018087 -0.024857
v 0.028304 0.017319 -0.021535
v 0.022131 0.013542 -0.023429
v 0.027121 0.018998 -0.021535
v 0.051350 0.035972 -0.007987
v 0.049484 0.034665 -0.009464
v 0.051350 0.039661 -0.006485
v -0.030333 0.013763 -0.021535
v -0.035667 0.018906 -0.019182
v -0.029376 0.015572 -0.021535
v -0.022131 0.013542 -0.023429
v -0.028304 0.017319 -0.021535
v -0.051350 0.019266 -0.012824
v -0.051350 0.019603 -0.012758
v -0.051350 0.017676 -0.013133
v -0.022989 0.040320 -0.016377
v -0.023227 0.047591 -0.013133
v -0.020318 0.041633 -0.016377
v -0.051350 0.032018 -0.009464
v -0.017330 0.035510 -0.019182
v 0.004911 0.024825 -0.023429
v 0.003284 0.025074 -0.023429
v 0.006281 0.031750 -0.021535
v -0.019608 0.034390 -0.019182
v -0.025570 0.038849 -0.016377
v -0.008003 0.016398 -0.024857
v -0.011160 0.022867 -0.023429
v -0.009648 0.023498 -0.023429
v -0.042032 0.033526 -0.013133
v -0.044588 0.040372 -0.009464
v -0.044132 0.030916 -0.013133
v 0.039765 0.036005 -0.013133
v 0.032667 0.033541 -0.016377
v 0.037342 0.038341 -0.013133
v 0.040702 0.000000 -0.019182
v 0.040622 0.002463 -0.019182
v 0.047721 0.000000 -0.016377
v 0.030418 0.035453 -0.016377
v 0.028050 0.037225 -0.016377
v 0.034772 0.040527 -0.013133
v -0.011867 0.044566 -0.016377
v -0.014746 0.043760 -0.016377
v -0.013566 0.050945 -0.013133
v -0.000707 0.003574 -0.026290
v -0.002118 0.010710 -0.025812
v -0.001417 0.010817 -0.025812
v 0.051350 0.042265 -0.005382
v 0.049233 0.044579 -0.005382
v 0.051350 0.046494 -0.003254
v -0.023717 0.010760 -0.023429
v -0.022969 0.012176 -0.023429
v -0.008243 0.007463 -0.025812
v -0.013702 0.012406 -0.024857
v -0.007740 0.007948 -0.025812
v -0.022948 0.023562 -0.021535
v -0.025945 0.030238 -0.019182
v -0.021368 0.024905 -0.021535
v -0.040381 0.004918 -0.019182
v -0.046875 0.008621 -0.016377
v -0.039981 0.007354 -0.019182
v 0.000473 0.003610 -0.026290
v 0.000237 0.003632 -0.026290
v 0.001417 0.010817 -0.025812
v -0.046222 0.011442 -0.016377
v -0.051350 0.012712 -0.013863
v -0.051350 0.015802 -0.013438
v -0.043179 0.019590 -0.016377
v -0.037342 0.038341 -0.013133
v -0.029229 0.044410 -0.013133
v 0.019608 0.034390 -0.019182
v 0.016150 0.028324 -0.021535
v 0.017330 0.035510 -0.019182
v -0.005447 0.009554 -0.025812
v -0.009055 0.015881 -0.024857
v -0.046233 0.047471 -0.005382
v -0.041870 0.042992 -0.009464
v -0.006646 0.008821 -0.025812
v -0.010072 0.015302 -0.024857
v -0.006059 0.009205 -0.025812
v -0.038607 0.027045 -0.016377
v -0.046059 0.028183 -0.013133
v -0.016707 0.019473 -0.023429
v -0.003744 0.000456 -0.026290
v -0.011107 0.002043 -0.025812
v -0.003707 0.000682 -0.026290
v -0.010952 0.002711 -0.025812
v -0.017877 0.005600 -0.024857
v -0.019704 0.026150 -0.021535
v -0.003186 0.001949 -0.026290
v -0.009148 0.006409 -0.025812
v -0.003053 0.002138 -0.026290
v 0.047344 0.005767 -0.016377
v 0.051350 0.007368 -0.014374
v 0.051350 0.006254 -0.014460
v 0.046875 0.008621 -0.016377
v 0.017877 0.005600 -0.024857
v 0.017477 0.006672 -0.024857
v 0.024928 0.007810 -0.023429
v 0.022989 0.040320 -0.016377
v 0.020318 0.041633 -0.016377
v 0.023227 0.047591 -0.013133
v 0.050414 0.051764 -0.000905
v 0.049784 0.052299 -0.000905
v 0.050432 0.052299 -0.000547
v -0.031362 0.025016 -0.019182
v -0.025829 0.020603 -0.021535
v -0.037844 0.014446 -0.019182
v -0.036828 0.016709 -0.019182
v -0.034772 0.040527 -0.013133
v -0.038988 0.045442 -0.009464
v -0.035952 0.047712 -0.009464
v -0.008942 0.045196 -0.016377
v -0.010221 0.051666 -0.013133
v -0.005980 0.045649 -0.016377
v -0.025388 0.006285 -0.023429
v -0.031882 0.009988 -0.021535
v -0.024928 0.007810 -0.023429
v -0.006919 0.016850 -0.024857
v 0.004162 0.010137 -0.025812
v 0.003494 0.010369 -0.025812
v 0.006919 0.016850 -0.024857
v -0.011048 0.014662 -0.024857
v 0.009547 0.005841 -0.025812
v 0.003186 0.001949 -0.026290
v 0.000710 0.010881 -0.025812
v 0.005447 0.009554 -0.025812
v 0.004814 0.009865 -0.025812
v 0.008003 0.016398 -0.024857
v -0.024371 0.009303 -0.023429
v -0.051350 0.022214 -0.012161
v -0.045385 0.014218 -0.016377
v -0.039423 0.009759 -0.019182
v -0.038710 0.012127 -0.019182
v -0.051350 0.025220 -0.011411
v -0.049233 0.044579 -0.005382
v -0.051350 0.042265 -0.005382
v -0.051350 0.046494 -0.003254
v -0.043051 0.050177 -0.005382
v -0.029467 0.051681 -0.009464
v -0.032692 0.052299 -0.008058
v -0.029819 0.052299 -0.008995
v -0.032774 0.049795 -0.009464
v -0.017963 0.027291 -0.021535
v -0.021809 0.033135 -0.019182
v -0.024621 0.052299 -0.010339
v -0.020081 0.048904 -0.013133
v -0.025524 0.052299 -0.010140
v -0.006837 0.052183 -0.013133
v -0.006852 0.052299 -0.013066
v -0.005560 0.052299 -0.013133
v -0.028207 0.052299 -0.009464
v -0.021475 0.052299 -0.011033
v -0.051350 0.031421 -0.009657
v 0.023717 0.010760 -0.023429
v 0.008243 0.007463 -0.025812
v 0.002583 0.002652 -0.026290
v 0.007740 0.007948 -0.025812
v 0.014483 0.011552 -0.024857
v 0.013702 0.012406 -0.024857
v 0.007208 0.008401 -0.025812
v 0.012867 0.013211 -0.024857
v 0.001165 0.003461 -0.026290
v 0.004201 0.032067 -0.021535
v 0.002105 0.032259 -0.021535
v 0.005101 0.038936 -0.019182
v -0.012341 0.030053 -0.021535
v -0.008100 0.024036 -0.023429
v 0.002555 0.039167 -0.019182
v 0.000000 0.046012 -0.016377
v 0.002995 0.045921 -0.016377
v 0.029229 0.044410 -0.013133
v 0.026279 0.046091 -0.013133
v 0.043051 0.050177 -0.005382
v 0.040213 0.052299 -0.005382
v 0.043120 0.052299 -0.004075
v 0.041870 0.042992 -0.009464
v 0.014273 0.029246 -0.021535
v 0.047129 0.037592 -0.009464
v 0.051350 0.040959 -0.005956
v -0.011285 0.000684 -0.025812
v -0.011218 0.001366 -0.025812
v 0.051350 0.019266 -0.012824
v 0.050720 0.019362 -0.013133
v 0.051350 0.019603 -0.012758
v 0.046233 0.047471 -0.005382
v 0.018797 0.000000 -0.024857
v 0.018760 0.001138 -0.024857
v 0.026212 0.000000 -0.023429
v 0.014746 0.043760 -0.016377
v 0.011867 0.044566 -0.016377
v 0.013566 0.050945 -0.013133
v -0.027863 0.028608 -0.019182
v -0.012628 0.022147 -0.023429
v -0.016150 0.028324 -0.021535
v -0.017942 0.018423 -0.023429
v -0.020196 0.016110 -0.023429
v -0.024437 0.022126 -0.021535
v -0.018648 0.002271 -0.024857
v -0.040702 0.000000 -0.019182
v -0.047721 0.000000 -0.016377
v -0.040622 0.002463 -0.019182
v -0.025747 0.004735 -0.023429
v -0.032470 0.008038 -0.021535
v -0.018760 0.001138 -0.024857
v 0.000000 0.010902 -0.025812
v 0.000000 0.018124 -0.024857
v -0.002908 0.002319 -0.026290
v -0.033457 0.002029 -0.021535
v -0.033258 0.004050 -0.021535
v -0.051350 0.016087 -0.013399
v -0.051350 0.023298 -0.011913
v -0.050414 0.051764 -0.000905
v -0.051350 0.050861 -0.000905
v -0.038777 0.052299 -0.005925
v -0.034422 0.052299 -0.007493
v -0.044872 0.052299 -0.003287
v -0.043120 0.052299 -0.004075
v -0.010801 0.052299 -0.012708
v -0.010347 0.052299 -0.012763
v -0.051350 0.041404 -0.005760
v -0.051350 0.039661 -0.006485
v -0.047129 0.037592 -0.009464
v -0.051350 0.040959 -0.005956
v -0.032063 0.042552 -0.013133
v -0.002555 0.039167 -0.019182
v -0.005101 0.038936 -0.019182
v -0.002995 0.045921 -0.016377
v -0.003522 0.017802 -0.024857
v -0.004911 0.024825 -0.023429
v -0.009985 0.052299 -0.012794
v -0.017567 0.042781 -0.016377
v -0.019524 0.052299 -0.011400
v 0.024371 0.009303 -0.023429
v 0.031882 0.009988 -0.021535
v 0.015206 0.010653 -0.024857
v 0.002118 0.010710 -0.025812
v 0.002356 0.017981 -0.024857
v -0.000938 0.003525 -0.026290
v -0.003494 0.010369 -0.025812
v -0.002811 0.010560 -0.025812
v 0.017567 0.042781 -0.016377
v 0.000000 0.039245 -0.019182
v -0.007627 0.038549 -0.019182
v -0.005808 0.017237 -0.024857
v -0.004674 0.017554 -0.024857
v 0.016857 0.050023 -0.013133
v 0.019524 0.052299 -0.011400
v 0.020081 0.048904 -0.013133
v 0.017624 0.052299 -0.011756
v 0.024621 0.052299 -0.010339
v 0.025524 0.052299 -0.010140
v 0.007627 0.038549 -0.019182
v 0.005980 0.045649 -0.016377
v -0.014273 0.029246 -0.021535
v 0.000000 0.025273 -0.023429
v 0.000000 0.032323 -0.021535
v 0.051350 0.051849 -0.000300
v 0.050936 0.052299 -0.000268
v 0.051350 0.052299 -0.000024
v 0.051350 0.050861 -0.000905
v 0.051350 0.041404 -0.005760
v 0.044588 0.040372 -0.009464
v 0.000707 0.003574 -0.026290
v 0.018464 0.003396 -0.024857
v 0.003053 0.002138 -0.026290
v 0.032929 0.006056 -0.021535
v 0.025747 0.004735 -0.023429
v 0.032470 0.008038 -0.021535
v 0.051350 0.012712 -0.013863
v 0.046222 0.011442 -0.016377
v 0.051350 0.015802 -0.013438
v 0.029376 0.015572 -0.021535
v 0.051350 0.017676 -0.013133
v 0.051350 0.022214 -0.012161
v 0.049359 0.022395 -0.013133
v 0.051350 0.023298 -0.011913
v 0.051350 0.010337 -0.014118
v 0.051350 0.009444 -0.014214
v 0.031169 0.011898 -0.021535
v 0.037844 0.014446 -0.019182
v 0.011285 0.000684 -0.025812
v 0.011218 0.001366 -0.025812
v 0.051350 0.000000 -0.014654
v 0.051350 0.001783 -0.014626
v -0.014045 0.021339 -0.023429
v -0.006281 0.031750 -0.021535
v -0.016472 0.008731 -0.024857
v -0.015206 0.010653 -0.024857
v -0.008713 0.006949 -0.025812
v -0.029671 0.026865 -0.019182
v -0.032667 0.033541 -0.016377
v -0.031169 0.011898 -0.021535
v -0.032929 0.006056 -0.021535
v -0.026005 0.003167 -0.023429
v -0.018464 0.003396 -0.024857
v -0.026159 0.001587 -0.023429
v -0.015407 0.020446 -0.023429
v -0.018797 0.000000 -0.024857
v -0.026212 0.000000 -0.023429
v -0.003509 0.001339 -0.026290
v -0.010231 0.004642 -0.025812
v -0.003414 0.001549 -0.026290
v 0.003307 0.001753 -0.026290
v 0.001607 0.003292 -0.026290
v 0.003744 0.000456 -0.026290
v 0.008100 0.024036 -0.023429
v 0.006518 0.024479 -0.023429
v 0.008336 0.031307 -0.021535
v -0.049784 0.052299 -0.000905
v -0.050936 0.052299 -0.000268
v -0.050432 0.052299 -0.000547
v -0.039661 0.052299 -0.005599
v -0.040213 0.052299 -0.005382
v -0.026279 0.046091 -0.013133
v -0.014983 0.036488 -0.019182
v -0.012577 0.037324 -0.019182
v -0.014970 0.052299 -0.012168
v -0.013927 0.052299 -0.012329
v -0.016857 0.050023 -0.013133
v -0.017624 0.052299 -0.011756
v -0.010122 0.038012 -0.019182
v 0.017942 0.018423 -0.023429
v 0.011981 0.013965 -0.024857
v 0.016707 0.019473 -0.023429
v -0.002218 0.002944 -0.026290
v 0.015407 0.020446 -0.023429
v 0.019704 0.026150 -0.021535
v 0.011048 0.014662 -0.024857
v -0.000710 0.010881 -0.025812
v -0.002750 0.002491 -0.026290
v 0.035952 0.047712 -0.009464
v 0.038777 0.052299 -0.005925
v 0.039409 0.052299 -0.005698
v 0.032774 0.049795 -0.009464
v 0.038988 0.045442 -0.009464
v 0.032063 0.042552 -0.013133
v 0.005560 0.052299 -0.013133
v 0.006837 0.052183 -0.013133
v 0.003497 0.052299 -0.013226
v 0.008942 0.045196 -0.016377
v -0.008336 0.031307 -0.021535
v -0.010359 0.030741 -0.021535
v 0.004674 0.017554 -0.024857
v -0.003497 0.052299 -0.013226
v -0.004201 0.032067 -0.021535
v -0.002105 0.032259 -0.021535
v -0.001645 0.025223 -0.023429
v 0.039661 0.052299 -0.005599
v 0.051350 0.034722 -0.008454
v 0.026159 0.001587 -0.023429
v 0.026005 0.003167 -0.023429
v 0.033457 0.002029 -0.021535
v 0.018648 0.002271 -0.024857
v 0.009648 0.023498 -0.023429
v 0.034786 0.031497 -0.016377
v 0.029671 0.026865 -0.019182
v 0.045385 0.014218 -0.016377
v 0.044370 0.016938 -0.016377
v 0.042032 0.033526 -0.013133
v 0.051350 0.025220 -0.011411
v 0.032929 0.023068 -0.019182
v 0.031362 0.025016 -0.019182
v 0.036828 0.016709 -0.019182
v 0.035667 0.018906 -0.019182
v 0.041818 0.022166 -0.016377
v 0.051350 0.016087 -0.013399
v 0.043179 0.019590 -0.016377
v 0.047626 0.002889 -0.016377
v 0.051350 0.003115 -0.014605
v 0.040381 0.004918 -0.019182
v -0.019107 0.017301 -0.023429
v 0.006059 0.009205 -0.025812
v 0.010072 0.015302 -0.024857
v -0.011308 0.000000 -0.025812
v -0.047344 0.005767 -0.016377
v -0.007208 0.008401 -0.025812
v -0.004814 0.009865 -0.025812
v -0.006518 0.024479 -0.023429
v 0.003766 0.000228 -0.026290
v 0.000000 0.003638 -0.026290
v -0.000237 0.003632 -0.026290
v 0.003707 0.000682 -0.026290
v 0.017963 0.027291 -0.021535
v 0.015870 0.009711 -0.024857
v 0.023924 0.031750 -0.019182
v 0.009055 0.015881 -0.024857
v -0.015870 0.009711 -0.024857
v -0.051350 0.051849 -0.000300
v -0.051350 0.052299 -0.000024
v -0.039409 0.052299 -0.005698
v 0.001389 0.003383 -0.026290
v 0.002811 0.010560 -0.025812
v 0.000938 0.003525 -0.026290
v 0.044872 0.052299 -0.003287
v 0.032692 0.052299 -0.008058
v 0.025570 0.038849 -0.016377
v 0.005808 0.017237 -0.024857
v 0.010122 0.038012 -0.019182
v 0.010359 0.030741 -0.021535
v 0.014970 0.052299 -0.012168
v 0.013927 0.052299 -0.012329
v -0.000134 0.052299 -0.013279
v 0.000000 0.052299 -0.013280
v 0.003412 0.052299 -0.013229
v 0.001180 0.018087 -0.024857
v 0.003522 0.017802 -0.024857
v 0.046059 0.028183 -0.013133
v 0.051350 0.031122 -0.009744
v 0.047803 0.025339 -0.013133
v 0.051350 0.031421 -0.009657
v 0.012628 0.022147 -0.023429
v 0.051350 0.032018 -0.009464
v 0.030333 0.013763 -0.021535
v 0.010754 0.003368 -0.025812
v 0.002405 0.002804 -0.026290
v 0.022969 0.012176 -0.023429
v 0.051350 0.005012 -0.014518
v 0.021206 0.014854 -0.023429
v 0.025829 0.020603 -0.021535
v 0.038710 0.012127 -0.019182
v 0.036769 0.029329 -0.016377
v 0.051350 0.027219 -0.010888
v 0.038607 0.027045 -0.016377
v 0.014045 0.021339 -0.023429
v 0.040292 0.024654 -0.016377
v 0.044132 0.030916 -0.013133
v 0.033523 0.000000 -0.021535
v 0.033258 0.004050 -0.021535
v -0.012867 0.013211 -0.024857
v -0.011981 0.013965 -0.024857
v -0.021206 0.014854 -0.023429
v -0.014483 0.011552 -0.024857
v 0.003589 0.001124 -0.026290
v -0.018206 0.004507 -0.024857
v -0.033523 0.000000 -0.021535
v -0.003589 0.001124 -0.026290
v -0.002022 0.003072 -0.026290
v -0.001607 0.003292 -0.026290
v -0.004162 0.010137 -0.025812
v 0.002218 0.002944 -0.026290
v 0.006646 0.008821 -0.025812
v -0.003307 0.001753 -0.026290
v 0.001818 0.003188 -0.026290
v 0.002750 0.002491 -0.026290
v -0.001165 0.003461 -0.026290
v -0.000473 0.003610 -0.026290
v -0.009547 0.005841 -0.025812
v 0.024437 0.022126 -0.021535
v 0.022948 0.023562 -0.021535
v -0.047626 0.002889 -0.016377
v -0.051350 0.010337 -0.014118
v 0.000134 0.052299 -0.013279
v -0.003412 0.052299 -0.013229
v -0.002583 0.002652 -0.026290
v 0.034422 0.052299 -0.007493
v 0.010801 0.052299 -0.012708
v 0.010221 0.051666 -0.013133
v 0.006852 0.052299 -0.013066
v 0.025388 0.006285 -0.023429
v 0.002022 0.003072 -0.026290
v 0.034366 0.021029 -0.019182
v 0.020196 0.016110 -0.023429
v 0.027863 0.028608 -0.019182
v 0.039981 0.007354 -0.019182
v 0.011308 0.000000 -0.025812
v 0.039423 0.009759 -0.019182
v -0.009909 0.005252 -0.025812
v -0.017008 0.007716 -0.024857
v -0.051350 0.003115 -0.014605
v -0.051350 0.005012 -0.014518
v -0.003655 0.000904 -0.026290
v 0.003414 0.001549 -0.026290
v -0.003774 0.000000 -0.026290
v -0.003766 0.000228 -0.026290
v -0.051350 0.007368 -0.014374
v -0.051350 0.009444 -0.014214
v 0.010347 0.052299 -0.012763
v 0.009985 0.052299 -0.012794
v 0.003774 0.000000 -0.026290
v -0.002405 0.002804 -0.026290
v 0.025945 0.030238 -0.019182
v 0.001645 0.025223 -0.023429
v 0.021475 0.052299 -0.011033
v -0.001389 0.003383 -0.026290
v 0.019107 0.017301 -0.023429
v -0.001818 0.003188 -0.026290
v -0.051350 0.006254 -0.014460
v 0.021809 0.033135 -0.019182
v 0.018206 0.004507 -0.024857
v 0.021368 0.024905 -0.021535
v -0.051350 0.001783 -0.014626
v -0.051350 0.000000 -0.014654
v 0.011160 0.022867 -0.023429
v 0.051350 0.052299 0.000000
v 0.051350 0.000000 0.000000
v -0.051350 0.052299 0.000000
v -0.051350 0.000000 0.000000
# 540 vertices, 0 vertices normals

f 1 2 3
f 4 5 6
f 7 8 9
f 10 11 12
f 13 14 15
f 16 17 18
f 19 20 21
f 22 23 24
f 25 26 27
f 28 29 30
f 31 32 33
f 34 35 36
f 23 37 38
f 39 40 41
f 42 43 44
f 45 46 47
f 48 49 50
f 51 52 53
f 54 53 55
f 32 56 57
f 32 58 56
f 59 60 61
f 13 62 14
f 63 59 61
f 64 65 66
f 67 68 59
f 69 70 71
f 72 73 26
f 74 13 72
f 75 76 77
f 78 79 80
f 81 82 83
f 84 85 86
f 87 88 89
f 90 91 92
f 53 20 55
f 93 51 94
f 95 96 97
f 98 99 100
f 101 102 103
f 104 105 106
f 107 108 109
f 20 22 24
f 110 33 22
f 26 73 111
f 68 112 59
f 113 114 115
f 116 117 69
f 73 118 119
f 120 121 122
f 20 24 123
f 25 72 26
f 124 13 74
f 125 98 100
f 20 123 21
f 126 127 128
f 129 130 7
f 100 39 131
f 132 133 134
f 135 136 137
f 136 135 138
f 139 140 141
f 142 143 144
f 145 146 147
f 19 148 149
f 51 150 151
f 152 153 154
f 155 156 157
f 158 159 160
f 69 71 161
f 162 163 164
f 120 165 121
f 166 167 10
f 106 105 168
f 169 170 171
f 8 172 93
f 173 32 57
f 32 173 33
f 150 174 31
f 175 107 176
f 177 23 33
f 23 177 37
f 178 179 180
f 111 73 119
f 119 118 181
f 182 183 184
f 183 182 185
f 186 187 67
f 60 188 189
f 188 60 190
f 191 192 193
f 182 184 194
f 189 188 195
f 196 13 124
f 13 196 62
f 38 124 23
f 124 38 196
f 24 74 123
f 123 74 72
f 4 6 197
f 198 199 200
f 201 12 202
f 200 203 204
f 162 205 163
f 206 207 208
f 71 209 210
f 211 212 213
f 214 142 215
f 216 217 218
f 77 83 219
f 114 220 115
f 221 50 49
f 50 221 222
f 126 223 224
f 225 226 227
f 228 216 145
f 229 230 231
f 232 233 234
f 51 151 52
f 53 52 20
f 98 235 99
f 236 186 237
f 186 67 237
f 238 98 125
f 55 20 19
f 239 149 240
f 224 241 127
f 242 243 244
f 103 102 107
f 245 246 158
f 224 247 241
f 223 247 224
f 168 248 249
f 134 133 250
f 30 5 4
f 251 101 252
f 58 174 253
f 174 58 32
f 176 107 174
f 174 32 31
f 22 33 23
f 33 254 177
f 33 173 254
f 180 255 178
f 255 180 256
f 185 257 258
f 181 259 260
f 156 261 262
f 185 258 183
f 263 178 73
f 178 263 179
f 264 265 13
f 265 264 266
f 152 154 267
f 111 119 152
f 41 267 112
f 131 39 186
f 268 269 270
f 271 272 43
f 156 262 273
f 60 194 190
f 194 60 182
f 84 86 156
f 274 189 85
f 189 195 275
f 24 124 74
f 24 23 124
f 148 123 25
f 123 72 25
f 5 166 6
f 140 4 197
f 141 276 277
f 278 12 201
f 279 106 280
f 281 282 283
f 34 36 284
f 211 285 212
f 269 286 157
f 287 210 288
f 289 290 291
f 290 289 292
f 144 293 294
f 293 144 291
f 191 273 192
f 273 191 156
f 295 208 296
f 69 236 70
f 70 297 71
f 106 168 280
f 207 298 299
f 300 301 302
f 301 300 145
f 303 145 300
f 304 91 90
f 91 304 305
f 279 306 106
f 16 18 307
f 167 308 10
f 309 310 311
f 312 313 314
f 305 222 221
f 222 305 304
f 315 46 45
f 316 226 225
f 317 318 319
f 138 320 321
f 320 138 313
f 277 322 323
f 324 325 230
f 326 80 327
f 165 328 121
f 272 329 43
f 330 94 54
f 133 331 332
f 333 25 27
f 148 25 333
f 27 26 334
f 334 26 111
f 334 152 40
f 100 99 39
f 8 160 172
f 335 150 51
f 54 55 19
f 245 336 246
f 130 160 8
f 337 336 245
f 158 246 159
f 338 337 245
f 339 251 337
f 250 332 95
f 125 131 340
f 341 342 247
f 122 121 116
f 343 344 345
f 5 346 166
f 30 346 5
f 9 8 344
f 169 347 170
f 325 348 16
f 198 200 202
f 349 350 351
f 151 22 52
f 52 22 20
f 151 110 22
f 150 31 151
f 255 259 181
f 259 255 352
f 255 353 354
f 255 354 352
f 73 178 118
f 267 154 185
f 181 355 153
f 355 181 356
f 119 181 153
f 152 119 153
f 41 112 68
f 334 111 152
f 39 41 187
f 267 185 112
f 59 112 357
f 209 358 359
f 235 334 40
f 186 39 187
f 63 61 274
f 359 274 85
f 86 360 361
f 86 261 156
f 261 86 361
f 362 275 363
f 275 362 189
f 85 189 362
f 364 85 84
f 364 84 286
f 333 27 334
f 333 334 235
f 28 30 140
f 365 366 367
f 368 120 122
f 367 369 370
f 366 203 371
f 248 372 249
f 250 95 373
f 161 71 287
f 374 375 376
f 375 374 377
f 378 83 374
f 83 82 379
f 296 380 381
f 380 296 382
f 233 295 383
f 115 35 34
f 384 385 364
f 350 386 64
f 157 193 387
f 193 157 191
f 286 155 157
f 157 156 191
f 209 359 385
f 43 388 389
f 282 288 283
f 210 209 385
f 384 364 286
f 329 286 269
f 44 43 390
f 105 248 168
f 216 391 217
f 391 216 378
f 92 145 303
f 145 92 91
f 305 77 219
f 91 305 228
f 392 49 48
f 393 394 395
f 325 16 396
f 220 397 35
f 398 399 76
f 400 323 401
f 277 276 322
f 49 402 221
f 319 318 403
f 404 47 405
f 406 407 408
f 400 316 409
f 316 400 226
f 226 317 227
f 317 226 318
f 401 410 318
f 411 327 80
f 327 411 412
f 79 413 411
f 301 145 147
f 236 297 70
f 236 237 297
f 165 340 328
f 116 121 117
f 414 240 98
f 415 169 416
f 159 150 335
f 240 333 98
f 98 333 235
f 328 186 236
f 125 100 131
f 417 341 247
f 417 247 223
f 337 252 336
f 172 335 51
f 172 51 93
f 159 175 176
f 338 245 158
f 101 418 102
f 176 174 150
f 252 101 336
f 368 419 120
f 306 104 106
f 420 69 161
f 288 421 272
f 422 348 324
f 332 96 95
f 423 424 248
f 105 423 248
f 348 425 16
f 324 348 325
f 426 114 113
f 6 427 46
f 370 426 428
f 429 169 171
f 202 200 204
f 251 242 244
f 103 107 175
f 109 174 107
f 174 109 253
f 330 54 430
f 94 51 53
f 151 31 110
f 31 33 110
f 181 260 356
f 72 13 265
f 13 15 264
f 255 256 431
f 431 353 255
f 353 431 432
f 153 433 154
f 433 153 355
f 154 257 185
f 257 154 433
f 178 255 118
f 118 255 181
f 40 152 41
f 41 152 267
f 59 357 60
f 112 185 182
f 61 60 189
f 274 61 189
f 187 41 68
f 187 68 67
f 269 157 270
f 388 269 389
f 85 362 86
f 362 360 86
f 360 362 363
f 385 359 364
f 359 85 364
f 240 148 333
f 149 148 240
f 346 167 166
f 347 434 162
f 396 16 307
f 435 436 279
f 435 279 386
f 171 164 397
f 171 170 164
f 424 372 248
f 88 42 89
f 437 216 218
f 145 437 146
f 437 145 216
f 1 438 377
f 438 1 3
f 379 214 377
f 379 82 214
f 377 214 1
f 439 113 142
f 143 284 291
f 115 34 284
f 440 386 349
f 36 441 232
f 442 441 36
f 443 234 444
f 389 268 299
f 208 207 211
f 208 211 213
f 208 213 296
f 66 208 295
f 442 351 441
f 212 445 446
f 445 212 270
f 213 382 296
f 382 213 447
f 282 287 288
f 287 71 210
f 88 288 271
f 288 272 271
f 249 44 298
f 390 43 389
f 272 384 329
f 329 384 286
f 448 249 298
f 386 279 449
f 450 451 452
f 451 450 453
f 219 83 378
f 114 454 220
f 75 77 305
f 455 49 392
f 323 456 406
f 140 30 4
f 139 457 140
f 322 276 456
f 170 162 164
f 199 458 203
f 459 6 46
f 439 142 214
f 276 140 197
f 135 460 411
f 460 135 137
f 427 10 278
f 47 461 462
f 463 277 323
f 322 456 323
f 400 314 313
f 314 400 409
f 136 138 321
f 405 399 464
f 320 313 312
f 452 403 318
f 403 452 465
f 466 464 402
f 371 416 467
f 230 325 396
f 450 468 469
f 465 452 451
f 470 395 78
f 231 230 393
f 394 307 310
f 395 394 471
f 394 310 309
f 67 59 63
f 71 297 209
f 121 236 117
f 117 236 69
f 121 328 236
f 419 472 473
f 414 98 238
f 474 19 149
f 96 239 414
f 239 240 414
f 475 239 96
f 332 475 96
f 250 133 332
f 17 476 457
f 338 158 477
f 129 477 130
f 130 158 160
f 159 176 150
f 172 159 335
f 160 159 172
f 337 251 252
f 478 242 251
f 200 199 203
f 89 42 372
f 479 7 9
f 281 88 87
f 480 122 116
f 481 116 420
f 116 69 420
f 282 161 287
f 420 161 482
f 203 483 484
f 345 344 485
f 458 483 203
f 482 161 282
f 472 238 473
f 473 238 125
f 473 125 340
f 419 165 120
f 436 306 279
f 486 347 169
f 457 476 28
f 205 436 163
f 11 487 198
f 488 482 282
f 87 89 489
f 132 490 133
f 10 12 278
f 46 461 47
f 12 198 202
f 12 11 198
f 203 484 371
f 298 389 299
f 491 492 399
f 101 493 418
f 107 494 108
f 244 493 101
f 251 244 101
f 94 53 54
f 330 93 94
f 266 73 265
f 73 266 263
f 72 265 73
f 212 495 213
f 495 212 446
f 213 495 447
f 99 40 39
f 235 40 99
f 112 182 357
f 357 182 60
f 270 387 496
f 387 270 157
f 270 496 445
f 286 84 155
f 155 84 156
f 285 268 212
f 268 270 212
f 237 63 297
f 237 67 63
f 21 123 148
f 19 21 148
f 457 28 140
f 141 140 276
f 476 29 28
f 373 95 497
f 434 205 162
f 449 279 280
f 163 436 435
f 170 347 162
f 487 199 198
f 351 295 441
f 427 278 461
f 424 89 372
f 485 490 132
f 372 44 249
f 372 42 44
f 91 228 145
f 219 378 216
f 377 438 498
f 378 376 391
f 376 378 374
f 144 2 1
f 2 144 294
f 284 36 232
f 234 499 444
f 499 234 500
f 215 144 1
f 214 215 1
f 232 234 289
f 113 115 142
f 381 380 501
f 233 500 234
f 66 206 208
f 280 448 65
f 383 296 500
f 295 296 383
f 42 271 43
f 88 271 42
f 390 389 298
f 44 390 298
f 421 384 272
f 210 385 384
f 168 249 448
f 280 168 448
f 398 76 75
f 365 367 492
f 402 75 305
f 221 402 305
f 310 502 311
f 18 457 139
f 488 282 281
f 308 11 10
f 459 46 315
f 81 428 82
f 202 204 365
f 483 503 415
f 197 6 459
f 276 197 456
f 6 166 427
f 166 10 427
f 412 411 460
f 395 471 413
f 463 323 400
f 410 408 318
f 504 47 404
f 504 404 466
f 278 201 505
f 399 506 76
f 470 231 395
f 413 309 507
f 231 393 395
f 508 324 230
f 396 307 394
f 229 508 230
f 507 509 313
f 509 277 463
f 509 463 313
f 135 413 138
f 340 131 186
f 340 186 328
f 331 474 239
f 474 149 239
f 97 472 419
f 96 414 238
f 343 9 344
f 510 511 330
f 126 224 127
f 344 511 510
f 344 8 511
f 8 93 511
f 477 158 130
f 247 337 241
f 241 337 338
f 246 103 175
f 246 175 159
f 493 512 513
f 244 243 493
f 342 251 339
f 514 127 129
f 7 130 8
f 515 346 30
f 283 288 88
f 281 283 88
f 481 420 482
f 497 97 419
f 497 95 97
f 489 89 424
f 425 17 16
f 18 17 457
f 415 503 169
f 503 486 169
f 516 223 517
f 223 516 417
f 416 169 429
f 35 442 36
f 102 518 519
f 494 102 519
f 102 494 107
f 54 19 474
f 430 54 474
f 499 500 520
f 500 521 520
f 381 521 500
f 521 381 501
f 500 296 381
f 299 268 285
f 389 269 268
f 43 329 388
f 388 329 269
f 209 63 358
f 297 63 209
f 479 9 343
f 522 324 508
f 324 522 422
f 164 440 397
f 163 435 386
f 523 419 368
f 397 349 35
f 524 428 81
f 65 525 207
f 65 448 525
f 449 65 64
f 351 66 295
f 305 219 228
f 228 219 216
f 83 379 374
f 374 379 377
f 375 377 498
f 289 443 292
f 443 289 234
f 233 383 500
f 291 290 526
f 293 291 526
f 143 291 144
f 215 142 144
f 291 232 289
f 284 232 291
f 211 299 285
f 207 299 211
f 288 210 421
f 210 384 421
f 76 81 83
f 77 76 83
f 469 402 49
f 453 49 455
f 49 453 450
f 310 307 502
f 311 502 277
f 481 482 527
f 527 482 488
f 517 223 126
f 197 459 456
f 456 459 315
f 46 427 461
f 505 528 491
f 204 203 366
f 204 366 365
f 318 408 452
f 323 406 401
f 309 311 507
f 313 463 400
f 220 35 115
f 408 504 468
f 464 398 75
f 402 464 75
f 464 399 398
f 405 491 399
f 76 506 81
f 366 371 369
f 80 79 411
f 230 396 394
f 393 230 394
f 502 139 141
f 502 141 277
f 411 413 135
f 471 394 309
f 471 309 413
f 138 507 313
f 413 507 138
f 419 473 165
f 473 340 165
f 332 331 475
f 331 239 475
f 490 430 133
f 490 330 430
f 511 93 330
f 510 330 490
f 336 101 103
f 336 103 246
f 342 478 251
f 247 339 337
f 247 342 339
f 480 116 529
f 127 241 338
f 514 129 7
f 29 515 30
f 97 96 472
f 96 238 472
f 371 484 416
f 429 171 454
f 484 415 416
f 484 483 415
f 513 418 493
f 418 513 530
f 518 418 530
f 418 518 102
f 63 274 358
f 358 274 359
f 449 280 65
f 386 449 64
f 370 369 426
f 367 366 369
f 397 440 349
f 349 386 350
f 66 65 206
f 65 207 206
f 351 64 66
f 350 64 351
f 448 298 525
f 525 298 207
f 35 349 442
f 442 349 351
f 82 439 214
f 531 113 439
f 142 115 143
f 143 115 284
f 232 441 233
f 441 295 233
f 468 504 466
f 450 469 49
f 307 18 532
f 532 18 139
f 529 116 481
f 128 127 514
f 514 7 479
f 201 202 505
f 461 278 505
f 226 401 318
f 400 401 226
f 407 315 504
f 407 504 408
f 45 47 504
f 315 45 504
f 466 405 464
f 404 405 466
f 82 531 439
f 428 531 82
f 524 533 428
f 506 524 81
f 307 532 502
f 532 139 502
f 507 311 509
f 311 277 509
f 368 122 480
f 485 510 490
f 485 344 510
f 430 474 331
f 133 430 331
f 127 338 129
f 129 338 477
f 497 419 523
f 506 492 524
f 399 492 506
f 467 416 454
f 416 429 454
f 164 163 440
f 440 163 386
f 468 466 469
f 469 466 402
f 522 348 422
f 522 425 348
f 522 17 425
f 522 476 17
f 522 29 476
f 522 515 29
f 522 346 515
f 522 167 346
f 522 308 167
f 522 11 308
f 522 487 11
f 522 199 487
f 522 458 199
f 522 483 458
f 522 503 483
f 522 486 503
f 522 347 486
f 522 434 347
f 522 205 434
f 522 436 205
f 522 306 436
f 522 104 306
f 522 105 104
f 522 423 105
f 522 424 423
f 522 489 424
f 522 87 489
f 522 281 87
f 522 488 281
f 522 527 488
f 522 481 527
f 522 529 481
f 522 480 529
f 522 368 480
f 522 523 368
f 522 497 523
f 522 373 497
f 522 250 373
f 522 134 250
f 522 132 134
f 522 485 132
f 522 345 485
f 522 343 345
f 522 479 343
f 522 514 479
f 522 128 514
f 522 126 128
f 522 517 126
f 517 522 516
f 505 202 528
f 528 202 365
f 462 491 405
f 47 462 405
f 401 406 410
f 410 406 408
f 452 468 450
f 408 468 452
f 406 456 407
f 456 315 407
f 492 533 524
f 492 367 533
f 491 528 492
f 528 365 492
f 78 395 79
f 79 395 413
f 534 493 243
f 493 534 512
f 243 535 534
f 369 371 467
f 467 454 426
f 454 171 536
f 536 171 397
f 426 454 114
f 369 467 426
f 462 505 491
f 461 505 462
f 533 367 370
f 533 370 428
f 454 536 220
f 536 397 220
f 531 426 113
f 428 426 531
f 537 300 302
f 537 303 300
f 537 92 303
f 538 92 537
f 92 538 90
f 90 538 304
f 304 538 222
f 222 538 50
f 50 538 48
f 48 538 392
f 392 538 455
f 451 455 538
f 455 451 453
f 451 538 465
f 465 538 403
f 403 538 319
f 319 538 317
f 317 538 227
f 227 538 225
f 225 538 316
f 316 538 409
f 409 538 314
f 314 538 312
f 312 538 320
f 320 538 321
f 321 538 136
f 136 538 137
f 137 538 460
f 460 538 412
f 412 538 327
f 327 538 326
f 539 538 537
f 538 539 540
f 431 539 432
f 256 539 431
f 180 539 256
f 540 180 179
f 540 179 263
f 540 263 266
f 540 266 264
f 540 264 15
f 540 15 14
f 540 14 62
f 38 62 196
f 62 38 540
f 540 38 37
f 540 37 177
f 540 177 254
f 540 254 173
f 540 173 57
f 540 57 56
f 540 56 58
f 540 58 253
f 540 253 109
f 540 109 108
f 540 108 494
f 540 494 519
f 540 519 518
f 540 518 530
f 540 530 513
f 540 513 512
f 540 512 534
f 540 534 535
f 180 540 539
f 301 537 302
f 537 437 539
f 537 301 147
f 259 539 437
f 146 537 147
f 352 539 259
f 537 146 437
f 353 539 354
f 539 353 432
f 539 352 354
f 218 259 437
f 218 260 259
f 375 218 217
f 498 218 375
f 375 217 391
f 218 498 260
f 375 391 376
f 260 257 356
f 356 257 355
f 355 257 433
f 258 260 498
f 260 258 257
f 438 258 498
f 438 183 258
f 293 438 3
f 438 293 183
f 293 3 2
f 188 183 293
f 293 2 294
f 183 188 184
f 184 188 194
f 194 188 190
f 526 188 293
f 526 195 188
f 290 195 526
f 290 275 195
f 292 275 290
f 292 363 275
f 443 363 292
f 443 360 363
f 499 443 444
f 443 499 360
f 261 360 499
f 360 261 361
f 521 499 520
f 499 521 261
f 273 261 521
f 261 273 262
f 380 521 501
f 521 380 273
f 193 273 380
f 273 193 192
f 382 193 380
f 382 387 193
f 495 382 447
f 382 495 387
f 445 387 495
f 387 445 496
f 445 495 446
f 243 540 535
f 478 540 242
f 540 243 242
f 342 540 478
f 80 538 78
f 538 80 326
f 341 540 342
f 538 470 78
f 417 540 341
f 538 231 470
f 516 540 417
f 538 229 231
f 540 516 538
f 538 508 229
f 522 538 516
f 538 522 508
# 1076 faces, 0 coords texture

# End of File
