####
#
# OBJ File Generated by Meshlab
#
####
# Object right_foot_geom.obj
#
# Vertices: 540
# Faces: 1076
#
####
v 0.008100 -0.024036 -0.023429
v 0.004674 -0.017554 -0.024857
v 0.005808 -0.017237 -0.024857
v 0.020081 -0.048904 -0.013133
v 0.014746 -0.043760 -0.016377
v 0.017567 -0.042781 -0.016377
v -0.049784 -0.052299 -0.000905
v -0.050432 -0.052299 -0.000547
v -0.050414 -0.051764 -0.000905
v -0.009648 -0.023498 -0.023429
v -0.014273 -0.029246 -0.021535
v -0.011160 -0.022867 -0.023429
v -0.027121 -0.018998 -0.021535
v -0.028304 -0.017319 -0.021535
v -0.022131 -0.013542 -0.023429
v 0.051350 -0.007368 -0.014374
v 0.047344 -0.005767 -0.016377
v 0.051350 -0.006254 -0.014460
v 0.046875 -0.008621 -0.016377
v 0.021475 -0.052299 -0.011033
v 0.024621 -0.052299 -0.010339
v 0.049233 -0.044579 -0.005382
v 0.051350 -0.041404 -0.005760
v 0.051350 -0.042265 -0.005382
v 0.044588 -0.040372 -0.009464
v -0.007627 -0.038549 -0.019182
v -0.010122 -0.038012 -0.019182
v -0.008336 -0.031307 -0.021535
v 0.047626 -0.002889 -0.016377
v 0.040622 -0.002463 -0.019182
v 0.047721 0.000000 -0.016377
v -0.012628 -0.022147 -0.023429
v -0.017963 -0.027291 -0.021535
v -0.014045 -0.021339 -0.023429
v 0.014983 -0.036488 -0.019182
v 0.017330 -0.035510 -0.019182
v -0.040292 -0.024654 -0.016377
v -0.047803 -0.025339 -0.013133
v -0.041818 -0.022166 -0.016377
v 0.034422 -0.052299 -0.007493
v 0.032692 -0.052299 -0.008058
v 0.032774 -0.049795 -0.009464
v -0.003284 -0.025074 -0.023429
v -0.006281 -0.031750 -0.021535
v -0.004911 -0.024825 -0.023429
v 0.023717 -0.010760 -0.023429
v 0.016472 -0.008731 -0.024857
v 0.017008 -0.007716 -0.024857
v -0.046059 -0.028183 -0.013133
v -0.051350 -0.001783 -0.014626
v -0.047626 -0.002889 -0.016377
v -0.051350 -0.003115 -0.014605
v -0.047721 0.000000 -0.016377
v -0.039423 -0.009759 -0.019182
v -0.046222 -0.011442 -0.016377
v -0.039981 -0.007354 -0.019182
v -0.029671 -0.026865 -0.019182
v -0.036769 -0.029329 -0.016377
v -0.031362 -0.025016 -0.019182
v -0.015407 -0.020446 -0.023429
v -0.011048 -0.014662 -0.024857
v 0.019704 -0.026150 -0.021535
v 0.015407 -0.020446 -0.023429
v 0.016707 -0.019473 -0.023429
v -0.002583 -0.002652 -0.026290
v -0.008243 -0.007463 -0.025812
v -0.002750 -0.002491 -0.026290
v 0.043120 -0.052299 -0.004075
v 0.043051 -0.050177 -0.005382
v 0.044872 -0.052299 -0.003287
v -0.038988 -0.045442 -0.009464
v -0.041870 -0.042992 -0.009464
v -0.034772 -0.040527 -0.013133
v -0.043179 -0.019590 -0.016377
v -0.049359 -0.022395 -0.013133
v -0.044370 -0.016938 -0.016377
v -0.035952 -0.047712 -0.009464
v 0.034772 -0.040527 -0.013133
v 0.030418 -0.035453 -0.016377
v 0.032667 -0.033541 -0.016377
v -0.021475 -0.052299 -0.011033
v -0.024621 -0.052299 -0.010339
v -0.020081 -0.048904 -0.013133
v -0.043051 -0.050177 -0.005382
v -0.039661 -0.052299 -0.005599
v -0.040213 -0.052299 -0.005382
v 0.051350 -0.046494 -0.003254
v 0.051350 -0.025220 -0.011411
v 0.049359 -0.022395 -0.013133
v 0.051350 -0.023298 -0.011913
v -0.051350 -0.023298 -0.011913
v -0.051350 -0.022214 -0.012161
v 0.032929 -0.006056 -0.021535
v 0.026005 -0.003167 -0.023429
v 0.033258 -0.004050 -0.021535
v -0.023924 -0.031750 -0.019182
v -0.019704 -0.026150 -0.021535
v -0.024928 -0.007810 -0.023429
v -0.025388 -0.006285 -0.023429
v -0.017877 -0.005600 -0.024857
v -0.024437 -0.022126 -0.021535
v -0.025829 -0.020603 -0.021535
v -0.020196 -0.016110 -0.023429
v -0.016472 -0.008731 -0.024857
v -0.017008 -0.007716 -0.024857
v -0.009909 -0.005252 -0.025812
v -0.051350 -0.041404 -0.005760
v -0.049233 -0.044579 -0.005382
v -0.051350 -0.042265 -0.005382
v -0.044588 -0.040372 -0.009464
v -0.050720 -0.019362 -0.013133
v -0.051350 -0.019603 -0.012758
v -0.051350 -0.019266 -0.012824
v -0.019107 -0.017301 -0.023429
v -0.047129 -0.037592 -0.009464
v -0.049484 -0.034665 -0.009464
v -0.042032 -0.033526 -0.013133
v -0.029229 -0.044410 -0.013133
v -0.032774 -0.049795 -0.009464
v -0.032063 -0.042552 -0.013133
v -0.026279 -0.046091 -0.013133
v -0.022989 -0.040320 -0.016377
v -0.032692 -0.052299 -0.008058
v -0.029467 -0.051681 -0.009464
v -0.029819 -0.052299 -0.008995
v 0.045385 -0.014218 -0.016377
v 0.051350 -0.015802 -0.013438
v 0.051350 -0.016087 -0.013399
v 0.046222 -0.011442 -0.016377
v 0.051350 -0.005012 -0.014518
v 0.051350 -0.003115 -0.014605
v 0.012577 -0.037324 -0.019182
v 0.009547 -0.005841 -0.025812
v 0.009909 -0.005252 -0.025812
v 0.023227 -0.047591 -0.013133
v 0.022989 -0.040320 -0.016377
v 0.026279 -0.046091 -0.013133
v 0.025524 -0.052299 -0.010140
v 0.001645 -0.025223 -0.023429
v 0.001180 -0.018087 -0.024857
v 0.003284 -0.025074 -0.023429
v 0.020196 -0.016110 -0.023429
v 0.014483 -0.011552 -0.024857
v 0.015206 -0.010653 -0.024857
v 0.039981 -0.007354 -0.019182
v 0.040381 -0.004918 -0.019182
v 0.030333 -0.013763 -0.021535
v 0.022969 -0.012176 -0.023429
v 0.031362 -0.025016 -0.019182
v 0.027121 -0.018998 -0.021535
v 0.032929 -0.023068 -0.019182
v 0.004162 -0.010137 -0.025812
v 0.001607 -0.003292 -0.026290
v 0.004814 -0.009865 -0.025812
v -0.016150 -0.028324 -0.021535
v -0.019608 -0.034390 -0.019182
v -0.039765 -0.036005 -0.013133
v -0.050936 -0.052299 -0.000268
v -0.032470 -0.008038 -0.021535
v 0.011981 -0.013965 -0.024857
v -0.051350 -0.051849 -0.000300
v -0.051350 -0.050861 -0.000905
v 0.010359 -0.030741 -0.021535
v 0.012341 -0.030053 -0.021535
v -0.028207 -0.052299 -0.009464
v -0.023227 -0.047591 -0.013133
v -0.025524 -0.052299 -0.010140
v -0.036828 -0.016709 -0.019182
v -0.037342 -0.038341 -0.013133
v -0.032667 -0.033541 -0.016377
v -0.045385 -0.014218 -0.016377
v -0.037844 -0.014446 -0.019182
v 0.041870 -0.042992 -0.009464
v 0.037342 -0.038341 -0.013133
v 0.029467 -0.051681 -0.009464
v 0.029229 -0.044410 -0.013133
v -0.034786 -0.031497 -0.016377
v -0.019524 -0.052299 -0.011400
v 0.010801 -0.052299 -0.012708
v 0.013566 -0.050945 -0.013133
v 0.013927 -0.052299 -0.012329
v 0.010221 -0.051666 -0.013133
v 0.029671 -0.026865 -0.019182
v 0.034786 -0.031497 -0.016377
v 0.034366 -0.021029 -0.019182
v 0.028304 -0.017319 -0.021535
v -0.051350 -0.025220 -0.011411
v -0.051350 -0.017676 -0.013133
v -0.051350 -0.016087 -0.013399
v -0.002908 -0.002319 -0.026290
v -0.009148 -0.006409 -0.025812
v -0.003053 -0.002138 -0.026290
v 0.018464 -0.003396 -0.024857
v 0.010952 -0.002711 -0.025812
v 0.011107 -0.002043 -0.025812
v -0.015870 -0.009711 -0.024857
v 0.025829 -0.020603 -0.021535
v 0.021206 -0.014854 -0.023429
v 0.033457 -0.002029 -0.021535
v 0.026159 -0.001587 -0.023429
v 0.022131 -0.013542 -0.023429
v 0.015870 -0.009711 -0.024857
v 0.020318 -0.041633 -0.016377
v -0.011867 -0.044566 -0.016377
v 0.029819 -0.052299 -0.008995
v 0.028207 -0.052299 -0.009464
v 0.032063 -0.042552 -0.013133
v 0.051350 -0.012712 -0.013863
v 0.051350 -0.010337 -0.014118
v 0.037844 -0.014446 -0.019182
v 0.031169 -0.011898 -0.021535
v 0.031882 -0.009988 -0.021535
v 0.051350 -0.034722 -0.008454
v 0.049484 -0.034665 -0.009464
v 0.051350 -0.032018 -0.009464
v 0.024371 -0.009303 -0.023429
v 0.024928 -0.007810 -0.023429
v 0.051350 -0.001783 -0.014626
v 0.051350 0.000000 -0.014654
v -0.029376 -0.015572 -0.021535
v -0.030333 -0.013763 -0.021535
v -0.022969 -0.012176 -0.023429
v -0.003655 -0.000904 -0.026290
v -0.011107 -0.002043 -0.025812
v -0.003707 -0.000682 -0.026290
v -0.046233 -0.047471 -0.005382
v -0.038607 -0.027045 -0.016377
v -0.039409 -0.052299 -0.005698
v -0.034366 -0.021029 -0.019182
v -0.035667 -0.018906 -0.019182
v -0.032929 -0.023068 -0.019182
v -0.012341 -0.030053 -0.021535
v -0.021368 -0.024905 -0.021535
v -0.016707 -0.019473 -0.023429
v -0.028050 -0.037225 -0.016377
v -0.030418 -0.035453 -0.016377
v -0.025570 -0.038849 -0.016377
v -0.011981 -0.013965 -0.024857
v -0.051350 -0.007368 -0.014374
v -0.047344 -0.005767 -0.016377
v -0.046875 -0.008621 -0.016377
v -0.051350 -0.006254 -0.014460
v -0.005101 -0.038936 -0.019182
v 0.005980 -0.045649 -0.016377
v 0.005101 -0.038936 -0.019182
v 0.007627 -0.038549 -0.019182
v -0.020318 -0.041633 -0.016377
v -0.017330 -0.035510 -0.019182
v -0.010801 -0.052299 -0.012708
v -0.013566 -0.050945 -0.013133
v -0.010221 -0.051666 -0.013133
v -0.013927 -0.052299 -0.012329
v 0.051350 -0.051849 -0.000300
v 0.050414 -0.051764 -0.000905
v 0.051350 -0.050861 -0.000905
v -0.051350 -0.005012 -0.014518
v 0.002105 -0.032259 -0.021535
v 0.004201 -0.032067 -0.021535
v -0.012577 -0.037324 -0.019182
v -0.010359 -0.030741 -0.021535
v -0.014983 -0.036488 -0.019182
v 0.026212 0.000000 -0.023429
v 0.018760 -0.001138 -0.024857
v 0.018797 0.000000 -0.024857
v -0.006837 -0.052183 -0.013133
v -0.005980 -0.045649 -0.016377
v 0.002995 -0.045921 -0.016377
v 0.000000 -0.046012 -0.016377
v 0.002555 -0.039167 -0.019182
v -0.010347 -0.052299 -0.012763
v 0.000000 -0.018124 -0.024857
v 0.000710 -0.010881 -0.025812
v 0.047129 -0.037592 -0.009464
v 0.042032 -0.033526 -0.013133
v 0.029376 -0.015572 -0.021535
v 0.040213 -0.052299 -0.005382
v 0.028050 -0.037225 -0.016377
v 0.018648 -0.002271 -0.024857
v 0.017477 -0.006672 -0.024857
v 0.025388 -0.006285 -0.023429
v 0.025747 -0.004735 -0.023429
v -0.003744 -0.000456 -0.026290
v -0.011285 -0.000684 -0.025812
v -0.003766 -0.000228 -0.026290
v -0.001818 -0.003188 -0.026290
v -0.005447 -0.009554 -0.025812
v -0.002022 -0.003072 -0.026290
v -0.010231 -0.004642 -0.025812
v -0.003307 -0.001753 -0.026290
v -0.043120 -0.052299 -0.004075
v -0.044872 -0.052299 -0.003287
v -0.034422 -0.052299 -0.007493
v -0.038777 -0.052299 -0.005925
v -0.044132 -0.030916 -0.013133
v -0.051350 -0.040959 -0.005956
v -0.021206 -0.014854 -0.023429
v -0.015206 -0.010653 -0.024857
v -0.027863 -0.028608 -0.019182
v -0.038710 -0.012127 -0.019182
v -0.051350 -0.046494 -0.003254
v -0.017567 -0.042781 -0.016377
v -0.022948 -0.023562 -0.021535
v -0.025945 -0.030238 -0.019182
v -0.031882 -0.009988 -0.021535
v -0.009985 -0.052299 -0.012794
v -0.002995 -0.045921 -0.016377
v -0.006852 -0.052299 -0.013066
v -0.008942 -0.045196 -0.016377
v -0.021809 -0.033135 -0.019182
v 0.008942 -0.045196 -0.016377
v 0.019524 -0.052299 -0.011400
v 0.046233 -0.047471 -0.005382
v -0.051350 -0.027219 -0.010888
v 0.007740 -0.007948 -0.025812
v 0.002583 -0.002652 -0.026290
v 0.008243 -0.007463 -0.025812
v -0.001165 -0.003461 -0.026290
v -0.004162 -0.010137 -0.025812
v -0.001389 -0.003383 -0.026290
v 0.001417 -0.010817 -0.025812
v 0.000473 -0.003610 -0.026290
v 0.000707 -0.003574 -0.026290
v 0.019608 -0.034390 -0.019182
v 0.017963 -0.027291 -0.021535
v 0.021809 -0.033135 -0.019182
v -0.009055 -0.015881 -0.024857
v -0.010072 -0.015302 -0.024857
v 0.010231 -0.004642 -0.025812
v 0.003509 -0.001339 -0.026290
v 0.010513 -0.004013 -0.025812
v 0.010122 -0.038012 -0.019182
v -0.006518 -0.024479 -0.023429
v -0.008003 -0.016398 -0.024857
v -0.008100 -0.024036 -0.023429
v 0.008713 -0.006949 -0.025812
v 0.002908 -0.002319 -0.026290
v 0.009148 -0.006409 -0.025812
v 0.003497 -0.052299 -0.013226
v 0.003412 -0.052299 -0.013229
v 0.006852 -0.052299 -0.013066
v 0.005560 -0.052299 -0.013133
v 0.006837 -0.052183 -0.013133
v -0.005560 -0.052299 -0.013133
v -0.014746 -0.043760 -0.016377
v 0.014273 -0.029246 -0.021535
v 0.008336 -0.031307 -0.021535
v 0.011867 -0.044566 -0.016377
v 0.006281 -0.031750 -0.021535
v 0.051350 -0.017676 -0.013133
v 0.050720 -0.019362 -0.013133
v 0.051350 -0.039661 -0.006485
v 0.051350 -0.035972 -0.007987
v 0.035952 -0.047712 -0.009464
v 0.038988 -0.045442 -0.009464
v 0.039409 -0.052299 -0.005698
v 0.039661 -0.052299 -0.005599
v 0.038607 -0.027045 -0.016377
v 0.040292 -0.024654 -0.016377
v 0.051350 -0.009444 -0.014214
v 0.021368 -0.024905 -0.021535
v 0.022948 -0.023562 -0.021535
v 0.032470 -0.008038 -0.021535
v 0.044370 -0.016938 -0.016377
v 0.018206 -0.004507 -0.024857
v -0.000710 -0.010881 -0.025812
v -0.001417 -0.010817 -0.025812
v -0.000237 -0.003632 -0.026290
v -0.010952 -0.002711 -0.025812
v -0.023717 -0.010760 -0.023429
v -0.024371 -0.009303 -0.023429
v -0.017477 -0.006672 -0.024857
v -0.032929 -0.006056 -0.021535
v -0.033258 -0.004050 -0.021535
v -0.026005 -0.003167 -0.023429
v -0.040381 -0.004918 -0.019182
v -0.009547 -0.005841 -0.025812
v -0.018464 -0.003396 -0.024857
v 0.017877 -0.005600 -0.024857
v 0.010754 -0.003368 -0.025812
v 0.003655 -0.000904 -0.026290
v -0.003509 -0.001339 -0.026290
v -0.010513 -0.004013 -0.025812
v -0.003589 -0.001124 -0.026290
v -0.010754 -0.003368 -0.025812
v -0.016857 -0.050023 -0.013133
v -0.014970 -0.052299 -0.012168
v -0.051350 -0.035972 -0.007987
v -0.051350 -0.034722 -0.008454
v -0.017942 -0.018423 -0.023429
v -0.013702 -0.012406 -0.024857
v -0.031169 -0.011898 -0.021535
v 0.050432 -0.052299 -0.000547
v 0.049784 -0.052299 -0.000905
v -0.051350 -0.012712 -0.013863
v -0.051350 -0.010337 -0.014118
v -0.051350 -0.031122 -0.009744
v -0.051350 -0.031421 -0.009657
v -0.018760 -0.001138 -0.024857
v -0.011308 0.000000 -0.025812
v 0.000000 -0.010902 -0.025812
v 0.000000 -0.003638 -0.026290
v -0.012867 -0.013211 -0.024857
v -0.007208 -0.008401 -0.025812
v 0.002356 -0.017981 -0.024857
v 0.003522 -0.017802 -0.024857
v 0.000134 -0.052299 -0.013279
v 0.000000 -0.052299 -0.013280
v 0.000000 -0.032323 -0.021535
v -0.002555 -0.039167 -0.019182
v -0.002105 -0.032259 -0.021535
v 0.004911 -0.024825 -0.023429
v 0.006518 -0.024479 -0.023429
v 0.009648 -0.023498 -0.023429
v 0.011160 -0.022867 -0.023429
v -0.003494 -0.010369 -0.025812
v -0.006919 -0.016850 -0.024857
v -0.000134 -0.052299 -0.013279
v -0.003412 -0.052299 -0.013229
v 0.016857 -0.050023 -0.013133
v 0.000000 -0.039245 -0.019182
v 0.023924 -0.031750 -0.019182
v 0.025945 -0.030238 -0.019182
v 0.024437 -0.022126 -0.021535
v 0.051350 -0.031122 -0.009744
v 0.047803 -0.025339 -0.013133
v 0.051350 -0.027219 -0.010888
v 0.035667 -0.018906 -0.019182
v 0.036828 -0.016709 -0.019182
v 0.051350 -0.022214 -0.012161
v 0.038777 -0.052299 -0.005925
v 0.025570 -0.038849 -0.016377
v 0.051350 -0.031421 -0.009657
v 0.046059 -0.028183 -0.013133
v 0.039423 -0.009759 -0.019182
v 0.016150 -0.028324 -0.021535
v 0.041818 -0.022166 -0.016377
v 0.043179 -0.019590 -0.016377
v 0.011218 -0.001366 -0.025812
v 0.011308 0.000000 -0.025812
v 0.003307 -0.001753 -0.026290
v 0.033523 0.000000 -0.021535
v -0.008713 -0.006949 -0.025812
v -0.026159 -0.001587 -0.023429
v -0.011218 -0.001366 -0.025812
v -0.018206 -0.004507 -0.024857
v -0.051350 -0.009444 -0.014214
v -0.033457 -0.002029 -0.021535
v -0.040702 0.000000 -0.019182
v -0.033523 0.000000 -0.021535
v -0.018648 -0.002271 -0.024857
v -0.025747 -0.004735 -0.023429
v 0.000237 -0.003632 -0.026290
v 0.005447 -0.009554 -0.025812
v -0.003186 -0.001949 -0.026290
v 0.003053 -0.002138 -0.026290
v 0.003186 -0.001949 -0.026290
v -0.051350 -0.052299 -0.000024
v -0.017624 -0.052299 -0.011756
v 0.050936 -0.052299 -0.000268
v 0.051350 -0.052299 -0.000024
v -0.051350 -0.032018 -0.009464
v 0.011285 -0.000684 -0.025812
v 0.003774 0.000000 -0.026290
v 0.003766 -0.000228 -0.026290
v 0.003589 -0.001124 -0.026290
v 0.008003 -0.016398 -0.024857
v 0.009055 -0.015881 -0.024857
v -0.007740 -0.007948 -0.025812
v -0.006059 -0.009205 -0.025812
v -0.006646 -0.008821 -0.025812
v -0.002218 -0.002944 -0.026290
v 0.000000 -0.025273 -0.023429
v -0.003522 -0.017802 -0.024857
v -0.002356 -0.017981 -0.024857
v -0.004674 -0.017554 -0.024857
v -0.004814 -0.009865 -0.025812
v -0.005808 -0.017237 -0.024857
v -0.003497 -0.052299 -0.013226
v 0.006919 -0.016850 -0.024857
v 0.014970 -0.052299 -0.012168
v 0.051350 -0.040959 -0.005956
v 0.039765 -0.036005 -0.013133
v 0.036769 -0.029329 -0.016377
v 0.051350 -0.019266 -0.012824
v 0.051350 -0.019603 -0.012758
v 0.003744 -0.000456 -0.026290
v -0.040622 -0.002463 -0.019182
v -0.026212 0.000000 -0.023429
v 0.012867 -0.013211 -0.024857
v 0.013702 -0.012406 -0.024857
v -0.000473 -0.003610 -0.026290
v -0.000938 -0.003525 -0.026290
v -0.051350 -0.015802 -0.013438
v -0.051350 -0.039661 -0.006485
v 0.002118 -0.010710 -0.025812
v 0.000938 -0.003525 -0.026290
v 0.001818 -0.003188 -0.026290
v 0.002022 -0.003072 -0.026290
v 0.010072 -0.015302 -0.024857
v 0.006059 -0.009205 -0.025812
v 0.006646 -0.008821 -0.025812
v 0.007208 -0.008401 -0.025812
v 0.002405 -0.002804 -0.026290
v -0.003414 -0.001549 -0.026290
v 0.012628 -0.022147 -0.023429
v -0.002405 -0.002804 -0.026290
v -0.014483 -0.011552 -0.024857
v -0.004201 -0.032067 -0.021535
v 0.017942 -0.018423 -0.023429
v 0.019107 -0.017301 -0.023429
v 0.017624 -0.052299 -0.011756
v 0.044132 -0.030916 -0.013133
v 0.038710 -0.012127 -0.019182
v 0.027863 -0.028608 -0.019182
v 0.040702 0.000000 -0.019182
v -0.018797 0.000000 -0.024857
v -0.003774 0.000000 -0.026290
v -0.000707 -0.003574 -0.026290
v -0.002118 -0.010710 -0.025812
v 0.010347 -0.052299 -0.012763
v 0.009985 -0.052299 -0.012794
v -0.001607 -0.003292 -0.026290
v 0.003707 -0.000682 -0.026290
v 0.003414 -0.001549 -0.026290
v -0.001180 -0.018087 -0.024857
v -0.001645 -0.025223 -0.023429
v -0.002811 -0.010560 -0.025812
v 0.002218 -0.002944 -0.026290
v 0.002811 -0.010560 -0.025812
v -0.051350 0.000000 -0.014654
v 0.001389 -0.003383 -0.026290
v 0.003494 -0.010369 -0.025812
v 0.011048 -0.014662 -0.024857
v 0.002750 -0.002491 -0.026290
v 0.001165 -0.003461 -0.026290
v 0.014045 -0.021339 -0.023429
v 0.051350 0.000000 0.000000
v 0.051350 -0.052299 0.000000
v -0.051350 0.000000 0.000000
v -0.051350 -0.052299 0.000000
# 540 vertices, 0 vertices normals

f 1 2 3
f 4 5 6
f 7 8 9
f 10 11 12
f 13 14 15
f 16 17 18
f 17 16 19
f 20 4 21
f 22 23 24
f 23 22 25
f 26 27 28
f 29 30 31
f 32 33 34
f 6 35 36
f 37 38 39
f 40 41 42
f 43 44 45
f 46 47 48
f 49 38 37
f 50 51 52
f 51 50 53
f 54 55 56
f 57 58 59
f 34 60 61
f 62 63 64
f 65 66 67
f 68 69 70
f 71 72 73
f 74 75 76
f 77 71 73
f 78 79 80
f 81 82 83
f 84 85 86
f 85 84 71
f 87 22 24
f 88 89 90
f 75 91 92
f 93 94 95
f 33 96 97
f 98 99 100
f 101 102 103
f 104 105 106
f 107 108 109
f 108 107 110
f 111 112 113
f 114 101 103
f 115 116 117
f 118 119 120
f 121 118 122
f 123 124 125
f 124 123 119
f 126 127 128
f 127 126 129
f 130 29 131
f 6 132 35
f 47 133 134
f 135 136 137
f 21 135 138
f 135 21 4
f 139 140 141
f 142 143 144
f 145 93 146
f 147 148 46
f 149 150 151
f 152 153 154
f 155 156 33
f 71 84 72
f 157 117 58
f 8 158 9
f 54 56 159
f 63 160 64
f 9 161 162
f 163 1 164
f 165 166 167
f 166 165 124
f 39 74 168
f 169 157 170
f 110 115 117
f 76 171 172
f 173 78 174
f 175 176 42
f 170 177 57
f 166 124 121
f 178 81 83
f 179 180 181
f 180 179 182
f 80 183 184
f 185 150 186
f 75 187 91
f 188 171 111
f 171 188 189
f 190 191 192
f 193 194 195
f 196 15 104
f 197 198 150
f 199 94 200
f 201 202 47
f 6 36 203
f 26 204 27
f 205 206 175
f 42 176 207
f 208 129 209
f 210 211 212
f 213 214 215
f 19 145 146
f 146 93 95
f 212 216 217
f 29 146 30
f 29 218 131
f 218 29 31
f 218 31 219
f 220 221 222
f 223 224 225
f 226 108 110
f 226 9 108
f 58 117 227
f 165 125 124
f 228 71 77
f 71 228 85
f 120 77 73
f 13 229 14
f 220 230 221
f 59 227 231
f 232 11 10
f 26 28 44
f 97 233 234
f 235 236 96
f 122 118 237
f 61 60 238
f 14 220 15
f 239 240 241
f 240 239 242
f 58 227 59
f 243 26 44
f 244 245 246
f 247 122 248
f 166 121 122
f 249 250 251
f 250 249 252
f 253 254 255
f 256 240 242
f 240 256 51
f 37 39 229
f 245 257 258
f 142 144 198
f 137 136 176
f 27 259 260
f 259 261 232
f 262 263 264
f 265 251 266
f 267 268 269
f 270 249 251
f 269 257 245
f 140 271 272
f 175 135 137
f 135 206 138
f 206 135 175
f 273 274 214
f 275 148 147
f 68 276 69
f 207 277 78
f 94 278 263
f 199 200 262
f 46 48 279
f 280 193 281
f 19 146 17
f 92 111 75
f 111 92 112
f 282 283 284
f 285 286 287
f 106 288 289
f 290 291 84
f 292 293 119
f 294 116 49
f 295 110 107
f 110 295 115
f 86 290 84
f 9 291 7
f 291 9 84
f 124 119 118
f 247 166 122
f 121 124 118
f 97 96 233
f 119 77 120
f 293 77 119
f 77 293 228
f 60 234 238
f 155 33 32
f 103 296 297
f 298 170 57
f 231 227 229
f 230 168 221
f 75 111 76
f 299 55 54
f 108 300 109
f 300 9 162
f 9 300 108
f 261 248 232
f 83 247 301
f 298 57 302
f 101 59 102
f 237 118 235
f 96 236 303
f 248 156 155
f 248 122 156
f 168 76 172
f 98 304 99
f 177 58 57
f 227 294 37
f 305 270 251
f 306 266 243
f 305 265 307
f 265 305 251
f 251 204 308
f 118 120 235
f 309 96 33
f 310 244 246
f 20 311 4
f 254 87 255
f 87 254 22
f 254 312 22
f 187 38 313
f 38 187 75
f 117 116 294
f 314 315 316
f 317 318 319
f 320 321 322
f 225 224 282
f 323 324 325
f 47 134 48
f 326 32 327
f 328 329 330
f 132 163 164
f 5 331 132
f 45 28 332
f 333 326 286
f 334 232 10
f 260 259 232
f 93 281 94
f 335 336 337
f 267 338 339
f 338 267 244
f 340 341 342
f 343 307 265
f 344 301 259
f 344 83 301
f 36 164 345
f 331 246 346
f 347 331 5
f 180 182 347
f 310 246 347
f 258 141 348
f 135 4 203
f 4 6 203
f 126 349 350
f 349 126 128
f 351 214 352
f 353 78 354
f 355 354 356
f 354 355 353
f 42 207 353
f 175 41 205
f 41 175 42
f 357 185 358
f 78 80 174
f 127 129 208
f 209 19 359
f 19 209 129
f 360 64 361
f 212 280 362
f 362 281 93
f 363 210 126
f 364 194 193
f 280 364 193
f 281 193 94
f 17 130 18
f 130 17 29
f 17 146 29
f 365 366 367
f 368 224 223
f 369 370 371
f 304 54 159
f 372 373 374
f 372 375 373
f 55 241 56
f 196 104 376
f 368 377 224
f 378 379 194
f 194 380 195
f 381 382 383
f 382 384 383
f 123 292 119
f 385 83 344
f 252 386 250
f 72 226 110
f 72 110 169
f 116 387 388
f 117 294 227
f 84 226 72
f 84 9 226
f 236 73 170
f 235 73 236
f 156 237 309
f 60 97 234
f 389 114 390
f 302 101 114
f 102 59 13
f 102 13 296
f 103 102 296
f 38 75 39
f 39 75 74
f 221 391 370
f 370 98 371
f 168 172 221
f 111 113 188
f 83 166 247
f 82 166 83
f 166 82 167
f 301 247 248
f 261 301 248
f 303 236 298
f 303 298 302
f 57 59 101
f 302 57 101
f 33 97 60
f 34 33 60
f 156 309 33
f 122 237 156
f 391 172 304
f 74 76 168
f 171 55 299
f 157 110 117
f 169 110 157
f 259 301 261
f 266 26 243
f 392 393 254
f 55 394 395
f 38 396 313
f 396 49 397
f 49 396 38
f 283 398 399
f 400 367 401
f 46 279 216
f 238 402 403
f 402 389 390
f 141 404 405
f 246 245 348
f 268 406 407
f 406 268 267
f 408 409 410
f 346 411 412
f 345 413 414
f 326 327 286
f 415 416 318
f 260 232 334
f 232 248 11
f 332 28 334
f 44 28 45
f 11 248 155
f 11 155 32
f 417 418 306
f 180 347 5
f 419 180 5
f 27 344 259
f 204 344 27
f 420 409 408
f 306 243 409
f 421 360 422
f 183 423 149
f 132 164 35
f 35 164 36
f 347 246 331
f 5 132 6
f 244 267 245
f 267 269 245
f 424 425 426
f 427 147 428
f 90 89 429
f 129 145 19
f 359 19 16
f 430 353 355
f 353 430 42
f 40 42 430
f 176 136 431
f 175 137 176
f 312 25 22
f 312 173 25
f 214 432 215
f 432 214 433
f 433 358 425
f 434 362 145
f 135 203 136
f 36 345 435
f 436 428 437
f 425 436 89
f 278 195 438
f 263 439 264
f 216 279 217
f 134 440 328
f 199 262 441
f 442 297 191
f 297 296 196
f 374 443 398
f 444 398 283
f 100 99 445
f 105 371 288
f 299 54 304
f 241 446 239
f 395 241 55
f 241 395 446
f 447 448 449
f 450 374 398
f 451 374 377
f 320 452 321
f 154 153 453
f 192 191 454
f 337 455 456
f 379 380 194
f 161 158 457
f 158 161 9
f 386 385 250
f 385 386 458
f 178 385 458
f 385 178 83
f 236 170 298
f 120 73 235
f 73 72 169
f 73 169 170
f 96 303 233
f 233 303 302
f 231 229 13
f 59 231 13
f 114 103 390
f 389 302 114
f 229 39 230
f 230 39 168
f 227 37 229
f 14 229 220
f 229 230 220
f 237 235 309
f 309 235 96
f 221 172 391
f 76 111 171
f 172 171 299
f 172 299 304
f 177 157 58
f 170 157 177
f 294 49 37
f 69 173 312
f 356 69 276
f 69 356 354
f 392 254 459
f 459 253 460
f 253 459 254
f 116 388 461
f 397 116 461
f 116 397 49
f 462 463 439
f 463 462 464
f 454 376 289
f 279 379 378
f 330 465 379
f 466 453 467
f 198 144 202
f 468 390 66
f 468 66 65
f 469 470 471
f 139 472 140
f 245 258 348
f 132 331 163
f 258 257 141
f 246 348 346
f 43 473 474
f 332 334 475
f 409 243 410
f 269 420 408
f 61 238 403
f 32 34 327
f 233 302 234
f 238 389 402
f 416 333 476
f 416 10 333
f 477 416 415
f 334 10 477
f 27 260 28
f 28 260 334
f 182 310 347
f 182 244 310
f 478 306 418
f 306 478 266
f 343 266 478
f 266 343 265
f 417 268 407
f 268 417 306
f 268 306 409
f 413 466 414
f 198 202 201
f 136 323 431
f 357 151 185
f 421 62 360
f 325 324 421
f 413 479 466
f 164 413 345
f 419 5 4
f 181 180 480
f 352 214 213
f 433 424 432
f 424 433 425
f 273 351 481
f 351 273 214
f 482 483 274
f 434 212 362
f 484 350 349
f 254 69 312
f 70 254 393
f 254 70 69
f 353 207 78
f 176 431 277
f 485 350 484
f 429 350 485
f 350 429 89
f 362 280 281
f 436 427 428
f 363 428 210
f 217 279 378
f 149 197 150
f 149 423 197
f 437 428 363
f 427 275 147
f 94 263 200
f 200 263 262
f 94 193 278
f 193 195 278
f 263 462 439
f 438 486 462
f 280 378 364
f 378 194 364
f 95 94 199
f 146 95 199
f 296 13 15
f 296 15 196
f 297 196 191
f 99 451 377
f 487 448 447
f 104 369 105
f 222 221 369
f 445 99 377
f 222 369 104
f 445 377 368
f 371 98 100
f 288 382 381
f 288 371 382
f 99 159 451
f 304 159 99
f 56 375 372
f 159 56 372
f 374 447 443
f 443 488 398
f 443 447 488
f 489 314 490
f 377 450 224
f 377 374 450
f 67 66 190
f 330 329 465
f 367 366 491
f 492 415 317
f 250 344 204
f 250 385 344
f 234 302 389
f 234 389 238
f 55 493 394
f 493 171 189
f 171 493 55
f 494 115 295
f 115 494 116
f 116 494 387
f 339 406 267
f 495 322 496
f 453 497 498
f 499 500 501
f 287 469 471
f 502 503 315
f 415 318 317
f 195 486 438
f 470 61 403
f 473 45 475
f 289 288 504
f 144 335 337
f 202 133 47
f 345 505 435
f 506 403 65
f 390 507 442
f 390 103 507
f 470 403 471
f 286 327 469
f 477 10 416
f 400 365 367
f 411 405 2
f 331 346 163
f 346 1 163
f 348 411 346
f 408 410 472
f 140 472 271
f 410 508 43
f 410 243 508
f 45 332 475
f 43 45 473
f 327 61 470
f 327 34 61
f 12 11 32
f 10 12 333
f 251 250 204
f 266 251 308
f 269 268 420
f 268 409 420
f 509 490 510
f 183 361 423
f 277 325 421
f 176 277 207
f 323 435 324
f 36 435 323
f 414 466 505
f 64 160 509
f 419 311 511
f 311 419 4
f 480 419 511
f 419 480 180
f 512 358 433
f 425 88 426
f 88 425 89
f 274 357 512
f 357 149 151
f 173 174 25
f 184 183 483
f 354 78 173
f 69 354 173
f 89 363 350
f 350 363 126
f 201 47 148
f 148 47 46
f 210 147 211
f 147 46 216
f 145 362 93
f 428 147 210
f 129 434 145
f 126 513 129
f 423 142 197
f 80 514 183
f 512 357 358
f 436 185 427
f 263 438 462
f 278 438 263
f 146 199 30
f 31 30 515
f 376 104 106
f 159 372 451
f 451 372 374
f 369 221 370
f 105 369 371
f 100 445 368
f 383 384 223
f 106 105 288
f 382 371 384
f 371 100 384
f 240 51 375
f 375 487 447
f 375 51 487
f 373 375 447
f 373 447 374
f 447 449 488
f 398 516 399
f 398 488 516
f 283 517 284
f 517 283 399
f 444 283 282
f 224 444 282
f 518 519 492
f 376 106 289
f 504 288 381
f 520 521 182
f 520 182 179
f 341 244 342
f 244 341 338
f 337 456 133
f 476 286 522
f 462 486 464
f 279 330 379
f 195 523 486
f 195 380 523
f 328 440 524
f 379 465 380
f 466 154 453
f 472 525 271
f 472 410 526
f 527 475 415
f 502 528 503
f 133 456 440
f 133 440 134
f 316 336 335
f 142 490 143
f 160 502 489
f 361 510 423
f 2 495 529
f 490 316 335
f 501 528 502
f 467 453 499
f 499 453 500
f 507 103 297
f 507 297 442
f 476 333 286
f 519 527 492
f 475 477 415
f 475 334 477
f 411 141 405
f 348 141 411
f 1 3 413
f 164 1 413
f 410 43 526
f 472 526 525
f 243 44 508
f 508 44 43
f 474 473 519
f 471 403 506
f 308 204 26
f 266 308 26
f 79 421 422
f 514 361 183
f 277 421 79
f 78 277 79
f 203 36 136
f 136 36 323
f 431 325 277
f 431 323 325
f 345 414 505
f 421 324 62
f 274 483 357
f 25 482 274
f 214 512 433
f 214 274 512
f 25 481 23
f 481 25 273
f 25 274 273
f 25 174 482
f 174 80 482
f 185 275 427
f 185 186 275
f 275 201 148
f 186 201 275
f 217 378 280
f 212 217 280
f 210 212 513
f 126 210 513
f 129 513 434
f 513 212 434
f 197 142 198
f 151 150 185
f 89 437 363
f 89 436 437
f 358 185 436
f 425 358 436
f 30 199 515
f 515 199 441
f 191 376 454
f 191 196 376
f 15 222 104
f 15 220 222
f 391 304 370
f 370 304 98
f 384 368 223
f 384 100 368
f 241 240 375
f 56 241 375
f 51 256 52
f 53 50 530
f 365 474 366
f 271 365 400
f 152 531 153
f 224 450 444
f 450 398 444
f 286 469 287
f 491 366 518
f 2 532 3
f 490 314 316
f 342 244 182
f 342 521 340
f 521 342 182
f 279 328 330
f 328 524 329
f 337 336 455
f 442 191 190
f 66 442 190
f 405 495 2
f 495 496 529
f 526 43 525
f 525 43 474
f 473 475 519
f 519 475 527
f 202 337 133
f 144 337 202
f 490 335 143
f 143 335 144
f 361 509 510
f 361 64 509
f 533 501 502
f 324 63 62
f 452 400 401
f 316 315 534
f 316 534 336
f 403 468 65
f 66 390 442
f 366 519 518
f 318 416 476
f 522 286 285
f 12 32 333
f 333 32 326
f 469 327 470
f 527 415 492
f 486 463 464
f 523 463 486
f 380 463 523
f 465 463 380
f 329 463 465
f 524 463 329
f 440 463 524
f 456 463 440
f 455 463 456
f 336 463 455
f 534 463 336
f 315 463 534
f 503 463 315
f 528 463 503
f 498 463 528
f 497 463 498
f 153 463 497
f 531 463 153
f 535 463 531
f 496 463 535
f 322 463 496
f 321 463 322
f 452 463 321
f 401 463 452
f 367 463 401
f 491 463 367
f 518 463 491
f 492 463 518
f 317 463 492
f 319 463 317
f 522 463 319
f 285 463 522
f 287 463 285
f 471 463 287
f 506 463 471
f 65 463 506
f 67 463 65
f 190 463 67
f 192 463 190
f 454 463 192
f 289 463 454
f 504 463 289
f 381 463 504
f 383 463 381
f 223 463 383
f 225 463 223
f 282 463 225
f 284 463 282
f 463 284 517
f 269 408 257
f 257 408 472
f 141 140 404
f 140 272 404
f 3 532 479
f 346 412 1
f 532 496 535
f 413 3 479
f 79 422 514
f 79 514 80
f 505 499 536
f 62 64 360
f 324 505 536
f 435 505 324
f 482 184 483
f 482 80 184
f 147 216 211
f 211 216 212
f 150 198 201
f 150 201 186
f 483 149 357
f 483 183 149
f 272 271 400
f 487 53 448
f 51 53 487
f 479 152 154
f 48 328 279
f 48 134 328
f 272 452 320
f 404 495 405
f 320 322 495
f 366 474 519
f 319 318 522
f 318 476 522
f 422 361 514
f 422 360 361
f 509 489 490
f 509 160 489
f 510 490 142
f 423 510 142
f 499 501 533
f 533 502 160
f 453 153 497
f 403 402 468
f 402 390 468
f 257 139 141
f 257 472 139
f 412 2 1
f 411 2 412
f 532 535 152
f 479 154 466
f 505 467 499
f 505 466 467
f 479 532 152
f 271 525 365
f 525 474 365
f 152 535 531
f 489 502 314
f 502 315 314
f 536 499 533
f 63 533 160
f 500 528 501
f 2 529 532
f 529 496 532
f 404 320 495
f 404 272 320
f 536 533 63
f 324 536 63
f 453 498 500
f 500 498 528
f 272 400 452
f 537 218 219
f 537 131 218
f 537 130 131
f 537 18 130
f 537 16 18
f 537 359 16
f 537 209 359
f 537 208 209
f 537 127 208
f 537 128 127
f 537 349 128
f 537 484 349
f 537 485 484
f 537 429 485
f 537 90 429
f 537 88 90
f 537 426 88
f 537 424 426
f 215 424 537
f 424 215 432
f 537 213 215
f 537 352 213
f 537 351 352
f 537 481 351
f 537 23 481
f 537 24 23
f 537 87 24
f 537 255 87
f 538 255 537
f 255 538 253
f 253 538 460
f 539 538 537
f 538 539 540
f 50 539 530
f 52 539 50
f 256 539 52
f 242 539 256
f 239 539 242
f 446 539 239
f 395 539 446
f 394 539 395
f 493 539 394
f 189 539 493
f 188 539 189
f 113 539 188
f 112 539 113
f 92 539 112
f 91 539 92
f 187 539 91
f 313 539 187
f 396 539 313
f 461 396 397
f 396 461 539
f 388 539 461
f 387 539 388
f 494 539 387
f 295 539 494
f 107 539 295
f 109 539 107
f 300 539 109
f 162 539 300
f 540 162 161
f 540 161 457
f 162 540 539
f 31 537 219
f 441 537 515
f 537 31 515
f 262 537 441
f 53 539 448
f 539 53 530
f 264 537 262
f 539 449 448
f 439 537 264
f 539 488 449
f 463 537 439
f 539 516 488
f 537 463 539
f 539 399 516
f 517 539 463
f 539 517 399
f 158 540 457
f 540 291 538
f 540 158 8
f 70 538 291
f 7 540 8
f 393 538 70
f 540 7 291
f 459 538 392
f 538 459 460
f 538 393 392
f 290 70 291
f 290 68 70
f 293 290 86
f 292 290 293
f 293 86 85
f 290 292 68
f 293 85 228
f 68 430 276
f 276 430 356
f 356 430 355
f 40 68 292
f 68 40 430
f 123 40 292
f 123 41 40
f 82 123 125
f 123 82 41
f 82 125 165
f 21 41 82
f 82 165 167
f 41 21 205
f 205 21 206
f 206 21 138
f 81 21 82
f 81 20 21
f 178 20 81
f 178 311 20
f 458 311 178
f 458 511 311
f 386 511 458
f 386 480 511
f 249 386 252
f 386 249 480
f 179 480 249
f 480 179 181
f 305 249 270
f 249 305 179
f 521 179 305
f 179 521 520
f 343 305 307
f 305 343 521
f 341 521 343
f 521 341 340
f 478 341 343
f 478 338 341
f 417 478 418
f 478 417 338
f 406 338 417
f 338 406 339
f 406 417 407
# 1076 faces, 0 coords texture

# End of File
