####
#
# OBJ File Generated by Meshlab
#
####
# Object left_foot_geom.obj
#
# Vertices: 532
# Faces: 1060
#
####
v 0.031324 0.012227 -0.022139
v 0.030484 0.014142 -0.022139
v 0.038032 0.014846 -0.019701
v -0.052099 0.002079 -0.014737
v -0.047864 0.002969 -0.016796
v -0.047959 0.000000 -0.016796
v -0.052099 0.003231 -0.014719
v 0.052099 0.016815 -0.013436
v 0.050973 0.019898 -0.013436
v 0.052099 0.020337 -0.012744
v 0.038903 0.012462 -0.019701
v 0.032042 0.010264 -0.022139
v -0.010173 0.039062 -0.019701
v -0.014820 0.044970 -0.016796
v -0.011927 0.045798 -0.016796
v -0.010282 0.004770 -0.026570
v -0.017093 0.007930 -0.025581
v -0.016554 0.008972 -0.025581
v -0.008043 0.016851 -0.025581
v -0.012691 0.022759 -0.024102
v -0.011216 0.023500 -0.024102
v -0.040825 0.002532 -0.019701
v -0.047581 0.005926 -0.016796
v 0.026411 0.047365 -0.013436
v 0.029450 0.053000 -0.009734
v 0.029552 0.053000 -0.009707
v 0.023342 0.048907 -0.013436
v -0.011342 0.000703 -0.026570
v -0.018853 0.001169 -0.025581
v -0.018742 0.002334 -0.025581
v 0.001827 0.003277 -0.027065
v 0.001615 0.003384 -0.027065
v 0.004838 0.010138 -0.026570
v -0.049479 0.045810 -0.005406
v -0.052099 0.042881 -0.005406
v -0.052099 0.048235 -0.002691
v -0.023063 0.024213 -0.022139
v -0.028002 0.029399 -0.019701
v -0.021475 0.025593 -0.022139
v -0.016231 0.029107 -0.022139
v -0.019706 0.035340 -0.019701
v -0.017416 0.036491 -0.019701
v -0.032830 0.034468 -0.016796
v -0.037529 0.039401 -0.013436
v -0.034945 0.041647 -0.013436
v -0.052099 0.016815 -0.013436
v -0.044591 0.017406 -0.016796
v -0.052099 0.016707 -0.013454
v -0.050973 0.019898 -0.013436
v -0.051902 0.032474 -0.009635
v -0.052099 0.032144 -0.009635
v -0.052099 0.032467 -0.009525
v 0.025959 0.021172 -0.022139
v 0.020297 0.016555 -0.024102
v 0.024559 0.022737 -0.022139
v 0.011007 0.002786 -0.026570
v 0.003674 0.000930 -0.027065
v 0.010808 0.003462 -0.026570
v 0.052099 0.021329 -0.012515
v -0.049605 0.023013 -0.013436
v -0.029523 0.016002 -0.022139
v -0.034537 0.021609 -0.019701
v -0.028445 0.017797 -0.022139
v 0.011927 0.045798 -0.016796
v 0.010700 0.053000 -0.013436
v 0.013634 0.052353 -0.013436
v 0.010293 0.053000 -0.013480
v -0.005474 0.009818 -0.026570
v -0.004838 0.010138 -0.026570
v -0.003527 0.001376 -0.027065
v -0.010808 0.003462 -0.026570
v -0.010566 0.004124 -0.026570
v -0.015949 0.009979 -0.025581
v -0.022242 0.013916 -0.024102
v -0.015283 0.010947 -0.025581
v -0.036132 0.049030 -0.009635
v -0.037224 0.053000 -0.007030
v -0.032938 0.051170 -0.009635
v -0.039056 0.053000 -0.006350
v -0.029375 0.045637 -0.013436
v -0.052099 0.010514 -0.014232
v -0.047110 0.008860 -0.016796
v -0.052099 0.009798 -0.014310
v -0.046452 0.011759 -0.016796
v -0.039183 0.046697 -0.009635
v -0.052099 0.042493 -0.005578
v -0.047364 0.038631 -0.009635
v -0.003011 0.047190 -0.016796
v -0.006496 0.053000 -0.013763
v -0.003382 0.053000 -0.013906
v 0.047581 0.005926 -0.016796
v 0.052099 0.007430 -0.014494
v 0.052099 0.006489 -0.014567
v 0.047110 0.008860 -0.016796
v 0.033624 0.002085 -0.022139
v 0.033424 0.004163 -0.022139
v 0.040825 0.002532 -0.019701
v 0.045611 0.014611 -0.016796
v 0.044591 0.017406 -0.016796
v -0.026291 0.001631 -0.024102
v -0.033691 0.000000 -0.022139
v -0.033624 0.002085 -0.022139
v -0.052099 0.004322 -0.014668
v 0.017966 0.005754 -0.025581
v -0.020297 0.016555 -0.024102
v -0.014555 0.011871 -0.025581
v -0.021312 0.015266 -0.024102
v -0.027256 0.019524 -0.022139
v -0.025959 0.021172 -0.022139
v -0.025876 0.004867 -0.024102
v -0.018556 0.003489 -0.025581
v -0.000713 0.011182 -0.026570
v -0.001424 0.011116 -0.026570
v -0.001185 0.018588 -0.025581
v -0.019202 0.017778 -0.024102
v -0.024559 0.022737 -0.022139
v -0.018032 0.018932 -0.024102
v -0.012041 0.014350 -0.025581
v -0.015484 0.021011 -0.024102
v -0.011104 0.015067 -0.025581
v -0.023835 0.011058 -0.024102
v -0.030484 0.014142 -0.022139
v -0.006954 0.017317 -0.025581
v -0.008140 0.024700 -0.024102
v -0.005837 0.017713 -0.025581
v -0.044353 0.031770 -0.013436
v -0.049731 0.035623 -0.009635
v -0.042242 0.034453 -0.013436
v -0.029818 0.027607 -0.019701
v -0.034961 0.032368 -0.016796
v -0.043394 0.020132 -0.016796
v -0.052099 0.007430 -0.014494
v -0.052099 0.006489 -0.014567
v -0.040493 0.025335 -0.016796
v -0.046289 0.028962 -0.013436
v -0.038799 0.027792 -0.016796
v -0.042027 0.022778 -0.016796
v -0.048042 0.026039 -0.013436
v 0.010173 0.039062 -0.019701
v 0.007665 0.039615 -0.019701
v 0.008986 0.046446 -0.016796
v -0.012640 0.038356 -0.019701
v -0.017654 0.043963 -0.016796
v -0.007243 0.008633 -0.026570
v -0.006680 0.009064 -0.026570
v -0.019802 0.026872 -0.022139
v -0.039965 0.037001 -0.013436
v -0.042080 0.044179 -0.009635
v -0.052099 0.032597 -0.009480
v -0.052099 0.032923 -0.009358
v -0.003725 0.000700 -0.027065
v -0.011163 0.002099 -0.026570
v -0.003674 0.000930 -0.027065
v 0.040181 0.007557 -0.019701
v 0.029818 0.027607 -0.019701
v 0.033094 0.006224 -0.022139
v 0.038799 0.027792 -0.016796
v 0.033094 0.023705 -0.019701
v 0.036953 0.030139 -0.016796
v 0.050481 0.053000 -0.000973
v 0.052099 0.051781 -0.000769
v 0.052099 0.049663 -0.001917
v 0.050863 0.053000 -0.000769
v 0.046465 0.048782 -0.005406
v 0.018556 0.003489 -0.025581
v 0.018297 0.004631 -0.025581
v 0.025876 0.004867 -0.024102
v 0.000713 0.011182 -0.026570
v 0.000000 0.011204 -0.026570
v 0.001185 0.018588 -0.025581
v 0.047364 0.038631 -0.009635
v 0.052099 0.037319 -0.007703
v 0.049731 0.035623 -0.009635
v 0.052099 0.039072 -0.006983
v -0.040905 0.000000 -0.019701
v -0.035846 0.019428 -0.019701
v -0.045611 0.014611 -0.016796
v -0.052099 0.016689 -0.013457
v -0.017966 0.005754 -0.025581
v -0.025515 0.006458 -0.024102
v -0.025053 0.008025 -0.024102
v -0.023084 0.012511 -0.024102
v 0.008756 0.007141 -0.026570
v 0.002765 0.002560 -0.027065
v 0.008284 0.007669 -0.026570
v -0.009595 0.006003 -0.026570
v -0.009193 0.006585 -0.026570
v 0.001396 0.003477 -0.027065
v -0.003763 0.000468 -0.027065
v -0.040181 0.007557 -0.019701
v -0.032042 0.010264 -0.022139
v -0.038032 0.014846 -0.019701
v -0.031324 0.012227 -0.022139
v -0.003607 0.001155 -0.027065
v -0.026074 0.031074 -0.019701
v -0.030570 0.036432 -0.016796
v -0.028190 0.038253 -0.016796
v -0.016791 0.020011 -0.024102
v -0.013770 0.012749 -0.025581
v -0.033094 0.023705 -0.019701
v -0.036953 0.030139 -0.016796
v -0.031518 0.025706 -0.019701
v -0.052099 0.028238 -0.010789
v -0.052099 0.013188 -0.013942
v -0.052099 0.016667 -0.013460
v 0.043266 0.051563 -0.005406
v 0.039056 0.053000 -0.006350
v 0.041388 0.053000 -0.005406
v 0.036132 0.049030 -0.009635
v 0.040493 0.025335 -0.016796
v 0.046289 0.028962 -0.013436
v 0.013443 0.053000 -0.013094
v -0.021918 0.034051 -0.019701
v -0.025698 0.039923 -0.016796
v -0.026411 0.047365 -0.013436
v -0.023104 0.041434 -0.016796
v -0.029802 0.053000 -0.009635
v -0.029610 0.053000 -0.009691
v -0.018052 0.028045 -0.022139
v -0.032224 0.043728 -0.013436
v -0.006010 0.046910 -0.016796
v -0.006791 0.053000 -0.013749
v 0.023104 0.041434 -0.016796
v 0.020420 0.042784 -0.016796
v -0.052099 0.021329 -0.012515
v -0.052099 0.024170 -0.011860
v -0.044810 0.041487 -0.009635
v -0.046465 0.048782 -0.005406
v 0.026291 0.001631 -0.024102
v 0.026135 0.003255 -0.024102
v -0.003324 0.001801 -0.027065
v -0.003202 0.002004 -0.027065
v -0.009958 0.005397 -0.026570
v 0.019706 0.035340 -0.019701
v 0.016231 0.029107 -0.022139
v 0.017416 0.036491 -0.019701
v 0.040905 0.000000 -0.019701
v 0.047959 0.000000 -0.016796
v 0.046452 0.011759 -0.016796
v 0.047864 0.002969 -0.016796
v 0.033691 0.000000 -0.022139
v 0.052099 0.016707 -0.013454
v 0.042242 0.034453 -0.013436
v 0.034961 0.032368 -0.016796
v 0.039965 0.037001 -0.013436
v 0.012041 0.014350 -0.025581
v 0.011104 0.015067 -0.025581
v 0.015484 0.021011 -0.024102
v 0.006089 0.009460 -0.026570
v 0.010121 0.015725 -0.025581
v -0.007665 0.039615 -0.019701
v -0.008986 0.046446 -0.016796
v -0.002129 0.011005 -0.026570
v -0.003539 0.018294 -0.025581
v -0.040583 0.005054 -0.019701
v -0.033424 0.004163 -0.022139
v -0.033094 0.006224 -0.022139
v -0.032632 0.008260 -0.022139
v -0.039620 0.010029 -0.019701
v -0.003793 0.000000 -0.027065
v -0.011364 0.000000 -0.026570
v -0.012931 0.013577 -0.025581
v -0.024492 0.009561 -0.024102
v 0.009193 0.006585 -0.026570
v 0.002922 0.002383 -0.027065
v -0.010121 0.015725 -0.025581
v -0.007779 0.008167 -0.026570
v -0.052099 0.049663 -0.001917
v -0.037012 0.017171 -0.019701
v 0.052099 0.028238 -0.010789
v 0.051902 0.032474 -0.009635
v 0.052099 0.032144 -0.009635
v 0.048042 0.026039 -0.013436
v 0.052099 0.032467 -0.009525
v 0.037529 0.039401 -0.013436
v 0.034945 0.041647 -0.013436
v 0.042080 0.044179 -0.009635
v -0.014344 0.030054 -0.022139
v -0.012402 0.030883 -0.022139
v 0.025698 0.039923 -0.016796
v -0.024043 0.032627 -0.019701
v -0.020420 0.042784 -0.016796
v -0.052099 0.020337 -0.012744
v -0.043266 0.051563 -0.005406
v -0.049783 0.053000 -0.001322
v -0.044471 0.053000 -0.003978
v 0.011163 0.002099 -0.026570
v 0.003725 0.000700 -0.027065
v 0.012931 0.013577 -0.025581
v 0.007779 0.008167 -0.026570
v -0.002032 0.003157 -0.027065
v -0.006089 0.009460 -0.026570
v -0.001827 0.003277 -0.027065
v 0.000710 0.003673 -0.027065
v 0.000475 0.003710 -0.027065
v 0.002129 0.011005 -0.026570
v 0.011364 0.000000 -0.026570
v 0.003793 0.000000 -0.027065
v 0.011342 0.000703 -0.026570
v 0.044353 0.031770 -0.013436
v 0.052099 0.004322 -0.014668
v 0.052099 0.016667 -0.013460
v 0.052099 0.016689 -0.013457
v 0.052099 0.013188 -0.013942
v 0.052099 0.003231 -0.014719
v 0.052099 0.009798 -0.014310
v 0.052099 0.002079 -0.014737
v 0.018742 0.002334 -0.025581
v 0.021475 0.025593 -0.022139
v 0.019802 0.026872 -0.022139
v 0.024043 0.032627 -0.019701
v 0.005837 0.017713 -0.025581
v 0.004698 0.018040 -0.025581
v 0.008140 0.024700 -0.024102
v -0.014114 0.021928 -0.024102
v -0.000943 0.003622 -0.027065
v -0.003511 0.010655 -0.026570
v -0.002826 0.010852 -0.026570
v -0.011007 0.002786 -0.026570
v 0.004183 0.010417 -0.026570
v 0.003511 0.010655 -0.026570
v 0.006954 0.017317 -0.025581
v -0.018297 0.004631 -0.025581
v -0.001615 0.003384 -0.027065
v -0.008284 0.007669 -0.026570
v -0.003431 0.001592 -0.027065
v -0.006551 0.025155 -0.024102
v -0.008378 0.032172 -0.022139
v -0.004935 0.025512 -0.024102
v 0.003607 0.001155 -0.027065
v -0.008756 0.007141 -0.026570
v 0.015283 0.010947 -0.025581
v 0.014555 0.011871 -0.025581
v -0.002229 0.003025 -0.027065
v 0.007243 0.008633 -0.026570
v 0.006680 0.009064 -0.026570
v -0.017564 0.006856 -0.025581
v -0.002765 0.002560 -0.027065
v -0.002596 0.002726 -0.027065
v -0.052099 0.025913 -0.011401
v -0.052099 0.037319 -0.007703
v -0.052099 0.039072 -0.006983
v -0.038903 0.012462 -0.019701
v 0.044810 0.041487 -0.009635
v 0.043394 0.020132 -0.016796
v 0.035846 0.019428 -0.019701
v 0.042027 0.022778 -0.016796
v 0.052099 0.032597 -0.009480
v 0.049605 0.023013 -0.013436
v 0.052099 0.025913 -0.011401
v 0.052099 0.024170 -0.011860
v 0.018032 0.018932 -0.024102
v 0.016791 0.020011 -0.024102
v 0.023063 0.024213 -0.022139
v -0.002115 0.033151 -0.022139
v -0.002568 0.040250 -0.019701
v 0.000000 0.040329 -0.019701
v 0.003539 0.018294 -0.025581
v 0.001424 0.011116 -0.026570
v 0.002367 0.018477 -0.025581
v -0.013634 0.052353 -0.013436
v -0.016580 0.053000 -0.012606
v -0.013802 0.053000 -0.013049
v -0.016941 0.051406 -0.013436
v -0.034115 0.053000 -0.008184
v -0.050481 0.053000 -0.000973
v -0.029450 0.053000 -0.009734
v -0.023342 0.048907 -0.013436
v -0.029552 0.053000 -0.009707
v -0.015058 0.037498 -0.019701
v -0.020182 0.050256 -0.013436
v -0.018774 0.053000 -0.012211
v -0.021283 0.053000 -0.011725
v 0.000000 0.025971 -0.024102
v 0.000000 0.033216 -0.022139
v -0.002367 0.018477 -0.025581
v -0.003302 0.025766 -0.024102
v -0.009697 0.024148 -0.024102
v -0.052099 0.000000 -0.014770
v -0.052099 0.051781 -0.000769
v -0.050863 0.053000 -0.000769
v -0.052099 0.053000 -0.000016
v -0.017466 0.053000 -0.012464
v 0.007056 0.053000 -0.013729
v 0.010254 0.053000 -0.013484
v 0.011274 0.001404 -0.026570
v 0.003763 0.000468 -0.027065
v 0.000237 0.003732 -0.027065
v 0.003202 0.002004 -0.027065
v 0.003068 0.002197 -0.027065
v 0.039620 0.010029 -0.019701
v 0.002229 0.003025 -0.027065
v 0.002032 0.003157 -0.027065
v 0.028002 0.029399 -0.019701
v 0.014114 0.021928 -0.024102
v 0.012691 0.022759 -0.024102
v 0.018052 0.028045 -0.022139
v 0.040583 0.005054 -0.019701
v 0.052099 0.010514 -0.014232
v 0.025515 0.006458 -0.024102
v 0.025053 0.008025 -0.024102
v 0.029523 0.016002 -0.022139
v 0.034537 0.021609 -0.019701
v -0.001654 0.025920 -0.024102
v 0.009697 0.024148 -0.024102
v -0.006312 0.032627 -0.022139
v -0.004222 0.032954 -0.022139
v -0.001396 0.003477 -0.027065
v -0.004183 0.010417 -0.026570
v -0.000475 0.003710 -0.027065
v -0.000237 0.003732 -0.027065
v 0.002418 0.002881 -0.027065
v 0.008043 0.016851 -0.025581
v -0.004698 0.018040 -0.025581
v -0.009100 0.016320 -0.025581
v -0.010410 0.031590 -0.022139
v -0.003068 0.002197 -0.027065
v -0.002922 0.002383 -0.027065
v 0.023835 0.011058 -0.024102
v 0.052099 0.053000 -0.000016
v 0.052099 0.042493 -0.005578
v 0.049479 0.045810 -0.005406
v 0.052099 0.042881 -0.005406
v 0.039183 0.046697 -0.009635
v 0.032938 0.051170 -0.009635
v 0.029802 0.053000 -0.009635
v 0.034115 0.053000 -0.008184
v 0.052099 0.032923 -0.009358
v 0.020182 0.050256 -0.013436
v -0.005126 0.040011 -0.019701
v -0.013443 0.053000 -0.013094
v -0.010293 0.053000 -0.013480
v -0.010254 0.053000 -0.013484
v -0.041388 0.053000 -0.005406
v -0.022950 0.053000 -0.011346
v 0.000000 0.018624 -0.025581
v 0.000000 0.047283 -0.016796
v 0.013802 0.053000 -0.013049
v 0.031518 0.025706 -0.019701
v 0.011216 0.023500 -0.024102
v 0.014344 0.030054 -0.022139
v 0.018853 0.001169 -0.025581
v -0.002418 0.002881 -0.027065
v 0.052099 0.000000 -0.014770
v 0.032632 0.008260 -0.022139
v 0.027256 0.019524 -0.022139
v 0.032830 0.034468 -0.016796
v 0.030570 0.036432 -0.016796
v 0.024492 0.009561 -0.024102
v 0.005474 0.009818 -0.026570
v 0.009100 0.016320 -0.025581
v 0.014820 0.044970 -0.016796
v -0.011274 0.001404 -0.026570
v -0.026342 0.000000 -0.024102
v 0.003785 0.000235 -0.027065
v -0.003785 0.000235 -0.027065
v 0.000000 0.003739 -0.027065
v 0.001172 0.003556 -0.027065
v -0.000710 0.003673 -0.027065
v -0.001172 0.003556 -0.027065
v 0.002596 0.002726 -0.027065
v 0.010282 0.004770 -0.026570
v 0.003324 0.001801 -0.027065
v 0.009958 0.005397 -0.026570
v 0.003527 0.001376 -0.027065
v 0.016941 0.051406 -0.013436
v 0.016580 0.053000 -0.012606
v 0.017466 0.053000 -0.012464
v 0.022950 0.053000 -0.011346
v 0.025295 0.053000 -0.010813
v 0.049783 0.053000 -0.001322
v 0.052099 0.048235 -0.002691
v 0.029375 0.045637 -0.013436
v 0.029610 0.053000 -0.009691
v -0.007056 0.053000 -0.013729
v -0.010700 0.053000 -0.013436
v 0.010410 0.031590 -0.022139
v 0.017654 0.043963 -0.016796
v 0.002826 0.010852 -0.026570
v 0.000943 0.003622 -0.027065
v 0.002568 0.040250 -0.019701
v 0.003011 0.047190 -0.016796
v 0.004935 0.025512 -0.024102
v 0.003302 0.025766 -0.024102
v 0.001654 0.025920 -0.024102
v -0.025295 0.053000 -0.010813
v 0.018890 0.000000 -0.025581
v 0.026342 0.000000 -0.024102
v 0.010566 0.004124 -0.026570
v 0.017564 0.006856 -0.025581
v 0.012402 0.030883 -0.022139
v 0.015058 0.037498 -0.019701
v 0.021918 0.034051 -0.019701
v 0.032224 0.043728 -0.013436
v 0.037012 0.017171 -0.019701
v 0.023084 0.012511 -0.024102
v -0.018890 0.000000 -0.025581
v -0.026135 0.003255 -0.024102
v 0.016554 0.008972 -0.025581
v 0.015949 0.009979 -0.025581
v 0.022242 0.013916 -0.024102
v 0.006551 0.025155 -0.024102
v 0.003431 0.001592 -0.027065
v 0.009595 0.006003 -0.026570
v 0.013770 0.012749 -0.025581
v 0.018774 0.053000 -0.012211
v 0.028190 0.038253 -0.016796
v 0.037224 0.053000 -0.007030
v 0.002954 0.053000 -0.013913
v 0.000000 0.053000 -0.013958
v 0.002115 0.033151 -0.022139
v -0.002954 0.053000 -0.013913
v 0.004222 0.032954 -0.022139
v 0.012640 0.038356 -0.019701
v 0.021312 0.015266 -0.024102
v 0.008378 0.032172 -0.022139
v 0.026074 0.031074 -0.019701
v 0.017093 0.007930 -0.025581
v 0.019202 0.017778 -0.024102
v 0.021283 0.053000 -0.011725
v 0.044471 0.053000 -0.003978
v 0.006312 0.032627 -0.022139
v 0.028445 0.017797 -0.022139
v 0.006010 0.046910 -0.016796
v 0.005126 0.040011 -0.019701
v 0.006496 0.053000 -0.013763
v 0.006791 0.053000 -0.013749
v 0.003382 0.053000 -0.013906
v 0.052099 0.053000 0.000000
v 0.052099 0.000000 0.000000
v -0.052099 0.053000 0.000000
v -0.052099 0.000000 0.000000
# 532 vertices, 0 vertices normals

f 1 2 3
f 4 5 6
f 5 4 7
f 8 9 10
f 11 12 3
f 13 14 15
f 16 17 18
f 19 20 21
f 22 5 23
f 24 25 26
f 25 24 27
f 28 29 30
f 31 32 33
f 34 35 36
f 37 38 39
f 40 41 42
f 43 44 45
f 46 47 48
f 47 46 49
f 50 51 52
f 53 54 55
f 56 57 58
f 10 9 59
f 47 49 60
f 22 6 5
f 61 62 63
f 64 65 66
f 65 64 67
f 68 19 69
f 70 71 72
f 73 74 75
f 76 77 78
f 77 76 79
f 80 76 78
f 81 82 83
f 82 81 84
f 45 85 76
f 86 34 87
f 34 86 35
f 88 89 90
f 91 92 93
f 92 91 94
f 95 96 97
f 98 11 99
f 100 101 102
f 103 5 7
f 5 103 23
f 56 58 104
f 75 105 106
f 107 108 109
f 30 110 111
f 112 113 114
f 115 116 117
f 118 119 120
f 121 122 61
f 18 74 73
f 123 124 125
f 20 40 21
f 126 127 128
f 129 130 38
f 47 60 131
f 132 23 133
f 23 132 82
f 134 135 136
f 137 138 134
f 139 140 141
f 142 143 14
f 144 120 145
f 119 39 146
f 38 130 43
f 130 128 147
f 147 148 44
f 50 149 150
f 151 152 153
f 91 154 94
f 53 55 155
f 96 156 154
f 157 158 159
f 160 161 162
f 161 160 163
f 160 162 164
f 165 166 167
f 168 169 170
f 171 172 173
f 172 171 174
f 175 6 22
f 176 134 62
f 48 177 178
f 177 48 47
f 82 132 83
f 179 180 181
f 74 63 108
f 121 61 182
f 183 184 185
f 186 75 187
f 186 73 75
f 32 188 33
f 189 152 151
f 109 129 116
f 190 82 84
f 191 192 193
f 194 71 70
f 195 196 197
f 116 38 37
f 118 198 119
f 199 105 115
f 200 136 201
f 200 201 202
f 203 50 138
f 50 203 51
f 136 128 201
f 190 23 82
f 84 204 205
f 206 207 208
f 207 206 209
f 210 157 211
f 66 65 212
f 40 213 41
f 214 215 216
f 80 217 218
f 217 80 78
f 20 219 40
f 220 76 80
f 221 89 88
f 89 221 222
f 223 224 24
f 131 60 138
f 225 60 49
f 60 225 226
f 147 87 227
f 227 228 148
f 229 230 96
f 231 186 232
f 186 231 233
f 234 235 236
f 24 224 27
f 237 97 238
f 239 11 98
f 238 97 240
f 237 241 97
f 99 8 242
f 8 99 9
f 243 244 245
f 246 247 248
f 247 249 250
f 251 13 252
f 253 254 113
f 22 23 255
f 256 22 255
f 256 255 190
f 255 23 190
f 110 256 257
f 257 190 258
f 258 259 191
f 260 261 28
f 262 115 117
f 262 198 118
f 219 213 40
f 38 43 196
f 63 62 108
f 105 109 116
f 179 181 263
f 264 265 183
f 198 39 119
f 120 119 266
f 198 37 39
f 267 262 118
f 201 128 130
f 108 200 109
f 108 62 200
f 61 176 62
f 36 228 34
f 228 36 268
f 128 87 147
f 134 138 135
f 131 138 137
f 205 177 84
f 177 205 178
f 269 47 131
f 270 271 272
f 271 270 273
f 272 271 274
f 275 276 277
f 278 42 279
f 280 234 223
f 197 45 220
f 39 195 281
f 41 282 42
f 40 42 278
f 21 40 278
f 13 15 252
f 41 216 282
f 23 103 133
f 49 283 225
f 147 227 148
f 138 50 135
f 284 285 286
f 287 56 165
f 288 57 287
f 289 290 246
f 291 292 293
f 294 295 296
f 297 298 299
f 211 157 300
f 301 91 93
f 98 302 239
f 302 98 303
f 304 239 302
f 240 301 305
f 301 240 91
f 92 94 306
f 240 97 91
f 240 307 238
f 307 240 305
f 229 308 230
f 96 167 156
f 309 310 311
f 312 313 314
f 266 119 315
f 316 317 318
f 17 263 121
f 256 190 257
f 258 190 259
f 49 46 283
f 84 81 204
f 233 18 186
f 69 19 123
f 101 175 22
f 152 111 319
f 320 321 322
f 111 110 323
f 293 69 324
f 325 106 199
f 144 118 120
f 70 16 326
f 327 328 329
f 57 330 58
f 187 75 331
f 186 18 73
f 332 183 333
f 334 145 292
f 247 250 248
f 335 336 247
f 153 152 319
f 293 68 69
f 130 147 43
f 43 147 44
f 202 201 130
f 202 130 129
f 105 116 115
f 262 117 198
f 18 121 182
f 74 61 63
f 179 263 337
f 338 267 339
f 340 60 226
f 60 340 138
f 138 340 203
f 45 148 85
f 44 148 45
f 50 52 149
f 150 127 50
f 127 150 341
f 87 342 86
f 263 193 122
f 269 131 176
f 191 259 343
f 337 263 17
f 259 84 343
f 343 84 177
f 344 245 277
f 243 245 171
f 345 346 347
f 273 211 271
f 274 271 348
f 273 210 211
f 349 350 351
f 350 349 273
f 352 353 354
f 355 356 357
f 358 359 360
f 361 362 363
f 362 361 364
f 148 228 284
f 78 77 365
f 78 365 217
f 228 285 284
f 285 228 366
f 197 220 80
f 45 76 220
f 215 367 368
f 367 215 369
f 42 282 370
f 371 372 364
f 372 371 373
f 14 371 364
f 315 219 20
f 119 219 315
f 374 355 375
f 376 377 114
f 216 215 282
f 123 21 378
f 6 379 4
f 268 366 228
f 380 366 268
f 366 380 381
f 381 380 382
f 364 372 383
f 141 384 385
f 287 57 56
f 386 387 287
f 153 71 194
f 295 388 168
f 389 390 264
f 95 229 96
f 387 288 287
f 391 12 11
f 9 99 349
f 264 183 332
f 392 393 249
f 155 394 244
f 395 396 397
f 97 96 398
f 398 96 154
f 241 95 97
f 241 229 95
f 99 345 349
f 399 239 304
f 94 399 306
f 399 94 239
f 94 154 239
f 400 401 12
f 346 402 403
f 114 377 404
f 405 322 314
f 406 251 407
f 408 409 317
f 410 112 411
f 100 102 256
f 410 113 112
f 412 392 336
f 323 180 179
f 293 292 68
f 359 170 360
f 413 33 322
f 317 125 414
f 317 414 318
f 267 118 144
f 106 105 199
f 266 315 20
f 266 20 415
f 378 279 416
f 410 253 113
f 69 123 409
f 19 21 123
f 334 292 291
f 417 187 418
f 418 331 338
f 418 187 331
f 2 419 402
f 165 56 166
f 39 38 195
f 116 129 38
f 109 200 202
f 109 202 129
f 62 134 200
f 200 134 136
f 75 74 107
f 74 108 107
f 181 191 263
f 17 121 18
f 16 337 17
f 70 72 16
f 135 50 127
f 136 126 128
f 176 137 134
f 176 131 137
f 87 34 227
f 227 34 228
f 122 269 176
f 122 176 61
f 192 47 269
f 263 122 121
f 180 258 191
f 190 84 259
f 161 163 420
f 164 277 206
f 421 422 423
f 422 421 171
f 277 424 206
f 425 426 427
f 98 242 303
f 242 98 99
f 350 273 270
f 349 59 9
f 59 349 351
f 349 345 273
f 300 243 173
f 348 271 428
f 224 429 27
f 353 248 309
f 251 252 430
f 361 363 431
f 252 432 433
f 432 252 15
f 284 286 434
f 284 79 76
f 79 284 434
f 282 368 371
f 41 214 216
f 214 80 215
f 80 369 215
f 369 80 218
f 371 435 373
f 435 371 368
f 219 281 213
f 119 146 219
f 170 436 374
f 436 114 374
f 356 88 437
f 66 212 438
f 158 439 159
f 235 440 441
f 282 215 368
f 143 371 14
f 442 299 308
f 290 335 246
f 339 267 443
f 308 165 167
f 444 238 307
f 12 1 3
f 154 445 391
f 445 400 12
f 395 250 396
f 403 446 158
f 439 53 155
f 245 275 277
f 447 448 276
f 97 398 91
f 398 154 91
f 403 158 210
f 347 346 210
f 2 402 346
f 11 3 99
f 156 167 445
f 1 449 2
f 166 56 104
f 404 377 355
f 359 168 170
f 250 450 451
f 451 450 413
f 322 312 314
f 452 139 64
f 378 278 279
f 112 114 169
f 180 191 181
f 110 257 258
f 453 30 152
f 189 453 152
f 101 22 102
f 102 22 256
f 454 101 100
f 455 387 299
f 260 28 456
f 411 112 457
f 320 188 321
f 265 184 183
f 393 31 249
f 338 325 267
f 331 75 106
f 443 267 144
f 199 115 262
f 316 318 253
f 21 278 378
f 188 458 321
f 327 416 328
f 450 33 413
f 292 266 68
f 68 266 415
f 443 144 145
f 409 123 317
f 317 123 125
f 318 414 253
f 253 414 254
f 316 253 459
f 359 295 168
f 388 457 168
f 408 317 460
f 298 455 299
f 184 461 290
f 462 463 464
f 299 387 386
f 336 392 249
f 336 249 247
f 352 289 353
f 246 335 247
f 182 61 74
f 18 182 74
f 107 109 105
f 75 107 105
f 16 18 233
f 231 16 233
f 330 465 58
f 71 179 337
f 319 111 323
f 341 87 127
f 87 341 342
f 128 127 87
f 263 191 193
f 343 177 47
f 343 47 192
f 191 343 192
f 466 467 468
f 27 469 470
f 164 471 160
f 471 164 206
f 164 472 422
f 472 164 162
f 174 171 421
f 424 209 206
f 209 473 425
f 473 426 425
f 426 473 474
f 173 243 171
f 173 428 271
f 428 173 172
f 66 467 466
f 467 66 438
f 473 26 474
f 26 473 24
f 234 236 224
f 252 433 475
f 476 361 431
f 148 284 85
f 85 284 76
f 38 196 195
f 213 214 41
f 197 80 214
f 195 197 281
f 364 383 362
f 117 37 198
f 117 116 37
f 39 281 146
f 146 281 219
f 15 476 432
f 476 15 361
f 414 329 254
f 416 142 13
f 142 14 13
f 396 440 235
f 405 314 477
f 466 64 66
f 224 478 429
f 479 480 296
f 481 437 482
f 313 358 483
f 484 170 485
f 370 143 142
f 416 370 142
f 143 282 371
f 370 282 143
f 368 486 435
f 368 367 486
f 460 317 316
f 456 28 189
f 297 299 487
f 488 229 241
f 487 299 442
f 400 104 401
f 156 445 154
f 58 489 490
f 104 58 490
f 391 11 239
f 154 391 239
f 491 477 492
f 139 141 64
f 473 280 24
f 447 394 448
f 397 235 493
f 248 250 395
f 159 244 243
f 210 158 157
f 347 210 273
f 345 347 273
f 276 494 209
f 311 397 493
f 346 403 210
f 449 419 2
f 495 346 345
f 419 496 402
f 451 413 396
f 250 451 396
f 396 413 440
f 413 322 440
f 323 110 180
f 110 258 180
f 319 323 179
f 152 30 111
f 261 497 28
f 28 497 29
f 30 100 498
f 100 256 498
f 232 187 417
f 232 186 187
f 325 199 267
f 267 199 262
f 408 69 409
f 443 145 334
f 479 296 313
f 415 20 19
f 68 415 19
f 292 120 266
f 145 120 292
f 326 16 231
f 459 253 410
f 113 254 376
f 113 376 114
f 499 500 501
f 390 265 264
f 314 502 477
f 450 31 33
f 489 465 462
f 465 503 462
f 168 457 169
f 457 112 169
f 504 389 264
f 503 463 462
f 183 185 333
f 461 412 290
f 249 31 450
f 249 450 250
f 332 333 54
f 333 185 505
f 185 290 505
f 185 184 290
f 354 353 309
f 311 493 280
f 480 294 296
f 71 337 72
f 72 337 16
f 319 179 71
f 153 319 71
f 136 135 126
f 135 127 126
f 122 192 269
f 193 192 122
f 506 466 468
f 423 422 472
f 448 507 276
f 494 507 473
f 508 425 427
f 209 508 207
f 508 209 425
f 236 492 224
f 235 441 236
f 509 437 510
f 280 223 24
f 223 234 224
f 43 45 196
f 196 45 197
f 281 197 214
f 281 214 213
f 279 42 370
f 279 370 416
f 511 374 375
f 88 512 437
f 512 88 90
f 377 329 407
f 329 406 407
f 329 328 406
f 328 416 13
f 170 374 485
f 484 511 513
f 376 329 377
f 254 329 376
f 224 492 478
f 491 405 477
f 492 477 514
f 141 67 64
f 67 141 385
f 321 479 313
f 358 360 483
f 324 69 408
f 230 308 167
f 488 487 229
f 230 167 96
f 299 386 308
f 515 332 54
f 446 515 53
f 445 12 391
f 167 400 445
f 502 483 516
f 477 502 516
f 158 53 439
f 354 309 394
f 446 53 158
f 501 332 515
f 507 280 473
f 517 309 311
f 244 447 245
f 244 394 447
f 157 159 243
f 300 157 243
f 99 495 345
f 3 495 99
f 440 405 441
f 440 322 405
f 189 28 453
f 28 30 453
f 298 387 455
f 298 288 387
f 298 57 288
f 298 330 57
f 298 465 330
f 298 503 465
f 298 463 503
f 298 389 463
f 298 390 389
f 298 265 390
f 298 184 265
f 298 461 184
f 298 412 461
f 298 392 412
f 298 393 392
f 298 31 393
f 298 32 31
f 298 188 32
f 298 458 188
f 298 480 458
f 298 294 480
f 298 295 294
f 298 388 295
f 298 457 388
f 298 411 457
f 298 410 411
f 298 459 410
f 298 316 459
f 298 460 316
f 298 408 460
f 298 324 408
f 298 293 324
f 298 291 293
f 298 334 291
f 298 443 334
f 298 339 443
f 298 338 339
f 298 418 338
f 298 417 418
f 298 232 417
f 298 231 232
f 298 326 231
f 298 70 326
f 298 194 70
f 298 153 194
f 298 151 153
f 298 189 151
f 298 456 189
f 456 298 260
f 497 100 29
f 29 100 30
f 497 454 100
f 498 256 110
f 30 498 110
f 338 331 325
f 331 106 325
f 458 480 321
f 321 480 479
f 296 295 359
f 169 114 436
f 170 169 436
f 58 465 489
f 490 462 518
f 504 264 332
f 496 501 402
f 505 290 289
f 54 505 519
f 290 412 335
f 335 412 336
f 499 504 500
f 464 504 499
f 25 27 470
f 429 506 520
f 506 429 466
f 429 469 27
f 469 429 520
f 206 208 521
f 471 206 521
f 171 344 422
f 171 245 344
f 245 447 275
f 275 447 276
f 276 507 494
f 494 473 209
f 378 416 124
f 123 378 124
f 437 512 510
f 356 221 88
f 377 407 355
f 511 357 481
f 14 364 15
f 15 364 361
f 404 355 374
f 114 404 374
f 139 522 140
f 484 485 511
f 328 13 406
f 406 13 251
f 452 64 466
f 441 405 491
f 429 452 466
f 478 452 429
f 463 504 464
f 504 463 389
f 386 287 308
f 308 287 165
f 167 166 400
f 166 104 400
f 333 505 54
f 55 352 354
f 402 523 403
f 402 501 523
f 489 462 490
f 449 518 419
f 516 522 139
f 357 356 437
f 439 155 244
f 159 439 244
f 397 396 235
f 394 309 517
f 493 235 234
f 493 234 280
f 517 311 507
f 507 311 280
f 33 188 320
f 33 320 322
f 312 321 313
f 322 321 312
f 313 296 358
f 296 359 358
f 353 246 248
f 289 246 353
f 277 276 424
f 424 276 209
f 271 211 173
f 211 300 173
f 344 277 164
f 422 344 164
f 414 327 329
f 125 124 414
f 355 430 356
f 430 252 221
f 524 481 482
f 485 374 511
f 221 475 222
f 475 221 252
f 430 221 356
f 483 360 484
f 360 170 484
f 492 514 478
f 477 139 514
f 442 308 229
f 487 442 229
f 505 289 519
f 519 289 352
f 515 54 53
f 501 515 446
f 495 2 346
f 3 2 495
f 523 501 446
f 523 446 403
f 518 499 419
f 12 449 1
f 401 449 12
f 401 104 449
f 314 313 502
f 502 313 483
f 55 354 394
f 155 55 394
f 309 248 310
f 248 395 397
f 448 517 507
f 394 517 448
f 414 124 327
f 124 416 327
f 407 430 355
f 407 251 430
f 525 511 481
f 524 526 527
f 526 524 482
f 481 357 437
f 483 484 513
f 236 491 492
f 441 491 236
f 477 516 139
f 516 483 522
f 490 518 449
f 104 490 449
f 518 462 499
f 462 464 499
f 54 519 55
f 519 352 55
f 310 248 397
f 310 397 311
f 511 375 357
f 375 355 357
f 524 384 141
f 384 524 527
f 525 481 524
f 140 513 525
f 513 511 525
f 514 139 452
f 478 514 452
f 500 504 332
f 500 332 501
f 419 499 496
f 496 499 501
f 482 509 528
f 509 482 437
f 526 482 528
f 483 513 522
f 522 513 140
f 141 525 524
f 140 525 141
f 529 161 420
f 529 162 161
f 530 162 529
f 162 530 472
f 472 530 423
f 423 530 421
f 421 530 174
f 174 530 172
f 172 530 428
f 274 428 530
f 428 274 348
f 274 530 272
f 272 530 270
f 270 530 350
f 350 530 351
f 351 530 59
f 59 530 10
f 10 530 8
f 302 8 530
f 8 302 242
f 242 302 303
f 302 530 304
f 304 530 399
f 399 530 306
f 306 530 92
f 92 530 93
f 93 530 301
f 301 530 305
f 305 530 307
f 307 530 444
f 531 530 529
f 530 531 532
f 380 531 382
f 268 531 380
f 532 268 36
f 532 36 35
f 532 35 86
f 532 86 342
f 532 342 341
f 532 341 150
f 52 150 149
f 150 52 532
f 532 52 51
f 532 51 203
f 532 203 340
f 532 340 226
f 532 226 225
f 532 225 283
f 532 283 46
f 205 46 48
f 205 48 178
f 46 205 532
f 532 205 204
f 532 204 81
f 532 81 83
f 532 83 132
f 532 132 133
f 532 133 103
f 532 103 7
f 532 7 4
f 532 4 379
f 268 532 531
f 163 529 420
f 521 529 471
f 160 529 163
f 529 521 531
f 529 160 471
f 366 531 285
f 531 381 382
f 531 366 381
f 286 531 521
f 531 286 285
f 207 521 208
f 508 521 207
f 521 508 286
f 286 79 434
f 77 286 508
f 286 77 79
f 427 77 508
f 427 365 77
f 25 427 426
f 470 427 25
f 25 426 474
f 469 427 470
f 25 474 26
f 365 367 217
f 217 367 218
f 218 367 369
f 427 469 365
f 365 486 367
f 435 365 469
f 365 435 486
f 506 469 520
f 469 506 435
f 372 435 506
f 435 372 373
f 467 506 468
f 506 467 372
f 362 372 467
f 372 362 383
f 212 467 438
f 467 212 362
f 431 362 212
f 362 431 363
f 384 212 65
f 212 384 431
f 384 65 67
f 475 431 384
f 384 67 385
f 431 475 476
f 476 475 432
f 432 475 433
f 526 384 527
f 384 526 475
f 89 475 526
f 475 89 222
f 509 526 528
f 526 509 89
f 512 89 509
f 89 512 90
f 512 509 510
f 6 532 379
f 101 532 175
f 532 6 175
f 454 532 101
f 238 530 237
f 530 238 444
f 497 532 454
f 530 241 237
f 261 532 497
f 530 488 241
f 260 532 261
f 530 487 488
f 532 260 530
f 530 297 487
f 298 530 260
f 530 298 297
# 1060 faces, 0 coords texture

# End of File
