####
#
# OBJ File Generated by Meshlab
#
####
# Object right_foot_geom.obj
#
# Vertices: 532
# Faces: 1060
#
####
v 0.040825 -0.002532 -0.019701
v 0.033691 0.000000 -0.022139
v 0.040905 0.000000 -0.019701
v 0.000000 -0.040329 -0.019701
v -0.002115 -0.033151 -0.022139
v 0.000000 -0.033216 -0.022139
v -0.003511 -0.010655 -0.026570
v -0.006954 -0.017317 -0.025581
v -0.004183 -0.010417 -0.026570
v -0.044810 -0.041487 -0.009635
v -0.047364 -0.038631 -0.009635
v -0.039965 -0.037001 -0.013436
v 0.016941 -0.051406 -0.013436
v 0.014820 -0.044970 -0.016796
v 0.020182 -0.050256 -0.013436
v 0.035846 -0.019428 -0.019701
v 0.030484 -0.014142 -0.022139
v 0.037012 -0.017171 -0.019701
v 0.021918 -0.034051 -0.019701
v 0.018052 -0.028045 -0.022139
v 0.024043 -0.032627 -0.019701
v 0.051902 -0.032474 -0.009635
v 0.052099 -0.028238 -0.010789
v 0.052099 -0.032144 -0.009635
v 0.048042 -0.026039 -0.013436
v -0.052099 -0.016667 -0.013460
v -0.045611 -0.014611 -0.016796
v -0.052099 -0.016689 -0.013457
v -0.046452 -0.011759 -0.016796
v -0.038799 -0.027792 -0.016796
v -0.040493 -0.025335 -0.016796
v -0.033094 -0.023705 -0.019701
v -0.044353 -0.031770 -0.013436
v -0.049731 -0.035623 -0.009635
v -0.046289 -0.028962 -0.013436
v 0.025295 -0.053000 -0.010813
v 0.023342 -0.048907 -0.013436
v 0.029450 -0.053000 -0.009734
v -0.014820 -0.044970 -0.016796
v -0.020182 -0.050256 -0.013436
v -0.017654 -0.043963 -0.016796
v -0.052099 -0.004322 -0.014668
v -0.047864 -0.002969 -0.016796
v -0.047581 -0.005926 -0.016796
v -0.052099 -0.003231 -0.014719
v -0.013770 -0.012749 -0.025581
v -0.020297 -0.016555 -0.024102
v -0.014555 -0.011871 -0.025581
v -0.011007 -0.002786 -0.026570
v -0.018556 -0.003489 -0.025581
v -0.011163 -0.002099 -0.026570
v -0.052099 -0.025913 -0.011401
v -0.049605 -0.023013 -0.013436
v -0.048042 -0.026039 -0.013436
v -0.052099 -0.024170 -0.011860
v -0.019706 -0.035340 -0.019701
v -0.021918 -0.034051 -0.019701
v -0.016231 -0.029107 -0.022139
v -0.033094 -0.006224 -0.022139
v -0.033424 -0.004163 -0.022139
v -0.025876 -0.004867 -0.024102
v -0.025515 -0.006458 -0.024102
v -0.032632 -0.008260 -0.022139
v -0.050973 -0.019898 -0.013436
v -0.052099 -0.020337 -0.012744
v -0.052099 -0.016815 -0.013436
v -0.047110 -0.008860 -0.016796
v -0.052099 -0.009798 -0.014310
v -0.052099 -0.007430 -0.014494
v 0.004222 -0.032954 -0.022139
v 0.002115 -0.033151 -0.022139
v 0.003302 -0.025766 -0.024102
v -0.012931 -0.013577 -0.025581
v -0.019202 -0.017778 -0.024102
v -0.042242 -0.034453 -0.013436
v 0.039056 -0.053000 -0.006350
v 0.043266 -0.051563 -0.005406
v 0.041388 -0.053000 -0.005406
v 0.036132 -0.049030 -0.009635
v -0.010121 -0.015725 -0.025581
v -0.011104 -0.015067 -0.025581
v -0.006089 -0.009460 -0.026570
v 0.017416 -0.036491 -0.019701
v 0.014344 -0.030054 -0.022139
v 0.016231 -0.029107 -0.022139
v -0.010173 -0.039062 -0.019701
v -0.010410 -0.031590 -0.022139
v -0.008378 -0.032172 -0.022139
v -0.038903 -0.012462 -0.019701
v -0.012041 -0.014350 -0.025581
v -0.016791 -0.020011 -0.024102
v -0.026135 -0.003255 -0.024102
v -0.026291 -0.001631 -0.024102
v -0.051902 -0.032474 -0.009635
v -0.039620 -0.010029 -0.019701
v -0.040181 -0.007557 -0.019701
v -0.034537 -0.021609 -0.019701
v -0.035846 -0.019428 -0.019701
v -0.029523 -0.016002 -0.022139
v -0.003763 -0.000468 -0.027065
v -0.011342 -0.000703 -0.026570
v -0.003785 -0.000235 -0.027065
v 0.046465 -0.048782 -0.005406
v 0.052099 -0.048235 -0.002691
v 0.052099 -0.049663 -0.001917
v 0.049479 -0.045810 -0.005406
v 0.020420 -0.042784 -0.016796
v 0.019706 -0.035340 -0.019701
v 0.023104 -0.041434 -0.016796
v 0.023063 -0.024213 -0.022139
v 0.018032 -0.018932 -0.024102
v 0.024559 -0.022737 -0.022139
v -0.002568 -0.040250 -0.019701
v 0.029375 -0.045637 -0.013436
v 0.025698 -0.039923 -0.016796
v 0.028190 -0.038253 -0.016796
v 0.044591 -0.017406 -0.016796
v 0.038032 -0.014846 -0.019701
v 0.038903 -0.012462 -0.019701
v -0.020420 -0.042784 -0.016796
v -0.023104 -0.041434 -0.016796
v 0.006010 -0.046910 -0.016796
v 0.005126 -0.040011 -0.019701
v 0.008986 -0.046446 -0.016796
v -0.026074 -0.031074 -0.019701
v -0.028002 -0.029399 -0.019701
v -0.021475 -0.025593 -0.022139
v 0.052099 -0.042493 -0.005578
v 0.047364 -0.038631 -0.009635
v 0.052099 -0.039072 -0.006983
v 0.022950 -0.053000 -0.011346
v 0.052099 -0.016667 -0.013460
v 0.046452 -0.011759 -0.016796
v 0.052099 -0.013188 -0.013942
v 0.003011 -0.047190 -0.016796
v 0.002568 -0.040250 -0.019701
v -0.012691 -0.022759 -0.024102
v -0.014114 -0.021928 -0.024102
v -0.052099 -0.006489 -0.014567
v -0.027256 -0.019524 -0.022139
v -0.028445 -0.017797 -0.022139
v -0.037012 -0.017171 -0.019701
v -0.044591 -0.017406 -0.016796
v -0.038032 -0.014846 -0.019701
v -0.052099 -0.032144 -0.009635
v -0.052099 -0.028238 -0.010789
v -0.042027 -0.022778 -0.016796
v -0.030570 -0.036432 -0.016796
v -0.032830 -0.034468 -0.016796
v -0.052099 -0.010514 -0.014232
v -0.037529 -0.039401 -0.013436
v 0.010808 -0.003462 -0.026570
v 0.003674 -0.000930 -0.027065
v 0.011007 -0.002786 -0.026570
v -0.032042 -0.010264 -0.022139
v -0.015283 -0.010947 -0.025581
v 0.039620 -0.010029 -0.019701
v 0.032632 -0.008260 -0.022139
v 0.040181 -0.007557 -0.019701
v 0.023084 -0.012511 -0.024102
v 0.016554 -0.008972 -0.025581
v 0.023835 -0.011058 -0.024102
v 0.026411 -0.047365 -0.013436
v 0.029552 -0.053000 -0.009707
v 0.040493 -0.025335 -0.016796
v 0.042027 -0.022778 -0.016796
v 0.038799 -0.027792 -0.016796
v 0.033094 -0.023705 -0.019701
v -0.003302 -0.025766 -0.024102
v -0.001654 -0.025920 -0.024102
v 0.018556 -0.003489 -0.025581
v 0.011163 -0.002099 -0.026570
v 0.018742 -0.002334 -0.025581
v -0.052099 -0.032467 -0.009525
v -0.042080 -0.044179 -0.009635
v -0.015058 -0.037498 -0.019701
v -0.012402 -0.030883 -0.022139
v -0.032224 -0.043728 -0.013436
v -0.034945 -0.041647 -0.013436
v -0.028190 -0.038253 -0.016796
v -0.018052 -0.028045 -0.022139
v -0.006551 -0.025155 -0.024102
v -0.008140 -0.024700 -0.024102
v 0.044471 -0.053000 -0.003978
v 0.049783 -0.053000 -0.001322
v 0.034115 -0.053000 -0.008184
v 0.029802 -0.053000 -0.009635
v 0.032938 -0.051170 -0.009635
v 0.037224 -0.053000 -0.007030
v 0.052099 -0.021329 -0.012515
v 0.050973 -0.019898 -0.013436
v 0.052099 -0.020337 -0.012744
v -0.034115 -0.053000 -0.008184
v -0.037224 -0.053000 -0.007030
v -0.032938 -0.051170 -0.009635
v -0.017416 -0.036491 -0.019701
v -0.019802 -0.026872 -0.022139
v -0.024043 -0.032627 -0.019701
v -0.021312 -0.015266 -0.024102
v -0.022242 -0.013916 -0.024102
v -0.015484 -0.021011 -0.024102
v -0.025959 -0.021172 -0.022139
v -0.033624 -0.002085 -0.022139
v -0.040825 -0.002532 -0.019701
v -0.033691 0.000000 -0.022139
v -0.052099 -0.037319 -0.007703
v -0.052099 -0.039072 -0.006983
v -0.043394 -0.020132 -0.016796
v 0.010173 -0.039062 -0.019701
v 0.006312 -0.032627 -0.022139
v 0.008378 -0.032172 -0.022139
v -0.006680 -0.009064 -0.026570
v -0.007243 -0.008633 -0.026570
v -0.010566 -0.004124 -0.026570
v -0.010808 -0.003462 -0.026570
v -0.003527 -0.001376 -0.027065
v -0.018853 -0.001169 -0.025581
v -0.018890 0.000000 -0.025581
v 0.025876 -0.004867 -0.024102
v 0.039965 -0.037001 -0.013436
v 0.042242 -0.034453 -0.013436
v 0.009958 -0.005397 -0.026570
v 0.010282 -0.004770 -0.026570
v 0.012041 -0.014350 -0.025581
v 0.007243 -0.008633 -0.026570
v 0.007779 -0.008167 -0.026570
v 0.036953 -0.030139 -0.016796
v 0.045611 -0.014611 -0.016796
v 0.024492 -0.009561 -0.024102
v 0.017564 -0.006856 -0.025581
v 0.017966 -0.005754 -0.025581
v 0.039183 -0.046697 -0.009635
v 0.011927 -0.045798 -0.016796
v 0.016791 -0.020011 -0.024102
v 0.012931 -0.013577 -0.025581
v 0.047110 -0.008860 -0.016796
v 0.034945 -0.041647 -0.013436
v 0.030570 -0.036432 -0.016796
v 0.052099 -0.006489 -0.014567
v 0.047581 -0.005926 -0.016796
v 0.052099 -0.004322 -0.014668
v 0.044810 -0.041487 -0.009635
v 0.049731 -0.035623 -0.009635
v 0.046289 -0.028962 -0.013436
v 0.007665 -0.039615 -0.019701
v -0.005126 -0.040011 -0.019701
v 0.000000 -0.047283 -0.016796
v -0.003011 -0.047190 -0.016796
v -0.008986 -0.046446 -0.016796
v -0.007665 -0.039615 -0.019701
v -0.004935 -0.025512 -0.024102
v -0.001185 -0.018588 -0.025581
v -0.013634 -0.052353 -0.013436
v -0.016941 -0.051406 -0.013436
v -0.011927 -0.045798 -0.016796
v -0.006010 -0.046910 -0.016796
v 0.047959 0.000000 -0.016796
v -0.036132 -0.049030 -0.009635
v -0.043266 -0.051563 -0.005406
v -0.039183 -0.046697 -0.009635
v -0.025698 -0.039923 -0.016796
v -0.026411 -0.047365 -0.013436
v 0.050481 -0.053000 -0.000973
v 0.017466 -0.053000 -0.012464
v 0.018774 -0.053000 -0.012211
v -0.023063 -0.024213 -0.022139
v -0.009697 -0.024148 -0.024102
v -0.014344 -0.030054 -0.022139
v 0.004935 -0.025512 -0.024102
v 0.004698 -0.018040 -0.025581
v 0.006551 -0.025155 -0.024102
v -0.036953 -0.030139 -0.016796
v -0.031518 -0.025706 -0.019701
v -0.018742 -0.002334 -0.025581
v -0.024492 -0.009561 -0.024102
v -0.025053 -0.008025 -0.024102
v -0.034961 -0.032368 -0.016796
v -0.030484 -0.014142 -0.022139
v -0.052099 -0.021329 -0.012515
v -0.052099 -0.013188 -0.013942
v -0.008756 -0.007141 -0.026570
v -0.023084 -0.012511 -0.024102
v -0.023835 -0.011058 -0.024102
v -0.016554 -0.008972 -0.025581
v -0.031324 -0.012227 -0.022139
v -0.047959 0.000000 -0.016796
v -0.040905 0.000000 -0.019701
v 0.011342 -0.000703 -0.026570
v 0.003763 -0.000468 -0.027065
v 0.003785 -0.000235 -0.027065
v -0.003793 0.000000 -0.027065
v 0.011274 -0.001404 -0.026570
v 0.003607 -0.001155 -0.027065
v -0.000943 -0.003622 -0.027065
v -0.001172 -0.003556 -0.027065
v -0.009595 -0.006003 -0.026570
v -0.003324 -0.001801 -0.027065
v -0.003202 -0.002004 -0.027065
v -0.009958 -0.005397 -0.026570
v 0.043394 -0.020132 -0.016796
v 0.027256 -0.019524 -0.022139
v 0.022242 -0.013916 -0.024102
v 0.028445 -0.017797 -0.022139
v 0.033094 -0.006224 -0.022139
v 0.033424 -0.004163 -0.022139
v 0.026135 -0.003255 -0.024102
v 0.010566 -0.004124 -0.026570
v 0.020297 -0.016555 -0.024102
v 0.015283 -0.010947 -0.025581
v 0.021312 -0.015266 -0.024102
v 0.033624 -0.002085 -0.022139
v 0.026291 -0.001631 -0.024102
v 0.032830 -0.034468 -0.016796
v 0.028002 -0.029399 -0.019701
v 0.034961 -0.032368 -0.016796
v 0.029610 -0.053000 -0.009691
v 0.047864 -0.002969 -0.016796
v 0.052099 -0.003231 -0.014719
v 0.029523 -0.016002 -0.022139
v 0.031324 -0.012227 -0.022139
v 0.052099 -0.010514 -0.014232
v 0.052099 -0.009798 -0.014310
v 0.042080 -0.044179 -0.009635
v 0.044353 -0.031770 -0.013436
v 0.037529 -0.039401 -0.013436
v 0.021475 -0.025593 -0.022139
v 0.026074 -0.031074 -0.019701
v 0.052099 -0.016815 -0.013436
v -0.012640 -0.038356 -0.019701
v 0.012640 -0.038356 -0.019701
v 0.015484 -0.021011 -0.024102
v 0.019802 -0.026872 -0.022139
v 0.000000 -0.025971 -0.024102
v 0.017654 -0.043963 -0.016796
v -0.013443 -0.053000 -0.013094
v -0.010700 -0.053000 -0.013436
v 0.018890 0.000000 -0.025581
v 0.026342 0.000000 -0.024102
v -0.052099 -0.032597 -0.009480
v -0.052099 -0.032923 -0.009358
v -0.049783 -0.053000 -0.001322
v -0.046465 -0.048782 -0.005406
v -0.050481 -0.053000 -0.000973
v -0.029375 -0.045637 -0.013436
v 0.052099 -0.051781 -0.000769
v 0.050863 -0.053000 -0.000769
v 0.052099 -0.042881 -0.005406
v 0.052099 -0.053000 -0.000016
v 0.052099 -0.037319 -0.007703
v 0.052099 -0.032597 -0.009480
v 0.052099 -0.032467 -0.009525
v 0.021283 -0.053000 -0.011725
v 0.016580 -0.053000 -0.012606
v -0.016580 -0.053000 -0.012606
v -0.017466 -0.053000 -0.012464
v 0.006954 -0.017317 -0.025581
v 0.004838 -0.010138 -0.026570
v 0.008043 -0.016851 -0.025581
v -0.004222 -0.032954 -0.022139
v -0.052099 -0.002079 -0.014737
v -0.040583 -0.005054 -0.019701
v -0.017093 -0.007930 -0.025581
v -0.017564 -0.006856 -0.025581
v -0.024559 -0.022737 -0.022139
v -0.015949 -0.009979 -0.025581
v -0.029818 -0.027607 -0.019701
v -0.052099 -0.016707 -0.013454
v -0.007779 -0.008167 -0.026570
v -0.010282 -0.004770 -0.026570
v -0.009193 -0.006585 -0.026570
v -0.017966 -0.005754 -0.025581
v -0.018297 -0.004631 -0.025581
v -0.052099 0.000000 -0.014770
v 0.003324 -0.001801 -0.027065
v 0.003431 -0.001592 -0.027065
v 0.011104 -0.015067 -0.025581
v 0.029818 -0.027607 -0.019701
v 0.031518 -0.025706 -0.019701
v -0.011216 -0.023500 -0.024102
v -0.008043 -0.016851 -0.025581
v 0.006680 -0.009064 -0.026570
v 0.002418 -0.002881 -0.027065
v 0.049605 -0.023013 -0.013436
v 0.034537 -0.021609 -0.019701
v 0.019202 -0.017778 -0.024102
v 0.017093 -0.007930 -0.025581
v 0.003793 0.000000 -0.027065
v 0.052099 -0.002079 -0.014737
v 0.015058 -0.037498 -0.019701
v 0.052099 0.000000 -0.014770
v 0.052099 -0.016689 -0.013457
v 0.052099 -0.016707 -0.013454
v 0.032224 -0.043728 -0.013436
v -0.009100 -0.016320 -0.025581
v -0.002367 -0.018477 -0.025581
v -0.001424 -0.011116 -0.026570
v 0.013802 -0.053000 -0.013049
v 0.013443 -0.053000 -0.013094
v 0.013634 -0.052353 -0.013436
v 0.007056 -0.053000 -0.013729
v 0.006791 -0.053000 -0.013749
v 0.005474 -0.009818 -0.026570
v 0.010410 -0.031590 -0.022139
v 0.012402 -0.030883 -0.022139
v -0.010293 -0.053000 -0.013480
v -0.010254 -0.053000 -0.013484
v -0.025295 -0.053000 -0.010813
v -0.029450 -0.053000 -0.009734
v -0.023342 -0.048907 -0.013436
v -0.052099 -0.051781 -0.000769
v -0.050863 -0.053000 -0.000769
v -0.052099 -0.049663 -0.001917
v -0.052099 -0.042493 -0.005578
v 0.052099 -0.032923 -0.009358
v 0.052099 -0.025913 -0.011401
v 0.052099 -0.024170 -0.011860
v -0.006312 -0.032627 -0.022139
v -0.011364 0.000000 -0.026570
v -0.018032 -0.018932 -0.024102
v -0.002418 -0.002881 -0.027065
v 0.000713 -0.011182 -0.026570
v 0.000237 -0.003732 -0.027065
v 0.000475 -0.003710 -0.027065
v 0.003527 -0.001376 -0.027065
v 0.009193 -0.006585 -0.026570
v 0.002922 -0.002383 -0.027065
v 0.003068 -0.002197 -0.027065
v -0.003607 -0.001155 -0.027065
v -0.003674 -0.000930 -0.027065
v -0.002826 -0.010852 -0.026570
v -0.004698 -0.018040 -0.025581
v 0.032042 -0.010264 -0.022139
v 0.025515 -0.006458 -0.024102
v 0.002826 -0.010852 -0.026570
v 0.000943 -0.003622 -0.027065
v 0.003511 -0.010655 -0.026570
v -0.003068 -0.002197 -0.027065
v 0.010121 -0.015725 -0.025581
v 0.006089 -0.009460 -0.026570
v -0.005474 -0.009818 -0.026570
v 0.018853 -0.001169 -0.025581
v 0.025959 -0.021172 -0.022139
v 0.014555 -0.011871 -0.025581
v 0.018297 -0.004631 -0.025581
v 0.011364 0.000000 -0.026570
v -0.001396 -0.003477 -0.027065
v -0.004838 -0.010138 -0.026570
v -0.001615 -0.003384 -0.027065
v 0.040583 -0.005054 -0.019701
v 0.013770 -0.012749 -0.025581
v 0.008284 -0.007669 -0.026570
v 0.052099 -0.007430 -0.014494
v 0.010254 -0.053000 -0.013484
v 0.010293 -0.053000 -0.013480
v 0.010700 -0.053000 -0.013436
v -0.007056 -0.053000 -0.013729
v -0.006791 -0.053000 -0.013749
v -0.049479 -0.045810 -0.005406
v -0.052099 -0.048235 -0.002691
v -0.052099 -0.042881 -0.005406
v -0.044471 -0.053000 -0.003978
v 0.000000 -0.053000 -0.013958
v -0.002954 -0.053000 -0.013913
v -0.003382 -0.053000 -0.013906
v -0.003431 -0.001592 -0.027065
v -0.026342 0.000000 -0.024102
v -0.002129 -0.011005 -0.026570
v -0.000475 -0.003710 -0.027065
v -0.005837 -0.017713 -0.025581
v 0.000000 -0.011204 -0.026570
v 0.000000 -0.003739 -0.027065
v 0.001615 -0.003384 -0.027065
v 0.001827 -0.003277 -0.027065
v -0.002765 -0.002560 -0.027065
v -0.002922 -0.002383 -0.027065
v -0.000713 -0.011182 -0.026570
v 0.002129 -0.011005 -0.026570
v 0.000710 -0.003673 -0.027065
v 0.009595 -0.006003 -0.026570
v 0.002367 -0.018477 -0.025581
v 0.001185 -0.018588 -0.025581
v -0.000237 -0.003732 -0.027065
v 0.001654 -0.025920 -0.024102
v 0.001396 -0.003477 -0.027065
v 0.004183 -0.010417 -0.026570
v -0.002229 -0.003025 -0.027065
v 0.000000 -0.018624 -0.025581
v 0.015949 -0.009979 -0.025581
v 0.003725 -0.000700 -0.027065
v 0.025053 -0.008025 -0.024102
v 0.009100 -0.016320 -0.025581
v -0.006496 -0.053000 -0.013763
v -0.013802 -0.053000 -0.013049
v -0.018774 -0.053000 -0.012211
v -0.029802 -0.053000 -0.009635
v -0.029610 -0.053000 -0.009691
v -0.008284 -0.007669 -0.026570
v -0.011274 -0.001404 -0.026570
v 0.008756 -0.007141 -0.026570
v 0.002032 -0.003157 -0.027065
v 0.002229 -0.003025 -0.027065
v -0.000710 -0.003673 -0.027065
v -0.003725 -0.000700 -0.027065
v 0.001424 -0.011116 -0.026570
v 0.008140 -0.024700 -0.024102
v 0.009697 -0.024148 -0.024102
v 0.001172 -0.003556 -0.027065
v -0.002596 -0.002726 -0.027065
v 0.003382 -0.053000 -0.013906
v 0.006496 -0.053000 -0.013763
v 0.002954 -0.053000 -0.013913
v 0.014114 -0.021928 -0.024102
v 0.011216 -0.023500 -0.024102
v 0.012691 -0.022759 -0.024102
v -0.052099 -0.053000 -0.000016
v -0.029552 -0.053000 -0.009707
v -0.041388 -0.053000 -0.005406
v -0.003539 -0.018294 -0.025581
v 0.002596 -0.002726 -0.027065
v 0.002765 -0.002560 -0.027065
v -0.001827 -0.003277 -0.027065
v 0.003202 -0.002004 -0.027065
v -0.002032 -0.003157 -0.027065
v 0.003539 -0.018294 -0.025581
v -0.021283 -0.053000 -0.011725
v -0.022950 -0.053000 -0.011346
v -0.039056 -0.053000 -0.006350
v 0.005837 -0.017713 -0.025581
v 0.052099 0.000000 0.000000
v 0.052099 -0.053000 0.000000
v -0.052099 0.000000 0.000000
v -0.052099 -0.053000 0.000000
# 532 vertices, 0 vertices normals

f 1 2 3
f 4 5 6
f 7 8 9
f 10 11 12
f 13 14 15
f 16 17 18
f 19 20 21
f 22 23 24
f 23 22 25
f 26 27 28
f 27 26 29
f 30 31 32
f 33 34 35
f 36 37 38
f 39 40 41
f 42 43 44
f 43 42 45
f 46 47 48
f 49 50 51
f 52 53 54
f 53 52 55
f 56 57 58
f 59 60 61
f 62 63 61
f 64 65 66
f 67 68 69
f 70 71 72
f 73 74 46
f 75 33 30
f 76 77 78
f 77 76 79
f 80 81 82
f 83 84 85
f 86 87 88
f 11 34 75
f 27 29 89
f 90 91 73
f 92 60 93
f 35 94 54
f 95 96 63
f 97 98 99
f 100 101 102
f 103 104 105
f 104 103 106
f 107 108 109
f 110 111 112
f 4 113 5
f 114 115 116
f 117 118 119
f 120 121 56
f 122 123 124
f 125 126 127
f 128 129 130
f 36 131 37
f 132 133 134
f 135 136 122
f 137 138 80
f 44 139 42
f 140 97 141
f 142 143 144
f 145 54 94
f 54 145 146
f 31 54 147
f 148 149 126
f 150 67 29
f 67 150 68
f 35 54 31
f 151 12 149
f 152 153 154
f 155 95 63
f 48 47 156
f 157 158 159
f 160 161 162
f 38 163 164
f 163 38 37
f 25 165 166
f 167 168 165
f 5 169 170
f 171 172 173
f 94 174 145
f 151 175 12
f 87 176 177
f 178 179 180
f 137 181 138
f 182 87 183
f 184 77 185
f 186 187 188
f 189 79 76
f 79 189 188
f 190 191 192
f 193 194 195
f 196 120 56
f 197 198 127
f 199 200 156
f 201 91 90
f 47 202 199
f 203 204 205
f 44 43 204
f 32 97 140
f 75 34 33
f 33 35 30
f 206 11 207
f 11 206 34
f 34 94 35
f 54 146 52
f 208 143 142
f 29 67 96
f 209 210 211
f 212 81 213
f 214 215 216
f 217 93 218
f 219 171 173
f 82 81 212
f 129 220 221
f 161 222 223
f 224 225 226
f 227 168 167
f 117 119 228
f 229 230 231
f 77 79 232
f 13 233 14
f 234 224 235
f 122 136 123
f 186 188 189
f 133 159 236
f 237 116 238
f 239 240 241
f 106 242 129
f 243 244 22
f 124 123 245
f 113 246 5
f 37 15 107
f 247 248 113
f 246 249 250
f 251 88 182
f 170 169 252
f 253 254 255
f 256 249 246
f 257 1 3
f 258 259 260
f 179 151 149
f 181 197 201
f 56 261 57
f 121 261 56
f 121 262 261
f 184 78 77
f 185 103 263
f 103 185 77
f 264 13 265
f 197 127 201
f 127 126 266
f 87 177 267
f 268 196 58
f 58 57 181
f 269 270 271
f 67 44 96
f 69 44 67
f 44 69 139
f 272 30 32
f 273 32 202
f 274 217 101
f 275 155 276
f 277 75 272
f 98 142 278
f 279 53 55
f 53 279 64
f 64 279 65
f 99 98 278
f 30 35 31
f 29 280 150
f 29 26 280
f 89 95 155
f 89 29 95
f 48 156 281
f 80 201 81
f 50 274 51
f 282 283 284
f 285 144 155
f 204 286 287
f 203 205 93
f 224 226 235
f 288 289 290
f 102 101 291
f 172 289 292
f 152 293 153
f 294 7 295
f 296 297 298
f 297 296 299
f 300 18 117
f 301 302 303
f 158 219 304
f 305 219 306
f 230 307 152
f 308 309 310
f 311 312 2
f 1 305 311
f 1 311 2
f 313 314 315
f 110 234 111
f 188 114 79
f 114 187 316
f 187 114 188
f 241 317 318
f 317 241 240
f 236 159 240
f 16 319 17
f 118 17 320
f 321 236 322
f 236 321 133
f 77 323 103
f 221 167 324
f 323 237 325
f 79 237 232
f 21 326 327
f 116 21 327
f 192 191 328
f 86 329 87
f 329 41 176
f 14 209 330
f 107 83 108
f 20 331 332
f 6 5 333
f 113 256 246
f 15 14 334
f 249 86 250
f 41 120 176
f 335 253 336
f 329 176 87
f 312 337 338
f 94 339 174
f 175 10 12
f 340 34 206
f 34 340 94
f 341 342 259
f 342 341 343
f 272 75 30
f 260 259 175
f 261 344 180
f 261 180 198
f 198 180 125
f 198 125 127
f 196 56 58
f 177 196 268
f 263 345 346
f 345 263 105
f 105 263 103
f 104 106 347
f 348 346 345
f 129 349 130
f 349 129 243
f 350 22 351
f 15 131 352
f 131 15 37
f 264 353 13
f 354 355 254
f 58 181 137
f 138 201 80
f 356 357 358
f 70 72 269
f 5 246 359
f 246 250 359
f 360 43 45
f 43 360 286
f 43 286 204
f 96 44 361
f 361 44 204
f 362 275 363
f 127 266 91
f 266 126 364
f 214 363 215
f 273 272 32
f 365 284 296
f 74 47 46
f 278 144 285
f 142 144 278
f 126 277 366
f 277 272 273
f 53 64 143
f 66 143 64
f 143 66 367
f 95 29 96
f 60 204 203
f 90 73 368
f 81 201 90
f 73 46 368
f 299 284 369
f 370 156 296
f 202 140 199
f 371 62 372
f 363 371 215
f 204 287 205
f 299 369 297
f 154 153 172
f 286 360 373
f 223 374 375
f 331 376 224
f 234 235 111
f 315 377 378
f 379 137 380
f 381 382 225
f 183 87 267
f 383 300 117
f 384 301 303
f 314 112 377
f 112 385 308
f 2 312 338
f 162 161 386
f 292 289 288
f 288 290 387
f 219 173 306
f 305 312 311
f 317 388 318
f 388 317 257
f 305 306 312
f 314 326 110
f 326 234 110
f 314 110 112
f 315 314 377
f 237 313 325
f 220 313 315
f 107 389 83
f 164 114 316
f 114 164 163
f 388 257 390
f 228 132 391
f 132 228 133
f 392 228 391
f 228 392 117
f 25 166 300
f 117 328 191
f 328 117 392
f 25 300 383
f 165 16 166
f 323 220 242
f 129 221 243
f 243 221 324
f 22 244 25
f 393 116 237
f 79 393 237
f 380 137 394
f 252 395 396
f 397 398 399
f 122 400 401
f 400 122 124
f 136 71 123
f 163 115 114
f 358 357 402
f 330 209 403
f 389 404 83
f 405 249 406
f 249 405 255
f 255 39 86
f 407 408 409
f 344 178 180
f 40 120 41
f 259 342 175
f 410 343 411
f 343 410 412
f 343 412 342
f 11 413 207
f 12 75 277
f 12 11 75
f 180 148 125
f 125 148 126
f 57 261 198
f 138 181 201
f 176 120 196
f 176 196 177
f 267 379 8
f 177 268 267
f 242 220 129
f 106 128 347
f 128 106 129
f 414 22 350
f 243 414 349
f 414 243 22
f 351 22 24
f 415 383 416
f 383 415 25
f 123 71 70
f 136 4 71
f 88 87 182
f 359 250 417
f 101 418 291
f 364 202 47
f 74 364 47
f 147 54 208
f 31 147 98
f 202 32 140
f 32 31 97
f 362 363 369
f 363 275 371
f 200 99 282
f 156 365 296
f 144 143 89
f 144 89 155
f 149 12 277
f 149 277 126
f 366 273 202
f 366 277 273
f 143 27 89
f 367 27 143
f 27 367 28
f 81 90 213
f 266 364 419
f 419 364 74
f 213 90 368
f 213 368 420
f 421 422 423
f 296 284 299
f 60 203 93
f 63 96 59
f 59 96 60
f 61 60 92
f 369 363 214
f 284 362 369
f 307 424 152
f 215 371 49
f 101 218 418
f 425 426 427
f 152 424 293
f 216 215 428
f 49 51 429
f 225 382 226
f 430 431 7
f 432 433 158
f 434 435 436
f 370 296 298
f 437 370 298
f 369 214 216
f 376 225 224
f 438 402 439
f 440 80 82
f 267 268 379
f 268 58 379
f 384 303 319
f 165 384 16
f 312 441 337
f 306 173 312
f 377 112 442
f 308 443 309
f 444 154 171
f 384 319 16
f 230 152 231
f 288 387 445
f 446 447 448
f 159 304 305
f 159 158 304
f 304 219 305
f 219 444 171
f 240 449 1
f 240 159 449
f 240 1 317
f 317 1 257
f 327 326 314
f 21 332 326
f 450 226 451
f 377 442 378
f 442 310 301
f 168 442 301
f 238 327 314
f 116 327 238
f 452 240 239
f 240 452 236
f 134 133 321
f 157 432 158
f 119 432 157
f 23 25 415
f 244 167 165
f 244 165 25
f 166 16 300
f 300 16 18
f 220 315 221
f 227 378 168
f 325 313 220
f 323 325 220
f 232 237 323
f 77 232 323
f 79 114 393
f 114 116 393
f 453 400 124
f 124 454 453
f 454 124 233
f 398 455 399
f 123 70 245
f 245 210 209
f 115 19 21
f 115 21 116
f 21 20 332
f 108 85 19
f 248 256 113
f 456 256 457
f 256 456 249
f 456 406 249
f 255 254 39
f 249 255 86
f 336 255 405
f 255 336 253
f 175 342 10
f 458 459 460
f 120 262 121
f 180 179 148
f 461 341 259
f 94 340 339
f 57 198 181
f 181 198 197
f 379 58 137
f 394 137 80
f 103 242 106
f 103 323 242
f 430 7 294
f 333 5 170
f 71 4 6
f 462 463 247
f 463 248 247
f 248 463 464
f 359 417 251
f 417 88 251
f 97 31 98
f 282 99 283
f 208 53 143
f 54 53 208
f 278 285 275
f 285 155 275
f 199 140 200
f 141 97 99
f 47 199 156
f 156 200 365
f 281 156 370
f 295 7 446
f 365 200 284
f 200 282 284
f 364 366 202
f 126 366 364
f 465 369 216
f 428 215 429
f 201 127 91
f 419 74 73
f 91 266 419
f 91 419 73
f 63 59 61
f 62 61 372
f 96 361 60
f 361 204 60
f 93 205 466
f 61 92 274
f 92 93 274
f 371 372 49
f 372 50 49
f 396 467 468
f 431 183 469
f 421 470 471
f 357 472 473
f 474 281 475
f 297 369 465
f 470 252 476
f 477 478 435
f 161 479 222
f 72 480 269
f 331 224 234
f 481 470 421
f 215 49 429
f 482 476 468
f 471 476 482
f 71 483 72
f 436 484 485
f 82 212 486
f 8 380 447
f 8 379 380
f 481 333 487
f 169 251 395
f 337 288 445
f 302 488 161
f 302 309 488
f 310 309 302
f 301 310 302
f 161 223 386
f 172 489 289
f 172 153 489
f 17 229 320
f 231 152 154
f 229 231 490
f 228 119 133
f 319 302 160
f 302 161 160
f 432 490 433
f 490 231 433
f 449 305 1
f 159 305 449
f 378 442 168
f 221 227 167
f 112 111 385
f 111 235 385
f 322 236 452
f 118 432 119
f 118 320 432
f 165 168 384
f 168 301 384
f 243 324 244
f 324 167 244
f 221 315 227
f 315 378 227
f 237 238 313
f 238 314 313
f 247 113 4
f 136 247 4
f 455 233 399
f 233 455 454
f 399 353 397
f 353 399 13
f 358 402 491
f 124 245 209
f 83 85 108
f 37 107 163
f 326 331 234
f 332 331 326
f 389 403 404
f 330 403 389
f 492 256 248
f 256 492 457
f 464 492 248
f 417 86 88
f 250 86 417
f 39 41 329
f 86 39 329
f 335 493 253
f 354 253 493
f 253 354 254
f 342 458 10
f 459 342 412
f 342 459 458
f 409 262 120
f 40 409 120
f 355 494 254
f 495 344 496
f 344 495 195
f 148 179 149
f 71 333 483
f 71 6 333
f 469 183 8
f 182 183 431
f 98 208 142
f 147 208 98
f 276 62 371
f 275 276 371
f 99 278 283
f 283 278 275
f 497 281 474
f 368 497 474
f 140 141 200
f 141 99 200
f 217 218 101
f 274 93 217
f 51 498 100
f 51 274 498
f 372 61 50
f 50 61 274
f 499 426 425
f 439 500 501
f 502 467 294
f 503 51 100
f 421 423 504
f 252 169 395
f 223 375 424
f 429 51 503
f 488 479 161
f 223 424 307
f 505 356 506
f 436 435 507
f 308 450 443
f 385 450 308
f 281 370 475
f 508 368 474
f 376 381 225
f 491 402 438
f 497 48 281
f 7 9 446
f 83 404 84
f 211 269 271
f 486 212 420
f 212 213 420
f 271 270 505
f 394 80 440
f 380 394 440
f 333 170 252
f 481 421 504
f 5 359 169
f 359 251 169
f 309 479 488
f 309 425 479
f 17 162 229
f 320 229 432
f 173 172 292
f 171 154 172
f 433 231 444
f 231 154 444
f 386 223 230
f 230 223 307
f 303 302 319
f 432 229 490
f 162 386 229
f 229 386 230
f 158 433 219
f 433 444 219
f 112 308 442
f 442 308 310
f 117 18 118
f 18 17 118
f 133 157 159
f 133 119 157
f 383 117 191
f 383 190 416
f 190 383 191
f 509 135 510
f 511 462 247
f 510 122 401
f 122 510 135
f 265 15 352
f 15 265 13
f 399 233 13
f 14 330 334
f 334 330 389
f 163 109 115
f 163 107 109
f 19 85 20
f 20 512 331
f 506 356 513
f 211 271 403
f 209 211 403
f 245 70 210
f 514 358 491
f 20 514 512
f 411 515 410
f 413 458 460
f 458 413 11
f 10 458 11
f 254 40 39
f 408 262 409
f 262 408 516
f 517 461 259
f 260 175 179
f 179 175 151
f 344 258 178
f 195 258 344
f 183 267 8
f 251 182 431
f 395 518 396
f 395 251 518
f 226 519 520
f 276 155 62
f 155 63 62
f 284 283 362
f 283 275 362
f 93 466 218
f 498 101 100
f 498 274 101
f 448 447 521
f 436 507 484
f 402 473 439
f 425 427 522
f 226 382 519
f 381 501 382
f 439 501 381
f 222 374 223
f 385 235 450
f 235 226 450
f 468 467 502
f 309 499 425
f 443 451 499
f 450 451 443
f 475 370 437
f 376 439 381
f 289 387 290
f 489 387 289
f 153 387 489
f 293 387 153
f 424 387 293
f 375 387 424
f 374 387 375
f 522 387 374
f 427 387 522
f 426 387 427
f 520 387 426
f 519 387 520
f 382 387 519
f 501 387 382
f 500 387 501
f 473 387 500
f 472 387 473
f 484 387 472
f 507 387 484
f 435 387 507
f 478 387 435
f 423 387 478
f 422 387 423
f 471 387 422
f 482 387 471
f 468 387 482
f 502 387 468
f 294 387 502
f 295 387 294
f 446 387 295
f 448 387 446
f 521 387 448
f 523 387 521
f 486 387 523
f 420 387 486
f 508 387 420
f 474 387 508
f 475 387 474
f 437 387 475
f 298 387 437
f 297 387 298
f 465 387 297
f 216 387 465
f 428 387 216
f 429 387 428
f 503 387 429
f 100 387 503
f 102 387 100
f 387 102 291
f 357 473 402
f 440 82 521
f 447 440 521
f 447 380 440
f 467 430 294
f 467 431 430
f 477 435 434
f 477 423 478
f 524 477 270
f 269 524 270
f 483 333 481
f 483 481 72
f 470 476 471
f 333 252 487
f 421 471 422
f 420 368 508
f 173 292 288
f 312 173 441
f 319 160 162
f 319 162 17
f 511 135 509
f 135 511 247
f 135 247 136
f 233 124 209
f 233 209 14
f 334 389 107
f 15 334 107
f 115 108 19
f 109 108 115
f 85 514 20
f 331 438 376
f 210 70 269
f 210 269 211
f 495 193 195
f 494 40 254
f 40 494 525
f 526 40 525
f 40 526 409
f 259 527 517
f 527 259 258
f 194 258 195
f 258 194 527
f 178 258 179
f 258 260 179
f 262 344 261
f 516 344 262
f 344 516 496
f 518 251 431
f 523 82 486
f 357 484 472
f 425 522 479
f 479 374 222
f 374 479 522
f 226 520 451
f 443 499 309
f 439 473 500
f 521 82 523
f 368 46 497
f 46 48 497
f 9 8 447
f 9 447 446
f 252 396 476
f 476 396 468
f 396 518 467
f 518 431 467
f 270 434 436
f 269 480 524
f 356 436 485
f 514 491 438
f 72 481 480
f 480 481 504
f 487 252 470
f 481 487 470
f 173 288 441
f 441 288 337
f 85 513 514
f 84 513 85
f 526 407 409
f 469 8 7
f 431 469 7
f 451 520 499
f 499 520 426
f 438 439 376
f 84 506 513
f 270 436 528
f 528 436 356
f 485 484 357
f 356 485 357
f 480 504 524
f 270 477 434
f 404 506 84
f 403 506 404
f 524 504 477
f 504 423 477
f 513 358 514
f 513 356 358
f 512 438 331
f 514 438 512
f 403 505 506
f 403 271 505
f 505 270 528
f 505 528 356
f 529 388 390
f 529 318 388
f 529 241 318
f 529 239 241
f 529 452 239
f 529 322 452
f 529 321 322
f 529 134 321
f 529 132 134
f 328 132 529
f 132 392 391
f 132 328 392
f 529 192 328
f 529 190 192
f 529 416 190
f 529 415 416
f 529 23 415
f 529 24 23
f 529 351 24
f 414 351 529
f 351 414 350
f 529 349 414
f 529 130 349
f 529 128 130
f 529 347 128
f 529 104 347
f 529 105 104
f 530 105 529
f 105 530 345
f 345 530 348
f 531 530 529
f 530 531 532
f 360 531 373
f 45 531 360
f 42 531 45
f 139 531 42
f 69 531 139
f 68 531 69
f 150 531 68
f 280 531 150
f 26 531 280
f 367 26 28
f 66 26 367
f 26 66 531
f 65 531 66
f 279 531 65
f 55 531 279
f 52 531 55
f 146 531 52
f 145 531 146
f 174 531 145
f 340 174 339
f 174 340 531
f 206 531 340
f 207 531 206
f 413 531 207
f 460 531 413
f 459 531 460
f 412 531 459
f 532 412 410
f 532 410 515
f 412 532 531
f 257 529 390
f 2 529 3
f 529 257 3
f 338 529 2
f 286 531 287
f 531 286 373
f 337 529 338
f 531 205 287
f 445 529 337
f 531 466 205
f 387 529 445
f 531 218 466
f 529 387 531
f 531 418 218
f 291 531 387
f 531 291 418
f 411 532 515
f 461 532 341
f 343 532 411
f 532 461 530
f 532 343 341
f 263 530 185
f 530 346 348
f 530 263 346
f 184 530 461
f 530 184 185
f 527 461 517
f 194 461 527
f 461 194 184
f 184 76 78
f 189 184 194
f 184 189 76
f 193 189 194
f 193 186 189
f 408 193 495
f 407 193 408
f 408 495 496
f 526 193 407
f 408 496 516
f 186 38 187
f 187 38 316
f 316 38 164
f 193 526 186
f 186 36 38
f 131 186 526
f 186 131 36
f 494 526 525
f 526 494 131
f 265 131 494
f 131 265 352
f 354 494 355
f 494 354 265
f 353 265 354
f 265 353 264
f 335 354 493
f 354 335 353
f 398 353 335
f 353 398 397
f 456 335 336
f 335 456 398
f 456 336 405
f 400 398 456
f 456 405 406
f 398 400 455
f 455 400 454
f 454 400 453
f 492 456 457
f 456 492 400
f 510 400 492
f 400 510 401
f 463 492 464
f 492 463 510
f 511 510 463
f 510 511 509
f 511 463 462
# 1060 faces, 0 coords texture

# End of File
