# OpenSCAD obj exporter
v -0.264937 0 -0.0497566
v -0.26412 0.024944 -0.0497566
v -0.261675 0.0497342 -0.0497566
v -0.241633 0 -0.0586875
v -0.240888 0.02275 -0.0586875
v -0.238658 0.0453597 -0.0586875
v -0.257616 0.0742179 -0.0497566
v -0.234957 0.0676897 -0.0586875
v -0.229807 0.0896024 -0.0586875
v -0.25197 0.0982439 -0.0497566
v -0.286607 0 -0.0400328
v -0.285723 0.0269843 -0.0400328
v -0.30651 0 -0.029576
v -0.305565 0.0288582 -0.029576
v -0.283078 0.0538022 -0.0400328
v -0.302736 0.0575385 -0.029576
v -0.324523 0 -0.0184508
v -0.3335 0 -0.0118777
v -0.3335 0 -1.38778e-17
v -0.323523 0.0305542 -0.0184508
v -0.3335 0.0314964 -0.0111226
v -0.298041 0.085864 -0.029576
v -0.291508 0.11366 -0.029576
v -0.320528 0.06092 -0.0184508
v -0.3335 0.0633855 -0.0088337
v -0.3335 0.0810797 -0.00672568
v -0.315557 0.0909102 -0.0184508
v -0.331127 0.0953959 -0.00672568
v -0.3335 0.0960795 -0.00457645
v -0.3335 0.119035 -1.38778e-17
v -0.278688 0.0802884 -0.0400328
v -0.272579 0.10628 -0.0400328
v -0.244769 0.121664 -0.0497566
v -0.23606 0.144334 -0.0497566
v -0.283178 0.140756 -0.029576
v -0.30864 0.12034 -0.0184508
v -0.323869 0.126278 -0.00672568
v -0.331132 0.12911 -1.38778e-17
v -0.32167 0.159888 -1.38778e-17
v -0.314614 0.156381 -0.00672568
v -0.29982 0.149028 -0.0184508
v -0.289152 0.176797 -0.0184508
v -0.310224 0.189681 -1.38778e-17
v -0.30342 0.18552 -0.00672568
v -0.296866 0.218304 -1.38778e-17
v -0.290355 0.213515 -0.00672568
v -0.284786 0.24 -1.38778e-17
v -0.26479 0.131616 -0.0400328
v -0.255368 0.15614 -0.0400328
v -0.273102 0.166983 -0.029576
v -0.244372 0.179702 -0.0400328
v -0.261343 0.192181 -0.029576
v -0.23187 0.202156 -0.0400328
v -0.247972 0.216194 -0.029576
v -0.23417 0.24 -0.0286843
v -0.233072 0.238875 -0.029576
v -0.232205 0.24 -0.029576
v -0.276702 0.203476 -0.0184508
v -0.262545 0.2289 -0.0184508
v -0.275276 0.24 -0.00692753
v -0.275608 0.24 -0.00672568
v -0.255253 0.24 -0.0184508
v -0.21684 0 -0.0667704
v -0.216171 0.0204156 -0.0667704
v -0.21417 0.0407054 -0.0667704
v -0.190709 0 -0.0739556
v -0.190121 0.0179555 -0.0739556
v -0.188361 0.0358002 -0.0739556
v -0.18544 0.0534242 -0.0739556
v -0.210848 0.0607442 -0.0667704
v -0.206227 0.0804085 -0.0667704
v -0.181375 0.0707189 -0.0739556
v -0.200334 0.0995771 -0.0667704
v -0.193205 0.118132 -0.0667704
v -0.22324 0.110963 -0.0586875
v -0.163403 0 -0.0801987
v -0.1629 0.0153846 -0.0801987
v -0.161392 0.0306743 -0.0801987
v -0.158888 0.0457749 -0.0801987
v -0.13509 0 -0.0854611
v -0.134673 0.0127188 -0.0854611
v -0.125 0 -0.0869322
v -0.125 0.0118053 -0.0868759
v -0.133427 0.0253592 -0.0854611
v -0.125 0.0237577 -0.086705
v -0.125 0.0360118 -0.0864144
v -0.131357 0.0378433 -0.0854611
v -0.128478 0.0500941 -0.0854611
v -0.125 0.048738 -0.0859943
v -0.155406 0.0605933 -0.0801987
v -0.176192 0.0875776 -0.0739556
v -0.169923 0.103896 -0.0739556
v -0.162606 0.119574 -0.0739556
v -0.150965 0.0750381 -0.0801987
v -0.145593 0.0890202 -0.0801987
v -0.125 0.0614072 -0.0854611
v -0.125 0.062132 -0.0854223
v -0.125 0.0764288 -0.0844945
v -0.139324 0.102454 -0.0801987
v -0.125 0.0919201 -0.0833212
v -0.125 0.108981 -0.0818519
v -0.132196 0.115255 -0.0801987
v -0.125 0 -1.38778e-17
v -0.184886 0.135958 -0.0667704
v -0.215297 0.131639 -0.0586875
v -0.206026 0.151503 -0.0586875
v -0.225896 0.166115 -0.0497566
v -0.195485 0.170434 -0.0586875
v -0.214338 0.186871 -0.0497566
v -0.183739 0.188314 -0.0586875
v -0.201459 0.206475 -0.0497566
v -0.187338 0.224806 -0.0497566
v -0.154287 0.134515 -0.0739556
v -0.175427 0.152946 -0.0667704
v -0.164886 0.168991 -0.0667704
v -0.125 0.126209 -0.0801987
v -0.125 0.128112 -0.079974
v -0.145017 0.148627 -0.0739556
v -0.125 0.15 -0.0771411
v -0.134852 0.161822 -0.0739556
v -0.125 0.172751 -0.0739556
v -0.125 0.175627 -0.0734711
v -0.153329 0.183994 -0.0667704
v -0.140826 0.197863 -0.0667704
v -0.125 0.206457 -0.067919
v -0.127455 0.210512 -0.0667704
v -0.125 0.212481 -0.0667704
v -0.17086 0.205032 -0.0586875
v -0.156928 0.220487 -0.0586875
v -0.170816 0.24 -0.0504921
v -0.173641 0.24 -0.0497566
v -0.145309 0.24 -0.0565487
v -0.142028 0.234582 -0.0586875
v -0.125 0.24 -0.0605493
v -0.135271 0.24 -0.0586875
v -0.217937 0.223363 -0.0400328
v -0.205122 0.24 -0.0400328
v -0.2 0.24 -0.0417218
v -0.125 0.24 -1.38778e-17
f  1 11 2
f  1 2 5
f  2 12 3
f  3 15 7
f  1 5 4
f  64 4 5
f  2 6 5
f  3 8 6
f  5 6 65
f  2 3 6
f  7 31 10
f  10 32 33
f  7 9 8
f  3 7 8
f  7 10 9
f  10 75 9
f  10 33 75
f  13 17 14
f  14 17 20
f  14 20 16
f  16 20 24
f  12 13 14
f  11 13 12
f  14 16 15
f  12 14 15
f  17 18 21
f  17 21 20
f  20 21 25
f  20 25 24
f  22 24 27
f  15 16 31
f  16 22 31
f  16 24 22
f  31 22 32
f  22 23 32
f  22 27 23
f  23 27 36
f  24 25 26
f  24 26 27
f  26 28 27
f  27 28 36
f  26 29 28
f  28 29 30
f  28 37 36
f  28 30 37
f  2 11 12
f  3 12 15
f  7 15 31
f  32 23 48
f  10 31 32
f  32 48 33
f  33 48 34
f  105 33 34
f  34 49 107
f  23 36 35
f  35 36 41
f  35 41 50
f  50 41 42
f  36 37 41
f  30 38 37
f  37 38 39
f  41 37 40
f  37 39 40
f  40 39 43
f  40 43 44
f  41 40 42
f  42 40 44
f  42 44 58
f  44 43 45
f  44 45 46
f  58 44 46
f  45 47 46
f  46 47 61
f  23 35 48
f  48 35 49
f  35 50 49
f  49 50 51
f  50 52 51
f  50 42 52
f  34 48 49
f  107 49 51
f  42 58 52
f  52 58 54
f  54 58 59
f  51 52 53
f  52 54 53
f  109 51 53
f  53 54 136
f  136 54 56
f  56 59 62
f  54 59 56
f  56 55 57
f  56 62 55
f  58 46 59
f  59 60 62
f  59 46 61
f  59 61 60
f  67 63 64
f  68 64 65
f  69 65 70
f  66 63 67
f  67 64 68
f  66 67 77
f  67 68 78
f  68 65 69
f  68 69 79
f  63 4 64
f  64 5 65
f  6 8 70
f  65 6 70
f  69 70 72
f  72 70 71
f  91 71 73
f  72 71 91
f  91 73 92
f  92 73 74
f  70 8 71
f  71 8 9
f  71 9 73
f  9 75 73
f  73 75 74
f  66 77 76
f  67 78 77
f  81 76 77
f  84 77 78
f  68 79 78
f  69 90 79
f  80 76 81
f  81 77 84
f  80 81 82
f  81 83 82
f  81 84 83
f  84 85 83
f  84 87 85
f  87 78 79
f  84 78 87
f  87 79 88
f  88 79 90
f  87 86 85
f  87 88 86
f  88 89 86
f  88 90 96
f  88 96 89
f  72 94 90
f  91 95 94
f  69 72 90
f  72 91 94
f  92 99 95
f  92 74 93
f  91 92 95
f  92 93 99
f  90 94 96
f  94 95 97
f  94 97 96
f  95 98 97
f  95 100 98
f  99 93 102
f  99 101 100
f  95 99 100
f  99 102 101
f  102 116 101
f  74 104 93
f  75 33 105
f  105 34 106
f  74 75 105
f  107 108 106
f  34 107 106
f  107 51 109
f  107 109 108
f  74 105 104
f  104 105 106
f  104 106 114
f  114 106 108
f  114 108 115
f  108 110 115
f  109 53 111
f  108 109 110
f  110 111 128
f  109 111 110
f  111 136 112
f  112 136 138
f  128 111 112
f  112 131 130
f  112 138 131
f  93 104 113
f  104 114 113
f  114 118 113
f  114 115 118
f  102 113 116
f  118 117 116
f  118 119 117
f  102 93 113
f  113 118 116
f  118 115 120
f  120 115 123
f  118 120 119
f  120 121 119
f  120 123 121
f  123 124 121
f  124 122 121
f  124 125 122
f  124 126 125
f  126 127 125
f  110 123 115
f  110 128 123
f  128 124 123
f  128 129 124
f  128 112 129
f  130 132 129
f  112 130 129
f  124 129 126
f  126 129 133
f  129 132 133
f  133 132 135
f  126 133 127
f  133 135 127
f  135 134 127
f  111 53 136
f  137 56 57
f  136 56 137
f  136 137 138
f  17 19 18
f  18 19 21
f  19 25 21
f  19 26 25
f  19 29 26
f  19 30 29
f  11 103 13
f  17 103 19
f  13 103 17
f  19 139 30
f  30 139 38
f  38 139 39
f  39 139 43
f  43 139 45
f  45 139 47
f  66 103 63
f  66 76 103
f  80 103 76
f  80 82 103
f  1 4 103
f  1 103 11
f  63 103 4
f  19 103 139
f  131 138 134
f  138 137 134
f  131 135 130
f  130 135 132
f  131 134 135
f  55 62 134
f  62 60 134
f  60 61 134
f  61 47 134
f  57 55 134
f  137 57 134
f  47 139 134
f  83 139 82
f  83 85 139
f  85 86 139
f  86 89 139
f  89 96 139
f  82 139 103
f  96 97 139
f  97 98 139
f  98 100 139
f  100 101 139
f  116 139 101
f  116 117 139
f  117 119 139
f  119 121 139
f  121 122 139
f  122 125 139
f  127 139 125
f  127 134 139
