# OpenSCAD obj exporter
v -0.125 0 -0.0869322
v -0.125 0.0118053 -0.0868759
v -0.125 0.0237577 -0.086705
v -0.105943 0 -0.0897106
v -0.105617 0.00997467 -0.0897106
v -0.104639 0.0198878 -0.0897106
v -0.103016 0.0296784 -0.0897106
v -0.125 0.0360118 -0.0864144
v -0.125 0.048738 -0.0859943
v -0.100758 0.039286 -0.0897106
v -0.097879 0.0486514 -0.0897106
v -0.0943963 0.0577168 -0.0897106
v -0.0761439 0 -0.0929208
v -0.0759092 0.00716902 -0.0929208
v -0.0752065 0.0142938 -0.0929208
v -0.0740401 0.0213305 -0.0929208
v -0.0724172 0.0282357 -0.0929208
v -0.0703478 0.0349668 -0.0929208
v -0.0678447 0.0414823 -0.0929208
v -0.0649234 0.0477421 -0.0929208
v -0.125 0.0614072 -0.0854611
v -0.124807 0.062036 -0.0854611
v -0.125 0.062132 -0.0854223
v -0.120366 0.0735954 -0.0854611
v -0.125 0.0764288 -0.0844945
v -0.115183 0.0847011 -0.0854611
v -0.10929 0.0952846 -0.0854611
v -0.102723 0.105281 -0.0854611
v -0.0955229 0.114627 -0.0854611
v -0.125 0.0919201 -0.0833212
v -0.125 0.108981 -0.0818519
v -0.0903316 0.0664264 -0.0897106
v -0.0857101 0.0747264 -0.0897106
v -0.08056 0.0825657 -0.0897106
v -0.0749133 0.089896 -0.0897106
v -0.0688048 0.096672 -0.0897106
v -0.045875 0 -0.0950721
v -0.0457335 0.00431917 -0.0950721
v -0.0453102 0.00861171 -0.0950721
v -0.0446074 0.0128512 -0.0950721
v -0.0436297 0.0170114 -0.0950721
v -0.0423829 0.0210667 -0.0950721
v -0.0408749 0.0249922 -0.0950721
v -0.0391148 0.0287635 -0.0950721
v -0.0616017 0.0537075 -0.0929208
v -0.0579003 0.0593418 -0.0929208
v -0.0371136 0.0323575 -0.0950721
v -0.0348836 0.0357521 -0.0950721
v -0.0324385 0.0389262 -0.0950721
v -0.0153231 0 -0.096151
v -0.0152759 0.00144269 -0.096151
v -0.0151345 0.00287648 -0.096151
v -0.0148998 0.00429254 -0.096151
v -0.0145732 0.00568213 -0.096151
v -0.0141567 0.00703669 -0.096151
v -0.013653 0.00834787 -0.096151
v -0.0130651 0.00960758 -0.096151
v -0.0123967 0.0108081 -0.096151
v -0.0116518 0.0119419 -0.096151
v -0.0108351 0.0130021 -0.096151
v -0.00995158 0.0139822 -0.096151
v -0.00900672 0.014876 -0.096151
v -0.00800632 0.0156782 -0.096151
v -0.00695656 0.0163836 -0.096151
v -0.00586391 0.0169881 -0.096151
v -0.00473511 0.0174878 -0.096151
v -0.00357712 0.0178797 -0.096151
v -0.00239707 0.0181614 -0.096151
v -0.00120224 0.0183311 -0.096151
v -0.0297934 0.0418603 -0.0950721
v -0.0269646 0.0445363 -0.0950721
v -0.0239696 0.0469378 -0.0950721
v -0.0208268 0.0490499 -0.0950721
v -0.0175556 0.0508595 -0.0950721
v -0.0141761 0.0523556 -0.0950721
v -0.0107093 0.0535289 -0.0950721
v -0.00717642 0.0543722 -0.0950721
v -0.00359931 0.0548802 -0.0950721
v -0.0538419 0.0646103 -0.0929208
v -0.0494515 0.0694804 -0.0929208
v -0.0447563 0.0739221 -0.0929208
v -0.0397851 0.077908 -0.0929208
v -0.0345686 0.0814137 -0.0929208
v -0.062272 0.102852 -0.0897106
v -0.0553553 0.108398 -0.0897106
v -0.0480973 0.113276 -0.0897106
v -0.0405428 0.117455 -0.0897106
v -0.029139 0.0844174 -0.0929208
v -0.0235298 0.0869006 -0.0929208
v -0.0177754 0.0888481 -0.0929208
v -0.0119115 0.0902478 -0.0929208
v -0.00597418 0.091091 -0.0929208
v -0.125 0 -1.38778e-17
v -0.125 0.126209 -0.0801987
v -0.124253 0.127346 -0.0801987
v -0.125 0.128112 -0.079974
v -0.115544 0.138652 -0.0801987
v -0.106122 0.149103 -0.0801987
v -0.125 0.15 -0.0771411
v -0.125 0.172751 -0.0739556
v -0.123856 0.17402 -0.0739556
v -0.125 0.175627 -0.0734711
v -0.096046 0.158635 -0.0801987
v -0.0877338 0.123268 -0.0854611
v -0.0794038 0.131148 -0.0854611
v -0.0705842 0.13822 -0.0854611
v -0.085378 0.167189 -0.0801987
v -0.0741835 0.174712 -0.0801987
v -0.112096 0.185144 -0.0739556
v -0.0996453 0.195128 -0.0739556
v -0.0865802 0.203908 -0.0739556
v -0.0625317 0.181158 -0.0801987
v -0.0729813 0.211431 -0.0739556
v -0.125 0.206457 -0.067919
v -0.125 0.212481 -0.0667704
v -0.113298 0.221863 -0.0667704
v -0.125 0.24 -0.0605493
v -0.12256 0.24 -0.0609915
v -0.0984431 0.231847 -0.0667704
v -0.101905 0.24 -0.0642844
v -0.0828427 0.24 -0.0668697
v -0.0837046 0.24 -0.0667704
v -0.0649839 0.24 -0.0685707
v -0.0613295 0.144439 -0.0854611
v -0.0516966 0.149768 -0.0854611
v -0.0327383 0.12091 -0.0897106
v -0.041745 0.154174 -0.0854611
v -0.0315361 0.157629 -0.0854611
v -0.024732 0.123619 -0.0897106
v -0.0165732 0.125567 -0.0897106
v -0.00831223 0.12674 -0.0897106
v -0.0211327 0.160112 -0.0854611
v -0.010599 0.161608 -0.0854611
v -0.0504944 0.186487 -0.0801987
v -0.0381457 0.190666 -0.0801987
v -0.0589324 0.21765 -0.0739556
v -0.0445202 0.222528 -0.0739556
v -0.0255619 0.19367 -0.0801987
v -0.0128205 0.195479 -0.0801987
v -0.0298335 0.226034 -0.0739556
v -0.0149629 0.228146 -0.0739556
v -0.0480158 0.24 -0.0698382
v -0.0316769 0.24 -0.0707154
v -0.0157403 0.24 -0.0712308
v -0.125 0.24 -1.38778e-17
v 0.0153231 0 -0.096151
v 0.0152759 0.00144269 -0.096151
v 0.0151345 0.00287648 -0.096151
v 0.0148998 0.00429254 -0.096151
v 0.0145732 0.00568213 -0.096151
v 0.0141567 0.00703669 -0.096151
v 0.00900672 0.014876 -0.096151
v 0.0116518 0.0119419 -0.096151
v 0.0108351 0.0130021 -0.096151
v 0.00995158 0.0139822 -0.096151
v 0.013653 0.00834787 -0.096151
v 0.0123967 0.0108081 -0.096151
v 0.0130651 0.00960758 -0.096151
v 0 0.0183878 -0.096151
v 0.00120224 0.0183311 -0.096151
v 0.00239707 0.0181614 -0.096151
v 0.00357712 0.0178797 -0.096151
v 0.00473511 0.0174878 -0.096151
v 0.00695656 0.0163836 -0.096151
v 0.00586391 0.0169881 -0.096151
v 0.00800632 0.0156782 -0.096151
v 0 0.0550499 -0.0950721
v 0.00359931 0.0548802 -0.0950721
v 0.00717642 0.0543722 -0.0950721
v 0.0141761 0.0523556 -0.0950721
v 0.0107093 0.0535289 -0.0950721
v 0.0269646 0.0445363 -0.0950721
v 0.0297934 0.0418603 -0.0950721
v 0.0175556 0.0508595 -0.0950721
v 0.0208268 0.0490499 -0.0950721
v 0.0239696 0.0469378 -0.0950721
v 0.045875 0 -0.0950721
v 0.0457335 0.00431917 -0.0950721
v 0.0453102 0.00861171 -0.0950721
v 0.0446074 0.0128512 -0.0950721
v 0.0423829 0.0210667 -0.0950721
v 0.0436297 0.0170114 -0.0950721
v 0.0408749 0.0249922 -0.0950721
v 0.0391148 0.0287635 -0.0950721
v 0.0348836 0.0357521 -0.0950721
v 0.0371136 0.0323575 -0.0950721
v 0.0324385 0.0389262 -0.0950721
v 0.0579003 0.0593418 -0.0929208
v 0.0616017 0.0537075 -0.0929208
v 0.0177754 0.0888481 -0.0929208
v 0.0235298 0.0869006 -0.0929208
v 0.029139 0.0844174 -0.0929208
v 0 0.0913727 -0.0929208
v 0.00597418 0.091091 -0.0929208
v 0.0119115 0.0902478 -0.0929208
v 0.0447563 0.0739221 -0.0929208
v 0.0345686 0.0814137 -0.0929208
v 0.0397851 0.077908 -0.0929208
v 0.0538419 0.0646103 -0.0929208
v 0.0494515 0.0694804 -0.0929208
v 0.0405428 0.117455 -0.0897106
v 0.062272 0.102852 -0.0897106
v 0.0480973 0.113276 -0.0897106
v 0.0553553 0.108398 -0.0897106
v 0.0761439 0 -0.0929208
v 0.0759092 0.00716902 -0.0929208
v 0.0752065 0.0142938 -0.0929208
v 0.0740401 0.0213305 -0.0929208
v 0.0724172 0.0282357 -0.0929208
v 0.0678447 0.0414823 -0.0929208
v 0.0703478 0.0349668 -0.0929208
v 0.0649234 0.0477421 -0.0929208
v 0.105943 0 -0.0897106
v 0.105617 0.00997467 -0.0897106
v 0.104639 0.0198878 -0.0897106
v 0.103016 0.0296784 -0.0897106
v 0.125 0 -0.0869322
v 0.125 0.0118053 -0.0868759
v 0.125 0.0237577 -0.086705
v 0.100758 0.039286 -0.0897106
v 0.097879 0.0486514 -0.0897106
v 0.0943963 0.0577168 -0.0897106
v 0.125 0.0360118 -0.0864144
v 0.125 0.048738 -0.0859943
v 0.0749133 0.089896 -0.0897106
v 0.0857101 0.0747264 -0.0897106
v 0.0903316 0.0664264 -0.0897106
v 0.08056 0.0825657 -0.0897106
v 0.0688048 0.096672 -0.0897106
v 0.125 0.0614072 -0.0854611
v 0.124807 0.062036 -0.0854611
v 0.125 0.062132 -0.0854223
v 0.120366 0.0735954 -0.0854611
v 0.115183 0.0847011 -0.0854611
v 0.125 0.0764288 -0.0844945
v 0.10929 0.0952846 -0.0854611
v 0.0955229 0.114627 -0.0854611
v 0.102723 0.105281 -0.0854611
v 0.125 0.0919201 -0.0833212
v 0.125 0.108981 -0.0818519
v 0.125 0 -1.38778e-17
v 0 0.127132 -0.0897106
v 0.00831223 0.12674 -0.0897106
v 0.0165732 0.125567 -0.0897106
v 0.024732 0.123619 -0.0897106
v 0 0.162108 -0.0854611
v 0.010599 0.161608 -0.0854611
v 0.0211327 0.160112 -0.0854611
v 0.0327383 0.12091 -0.0897106
v 0.0516966 0.149768 -0.0854611
v 0.0613295 0.144439 -0.0854611
v 0.0315361 0.157629 -0.0854611
v 0.041745 0.154174 -0.0854611
v 0 0.196084 -0.0801987
v 0.0128205 0.195479 -0.0801987
v 0.0255619 0.19367 -0.0801987
v 0 0.228851 -0.0739556
v 0.0149629 0.228146 -0.0739556
v 0.0298335 0.226034 -0.0739556
v 0.0381457 0.190666 -0.0801987
v 0.0504944 0.186487 -0.0801987
v 0.0445202 0.222528 -0.0739556
v 0.0589324 0.21765 -0.0739556
v 0 0.24 -0.0714009
v 0.0157403 0.24 -0.0712308
v 0.0316769 0.24 -0.0707154
v 0.0480158 0.24 -0.0698382
v 0.0705842 0.13822 -0.0854611
v 0.0794038 0.131148 -0.0854611
v 0.0877338 0.123268 -0.0854611
v 0.0741835 0.174712 -0.0801987
v 0.085378 0.167189 -0.0801987
v 0.106122 0.149103 -0.0801987
v 0.125 0.126209 -0.0801987
v 0.124253 0.127346 -0.0801987
v 0.125 0.128112 -0.079974
v 0.115544 0.138652 -0.0801987
v 0.096046 0.158635 -0.0801987
v 0.125 0.15 -0.0771411
v 0.123856 0.17402 -0.0739556
v 0.125 0.172751 -0.0739556
v 0.125 0.175627 -0.0734711
v 0.0625317 0.181158 -0.0801987
v 0.0865802 0.203908 -0.0739556
v 0.0729813 0.211431 -0.0739556
v 0.0996453 0.195128 -0.0739556
v 0.112096 0.185144 -0.0739556
v 0.0649839 0.24 -0.0685707
v 0.0828427 0.24 -0.0668697
v 0.0837046 0.24 -0.0667704
v 0.125 0.206457 -0.067919
v 0.0984431 0.231847 -0.0667704
v 0.101905 0.24 -0.0642844
v 0.113298 0.221863 -0.0667704
v 0.125 0.212481 -0.0667704
v 0.12256 0.24 -0.0609915
v 0.125 0.24 -0.0605493
v 0.125 0.24 -1.38778e-17
f  4 1 2
f  4 2 5
f  5 2 3
f  6 3 8
f  5 3 6
f  6 8 7
f  4 5 14
f  5 6 15
f  6 7 16
f  7 8 9
f  7 9 10
f  10 9 21
f  11 21 22
f  10 21 11
f  11 22 12
f  4 14 13
f  5 15 14
f  6 16 15
f  7 17 16
f  13 14 38
f  14 15 39
f  15 16 40
f  16 17 41
f  7 10 17
f  10 11 18
f  10 18 17
f  11 19 18
f  11 12 19
f  12 32 20
f  12 20 19
f  20 32 45
f  22 21 23
f  22 23 25
f  22 25 24
f  12 22 24
f  24 25 26
f  26 25 30
f  12 24 32
f  24 26 32
f  33 26 27
f  32 26 33
f  26 30 27
f  27 31 28
f  27 28 34
f  27 30 31
f  28 31 94
f  28 94 95
f  28 95 29
f  45 32 33
f  33 27 34
f  46 33 34
f  45 33 46
f  46 34 79
f  79 34 35
f  80 35 36
f  28 35 34
f  28 29 35
f  29 36 35
f  29 104 36
f  36 104 84
f  84 104 105
f  84 105 85
f  13 38 37
f  14 39 38
f  15 40 39
f  17 18 42
f  40 16 41
f  17 42 41
f  42 18 43
f  37 38 51
f  38 39 52
f  39 40 53
f  40 41 54
f  41 42 55
f  42 43 56
f  43 18 19
f  44 19 20
f  43 19 44
f  44 20 47
f  20 45 47
f  45 46 48
f  46 79 49
f  45 48 47
f  46 49 48
f  70 79 80
f  49 79 70
f  70 80 71
f  71 81 72
f  37 51 50
f  38 52 51
f  39 53 52
f  40 54 53
f  41 55 54
f  42 56 55
f  56 43 57
f  57 43 44
f  58 44 47
f  59 47 48
f  60 48 49
f  57 44 58
f  58 47 59
f  59 48 60
f  60 49 61
f  61 70 62
f  50 51 147
f  51 52 148
f  52 53 149
f  53 54 150
f  54 55 151
f  55 56 156
f  56 57 158
f  57 58 157
f  58 59 153
f  59 60 154
f  60 61 155
f  61 62 152
f  62 71 63
f  63 72 64
f  64 73 65
f  65 74 66
f  64 65 68
f  65 66 68
f  62 63 166
f  63 64 165
f  64 68 69
f  66 67 68
f  64 69 159
f  64 159 160
f  64 160 161
f  64 161 162
f  66 75 67
f  67 76 68
f  61 49 70
f  62 70 71
f  63 71 72
f  64 72 73
f  72 82 73
f  65 73 74
f  66 74 75
f  67 75 76
f  68 77 69
f  69 78 159
f  68 76 77
f  69 77 78
f  78 167 159
f  79 35 80
f  80 36 81
f  81 84 82
f  71 80 81
f  72 81 82
f  73 82 83
f  82 85 83
f  81 36 84
f  82 84 85
f  85 106 86
f  83 85 86
f  83 86 88
f  88 86 87
f  89 87 126
f  73 83 74
f  74 83 88
f  74 88 75
f  75 89 76
f  75 88 89
f  76 89 90
f  76 90 77
f  77 91 78
f  78 92 167
f  77 90 91
f  78 91 92
f  92 193 167
f  88 87 89
f  89 126 90
f  90 129 91
f  90 126 129
f  91 129 130
f  91 130 92
f  92 131 193
f  92 130 131
f  131 242 193
f  95 94 96
f  95 96 97
f  29 95 97
f  97 96 99
f  97 99 98
f  29 97 104
f  104 97 98
f  98 103 105
f  98 99 100
f  98 100 101
f  101 100 102
f  101 102 109
f  103 101 109
f  98 101 103
f  103 109 107
f  85 105 106
f  104 98 105
f  103 106 105
f  107 124 106
f  103 107 106
f  107 110 108
f  107 108 124
f  125 108 112
f  107 109 110
f  108 110 111
f  108 111 112
f  111 113 112
f  113 123 136
f  109 102 114
f  109 114 115
f  109 115 110
f  110 115 116
f  110 116 111
f  116 115 117
f  116 117 118
f  116 118 120
f  111 116 119
f  116 120 119
f  119 120 122
f  111 119 113
f  119 122 121
f  113 119 121
f  113 121 123
f  86 106 124
f  86 124 87
f  87 124 125
f  87 125 126
f  126 127 129
f  125 127 126
f  129 127 128
f  124 108 125
f  125 112 127
f  127 112 134
f  127 134 128
f  128 134 135
f  129 128 130
f  130 128 132
f  130 132 131
f  131 132 133
f  131 133 242
f  133 246 242
f  128 135 132
f  132 138 133
f  133 139 246
f  112 113 134
f  134 113 136
f  134 136 135
f  135 137 138
f  135 136 137
f  136 142 137
f  138 137 140
f  137 143 140
f  132 135 138
f  133 138 139
f  138 140 139
f  139 254 246
f  139 141 254
f  139 140 141
f  140 144 141
f  141 257 254
f  141 144 264
f  141 264 257
f  136 123 142
f  137 142 143
f  140 143 144
f  50 147 146
f  51 148 147
f  52 149 148
f  53 150 149
f  54 151 150
f  55 156 151
f  58 153 157
f  59 154 153
f  60 155 154
f  61 152 155
f  56 158 156
f  57 157 158
f  63 165 164
f  64 162 163
f  64 163 165
f  63 164 166
f  62 166 152
f  161 171 162
f  163 162 170
f  163 174 165
f  164 165 175
f  152 166 172
f  164 176 166
f  151 156 181
f  156 158 183
f  147 148 178
f  146 147 177
f  148 149 179
f  149 150 180
f  150 151 182
f  153 154 185
f  155 187 154
f  157 153 186
f  157 184 158
f  155 152 173
f  158 184 183
f  154 187 185
f  157 186 184
f  153 185 186
f  159 168 160
f  160 169 161
f  159 167 168
f  160 168 169
f  161 169 171
f  162 171 170
f  163 170 174
f  165 174 175
f  164 175 176
f  166 176 172
f  152 172 173
f  155 173 187
f  175 198 176
f  147 178 177
f  148 179 178
f  149 180 179
f  150 182 180
f  156 183 181
f  151 181 182
f  177 178 205
f  178 179 206
f  179 180 207
f  180 182 208
f  182 181 209
f  183 211 181
f  181 211 209
f  185 187 188
f  186 185 189
f  173 199 187
f  173 172 200
f  172 176 196
f  173 200 199
f  183 184 210
f  184 186 212
f  186 189 212
f  183 210 211
f  184 212 210
f  185 188 189
f  187 199 188
f  167 194 168
f  168 195 169
f  169 190 171
f  167 193 194
f  168 194 195
f  169 195 190
f  170 171 191
f  170 192 174
f  170 191 192
f  175 174 197
f  174 192 197
f  171 190 191
f  193 243 194
f  194 244 195
f  193 242 243
f  194 243 244
f  190 195 245
f  192 191 201
f  190 249 191
f  195 244 245
f  190 245 249
f  176 198 196
f  175 197 198
f  172 196 200
f  198 197 204
f  199 200 225
f  200 196 229
f  198 202 196
f  197 192 203
f  197 203 204
f  191 249 201
f  192 201 203
f  198 204 202
f  196 202 229
f  204 203 268
f  178 206 205
f  179 207 206
f  180 208 207
f  182 209 208
f  206 207 214
f  205 206 213
f  207 208 215
f  208 209 216
f  210 212 222
f  189 227 212
f  209 211 220
f  211 210 221
f  209 220 216
f  211 221 220
f  212 227 222
f  210 222 221
f  206 214 213
f  207 215 214
f  208 216 215
f  213 214 217
f  214 215 218
f  214 218 217
f  216 219 215
f  215 219 218
f  216 223 219
f  220 221 224
f  221 222 231
f  216 220 223
f  220 224 223
f  221 231 224
f  231 230 224
f  189 188 226
f  188 199 228
f  188 228 226
f  199 225 228
f  200 229 225
f  189 226 227
f  228 236 226
f  202 204 269
f  202 270 229
f  202 269 270
f  225 229 237
f  228 225 238
f  225 237 238
f  229 270 237
f  222 227 233
f  227 234 233
f  227 226 234
f  226 236 234
f  222 233 231
f  231 232 230
f  231 233 232
f  233 235 232
f  233 234 235
f  234 239 235
f  228 238 236
f  234 236 239
f  236 238 240
f  238 237 275
f  236 240 239
f  238 275 240
f  242 247 243
f  243 248 244
f  243 247 248
f  244 248 252
f  244 252 245
f  242 246 247
f  246 255 247
f  247 256 248
f  248 260 252
f  245 253 249
f  201 249 250
f  245 252 253
f  249 253 250
f  201 251 203
f  203 251 268
f  201 250 251
f  252 261 253
f  252 260 261
f  250 253 283
f  250 271 251
f  253 261 283
f  246 254 255
f  254 258 255
f  247 255 256
f  248 256 260
f  256 255 259
f  254 257 258
f  257 264 265
f  257 265 258
f  255 258 259
f  258 266 259
f  256 262 260
f  261 285 283
f  260 263 261
f  261 263 285
f  256 259 262
f  259 267 262
f  260 262 263
f  262 288 263
f  258 265 266
f  259 266 267
f  262 267 288
f  204 268 269
f  251 272 268
f  269 273 270
f  269 268 278
f  251 271 272
f  250 283 271
f  268 272 278
f  271 286 272
f  237 270 277
f  269 278 273
f  270 273 277
f  237 277 275
f  275 274 240
f  275 276 274
f  275 277 276
f  277 273 279
f  277 279 276
f  273 278 280
f  278 272 287
f  273 280 279
f  278 287 280
f  280 281 279
f  280 287 282
f  280 282 281
f  271 283 284
f  283 285 284
f  271 284 286
f  272 286 287
f  263 289 285
f  263 288 289
f  285 292 284
f  285 289 292
f  289 290 292
f  286 284 294
f  287 291 282
f  287 286 291
f  286 294 291
f  284 292 294
f  292 290 293
f  292 293 296
f  294 295 291
f  294 296 295
f  294 292 296
f  296 297 295
f  4 241 1
f  4 13 241
f  1 241 93
f  118 117 145
f  118 145 120
f  122 120 145
f  122 145 121
f  121 145 123
f  123 145 142
f  142 145 143
f  145 93 298
f  143 145 144
f  144 145 264
f  264 145 265
f  265 145 266
f  266 145 267
f  267 145 288
f  13 37 241
f  37 50 241
f  50 146 241
f  146 177 241
f  177 205 241
f  205 213 241
f  213 217 241
f  93 241 298
f  288 145 289
f  289 145 290
f  290 145 293
f  293 145 296
f  296 145 297
f  145 298 297
f  2 1 93
f  2 93 3
f  3 93 8
f  9 8 93
f  9 93 21
f  21 93 23
f  23 93 25
f  25 93 30
f  31 30 93
f  31 93 94
f  94 93 96
f  96 93 99
f  99 93 100
f  100 93 102
f  102 93 114
f  114 93 115
f  115 93 145
f  115 145 117
f  217 218 241
f  218 219 241
f  219 223 241
f  223 224 241
f  298 224 230
f  298 241 224
f  298 230 232
f  298 232 235
f  235 239 298
f  239 240 298
f  240 274 298
f  274 276 298
f  276 279 298
f  279 281 298
f  281 282 298
f  282 291 298
f  291 295 298
f  295 297 298
