# OpenSCAD obj exporter
v 0.125 0 -0.0869322
v 0.125 0.0118053 -0.0868759
v 0.13509 0 -0.0854611
v 0.134673 0.0127188 -0.0854611
v 0.125 0.0237577 -0.086705
v 0.133427 0.0253592 -0.0854611
v 0.125 0.0360118 -0.0864144
v 0.131357 0.0378433 -0.0854611
v 0.125 0.048738 -0.0859943
v 0.128478 0.0500941 -0.0854611
v 0.163403 0 -0.0801987
v 0.1629 0.0153846 -0.0801987
v 0.161392 0.0306743 -0.0801987
v 0.158888 0.0457749 -0.0801987
v 0.125 0.0614072 -0.0854611
v 0.125 0.062132 -0.0854223
v 0.125 0.0764288 -0.0844945
v 0.150965 0.0750381 -0.0801987
v 0.145593 0.0890202 -0.0801987
v 0.125 0.0919201 -0.0833212
v 0.125 0.108981 -0.0818519
v 0.132196 0.115255 -0.0801987
v 0.139324 0.102454 -0.0801987
v 0.155406 0.0605933 -0.0801987
v 0.176192 0.0875776 -0.0739556
v 0.162606 0.119574 -0.0739556
v 0.169923 0.103896 -0.0739556
v 0.190121 0.0179555 -0.0739556
v 0.190709 0 -0.0739556
v 0.188361 0.0358002 -0.0739556
v 0.18544 0.0534242 -0.0739556
v 0.216171 0.0204156 -0.0667704
v 0.21684 0 -0.0667704
v 0.21417 0.0407054 -0.0667704
v 0.181375 0.0707189 -0.0739556
v 0.200334 0.0995771 -0.0667704
v 0.193205 0.118132 -0.0667704
v 0.210848 0.0607442 -0.0667704
v 0.206227 0.0804085 -0.0667704
v 0.22324 0.110963 -0.0586875
v 0.125 0 -1.38778e-17
v 0.125 0.126209 -0.0801987
v 0.125 0.128112 -0.079974
v 0.145017 0.148627 -0.0739556
v 0.125 0.15 -0.0771411
v 0.134852 0.161822 -0.0739556
v 0.125 0.172751 -0.0739556
v 0.125 0.175627 -0.0734711
v 0.154287 0.134515 -0.0739556
v 0.175427 0.152946 -0.0667704
v 0.164886 0.168991 -0.0667704
v 0.125 0.206457 -0.067919
v 0.140826 0.197863 -0.0667704
v 0.125 0.212481 -0.0667704
v 0.127455 0.210512 -0.0667704
v 0.153329 0.183994 -0.0667704
v 0.125 0.24 -0.0605493
v 0.135271 0.24 -0.0586875
v 0.142028 0.234582 -0.0586875
v 0.145309 0.24 -0.0565487
v 0.17086 0.205032 -0.0586875
v 0.156928 0.220487 -0.0586875
v 0.170816 0.24 -0.0504921
v 0.173641 0.24 -0.0497566
v 0.184886 0.135958 -0.0667704
v 0.195485 0.170434 -0.0586875
v 0.215297 0.131639 -0.0586875
v 0.206026 0.151503 -0.0586875
v 0.225896 0.166115 -0.0497566
v 0.183739 0.188314 -0.0586875
v 0.201459 0.206475 -0.0497566
v 0.187338 0.224806 -0.0497566
v 0.214338 0.186871 -0.0497566
v 0.125 0.24 -1.38778e-17
v 0.2 0.24 -0.0417218
v 0.205122 0.24 -0.0400328
v 0.217937 0.223363 -0.0400328
v 0.241633 0 -0.0586875
v 0.240888 0.02275 -0.0586875
v 0.238658 0.0453597 -0.0586875
v 0.264937 0 -0.0497566
v 0.26412 0.024944 -0.0497566
v 0.261675 0.0497342 -0.0497566
v 0.234957 0.0676897 -0.0586875
v 0.229807 0.0896024 -0.0586875
v 0.25197 0.0982439 -0.0497566
v 0.257616 0.0742179 -0.0497566
v 0.278688 0.0802884 -0.0400328
v 0.272579 0.10628 -0.0400328
v 0.286607 0 -0.0400328
v 0.285723 0.0269843 -0.0400328
v 0.30651 0 -0.029576
v 0.305565 0.0288582 -0.029576
v 0.283078 0.0538022 -0.0400328
v 0.302736 0.0575385 -0.029576
v 0.324523 0 -0.0184508
v 0.3335 0 -0.0118777
v 0.3335 0 -1.38778e-17
v 0.323523 0.0305542 -0.0184508
v 0.3335 0.0314964 -0.0111226
v 0.298041 0.085864 -0.029576
v 0.291508 0.11366 -0.029576
v 0.320528 0.06092 -0.0184508
v 0.3335 0.0633855 -0.0088337
v 0.3335 0.0810797 -0.00672568
v 0.315557 0.0909102 -0.0184508
v 0.331127 0.0953959 -0.00672568
v 0.3335 0.0960795 -0.00457645
v 0.3335 0.119035 -1.38778e-17
v 0.23606 0.144334 -0.0497566
v 0.244769 0.121664 -0.0497566
v 0.244372 0.179702 -0.0400328
v 0.26479 0.131616 -0.0400328
v 0.255368 0.15614 -0.0400328
v 0.273102 0.166983 -0.029576
v 0.23187 0.202156 -0.0400328
v 0.232205 0.24 -0.029576
v 0.233072 0.238875 -0.029576
v 0.23417 0.24 -0.0286843
v 0.247972 0.216194 -0.029576
v 0.261343 0.192181 -0.029576
v 0.255253 0.24 -0.0184508
v 0.276702 0.203476 -0.0184508
v 0.262545 0.2289 -0.0184508
v 0.275276 0.24 -0.00692753
v 0.275608 0.24 -0.00672568
v 0.283178 0.140756 -0.029576
v 0.29982 0.149028 -0.0184508
v 0.289152 0.176797 -0.0184508
v 0.30864 0.12034 -0.0184508
v 0.323869 0.126278 -0.00672568
v 0.331132 0.12911 -1.38778e-17
v 0.314614 0.156381 -0.00672568
v 0.32167 0.159888 -1.38778e-17
v 0.30342 0.18552 -0.00672568
v 0.290355 0.213515 -0.00672568
v 0.284786 0.24 -1.38778e-17
v 0.296866 0.218304 -1.38778e-17
v 0.310224 0.189681 -1.38778e-17
f  3 1 2
f  3 2 4
f  4 2 5
f  4 5 6
f  6 5 7
f  3 4 11
f  4 6 12
f  6 7 8
f  8 7 9
f  8 9 10
f  10 9 15
f  10 15 16
f  10 16 24
f  6 8 13
f  8 10 14
f  8 14 13
f  10 24 14
f  4 12 11
f  6 13 12
f  11 12 29
f  12 13 28
f  13 14 30
f  14 24 31
f  18 16 17
f  19 17 20
f  24 16 18
f  19 18 17
f  23 20 21
f  19 20 23
f  22 21 42
f  23 21 22
f  23 22 26
f  24 18 35
f  19 25 18
f  24 35 31
f  18 25 35
f  19 23 27
f  19 27 25
f  23 26 27
f  26 37 27
f  12 28 29
f  13 30 28
f  29 28 33
f  28 30 32
f  14 31 30
f  30 31 34
f  28 32 33
f  30 34 32
f  31 38 34
f  33 32 78
f  32 34 79
f  34 38 80
f  80 38 84
f  35 25 39
f  31 35 38
f  35 39 38
f  25 36 39
f  25 27 36
f  27 37 36
f  39 36 85
f  39 84 38
f  39 85 84
f  36 37 40
f  85 36 40
f  22 42 43
f  22 43 49
f  44 43 45
f  22 49 26
f  49 43 44
f  46 45 47
f  44 45 46
f  46 47 48
f  46 48 56
f  44 46 51
f  46 56 51
f  49 44 50
f  26 49 65
f  49 50 65
f  44 51 50
f  53 48 52
f  55 52 54
f  53 52 55
f  56 48 53
f  53 55 62
f  55 54 57
f  55 57 59
f  58 59 57
f  55 59 62
f  58 60 59
f  56 53 61
f  53 62 61
f  51 56 70
f  56 61 70
f  62 59 63
f  59 60 63
f  62 72 61
f  62 63 72
f  26 65 37
f  65 50 68
f  37 65 67
f  65 68 67
f  51 66 50
f  51 70 66
f  50 66 68
f  37 67 40
f  40 67 111
f  67 68 110
f  68 66 69
f  66 73 69
f  110 68 69
f  69 73 112
f  70 61 71
f  66 70 73
f  70 71 73
f  61 72 71
f  72 63 64
f  72 64 75
f  71 72 77
f  72 75 77
f  71 116 73
f  75 76 77
f  71 77 116
f  76 117 77
f  77 117 118
f  32 79 78
f  78 79 81
f  79 34 80
f  79 80 82
f  80 84 83
f  80 83 82
f  79 82 81
f  81 82 90
f  83 87 94
f  82 83 91
f  84 85 87
f  83 84 87
f  85 86 87
f  85 40 86
f  40 111 86
f  87 86 88
f  86 111 89
f  82 91 90
f  83 94 91
f  87 88 94
f  86 89 88
f  89 111 113
f  89 113 102
f  90 91 92
f  91 93 92
f  91 94 93
f  93 94 95
f  92 93 96
f  93 99 96
f  93 95 99
f  95 103 99
f  96 99 97
f  97 99 100
f  99 103 100
f  100 103 104
f  94 88 95
f  95 88 101
f  95 101 103
f  88 89 101
f  101 89 102
f  101 102 106
f  102 130 106
f  101 106 103
f  103 106 104
f  104 106 105
f  105 106 107
f  106 130 107
f  105 107 108
f  107 130 131
f  107 131 108
f  108 131 109
f  67 110 111
f  111 110 113
f  110 69 114
f  110 114 113
f  69 112 114
f  113 114 127
f  102 113 127
f  112 115 114
f  112 121 115
f  127 114 115
f  115 121 129
f  73 116 112
f  112 116 121
f  116 120 121
f  116 77 120
f  77 118 120
f  118 117 119
f  118 119 122
f  120 118 124
f  118 122 124
f  120 123 121
f  129 121 123
f  120 124 123
f  124 122 125
f  123 124 136
f  124 125 126
f  124 126 136
f  102 127 130
f  127 128 130
f  127 115 128
f  115 129 128
f  128 129 133
f  129 135 133
f  130 128 131
f  128 133 131
f  109 131 132
f  131 133 132
f  132 133 134
f  133 135 134
f  134 135 139
f  129 123 135
f  123 136 135
f  139 136 138
f  135 136 139
f  136 126 138
f  126 137 138
f  3 11 1
f  11 98 1
f  11 29 98
f  98 41 1
f  58 57 74
f  58 74 60
f  60 74 63
f  63 74 64
f  64 74 75
f  75 74 76
f  137 74 41
f  76 74 117
f  117 74 119
f  119 74 122
f  122 74 125
f  125 74 126
f  126 74 137
f  29 33 98
f  33 78 98
f  78 81 98
f  98 109 41
f  134 139 41
f  109 132 41
f  132 134 41
f  81 90 98
f  90 92 98
f  92 96 98
f  96 97 98
f  97 100 98
f  98 100 104
f  98 104 105
f  98 105 108
f  98 108 109
f  139 138 41
f  137 41 138
f  5 2 1
f  5 1 7
f  9 7 1
f  41 9 1
f  41 15 9
f  41 16 15
f  41 17 16
f  20 17 41
f  21 20 41
f  42 21 41
f  42 41 43
f  45 43 41
f  47 45 41
f  47 41 48
f  52 48 41
f  54 52 41
f  54 41 57
f  57 41 74
