# OpenSCAD obj exporter
v -0.244769 -0.121664 -0.0497566
v -0.23606 -0.144334 -0.0497566
v -0.310224 -0.189681 -1.38778e-17
v -0.296866 -0.218304 -1.38778e-17
v -0.284786 -0.24 -1.38778e-17
v -0.290355 -0.213515 -0.00672568
v -0.30342 -0.18552 -0.00672568
v -0.283178 -0.140756 -0.029576
v -0.32167 -0.159888 -1.38778e-17
v -0.314614 -0.156381 -0.00672568
v -0.30864 -0.12034 -0.0184508
v -0.323869 -0.126278 -0.00672568
v -0.331132 -0.12911 -1.38778e-17
v -0.289152 -0.176797 -0.0184508
v -0.29982 -0.149028 -0.0184508
v -0.261343 -0.192181 -0.029576
v -0.247972 -0.216194 -0.029576
v -0.23417 -0.24 -0.0286843
v -0.233072 -0.238875 -0.029576
v -0.232205 -0.24 -0.029576
v -0.23187 -0.202156 -0.0400328
v -0.262545 -0.2289 -0.0184508
v -0.275276 -0.24 -0.00692753
v -0.275608 -0.24 -0.00672568
v -0.276702 -0.203476 -0.0184508
v -0.255253 -0.24 -0.0184508
v -0.255368 -0.15614 -0.0400328
v -0.273102 -0.166983 -0.029576
v -0.26479 -0.131616 -0.0400328
v -0.244372 -0.179702 -0.0400328
v -0.257616 -0.0742179 -0.0497566
v -0.25197 -0.0982439 -0.0497566
v -0.229807 -0.0896024 -0.0586875
v -0.234957 -0.0676897 -0.0586875
v -0.261675 -0.0497342 -0.0497566
v -0.26412 -0.024944 -0.0497566
v -0.264937 0 -0.0497566
v -0.238658 -0.0453597 -0.0586875
v -0.240888 -0.02275 -0.0586875
v -0.241633 0 -0.0586875
v -0.291508 -0.11366 -0.029576
v -0.298041 -0.085864 -0.029576
v -0.315557 -0.0909102 -0.0184508
v -0.3335 -0.119035 -1.38778e-17
v -0.331127 -0.0953959 -0.00672568
v -0.3335 -0.0960795 -0.00457645
v -0.320528 -0.06092 -0.0184508
v -0.3335 -0.0810797 -0.00672568
v -0.3335 -0.0633855 -0.0088337
v -0.283078 -0.0538022 -0.0400328
v -0.302736 -0.0575385 -0.029576
v -0.285723 -0.0269843 -0.0400328
v -0.286607 0 -0.0400328
v -0.305565 -0.0288582 -0.029576
v -0.30651 0 -0.029576
v -0.323523 -0.0305542 -0.0184508
v -0.3335 -0.0314964 -0.0111226
v -0.324523 0 -0.0184508
v -0.3335 0 -0.0118777
v -0.3335 0 -1.38778e-17
v -0.272579 -0.10628 -0.0400328
v -0.278688 -0.0802884 -0.0400328
v -0.214338 -0.186871 -0.0497566
v -0.187338 -0.224806 -0.0497566
v -0.183739 -0.188314 -0.0586875
v -0.201459 -0.206475 -0.0497566
v -0.184886 -0.135958 -0.0667704
v -0.206026 -0.151503 -0.0586875
v -0.225896 -0.166115 -0.0497566
v -0.215297 -0.131639 -0.0586875
v -0.195485 -0.170434 -0.0586875
v -0.153329 -0.183994 -0.0667704
v -0.127455 -0.210512 -0.0667704
v -0.125 -0.212481 -0.0667704
v -0.140826 -0.197863 -0.0667704
v -0.125 -0.206457 -0.067919
v -0.156928 -0.220487 -0.0586875
v -0.170816 -0.24 -0.0504921
v -0.173641 -0.24 -0.0497566
v -0.17086 -0.205032 -0.0586875
v -0.145309 -0.24 -0.0565487
v -0.142028 -0.234582 -0.0586875
v -0.125 -0.24 -0.0605493
v -0.135271 -0.24 -0.0586875
v -0.164886 -0.168991 -0.0667704
v -0.175427 -0.152946 -0.0667704
v -0.154287 -0.134515 -0.0739556
v -0.125 -0.15 -0.0771411
v -0.125 -0.175627 -0.0734711
v -0.125 -0.172751 -0.0739556
v -0.134852 -0.161822 -0.0739556
v -0.125 -0.128112 -0.079974
v -0.125 -0.126209 -0.0801987
v -0.145017 -0.148627 -0.0739556
v -0.217937 -0.223363 -0.0400328
v -0.205122 -0.24 -0.0400328
v -0.2 -0.24 -0.0417218
v -0.125 -0.24 -1.38778e-17
v -0.206227 -0.0804085 -0.0667704
v -0.210848 -0.0607442 -0.0667704
v -0.193205 -0.118132 -0.0667704
v -0.200334 -0.0995771 -0.0667704
v -0.181375 -0.0707189 -0.0739556
v -0.22324 -0.110963 -0.0586875
v -0.21417 -0.0407054 -0.0667704
v -0.21684 0 -0.0667704
v -0.216171 -0.0204156 -0.0667704
v -0.18544 -0.0534242 -0.0739556
v -0.188361 -0.0358002 -0.0739556
v -0.190709 0 -0.0739556
v -0.190121 -0.0179555 -0.0739556
v -0.169923 -0.103896 -0.0739556
v -0.162606 -0.119574 -0.0739556
v -0.155406 -0.0605933 -0.0801987
v -0.176192 -0.0875776 -0.0739556
v -0.139324 -0.102454 -0.0801987
v -0.125 -0.108981 -0.0818519
v -0.132196 -0.115255 -0.0801987
v -0.125 -0.0919201 -0.0833212
v -0.145593 -0.0890202 -0.0801987
v -0.150965 -0.0750381 -0.0801987
v -0.125 -0.0764288 -0.0844945
v -0.125 -0.062132 -0.0854223
v -0.125 -0.0614072 -0.0854611
v -0.158888 -0.0457749 -0.0801987
v -0.161392 -0.0306743 -0.0801987
v -0.1629 -0.0153846 -0.0801987
v -0.163403 0 -0.0801987
v -0.128478 -0.0500941 -0.0854611
v -0.125 -0.048738 -0.0859943
v -0.131357 -0.0378433 -0.0854611
v -0.125 -0.0360118 -0.0864144
v -0.133427 -0.0253592 -0.0854611
v -0.125 -0.0237577 -0.086705
v -0.134673 -0.0127188 -0.0854611
v -0.13509 0 -0.0854611
v -0.125 -0.0118053 -0.0868759
v -0.125 0 -0.0869322
v -0.125 0 -1.38778e-17
f  69 27 2
f  2 29 1
f  2 1 70
f  4 24 5
f  4 6 24
f  25 7 14
f  6 3 7
f  4 3 6
f  6 7 25
f  28 14 15
f  28 15 8
f  8 15 11
f  8 11 41
f  7 3 9
f  7 9 10
f  15 12 11
f  10 9 13
f  10 13 12
f  12 13 44
f  10 12 15
f  14 10 15
f  7 10 14
f  17 22 25
f  16 25 14
f  16 17 25
f  95 19 17
f  95 17 21
f  19 26 22
f  19 22 17
f  20 18 19
f  19 18 26
f  16 21 17
f  16 30 21
f  63 21 30
f  22 6 25
f  26 23 22
f  22 24 6
f  22 23 24
f  27 28 8
f  16 28 30
f  27 30 28
f  16 14 28
f  29 8 41
f  27 8 29
f  69 30 27
f  2 27 29
f  1 61 32
f  32 62 31
f  32 33 104
f  1 32 104
f  31 34 33
f  32 31 33
f  31 35 34
f  35 52 36
f  31 50 35
f  36 53 37
f  36 37 39
f  34 35 38
f  36 39 38
f  105 38 39
f  35 36 38
f  37 40 39
f  107 39 40
f  42 43 47
f  61 41 42
f  61 42 62
f  11 43 41
f  41 43 42
f  62 42 51
f  62 51 50
f  42 47 51
f  11 45 43
f  12 46 45
f  11 12 45
f  12 44 46
f  45 46 48
f  43 48 49
f  43 49 47
f  43 45 48
f  47 56 51
f  51 56 54
f  54 56 58
f  54 58 55
f  50 51 54
f  50 54 52
f  52 54 55
f  52 55 53
f  47 49 57
f  47 57 56
f  56 57 59
f  56 59 58
f  29 41 61
f  1 29 61
f  32 61 62
f  31 62 50
f  35 50 52
f  36 52 53
f  63 66 21
f  64 97 95
f  64 95 66
f  79 64 78
f  79 97 64
f  64 66 80
f  63 71 65
f  80 66 65
f  63 65 66
f  67 101 113
f  69 68 71
f  63 30 69
f  69 2 68
f  63 69 71
f  68 2 70
f  70 1 104
f  70 104 101
f  86 71 68
f  65 71 85
f  86 85 71
f  68 70 67
f  67 70 101
f  86 68 67
f  75 72 89
f  73 75 76
f  73 76 74
f  75 89 76
f  64 80 77
f  78 82 81
f  78 77 82
f  78 64 77
f  80 65 72
f  65 85 72
f  80 75 77
f  80 72 75
f  82 84 81
f  73 82 77
f  73 83 82
f  82 83 84
f  73 74 83
f  73 77 75
f  86 94 85
f  86 67 87
f  67 113 87
f  86 87 94
f  72 85 91
f  91 85 94
f  72 91 89
f  91 90 89
f  91 94 88
f  91 88 90
f  94 92 88
f  87 118 92
f  118 93 92
f  94 87 92
f  87 113 118
f  95 20 19
f  95 96 20
f  66 95 21
f  95 97 96
f  112 101 102
f  112 102 115
f  115 102 99
f  103 100 108
f  103 99 100
f  115 99 103
f  102 104 33
f  101 104 102
f  99 33 34
f  100 99 34
f  102 33 99
f  100 105 108
f  109 105 107
f  111 107 106
f  108 105 109
f  108 109 125
f  109 107 111
f  111 106 110
f  109 111 126
f  111 110 127
f  100 34 38
f  100 38 105
f  105 39 107
f  107 40 106
f  112 120 116
f  112 113 101
f  112 116 113
f  112 115 120
f  115 121 120
f  103 114 121
f  115 103 121
f  103 108 114
f  118 113 116
f  118 116 117
f  118 117 93
f  116 119 117
f  116 120 119
f  121 122 120
f  121 114 123
f  120 122 119
f  121 123 122
f  108 125 114
f  109 126 125
f  111 127 126
f  110 128 127
f  126 127 133
f  135 127 128
f  114 125 129
f  131 125 126
f  129 125 131
f  131 126 133
f  114 129 123
f  129 124 123
f  129 130 124
f  129 131 130
f  131 132 130
f  131 133 132
f  133 127 135
f  135 128 136
f  133 134 132
f  133 135 134
f  135 137 134
f  135 136 137
f  136 138 137
f  4 5 139
f  4 139 3
f  110 106 60
f  44 60 46
f  53 55 60
f  37 53 60
f  46 60 48
f  48 60 49
f  49 60 57
f  55 58 60
f  57 60 59
f  58 59 60
f  9 139 13
f  13 139 44
f  3 139 9
f  37 60 40
f  106 40 60
f  44 139 60
f  96 98 20
f  18 98 26
f  26 98 23
f  23 98 24
f  24 98 5
f  20 98 18
f  5 98 139
f  79 78 98
f  97 98 96
f  79 98 97
f  78 81 98
f  84 98 81
f  84 83 98
f  128 60 138
f  110 60 128
f  136 128 138
f  60 139 138
f  76 139 74
f  89 139 76
f  74 139 83
f  83 139 98
f  89 90 139
f  90 88 139
f  88 92 139
f  119 139 117
f  92 93 139
f  117 139 93
f  130 132 138
f  132 134 138
f  134 137 138
f  122 139 119
f  122 123 139
f  124 139 123
f  124 130 139
f  130 138 139
