# OpenSCAD obj exporter
v -0.112096 -0.185144 -0.0739556
v -0.0996453 -0.195128 -0.0739556
v -0.0729813 -0.211431 -0.0739556
v -0.0865802 -0.203908 -0.0739556
v -0.0625317 -0.181158 -0.0801987
v -0.125 -0.24 -0.0605493
v -0.12256 -0.24 -0.0609915
v -0.125 -0.212481 -0.0667704
v -0.113298 -0.221863 -0.0667704
v -0.0984431 -0.231847 -0.0667704
v -0.101905 -0.24 -0.0642844
v -0.125 -0.206457 -0.067919
v -0.0828427 -0.24 -0.0668697
v -0.0837046 -0.24 -0.0667704
v -0.0649839 -0.24 -0.0685707
v -0.125 -0.172751 -0.0739556
v -0.123856 -0.17402 -0.0739556
v -0.125 -0.175627 -0.0734711
v -0.125 -0.15 -0.0771411
v -0.096046 -0.158635 -0.0801987
v -0.115544 -0.138652 -0.0801987
v -0.125 -0.128112 -0.079974
v -0.124253 -0.127346 -0.0801987
v -0.125 -0.126209 -0.0801987
v -0.106122 -0.149103 -0.0801987
v -0.085378 -0.167189 -0.0801987
v -0.0741835 -0.174712 -0.0801987
v -0.0877338 -0.123268 -0.0854611
v -0.0794038 -0.131148 -0.0854611
v -0.0705842 -0.13822 -0.0854611
v -0.0589324 -0.21765 -0.0739556
v -0.0445202 -0.222528 -0.0739556
v -0.0504944 -0.186487 -0.0801987
v -0.0381457 -0.190666 -0.0801987
v -0.0298335 -0.226034 -0.0739556
v -0.0149629 -0.228146 -0.0739556
v -0.0255619 -0.19367 -0.0801987
v -0.0128205 -0.195479 -0.0801987
v -0.0480158 -0.24 -0.0698382
v -0.0316769 -0.24 -0.0707154
v -0.0157403 -0.24 -0.0712308
v -0.041745 -0.154174 -0.0854611
v -0.0315361 -0.157629 -0.0854611
v -0.0613295 -0.144439 -0.0854611
v -0.0516966 -0.149768 -0.0854611
v -0.0327383 -0.12091 -0.0897106
v -0.0211327 -0.160112 -0.0854611
v -0.010599 -0.161608 -0.0854611
v -0.024732 -0.123619 -0.0897106
v -0.0165732 -0.125567 -0.0897106
v -0.00831223 -0.12674 -0.0897106
v -0.125 -0.24 -1.38778e-17
v -0.102723 -0.105281 -0.0854611
v -0.0955229 -0.114627 -0.0854611
v -0.10929 -0.0952846 -0.0854611
v -0.125 -0.108981 -0.0818519
v -0.125 -0.0919201 -0.0833212
v -0.125 -0.0764288 -0.0844945
v -0.115183 -0.0847011 -0.0854611
v -0.120366 -0.0735954 -0.0854611
v -0.124807 -0.062036 -0.0854611
v -0.125 -0.062132 -0.0854223
v -0.125 -0.0614072 -0.0854611
v -0.0688048 -0.096672 -0.0897106
v -0.08056 -0.0825657 -0.0897106
v -0.0903316 -0.0664264 -0.0897106
v -0.0857101 -0.0747264 -0.0897106
v -0.0749133 -0.089896 -0.0897106
v -0.125 -0.048738 -0.0859943
v -0.125 -0.0360118 -0.0864144
v -0.0943963 -0.0577168 -0.0897106
v -0.097879 -0.0486514 -0.0897106
v -0.100758 -0.039286 -0.0897106
v -0.125 -0.0237577 -0.086705
v -0.125 -0.0118053 -0.0868759
v -0.125 0 -0.0869322
v -0.103016 -0.0296784 -0.0897106
v -0.104639 -0.0198878 -0.0897106
v -0.105617 -0.00997467 -0.0897106
v -0.105943 0 -0.0897106
v -0.0649234 -0.0477421 -0.0929208
v -0.0703478 -0.0349668 -0.0929208
v -0.0678447 -0.0414823 -0.0929208
v -0.0724172 -0.0282357 -0.0929208
v -0.0740401 -0.0213305 -0.0929208
v -0.0752065 -0.0142938 -0.0929208
v -0.0759092 -0.00716902 -0.0929208
v -0.0761439 0 -0.0929208
v -0.0553553 -0.108398 -0.0897106
v -0.0480973 -0.113276 -0.0897106
v -0.062272 -0.102852 -0.0897106
v -0.0405428 -0.117455 -0.0897106
v -0.0494515 -0.0694804 -0.0929208
v -0.0538419 -0.0646103 -0.0929208
v -0.0397851 -0.077908 -0.0929208
v -0.0345686 -0.0814137 -0.0929208
v -0.0447563 -0.0739221 -0.0929208
v -0.0119115 -0.0902478 -0.0929208
v -0.00597418 -0.091091 -0.0929208
v -0.029139 -0.0844174 -0.0929208
v -0.0235298 -0.0869006 -0.0929208
v -0.0177754 -0.0888481 -0.0929208
v -0.0616017 -0.0537075 -0.0929208
v -0.0579003 -0.0593418 -0.0929208
v -0.0324385 -0.0389262 -0.0950721
v -0.0371136 -0.0323575 -0.0950721
v -0.0348836 -0.0357521 -0.0950721
v -0.0391148 -0.0287635 -0.0950721
v -0.0408749 -0.0249922 -0.0950721
v -0.0436297 -0.0170114 -0.0950721
v -0.0423829 -0.0210667 -0.0950721
v -0.0446074 -0.0128512 -0.0950721
v -0.0453102 -0.00861171 -0.0950721
v -0.0457335 -0.00431917 -0.0950721
v -0.045875 0 -0.0950721
v -0.0239696 -0.0469378 -0.0950721
v -0.0208268 -0.0490499 -0.0950721
v -0.0175556 -0.0508595 -0.0950721
v -0.0297934 -0.0418603 -0.0950721
v -0.0269646 -0.0445363 -0.0950721
v -0.0107093 -0.0535289 -0.0950721
v -0.0141761 -0.0523556 -0.0950721
v -0.00717642 -0.0543722 -0.0950721
v -0.00359931 -0.0548802 -0.0950721
v -0.00800632 -0.0156782 -0.096151
v -0.00586391 -0.0169881 -0.096151
v -0.00695656 -0.0163836 -0.096151
v -0.00473511 -0.0174878 -0.096151
v -0.00357712 -0.0178797 -0.096151
v -0.00239707 -0.0181614 -0.096151
v -0.00120224 -0.0183311 -0.096151
v -0.0130651 -0.00960758 -0.096151
v -0.0123967 -0.0108081 -0.096151
v -0.013653 -0.00834787 -0.096151
v -0.00995158 -0.0139822 -0.096151
v -0.0108351 -0.0130021 -0.096151
v -0.0116518 -0.0119419 -0.096151
v -0.00900672 -0.014876 -0.096151
v -0.0141567 -0.00703669 -0.096151
v -0.0145732 -0.00568213 -0.096151
v -0.0148998 -0.00429254 -0.096151
v -0.0151345 -0.00287648 -0.096151
v -0.0152759 -0.00144269 -0.096151
v -0.0153231 0 -0.096151
v -0.125 0 -1.38778e-17
v 0 -0.228851 -0.0739556
v 0.0149629 -0.228146 -0.0739556
v 0.0298335 -0.226034 -0.0739556
v 0 -0.196084 -0.0801987
v 0.0128205 -0.195479 -0.0801987
v 0.0255619 -0.19367 -0.0801987
v 0.0445202 -0.222528 -0.0739556
v 0.0589324 -0.21765 -0.0739556
v 0.0381457 -0.190666 -0.0801987
v 0.0504944 -0.186487 -0.0801987
v 0 -0.24 -0.0714009
v 0.0157403 -0.24 -0.0712308
v 0.0316769 -0.24 -0.0707154
v 0.0480158 -0.24 -0.0698382
v 0 -0.162108 -0.0854611
v 0.010599 -0.161608 -0.0854611
v 0.0211327 -0.160112 -0.0854611
v 0 -0.127132 -0.0897106
v 0.00831223 -0.12674 -0.0897106
v 0.0165732 -0.125567 -0.0897106
v 0.024732 -0.123619 -0.0897106
v 0.0315361 -0.157629 -0.0854611
v 0.041745 -0.154174 -0.0854611
v 0.0327383 -0.12091 -0.0897106
v 0.0516966 -0.149768 -0.0854611
v 0.0613295 -0.144439 -0.0854611
v 0.0729813 -0.211431 -0.0739556
v 0.0625317 -0.181158 -0.0801987
v 0.0865802 -0.203908 -0.0739556
v 0.0996453 -0.195128 -0.0739556
v 0.112096 -0.185144 -0.0739556
v 0.0649839 -0.24 -0.0685707
v 0.0828427 -0.24 -0.0668697
v 0.0837046 -0.24 -0.0667704
v 0.0984431 -0.231847 -0.0667704
v 0.101905 -0.24 -0.0642844
v 0.12256 -0.24 -0.0609915
v 0.125 -0.24 -0.0605493
v 0.113298 -0.221863 -0.0667704
v 0.125 -0.212481 -0.0667704
v 0.125 -0.206457 -0.067919
v 0.0741835 -0.174712 -0.0801987
v 0.085378 -0.167189 -0.0801987
v 0.0705842 -0.13822 -0.0854611
v 0.0794038 -0.131148 -0.0854611
v 0.0877338 -0.123268 -0.0854611
v 0.096046 -0.158635 -0.0801987
v 0.123856 -0.17402 -0.0739556
v 0.125 -0.172751 -0.0739556
v 0.125 -0.175627 -0.0734711
v 0.125 -0.15 -0.0771411
v 0.106122 -0.149103 -0.0801987
v 0.115544 -0.138652 -0.0801987
v 0.125 -0.128112 -0.079974
v 0.124253 -0.127346 -0.0801987
v 0.125 -0.126209 -0.0801987
v 0.125 -0.24 -1.38778e-17
v 0 -0.0913727 -0.0929208
v 0.00597418 -0.091091 -0.0929208
v 0.0119115 -0.0902478 -0.0929208
v 0.0177754 -0.0888481 -0.0929208
v 0.0235298 -0.0869006 -0.0929208
v 0.029139 -0.0844174 -0.0929208
v 0.0405428 -0.117455 -0.0897106
v 0.0480973 -0.113276 -0.0897106
v 0.0553553 -0.108398 -0.0897106
v 0.062272 -0.102852 -0.0897106
v 0.0345686 -0.0814137 -0.0929208
v 0.0397851 -0.077908 -0.0929208
v 0.0447563 -0.0739221 -0.0929208
v 0.0494515 -0.0694804 -0.0929208
v 0.0538419 -0.0646103 -0.0929208
v 0 -0.0550499 -0.0950721
v 0.00359931 -0.0548802 -0.0950721
v 0.00717642 -0.0543722 -0.0950721
v 0.0107093 -0.0535289 -0.0950721
v 0.0141761 -0.0523556 -0.0950721
v 0.0175556 -0.0508595 -0.0950721
v 0.0208268 -0.0490499 -0.0950721
v 0.0239696 -0.0469378 -0.0950721
v 0.0269646 -0.0445363 -0.0950721
v 0.0297934 -0.0418603 -0.0950721
v 0 -0.0183878 -0.096151
v 0.00120224 -0.0183311 -0.096151
v 0.00239707 -0.0181614 -0.096151
v 0.00357712 -0.0178797 -0.096151
v 0.00473511 -0.0174878 -0.096151
v 0.00586391 -0.0169881 -0.096151
v 0.00695656 -0.0163836 -0.096151
v 0.00800632 -0.0156782 -0.096151
v 0.00900672 -0.014876 -0.096151
v 0.00995158 -0.0139822 -0.096151
v 0.0108351 -0.0130021 -0.096151
v 0.0116518 -0.0119419 -0.096151
v 0.0123967 -0.0108081 -0.096151
v 0.0130651 -0.00960758 -0.096151
v 0.013653 -0.00834787 -0.096151
v 0.0141567 -0.00703669 -0.096151
v 0.0145732 -0.00568213 -0.096151
v 0.0148998 -0.00429254 -0.096151
v 0.0151345 -0.00287648 -0.096151
v 0.0152759 -0.00144269 -0.096151
v 0.0153231 0 -0.096151
v 0.0324385 -0.0389262 -0.0950721
v 0.0348836 -0.0357521 -0.0950721
v 0.0371136 -0.0323575 -0.0950721
v 0.0579003 -0.0593418 -0.0929208
v 0.0616017 -0.0537075 -0.0929208
v 0.0391148 -0.0287635 -0.0950721
v 0.0408749 -0.0249922 -0.0950721
v 0.0423829 -0.0210667 -0.0950721
v 0.0436297 -0.0170114 -0.0950721
v 0.0446074 -0.0128512 -0.0950721
v 0.0453102 -0.00861171 -0.0950721
v 0.0457335 -0.00431917 -0.0950721
v 0.045875 0 -0.0950721
v 0.0688048 -0.096672 -0.0897106
v 0.0749133 -0.089896 -0.0897106
v 0.08056 -0.0825657 -0.0897106
v 0.0857101 -0.0747264 -0.0897106
v 0.0903316 -0.0664264 -0.0897106
v 0.0955229 -0.114627 -0.0854611
v 0.102723 -0.105281 -0.0854611
v 0.10929 -0.0952846 -0.0854611
v 0.125 -0.108981 -0.0818519
v 0.125 -0.0919201 -0.0833212
v 0.115183 -0.0847011 -0.0854611
v 0.125 -0.0764288 -0.0844945
v 0.120366 -0.0735954 -0.0854611
v 0.124807 -0.062036 -0.0854611
v 0.125 -0.062132 -0.0854223
v 0.125 -0.0614072 -0.0854611
v 0.0649234 -0.0477421 -0.0929208
v 0.0678447 -0.0414823 -0.0929208
v 0.0703478 -0.0349668 -0.0929208
v 0.0724172 -0.0282357 -0.0929208
v 0.0740401 -0.0213305 -0.0929208
v 0.0752065 -0.0142938 -0.0929208
v 0.0759092 -0.00716902 -0.0929208
v 0.0761439 0 -0.0929208
v 0.0943963 -0.0577168 -0.0897106
v 0.097879 -0.0486514 -0.0897106
v 0.100758 -0.039286 -0.0897106
v 0.125 -0.048738 -0.0859943
v 0.125 -0.0360118 -0.0864144
v 0.103016 -0.0296784 -0.0897106
v 0.104639 -0.0198878 -0.0897106
v 0.105617 -0.00997467 -0.0897106
v 0.105943 0 -0.0897106
v 0.125 -0.0237577 -0.086705
v 0.125 -0.0118053 -0.0868759
v 0.125 0 -0.0869322
v 0.125 0 -1.38778e-17
f  2 1 26
f  4 2 27
f  4 5 3
f  4 27 5
f  7 6 8
f  10 7 9
f  9 8 12
f  7 8 9
f  10 11 7
f  14 11 10
f  4 10 9
f  2 9 12
f  2 12 1
f  1 12 18
f  4 9 2
f  14 10 13
f  3 13 10
f  4 3 10
f  31 15 13
f  3 31 13
f  17 18 16
f  1 18 17
f  17 16 19
f  1 17 20
f  17 19 25
f  1 20 26
f  17 25 20
f  21 19 22
f  25 19 21
f  21 22 23
f  23 22 24
f  23 24 56
f  21 23 54
f  28 25 21
f  20 25 29
f  28 21 54
f  2 26 27
f  26 20 30
f  5 27 45
f  26 44 27
f  30 29 89
f  20 29 30
f  28 29 25
f  26 30 44
f  31 32 15
f  31 34 32
f  32 35 39
f  32 37 35
f  3 33 31
f  31 33 34
f  3 5 33
f  32 34 37
f  35 36 40
f  35 38 36
f  36 146 41
f  41 146 156
f  36 149 146
f  35 37 38
f  34 47 37
f  38 37 48
f  36 38 149
f  38 160 149
f  32 39 15
f  35 40 39
f  36 41 40
f  5 42 33
f  27 44 45
f  5 45 42
f  33 43 34
f  33 42 43
f  44 92 45
f  30 90 44
f  44 90 92
f  42 45 46
f  42 49 43
f  45 92 46
f  42 46 49
f  48 163 160
f  34 43 47
f  37 47 48
f  38 48 160
f  43 49 50
f  43 50 47
f  47 51 48
f  47 50 51
f  48 51 163
f  53 56 55
f  55 57 59
f  53 55 65
f  23 56 53
f  55 56 57
f  23 53 54
f  59 57 58
f  59 58 60
f  60 58 62
f  60 62 61
f  61 62 63
f  60 61 71
f  55 59 67
f  59 66 67
f  59 60 66
f  60 71 66
f  28 54 64
f  54 53 68
f  53 65 68
f  54 68 64
f  28 91 29
f  28 64 91
f  29 91 89
f  55 67 65
f  67 66 103
f  64 68 93
f  68 65 94
f  67 104 65
f  65 104 94
f  67 103 104
f  61 63 69
f  61 69 72
f  73 69 70
f  73 70 77
f  61 72 71
f  72 69 73
f  77 70 74
f  78 74 75
f  78 77 74
f  79 75 76
f  78 75 79
f  79 76 80
f  78 85 77
f  78 79 86
f  79 80 87
f  71 72 83
f  66 71 81
f  72 73 82
f  73 77 84
f  72 82 83
f  73 84 82
f  66 81 103
f  71 83 81
f  77 85 84
f  78 86 85
f  80 88 87
f  79 87 86
f  84 85 110
f  85 86 112
f  86 87 113
f  87 88 114
f  30 89 90
f  64 97 91
f  89 91 95
f  90 100 92
f  46 92 101
f  90 89 96
f  90 96 100
f  91 97 95
f  64 93 97
f  68 94 93
f  89 95 96
f  97 93 120
f  96 95 117
f  97 116 95
f  46 102 49
f  49 98 50
f  46 101 102
f  92 100 101
f  49 102 98
f  50 99 51
f  51 203 163
f  50 98 99
f  51 99 203
f  101 121 102
f  100 96 118
f  96 117 118
f  101 100 122
f  100 118 122
f  101 122 121
f  98 102 123
f  98 124 99
f  99 218 203
f  102 121 123
f  98 123 124
f  99 124 218
f  94 104 105
f  104 103 107
f  81 83 108
f  83 82 109
f  81 106 103
f  81 108 106
f  83 109 108
f  93 94 119
f  97 120 116
f  93 119 120
f  94 105 119
f  103 106 107
f  104 107 105
f  82 84 111
f  82 111 109
f  84 110 111
f  85 112 110
f  86 113 112
f  87 114 113
f  88 115 114
f  111 110 139
f  111 134 109
f  110 112 140
f  112 113 141
f  113 114 142
f  114 115 143
f  95 116 117
f  105 135 119
f  120 119 138
f  116 120 125
f  116 127 117
f  118 117 126
f  118 128 122
f  121 122 129
f  121 130 123
f  123 131 124
f  124 228 218
f  123 130 131
f  124 131 228
f  107 106 137
f  106 108 133
f  105 107 136
f  108 109 132
f  119 135 138
f  108 132 133
f  106 133 137
f  105 136 135
f  107 137 136
f  110 140 139
f  112 141 140
f  113 142 141
f  115 144 143
f  114 143 142
f  109 134 132
f  111 139 134
f  116 125 127
f  120 138 125
f  117 127 126
f  118 126 128
f  122 128 129
f  121 129 130
f  126 127 130
f  126 130 128
f  129 128 130
f  127 131 130
f  127 228 131
f  125 233 127
f  125 138 235
f  127 229 228
f  127 230 229
f  127 231 230
f  137 133 239
f  132 240 133
f  132 134 241
f  134 139 242
f  138 135 236
f  136 237 135
f  136 137 238
f  139 140 243
f  140 141 244
f  141 142 245
f  142 143 246
f  143 144 247
f  146 147 156
f  147 157 156
f  146 149 147
f  147 148 157
f  147 150 148
f  147 149 150
f  149 160 150
f  148 150 151
f  150 161 151
f  151 162 154
f  148 152 158
f  148 151 152
f  152 153 159
f  152 154 153
f  152 151 154
f  153 154 155
f  153 155 172
f  172 155 173
f  148 158 157
f  152 159 158
f  153 177 159
f  160 163 161
f  150 160 161
f  151 161 162
f  154 162 167
f  161 163 164
f  161 164 162
f  162 164 165
f  162 165 167
f  167 165 166
f  154 167 155
f  155 167 168
f  155 168 173
f  173 168 170
f  187 170 171
f  167 166 168
f  168 169 170
f  168 166 169
f  169 209 170
f  170 209 171
f  171 209 210
f  171 210 189
f  153 172 177
f  172 173 174
f  173 187 174
f  174 187 175
f  175 188 176
f  172 178 177
f  172 180 178
f  178 180 179
f  172 174 180
f  179 180 181
f  180 184 181
f  174 184 180
f  181 184 182
f  182 184 183
f  184 185 183
f  174 175 184
f  175 185 184
f  175 176 185
f  176 186 185
f  176 195 186
f  173 170 187
f  187 171 188
f  175 187 188
f  189 192 188
f  189 211 190
f  171 189 188
f  189 190 192
f  190 191 197
f  176 188 192
f  193 192 197
f  176 192 193
f  176 193 195
f  193 194 195
f  193 197 194
f  197 196 194
f  190 197 192
f  191 198 197
f  191 267 198
f  197 198 196
f  198 199 196
f  198 267 200
f  198 200 199
f  200 201 199
f  163 203 164
f  164 204 165
f  164 203 204
f  165 204 205
f  165 205 166
f  166 206 169
f  166 205 206
f  169 206 207
f  209 207 208
f  203 218 204
f  204 219 205
f  205 220 206
f  204 218 219
f  205 219 220
f  206 220 221
f  206 221 207
f  207 222 208
f  207 221 222
f  208 222 223
f  208 223 213
f  213 223 224
f  169 207 209
f  209 208 210
f  210 208 213
f  210 213 211
f  189 210 211
f  211 214 212
f  212 215 262
f  211 213 214
f  213 224 214
f  214 225 215
f  215 226 216
f  212 214 215
f  262 215 216
f  263 216 217
f  218 228 219
f  219 229 220
f  220 230 221
f  219 228 229
f  220 229 230
f  221 231 222
f  222 232 223
f  223 233 224
f  214 224 225
f  224 234 225
f  225 235 226
f  226 236 227
f  227 237 249
f  221 230 231
f  222 231 232
f  127 232 231
f  127 233 232
f  125 234 233
f  125 235 234
f  138 236 235
f  223 232 233
f  224 233 234
f  225 234 235
f  226 235 236
f  135 237 236
f  136 238 237
f  137 239 238
f  133 240 239
f  132 241 240
f  134 242 241
f  139 243 242
f  140 244 243
f  141 245 244
f  142 246 245
f  143 247 246
f  144 248 247
f  227 236 237
f  249 237 238
f  250 238 239
f  251 239 240
f  254 240 241
f  249 238 250
f  250 239 251
f  251 240 254
f  254 241 255
f  255 241 242
f  242 243 256
f  243 244 257
f  244 245 258
f  245 246 259
f  246 247 260
f  247 248 261
f  215 225 226
f  216 226 227
f  217 227 249
f  216 227 217
f  249 250 252
f  250 251 253
f  217 249 252
f  250 253 252
f  251 278 253
f  251 254 278
f  279 254 255
f  278 254 279
f  279 255 280
f  255 242 256
f  243 257 256
f  244 258 257
f  245 259 258
f  246 260 259
f  247 261 260
f  280 255 256
f  256 257 281
f  257 258 282
f  280 256 281
f  258 259 283
f  259 260 284
f  260 261 285
f  190 211 212
f  190 212 191
f  191 212 262
f  191 262 267
f  262 263 267
f  263 268 267
f  263 264 268
f  262 216 263
f  263 217 264
f  264 217 252
f  265 252 253
f  264 252 265
f  264 265 269
f  265 253 266
f  264 269 268
f  268 269 270
f  269 272 271
f  200 267 268
f  200 268 201
f  268 270 201
f  269 271 270
f  272 265 266
f  269 265 272
f  272 266 274
f  266 286 274
f  272 273 271
f  272 274 273
f  274 286 275
f  274 275 273
f  275 276 273
f  275 277 276
f  266 253 278
f  278 279 286
f  266 278 286
f  279 287 286
f  279 280 287
f  280 281 288
f  280 288 287
f  281 291 288
f  257 282 281
f  282 258 283
f  259 284 283
f  260 285 284
f  281 282 291
f  282 283 292
f  283 284 293
f  284 285 294
f  275 286 287
f  287 288 277
f  275 287 277
f  288 289 277
f  288 291 289
f  291 290 289
f  282 292 291
f  283 293 292
f  284 294 293
f  291 292 290
f  292 293 295
f  292 295 290
f  293 296 295
f  293 294 296
f  294 297 296
f  7 202 6
f  7 11 202
f  14 202 11
f  14 13 202
f  13 15 202
f  52 6 202
f  80 145 88
f  80 76 145
f  88 145 115
f  115 145 144
f  144 145 248
f  248 145 261
f  261 145 285
f  52 298 145
f  15 39 202
f  39 40 202
f  40 41 202
f  41 156 202
f  156 157 202
f  157 158 202
f  52 202 298
f  158 159 202
f  159 177 202
f  177 178 202
f  178 179 202
f  179 181 202
f  181 182 202
f  182 183 202
f  285 145 294
f  294 145 297
f  145 298 297
f  16 18 52
f  19 16 52
f  22 19 52
f  24 22 52
f  24 52 56
f  56 52 57
f  57 52 58
f  58 52 62
f  62 52 63
f  8 6 52
f  8 52 12
f  12 52 18
f  63 52 69
f  69 145 70
f  70 145 74
f  74 145 75
f  76 75 145
f  69 52 145
f  202 183 185
f  298 185 186
f  186 195 298
f  202 185 298
f  194 298 195
f  194 196 298
f  196 199 298
f  199 201 298
f  201 270 298
f  270 271 298
f  271 273 298
f  273 276 298
f  276 277 298
f  277 289 298
f  289 290 298
f  290 295 298
f  295 296 298
f  297 298 296
