# OpenSCAD obj exporter
v 0.125 -0.212481 -0.0667704
v 0.127455 -0.210512 -0.0667704
v 0.125 -0.206457 -0.067919
v 0.140826 -0.197863 -0.0667704
v 0.153329 -0.183994 -0.0667704
v 0.125 -0.24 -0.0605493
v 0.135271 -0.24 -0.0586875
v 0.142028 -0.234582 -0.0586875
v 0.145309 -0.24 -0.0565487
v 0.156928 -0.220487 -0.0586875
v 0.170816 -0.24 -0.0504921
v 0.173641 -0.24 -0.0497566
v 0.17086 -0.205032 -0.0586875
v 0.125 -0.15 -0.0771411
v 0.125 -0.175627 -0.0734711
v 0.125 -0.172751 -0.0739556
v 0.134852 -0.161822 -0.0739556
v 0.125 -0.128112 -0.079974
v 0.125 -0.126209 -0.0801987
v 0.145017 -0.148627 -0.0739556
v 0.164886 -0.168991 -0.0667704
v 0.175427 -0.152946 -0.0667704
v 0.154287 -0.134515 -0.0739556
v 0.187338 -0.224806 -0.0497566
v 0.183739 -0.188314 -0.0586875
v 0.201459 -0.206475 -0.0497566
v 0.214338 -0.186871 -0.0497566
v 0.184886 -0.135958 -0.0667704
v 0.195485 -0.170434 -0.0586875
v 0.206026 -0.151503 -0.0586875
v 0.225896 -0.166115 -0.0497566
v 0.215297 -0.131639 -0.0586875
v 0.125 -0.24 -1.38778e-17
v 0.2 -0.24 -0.0417218
v 0.205122 -0.24 -0.0400328
v 0.217937 -0.223363 -0.0400328
v 0.125 -0.108981 -0.0818519
v 0.132196 -0.115255 -0.0801987
v 0.125 -0.0919201 -0.0833212
v 0.139324 -0.102454 -0.0801987
v 0.125 -0.0764288 -0.0844945
v 0.125 -0.062132 -0.0854223
v 0.125 -0.0614072 -0.0854611
v 0.145593 -0.0890202 -0.0801987
v 0.150965 -0.0750381 -0.0801987
v 0.162606 -0.119574 -0.0739556
v 0.169923 -0.103896 -0.0739556
v 0.155406 -0.0605933 -0.0801987
v 0.176192 -0.0875776 -0.0739556
v 0.125 -0.048738 -0.0859943
v 0.128478 -0.0500941 -0.0854611
v 0.131357 -0.0378433 -0.0854611
v 0.125 -0.0360118 -0.0864144
v 0.125 -0.0237577 -0.086705
v 0.133427 -0.0253592 -0.0854611
v 0.125 -0.0118053 -0.0868759
v 0.125 0 -0.0869322
v 0.134673 -0.0127188 -0.0854611
v 0.13509 0 -0.0854611
v 0.158888 -0.0457749 -0.0801987
v 0.161392 -0.0306743 -0.0801987
v 0.1629 -0.0153846 -0.0801987
v 0.163403 0 -0.0801987
v 0.193205 -0.118132 -0.0667704
v 0.200334 -0.0995771 -0.0667704
v 0.181375 -0.0707189 -0.0739556
v 0.206227 -0.0804085 -0.0667704
v 0.210848 -0.0607442 -0.0667704
v 0.22324 -0.110963 -0.0586875
v 0.18544 -0.0534242 -0.0739556
v 0.188361 -0.0358002 -0.0739556
v 0.190121 -0.0179555 -0.0739556
v 0.190709 0 -0.0739556
v 0.21417 -0.0407054 -0.0667704
v 0.216171 -0.0204156 -0.0667704
v 0.21684 0 -0.0667704
v 0.125 0 -1.38778e-17
v 0.23606 -0.144334 -0.0497566
v 0.244769 -0.121664 -0.0497566
v 0.232205 -0.24 -0.029576
v 0.233072 -0.238875 -0.029576
v 0.23417 -0.24 -0.0286843
v 0.247972 -0.216194 -0.029576
v 0.23187 -0.202156 -0.0400328
v 0.261343 -0.192181 -0.029576
v 0.255253 -0.24 -0.0184508
v 0.262545 -0.2289 -0.0184508
v 0.275276 -0.24 -0.00692753
v 0.275608 -0.24 -0.00672568
v 0.276702 -0.203476 -0.0184508
v 0.244372 -0.179702 -0.0400328
v 0.255368 -0.15614 -0.0400328
v 0.273102 -0.166983 -0.029576
v 0.26479 -0.131616 -0.0400328
v 0.284786 -0.24 -1.38778e-17
v 0.290355 -0.213515 -0.00672568
v 0.296866 -0.218304 -1.38778e-17
v 0.30342 -0.18552 -0.00672568
v 0.310224 -0.189681 -1.38778e-17
v 0.283178 -0.140756 -0.029576
v 0.289152 -0.176797 -0.0184508
v 0.29982 -0.149028 -0.0184508
v 0.314614 -0.156381 -0.00672568
v 0.32167 -0.159888 -1.38778e-17
v 0.30864 -0.12034 -0.0184508
v 0.323869 -0.126278 -0.00672568
v 0.331132 -0.12911 -1.38778e-17
v 0.25197 -0.0982439 -0.0497566
v 0.229807 -0.0896024 -0.0586875
v 0.234957 -0.0676897 -0.0586875
v 0.257616 -0.0742179 -0.0497566
v 0.238658 -0.0453597 -0.0586875
v 0.240888 -0.02275 -0.0586875
v 0.241633 0 -0.0586875
v 0.261675 -0.0497342 -0.0497566
v 0.26412 -0.024944 -0.0497566
v 0.264937 0 -0.0497566
v 0.272579 -0.10628 -0.0400328
v 0.278688 -0.0802884 -0.0400328
v 0.291508 -0.11366 -0.029576
v 0.298041 -0.085864 -0.029576
v 0.315557 -0.0909102 -0.0184508
v 0.3335 -0.119035 -1.38778e-17
v 0.331127 -0.0953959 -0.00672568
v 0.3335 -0.0960795 -0.00457645
v 0.320528 -0.06092 -0.0184508
v 0.3335 -0.0810797 -0.00672568
v 0.3335 -0.0633855 -0.0088337
v 0.283078 -0.0538022 -0.0400328
v 0.302736 -0.0575385 -0.029576
v 0.285723 -0.0269843 -0.0400328
v 0.286607 0 -0.0400328
v 0.305565 -0.0288582 -0.029576
v 0.30651 0 -0.029576
v 0.323523 -0.0305542 -0.0184508
v 0.3335 -0.0314964 -0.0111226
v 0.324523 0 -0.0184508
v 0.3335 0 -0.0118777
v 0.3335 0 -1.38778e-17
f  2 1 3
f  2 3 4
f  4 15 16
f  4 3 15
f  4 16 5
f  7 6 1
f  7 1 8
f  2 8 1
f  7 8 9
f  8 10 9
f  2 10 8
f  2 4 10
f  9 10 11
f  10 13 24
f  10 24 11
f  10 4 13
f  4 5 13
f  5 25 13
f  5 21 25
f  5 16 17
f  17 16 14
f  17 14 20
f  5 17 21
f  17 20 21
f  20 14 18
f  20 18 19
f  23 19 38
f  20 19 23
f  23 38 46
f  20 22 21
f  20 23 22
f  23 28 22
f  23 46 28
f  11 24 12
f  12 24 34
f  24 13 26
f  24 36 34
f  24 26 36
f  13 25 26
f  25 29 27
f  26 25 27
f  26 27 84
f  28 46 64
f  21 29 25
f  21 22 29
f  22 30 29
f  22 28 30
f  30 28 32
f  28 64 32
f  29 30 31
f  27 29 31
f  27 31 91
f  30 78 31
f  32 64 69
f  30 32 78
f  32 69 79
f  34 36 35
f  35 36 81
f  35 81 80
f  26 84 36
f  38 19 37
f  38 37 40
f  40 37 39
f  40 39 44
f  38 40 46
f  44 39 41
f  44 41 42
f  45 42 43
f  44 42 45
f  45 43 48
f  40 44 47
f  46 40 47
f  44 49 47
f  46 47 64
f  44 45 49
f  45 48 66
f  45 66 49
f  48 70 66
f  51 43 50
f  48 43 51
f  51 50 53
f  51 53 52
f  52 53 54
f  48 51 60
f  51 52 60
f  52 55 61
f  52 61 60
f  52 54 55
f  55 54 56
f  55 56 58
f  58 56 57
f  58 57 59
f  55 58 62
f  58 59 63
f  48 60 70
f  60 61 71
f  61 55 62
f  58 63 62
f  61 62 72
f  62 63 73
f  47 65 64
f  47 49 65
f  49 66 67
f  49 67 65
f  66 70 68
f  66 68 67
f  64 65 69
f  65 109 69
f  65 67 109
f  67 110 109
f  67 68 110
f  60 71 70
f  70 71 74
f  61 72 71
f  62 73 72
f  71 72 75
f  72 73 76
f  68 70 74
f  71 75 74
f  72 76 75
f  68 74 112
f  68 112 110
f  74 75 113
f  75 76 114
f  31 78 92
f  78 32 79
f  78 79 94
f  36 83 81
f  36 84 83
f  80 81 82
f  81 86 82
f  81 83 87
f  81 87 86
f  27 91 84
f  83 84 85
f  84 91 85
f  83 90 87
f  83 85 90
f  85 101 90
f  86 87 88
f  87 90 96
f  87 89 88
f  87 96 89
f  31 92 91
f  78 94 92
f  85 91 93
f  91 92 93
f  92 100 93
f  85 93 101
f  92 94 100
f  94 120 100
f  89 96 95
f  95 96 97
f  90 101 98
f  96 90 98
f  96 98 97
f  97 98 99
f  93 102 101
f  93 100 102
f  100 105 102
f  100 120 105
f  101 102 103
f  98 101 103
f  98 103 99
f  99 103 104
f  102 105 106
f  103 102 106
f  103 106 104
f  104 106 107
f  106 123 107
f  69 109 108
f  79 69 108
f  109 110 111
f  109 111 108
f  110 115 111
f  79 108 118
f  108 111 119
f  74 113 112
f  110 112 115
f  112 113 116
f  112 116 115
f  75 114 113
f  113 114 117
f  111 115 129
f  115 116 131
f  113 117 116
f  116 117 132
f  79 118 94
f  108 119 118
f  94 118 120
f  111 129 119
f  115 131 129
f  116 132 131
f  118 121 120
f  118 119 121
f  105 120 122
f  120 121 122
f  119 130 121
f  119 129 130
f  121 130 126
f  121 126 122
f  105 122 124
f  105 124 106
f  106 124 123
f  124 127 125
f  123 124 125
f  122 126 127
f  126 128 127
f  122 127 124
f  129 131 133
f  129 133 130
f  131 132 134
f  131 134 133
f  126 130 135
f  130 133 135
f  133 137 135
f  133 134 137
f  126 135 128
f  128 135 136
f  135 137 136
f  136 137 138
f  7 12 6
f  7 9 11
f  7 11 12
f  12 34 6
f  34 35 6
f  35 80 6
f  80 82 6
f  82 86 6
f  86 88 6
f  88 89 6
f  89 95 6
f  95 33 6
f  59 57 77
f  59 77 63
f  63 77 73
f  73 77 76
f  139 77 33
f  76 77 114
f  114 77 117
f  117 77 132
f  95 97 33
f  97 99 33
f  99 104 33
f  104 107 33
f  107 123 33
f  123 139 33
f  132 77 134
f  134 77 137
f  137 77 139
f  123 125 139
f  125 127 139
f  127 128 139
f  128 136 139
f  136 138 139
f  137 139 138
f  1 33 3
f  15 33 16
f  3 33 15
f  14 16 33
f  18 14 33
f  18 33 19
f  19 33 37
f  37 33 39
f  41 39 33
f  41 33 42
f  42 33 43
f  1 6 33
f  50 43 33
f  50 33 53
f  54 53 33
f  54 33 56
f  56 33 57
f  77 57 33
